<svg width="252" height="204" viewBox="0 0 252 204" fill="none" xmlns="http://www.w3.org/2000/svg">
<path d="M208.441 86.3394C203.826 83.5372 196.669 85.4065 194.63 90.5836C193.763 92.7846 194.364 95.2449 196.781 96.1537C199.193 97.0611 201.219 95.6023 202.028 93.3665C201.915 93.6783 201.983 93.5446 202.043 93.4233C202.048 93.419 202.054 93.4152 202.06 93.4111C202.049 93.439 202.034 93.4726 202.017 93.5151C202.037 93.4664 202.145 93.3654 202.22 93.297C202.319 93.2303 202.42 93.1669 202.521 93.1138C202.556 93.0956 202.577 93.0843 202.6 93.0716C202.728 93.0292 202.857 92.9916 202.986 92.9573C203.059 92.9376 203.101 92.9256 203.132 92.9157C203.289 92.9021 203.445 92.896 203.601 92.8973C203.357 92.9095 203.996 93.0122 204.163 93.0084C204.301 93.096 204.633 93.2717 204.705 93.2977C204.761 93.3721 205.082 93.7073 205.182 93.799C205.239 93.9259 205.571 94.488 205.568 94.4248C206.854 97.4796 204.644 100.542 201.736 102.259C200.454 103.015 198.862 103.522 197.296 103.561C195.791 103.598 194.626 103.389 193.314 102.198C190.21 99.3825 189.795 94.0005 189.16 90.0202C188.301 84.6452 187.444 79.2699 186.586 73.8946C185.725 68.5047 185.361 62.9256 182.681 58.0398C177.818 49.1729 165.895 48.162 158.419 54.1304C154.103 57.5759 151.24 62.48 149.952 67.8426C149.758 68.6516 149.588 69.4828 149.438 70.3263C147.99 66.7497 147.044 63.0582 147.125 59.3404C147.207 55.5508 147.269 50.0223 142.759 48.583C141.03 48.0308 139.179 48.5113 137.571 49.4177C137.571 49.4172 137.571 49.4162 137.571 49.4155C137.088 48.3058 136.574 47.2104 136.029 46.1305C135.984 46.0411 135.939 45.952 135.892 45.8635C134.684 43.5523 132.964 41.3949 130.58 40.37C124.708 37.8457 116.57 41.2623 111.358 44.0311C111.183 44.1243 111.016 44.2205 110.859 44.3185C104.967 47.982 111.116 55.0039 114.167 58.7366C114.449 59.0819 114.731 59.4275 115.014 59.7721C115.014 59.7726 115.015 59.7727 115.015 59.7729C112.053 60.6581 109.284 62.0191 107.288 64.5393C104.99 67.44 104.504 71.0924 108.896 71.0538C121.035 70.9453 130.022 76.1756 136.722 86.1385C141.547 93.3146 146.559 100.825 148.384 109.412C150.579 119.741 145.7 126.514 143.344 136.142C141.402 144.076 142.272 152.659 146.642 159.687C152.728 169.477 163.937 174.488 176.047 174.116C176.084 174.179 176.119 174.243 176.158 174.305C178.961 178.814 183.847 179.25 188.356 177.48C195.683 174.604 202.589 170.62 208.705 165.663C213.417 161.844 218.68 156.698 214.72 150.329C214.552 150.058 214.372 149.801 214.181 149.554C221.268 135.324 220.516 118.044 206.24 108.948C208.927 107.339 211.19 105.028 212.549 102.183C215.166 96.7079 213.858 89.6277 208.441 86.3394ZM202.061 93.409C202.055 93.4138 202.05 93.4177 202.043 93.4228C202.092 93.3219 202.134 93.2301 202.061 93.409ZM157.479 69.3545C158.935 65.2429 161.265 61.6369 164.99 59.6153C165.056 59.5801 165.099 59.5558 165.131 59.5367C165.148 59.5296 165.162 59.5243 165.182 59.5161C165.386 59.4327 165.593 59.3547 165.8 59.2825C166.287 59.1139 166.784 58.9735 167.286 58.8594C168.025 58.6916 168.762 58.68 169.934 58.6844C170.574 58.687 169.977 58.6212 170.602 58.7504C171.097 58.8523 171.589 58.9534 172.073 59.1061C172.116 59.12 172.145 59.1288 172.174 59.1382C172.408 59.2369 172.641 59.3481 172.865 59.4661C173.056 59.5666 173.242 59.6765 173.429 59.7866C173.505 59.8352 173.554 59.8661 173.583 59.8833C173.651 59.9377 173.718 59.9917 173.786 60.0461C177.442 63.3109 177.918 68.8755 178.688 73.4704C179.673 79.3509 180.528 85.2566 181.447 91.1482C182.083 95.2222 182.679 99.4455 184.47 103.151C181.479 102.86 178.507 102.462 175.614 101.548C166.999 98.825 161.04 91.0709 156.569 83.6175C156.12 82.8691 155.661 82.1073 155.198 81.3333C155.916 77.3387 156.104 73.2366 157.479 69.3545Z" fill="#DCDCDE"/>
<path d="M204.671 115.608C200.139 112.113 194.428 110.613 188.866 109.292C181.471 107.539 173.87 105.885 167.427 101.832C162.207 98.5459 158.09 93.8512 154.731 88.7219C153.067 86.1774 151.558 83.5361 150.142 80.8488C148.864 78.42 147.563 76.0199 146.689 73.4101C146.616 73.1969 146.512 73.0723 146.388 73.02C145.875 72.7942 145.199 73.3359 144.566 73.6063C143.6 73.8632 142.823 73.6935 142.505 73.6368C141.102 73.3867 141.41 73.4105 140.315 73.1843C139.22 72.9582 139.22 72.958 138.125 72.7317C137.031 72.5051 110.363 67.0703 111.01 68.0389C137.159 72.9884 144.651 91.9764 147.77 97.6514C150.887 103.328 153.072 109.742 152.545 116.187C152.234 119.956 151.016 123.577 149.954 127.206C147.995 133.88 146.532 140.866 147.416 147.779C148.298 154.693 151.87 161.571 157.948 164.973C160.934 166.644 164.262 167.657 167.764 168.095C184.834 170.25 206.046 158.829 211.714 143.663C215.32 134.011 212.851 121.915 204.671 115.608Z" fill="#922929"/>
<path d="M176.047 174.115C176.084 174.178 176.119 174.242 176.158 174.304C178.961 178.813 183.847 179.249 188.356 177.479C195.682 174.603 202.589 170.619 208.705 165.662C213.417 161.843 218.68 156.698 214.719 150.328C214.552 150.058 214.372 149.8 214.181 149.554C210.646 156.653 205.164 162.993 198.434 167.178C191.284 171.623 183.495 173.887 176.047 174.115Z" fill="#B8B7CB"/>
<path d="M204.6 115.34C200.068 111.845 194.358 110.344 188.795 109.024C181.401 107.27 173.799 105.617 167.357 101.563C162.136 98.2774 158.019 93.5828 154.66 88.4535C152.997 85.909 151.488 83.2677 150.071 80.5804C148.793 78.1516 147.493 75.7515 146.618 73.1417C146.545 72.9286 146.441 72.8039 146.317 72.7516C146.033 72.6321 145.505 72.8396 144.921 72.9948C144.337 73.1501 143.86 73.3097 142.435 73.3684C141.41 73.4107 140.315 73.1838 140.315 73.1838C141.628 76.4281 145.864 81.4694 147.735 84.3486C150.96 89.3091 154.242 94.2265 157.588 99.1045C160.189 102.896 162.899 106.739 166.632 109.417C173.152 114.092 181.935 114.623 188.448 119.31C193.679 123.075 196.919 129.383 197.227 135.819C197.536 142.252 194.998 148.706 190.609 153.394C189.538 154.542 188.348 155.597 186.992 156.388C184.903 157.605 182.502 158.149 180.226 158.965C176.446 160.322 172.951 162.461 170.021 165.209C169.172 166.007 168.36 166.872 167.694 167.827C184.764 169.981 205.976 158.56 211.644 143.395C215.25 133.743 212.78 121.647 204.6 115.34Z" fill="#6F1717"/>
<path d="M158.054 153.602C158.966 152.803 159.132 151.458 159.165 150.241C159.319 144.647 158.415 139.244 159.45 133.69C160.136 130.008 161.36 126.445 161.508 122.666C161.73 117.023 157.561 114.743 154.723 120.865C150.726 129.489 149.218 140.353 151.945 149.587C152.358 150.987 152.936 152.413 154.054 153.351C155.172 154.289 156.962 154.56 158.054 153.602Z" fill="#E9B3B3"/>
<path d="M157.495 107.81C155.898 99.1694 150.131 91.088 144.029 84.9705L143.969 84.9101C143.056 83.9973 141.547 83.2761 141.787 85.094C141.926 86.1506 143.358 87.2534 143.987 88.0572C149.049 94.5245 151.997 101.961 154.553 109.683C155.812 113.486 157.964 110.349 157.495 107.81Z" fill="#E9B3B3"/>
<path d="M170.946 127.971C166.872 127.21 166.56 134.814 170.626 134.869C174.56 134.921 174.464 128.628 170.946 127.971Z" fill="#6F1717"/>
<path d="M168.423 146.153C164.884 146.325 166.355 152.937 169.809 152.278C173.387 151.597 171.503 146.003 168.423 146.153Z" fill="#6F1717"/>
<path d="M184.948 151.161C186.949 149.897 187.893 144.386 184.391 144.737C183.523 144.825 182.856 145.545 182.412 146.296C181.213 148.324 181.706 153.207 184.948 151.161Z" fill="#6F1717"/>
<path d="M185.877 130.42C185.549 131.16 185.518 132 185.59 132.808C185.804 135.213 189.09 139.2 191 135.791C192.205 133.638 190.669 128.613 187.678 128.962C186.875 129.056 186.204 129.68 185.877 130.42Z" fill="#6F1717"/>
<path d="M199.533 121.461C200.63 124.345 201.96 127.147 202.838 130.105C203.715 133.062 204.124 136.247 203.335 139.223C202.59 142.031 200.846 144.444 199.557 147.044C199.124 147.917 198.866 149.217 199.732 149.668C200.163 149.892 200.687 149.768 201.143 149.603C205.826 147.905 208.318 141.846 209.131 137.255C210.052 132.049 209.008 126.458 206.058 122.031C205.048 120.516 203.79 119.099 202.153 118.309C201.385 117.939 200.402 117.741 199.733 118.264C198.832 118.969 199.124 120.387 199.533 121.461Z" fill="#922929"/>
<path d="M162.302 158.437C161.889 158.773 161.736 159.345 161.751 159.879C161.773 160.686 162.137 161.478 162.735 162.021C163.68 162.88 165.701 163.173 166.148 161.711C166.543 160.417 165.549 159.079 164.46 158.488C163.788 158.122 162.894 157.955 162.302 158.437Z" fill="#6F1717"/>
<path d="M181.771 123.543C183.59 122.129 181.41 119.375 179.892 118.77C179.376 118.564 178.781 118.469 178.277 118.698C177.56 119.025 177.255 119.91 177.298 120.7C177.405 122.631 179.858 125.028 181.771 123.543Z" fill="#6F1717"/>
<path d="M114.499 59.6592C124.579 58.6812 133.829 52.5455 137.194 49.5999C138.077 49.0249 134.711 44.0469 130.902 39.3566C127.269 34.8829 113.465 41.842 108.648 45.1667C105.036 47.6602 110.221 56.4697 114.499 59.6592Z" fill="#FEFDF6" stroke="#FEFDF6" stroke-width="0.5"/>
<path opacity="0.6" d="M113.599 190.48C113.599 192.946 94.4124 194.946 70.7448 194.946C47.078 194.946 27.8926 192.946 27.8926 190.48C27.8926 188.013 47.0787 186.014 70.7448 186.014C94.4124 186.014 113.599 188.013 113.599 190.48Z" fill="#C4C6C8"/>
<path d="M40.3799 185.104V190.584C40.3799 192.221 53.3195 193.547 69.2819 193.547C85.2442 193.547 98.1838 192.221 98.1838 190.584V185.104H40.3799Z" fill="white"/>
<path d="M69.2821 193.83C57.5504 193.83 40.0967 192.965 40.0967 190.584V185.105C40.0967 184.948 40.2232 184.821 40.3802 184.821H98.1841C98.341 184.821 98.4676 184.948 98.4676 185.105V190.584C98.4676 192.965 81.0139 193.83 69.2821 193.83ZM40.6644 185.387V190.583C40.6644 190.593 40.7576 191.565 48.8746 192.397C54.3234 192.955 61.5715 193.264 69.2821 193.264C76.9928 193.264 84.2409 192.955 89.6897 192.397C97.8059 191.565 97.8999 190.593 97.8999 190.583V185.387H40.6644Z" fill="#CEEBF0"/>
<g opacity="0.5">
<path d="M40.3818 185.103V188.092C43.3061 189.338 46.6862 189.765 49.7274 190.057C54.4013 190.506 59.1182 190.79 63.8113 190.923C66.7615 191.007 69.7138 191.044 72.6647 191.117C75.3691 191.184 78.0617 190.817 80.7632 191.111C82.481 191.298 83.535 192.056 84.2218 193.119C92.5904 192.601 98.1858 191.658 98.1858 190.582V185.103H40.3818Z" fill="#E4E8EB"/>
</g>
<path d="M69.2824 151.288L0.283203 151.286C0.283203 151.286 9.62723 168.17 40.3807 186.466C40.3807 186.466 48.2453 188.707 65.4938 189.221C65.4938 189.221 68.0731 189.319 69.2824 189.303C70.4918 189.318 73.0711 189.221 73.0711 189.221C90.3196 188.707 98.1842 186.466 98.1842 186.466C128.938 168.17 138.282 151.286 138.282 151.286L69.2824 151.288Z" fill="white"/>
<path d="M69.5885 189.586L69.2791 189.585L68.9779 189.586C67.6975 189.586 65.5053 189.504 65.4831 189.504C48.3996 188.994 40.3826 186.76 40.3034 186.737C40.2805 186.73 40.2575 186.721 40.236 186.708C9.76897 168.583 0.129638 151.592 0.0356431 151.422C-0.0132049 151.334 -0.0117238 151.227 0.0393445 151.142C0.0904129 151.055 0.183668 151.003 0.283584 151.003L69.2828 151.004L138.282 151.003C138.382 151.003 138.475 151.055 138.526 151.142C138.577 151.227 138.579 151.334 138.53 151.422C138.436 151.592 128.797 168.583 98.3296 186.708C98.3082 186.72 98.2852 186.73 98.2623 186.736C98.1831 186.759 90.1661 188.994 73.0797 189.503C73.0611 189.504 70.8689 189.586 69.5885 189.586ZM69.2791 189.019L69.5885 189.02C70.8578 189.02 73.0397 188.938 73.0612 188.938C89.4963 188.448 97.4844 186.362 98.0721 186.203C125.721 169.747 136.102 154.284 137.783 151.568L69.2836 151.569L0.783907 151.568C2.4662 154.286 12.8605 169.756 40.4943 186.203C41.0827 186.362 49.0701 188.448 65.503 188.938C65.5275 188.938 67.7086 189.02 68.9779 189.02L69.2791 189.019Z" fill="#CEEBF0"/>
<path d="M69.2824 151.288L0.283203 151.286C0.283203 151.286 9.62723 168.17 40.3807 186.466C40.3807 186.466 48.2453 188.707 65.4938 189.221C65.4938 189.221 68.0731 189.319 69.2824 189.303C70.4918 189.318 73.0711 189.221 73.0711 189.221C90.3196 188.707 98.1842 186.466 98.1842 186.466C128.938 168.17 138.282 151.286 138.282 151.286L69.2824 151.288Z" fill="white"/>
<path d="M69.5885 189.586L69.2791 189.585L68.9779 189.586C67.6975 189.586 65.5053 189.504 65.4831 189.504C48.3996 188.994 40.3826 186.76 40.3034 186.737C40.2805 186.73 40.2575 186.721 40.236 186.708C9.76897 168.583 0.129638 151.592 0.0356431 151.422C-0.0132049 151.334 -0.0117238 151.227 0.0393445 151.142C0.0904129 151.055 0.183668 151.003 0.283584 151.003L69.2828 151.004L138.282 151.003C138.382 151.003 138.475 151.055 138.526 151.142C138.577 151.227 138.579 151.334 138.53 151.422C138.436 151.592 128.797 168.583 98.3296 186.708C98.3082 186.72 98.2852 186.73 98.2623 186.736C98.1831 186.759 90.1661 188.994 73.0797 189.503C73.0611 189.504 70.8689 189.586 69.5885 189.586ZM69.2791 189.019L69.5885 189.02C70.8578 189.02 73.0397 188.938 73.0612 188.938C89.4963 188.448 97.4844 186.362 98.0721 186.203C125.721 169.747 136.102 154.284 137.783 151.568L69.2836 151.569L0.783907 151.568C2.4662 154.286 12.8605 169.756 40.4943 186.203C41.0827 186.362 49.0701 188.448 65.503 188.938C65.5275 188.938 67.7086 189.02 68.9779 189.02L69.2791 189.019Z" fill="#CEEBF0"/>
<path opacity="0.5" d="M69.2824 151.287L0.283203 151.285C0.283203 151.285 9.62723 168.169 40.3807 186.465C40.3807 186.465 48.2453 188.706 65.4938 189.22C65.4938 189.22 68.0731 189.318 69.2824 189.302C70.4918 189.317 73.0711 189.22 73.0711 189.22C90.3196 188.706 98.1842 186.465 98.1842 186.465C128.938 168.169 138.282 151.285 138.282 151.285L69.2824 151.287ZM91.2352 175.571C84.4246 181.937 75.344 186.605 53.9205 184.2C32.497 181.796 20.7209 169.771 15.3291 165.669C9.93734 161.567 7.38392 156.616 12.6336 157.275C17.8833 157.934 25.6864 158.358 25.6864 158.358C34.6729 159.013 72.2229 161.002 83.999 160.435C95.7751 159.869 98.045 169.206 91.2352 175.571Z" fill="#E4E8EB"/>
<path opacity="0.5" d="M122.234 151.285C117.13 161.4 110.054 171.035 101.05 177.837C95.755 181.837 89.8074 183.645 83.3831 184.948C82.8813 185.05 82.3751 185.15 81.8673 185.25C76.7117 186.465 71.328 186.682 66.028 186.745C56.2384 186.863 46.1269 186.736 36.7207 184.223C37.9101 184.967 39.1209 185.714 40.3806 186.463C40.3806 186.463 48.2451 188.704 65.4936 189.218C65.4936 189.218 68.073 189.316 69.2823 189.3C70.4917 189.315 73.071 189.218 73.071 189.218C90.3195 188.704 98.184 186.463 98.184 186.463C128.938 168.167 138.282 151.283 138.282 151.283L122.234 151.285Z" fill="#E4E8EB"/>
<path d="M69.2842 158.357C31.1753 158.357 0.28418 155.191 0.28418 151.284C0.28418 147.381 31.1753 144.215 69.2842 144.215C107.392 144.215 138.283 147.381 138.283 151.284C138.283 155.191 107.392 158.357 69.2842 158.357Z" fill="white"/>
<path d="M69.2844 158.64C35.227 158.64 0.000976562 155.889 0.000976562 151.284C0.000976562 146.683 35.2278 143.932 69.2844 143.932C103.34 143.932 138.566 146.683 138.566 151.284C138.566 155.89 103.34 158.64 69.2844 158.64ZM69.2844 144.498C28.1803 144.498 0.567908 148.007 0.567908 151.284C0.567908 154.563 28.1803 158.074 69.2844 158.074C110.388 158.074 137.999 154.563 137.999 151.284C137.999 148.007 110.388 144.498 69.2844 144.498Z" fill="#CEEBF0"/>
<path d="M69.1498 157.275C31.8758 157.275 1.66113 154.595 1.66113 151.286C1.66113 147.981 31.8751 145.3 69.1498 145.3C106.422 145.3 136.637 147.981 136.637 151.286C136.637 154.595 106.422 157.275 69.1498 157.275Z" fill="white"/>
<path d="M69.1501 157.558C36.2961 157.558 1.37793 155.36 1.37793 151.285C1.37793 149.468 8.11599 147.949 21.4034 146.77C34.1594 145.639 51.1163 145.016 69.1508 145.016C102.005 145.016 136.921 147.213 136.921 151.285C136.921 153.104 130.184 154.623 116.896 155.802C104.142 156.934 87.1861 157.558 69.1501 157.558ZM69.1501 145.581C29.5454 145.581 1.9456 148.587 1.9456 151.284C1.9456 153.983 29.5462 156.991 69.1501 156.991C108.754 156.991 136.354 153.983 136.354 151.284C136.354 148.587 108.754 145.581 69.1501 145.581Z" fill="#CEEBF0"/>
<path opacity="0.5" d="M69.1508 157.274C31.8768 157.274 1.66211 154.594 1.66211 151.285C1.66211 147.98 31.8761 145.299 69.1508 145.299C106.423 145.299 136.638 147.98 136.638 151.285C136.638 154.594 106.423 157.274 69.1508 157.274Z" fill="#E4E8EB"/>
<ellipse cx="68.87" cy="152.676" rx="63.7684" ry="4.37269" fill="#922929"/>
<path d="M94.2429 147.413C94.7325 145.948 95.7806 144.555 97.3577 143.916C98.9349 143.277 101.06 143.597 102.014 144.873C102.533 145.568 102.656 146.426 102.933 147.221C103.21 148.016 103.751 148.842 104.663 149.063C106.138 149.419 107.707 148.016 109.11 148.551C110.078 148.921 110.361 150.069 110.041 150.953C109.535 152.354 107.974 153.251 106.412 153.775C105.789 153.984 105.136 154.156 104.47 154.138C103.556 154.114 102.709 153.74 101.868 153.426C100.693 152.986 99.4688 152.649 98.219 152.418C97.2263 152.235 95.739 152.366 94.8351 151.984C93.0309 151.222 93.7683 148.833 94.2429 147.413Z" fill="#6F1717"/>
<path d="M98.7361 151.583C99.0391 150.829 100.008 150.536 100.8 150.717C101.592 150.898 102.251 151.427 102.894 151.923C103.537 152.42 104.236 152.914 105.044 153.002C106.493 153.16 107.762 151.947 108.37 150.623C109.325 148.544 109.231 146.033 110.514 144.138C110.687 143.883 110.895 143.633 111.18 143.513C111.464 143.392 111.84 143.44 112.017 143.693C112.104 143.818 112.133 143.975 112.151 144.127C112.391 146.096 111.309 147.945 110.544 149.775C110.407 150.102 110.283 150.492 110.465 150.796C110.629 151.067 110.982 151.161 111.299 151.156C111.616 151.151 111.933 151.073 112.248 151.105C112.884 151.171 113.41 151.695 113.612 152.301C113.769 152.77 113.867 153.759 113.533 154.183C113.187 154.62 112.68 154.421 112.217 154.483C111.572 154.569 110.906 154.865 110.272 155.027C108.665 155.439 107.02 155.807 105.36 155.855C103.602 155.905 101.847 155.811 100.091 155.745C96.4528 155.609 92.8259 155.171 89.2613 154.43C89.1053 154.397 88.9433 154.362 88.8171 154.264C88.4961 154.017 88.5559 153.514 88.7213 153.144C89.3728 151.686 91.1275 150.753 91.2536 149.162C91.3202 148.323 90.8923 147.525 90.3938 146.847C89.6947 145.897 88.8309 145.069 88.2056 144.069C87.5803 143.068 87.2122 141.806 87.6337 140.704C88.0552 139.602 89.4941 138.884 90.4892 139.517C91.1951 139.967 91.4443 140.897 91.3919 141.732C91.3395 142.567 91.0492 143.369 90.9279 144.197C90.8067 145.025 90.8877 145.953 91.4612 146.562C92.0348 147.172 93.2105 147.212 93.6136 146.478C94.0731 145.642 93.3549 144.362 94.0822 143.745C94.4022 143.473 94.9011 143.486 95.2612 143.702C95.6212 143.918 95.8562 144.299 95.9893 144.698C96.5022 146.232 95.6647 147.862 95.526 149.474C95.5088 149.674 95.508 149.893 95.6303 150.052C95.8303 150.312 96.2238 150.27 96.5499 150.237C97.0304 150.189 97.5344 150.221 97.964 150.442C98.393 150.663 98.7331 151.1 98.7361 151.583Z" fill="#922929"/>
<path d="M96.5784 141.745C96.5784 142.242 96.1758 142.645 95.679 142.645C95.1822 142.645 94.7793 142.242 94.7793 141.745C94.7793 141.248 95.182 140.846 95.679 140.846C96.1758 140.846 96.5784 141.248 96.5784 141.745Z" fill="#922929"/>
<path d="M91.785 136.889C91.785 137.027 91.6728 137.14 91.5346 137.14C91.3963 137.14 91.2842 137.027 91.2842 136.889C91.2842 136.751 91.3963 136.639 91.5346 136.639C91.6728 136.639 91.785 136.751 91.785 136.889Z" fill="#922929"/>
<path d="M99.6736 134.409C99.6736 135.187 99.043 135.817 98.265 135.817C97.4871 135.817 96.8564 135.187 96.8564 134.409C96.8564 133.631 97.4871 133 98.265 133C99.043 133 99.6736 133.631 99.6736 134.409Z" fill="#922929"/>
<path d="M97.7225 148.177C97.7225 148.518 97.4464 148.794 97.1059 148.794C96.7653 148.794 96.4893 148.518 96.4893 148.177C96.4893 147.837 96.7653 147.561 97.1059 147.561C97.4464 147.561 97.7225 147.837 97.7225 148.177Z" fill="#922929"/>
<path d="M109.19 143.061C109.19 143.788 108.601 144.376 107.875 144.376C107.148 144.376 106.56 143.787 106.56 143.061C106.56 142.335 107.148 141.746 107.875 141.746C108.601 141.746 109.19 142.335 109.19 143.061Z" fill="#922929"/>
<path d="M106.297 147.139C106.297 147.315 106.154 147.458 105.978 147.458C105.801 147.458 105.658 147.315 105.658 147.139C105.658 146.962 105.801 146.819 105.978 146.819C106.154 146.819 106.297 146.962 106.297 147.139Z" fill="#922929"/>
<path d="M107.43 144.954C107.43 145.131 107.287 145.273 107.11 145.273C106.934 145.273 106.791 145.131 106.791 144.954C106.791 144.778 106.934 144.635 107.11 144.635C107.287 144.635 107.43 144.778 107.43 144.954Z" fill="#922929"/>
<path d="M98.042 146.499C98.042 146.675 97.8991 146.818 97.7227 146.818C97.5462 146.818 97.4033 146.675 97.4033 146.499C97.4033 146.323 97.5462 146.18 97.7227 146.18C97.8989 146.18 98.042 146.323 98.042 146.499Z" fill="#922929"/>
<path d="M90.5947 137.37C90.5947 137.77 90.2705 138.094 89.8706 138.094C89.4707 138.094 89.1465 137.77 89.1465 137.37C89.1465 136.97 89.4707 136.646 89.8706 136.646C90.2705 136.646 90.5947 136.97 90.5947 137.37Z" fill="#922929"/>
<path d="M115.323 149.96C115.323 150.181 115.144 150.36 114.923 150.36C114.702 150.36 114.523 150.181 114.523 149.96C114.523 149.74 114.702 149.561 114.923 149.561C115.144 149.561 115.323 149.74 115.323 149.96Z" fill="#922929"/>
<path d="M89.4658 153.77C89.4749 153.247 89.7945 152.804 90.0988 152.405C90.4416 151.955 90.7707 151.502 91.0576 151.014" stroke="white" stroke-miterlimit="10" stroke-linecap="round" stroke-linejoin="round"/>
<path d="M88.7796 139.845C88.1526 140.58 87.9048 141.622 88.1336 142.56" stroke="white" stroke-miterlimit="10" stroke-linecap="round" stroke-linejoin="round"/>
<path d="M91.7324 148.054C91.8539 148.034 91.9402 148.168 91.9826 148.283C92.1497 148.738 92.1902 149.238 92.098 149.713" stroke="white" stroke-miterlimit="10" stroke-linecap="round" stroke-linejoin="round"/>
<path d="M111.35 144.069C111.031 144.247 110.812 144.59 110.783 144.954" stroke="white" stroke-miterlimit="10" stroke-linecap="round" stroke-linejoin="round"/>
<path d="M107.459 142.446C107.21 142.624 107.074 142.947 107.119 143.249" stroke="white" stroke-miterlimit="10" stroke-linecap="round" stroke-linejoin="round"/>
</svg>
