<svg width="355" height="379" viewBox="0 0 355 379" fill="none" xmlns="http://www.w3.org/2000/svg">
<path d="M182.336 48.6537V275.883L186.209 270.611L185.537 46.2617L182.336 48.6537Z" fill="#FDD849"/>
<path d="M182.334 48.6533H29.0137V275.882H182.334V48.6533Z" fill="#FDD849"/>
<path opacity="0.5" d="M182.334 48.6533H29.0137V275.882H182.334V48.6533Z" fill="#F19C25"/>
<path d="M175.931 53.6244V289.963C175.931 289.963 163.186 292.945 157.997 318.508L6.95801 67.9893C6.95801 67.9893 11.0456 48.3706 30.4363 48.8252C44.7165 49.16 175.931 53.6244 175.931 53.6244Z" fill="white"/>
<path opacity="0.15" d="M175.931 53.6244V289.963C175.931 289.963 163.186 292.945 157.997 318.508L6.95801 67.9893C6.95801 67.9893 11.0456 48.3706 30.4363 48.8252C44.7165 49.16 175.931 53.6244 175.931 53.6244Z" fill="#B8BBBC"/>
<g opacity="0.16">
<path d="M150.348 82.15C144.549 96.0084 141.881 111.392 137.601 126.022C133.101 141.405 126.808 155.965 119.761 169.91C112.16 184.95 103.649 199.327 94.334 212.912L157.998 318.508C163.187 292.945 175.932 289.963 175.932 289.963V53.6238C175.932 53.6238 175.89 53.6208 175.818 53.6162C164.486 57.6138 155.706 69.3464 150.348 82.15Z" fill="#B8BBBC"/>
</g>
<g opacity="0.05">
<path d="M174.548 148.859C173.6 149.867 172.625 150.894 171.447 151.456C168.686 152.772 165.596 151.247 162.94 149.652C160.282 148.057 157.342 146.317 154.469 147.232C144.919 150.274 140.21 165.508 136.931 176.673C131.497 195.175 132.285 215.461 128.434 234.525C126.8 242.62 124.348 250.376 121.49 257.955L157.102 317.023C162.291 291.46 175.932 289.964 175.932 289.964V147.388C175.47 147.878 175.009 148.368 174.548 148.859Z" fill="#B8BBBC"/>
</g>
<path d="M157.1 317.022L157.997 67.9893H6.95801V309.988L157.1 317.022Z" fill="white"/>
<path d="M6.95801 63.2874C56.2348 63.0914 111.24 63.6886 160.479 65.0265C111.228 65.2484 56.2119 64.5993 6.95801 63.2874Z" fill="#B8BBBC"/>
<path d="M6.95801 59.6472C57.9152 59.4382 114.796 60.0354 165.716 61.3863C114.785 61.6212 57.8923 60.9721 6.95801 59.6472Z" fill="#B8BBBC"/>
<path d="M10.7549 56.0096C61.3375 55.7846 117.562 56.3941 168.127 57.7334C117.545 57.9646 61.3208 57.3422 10.7549 56.0096Z" fill="#B8BBBC"/>
<path d="M12.0654 52.3711C63.6534 52.169 121.238 52.7738 172.788 54.1315C121.227 54.3603 63.6297 53.7029 12.0654 52.3711Z" fill="#B8BBBC"/>
<g opacity="0.5">
<path d="M161.637 66.457C162.398 142.905 162.405 228.67 161.637 305.117C160.869 228.669 160.875 142.905 161.637 66.457Z" fill="#B8BBBC"/>
</g>
<g opacity="0.5">
<path d="M165.193 60.9033C165.954 137.351 165.961 223.115 165.193 299.563C164.425 223.115 164.431 137.351 165.193 60.9033Z" fill="#B8BBBC"/>
</g>
<g opacity="0.5">
<path d="M168.989 56.8154C169.75 133.263 169.757 219.028 168.989 295.475C168.22 219.028 168.227 133.263 168.989 56.8154Z" fill="#B8BBBC"/>
</g>
<g opacity="0.5">
<path d="M172.79 56.0107C173.552 132.458 173.558 218.223 172.79 294.67C172.022 218.223 172.029 132.458 172.79 56.0107Z" fill="#B8BBBC"/>
</g>
<g opacity="0.5">
<path d="M119.57 82.8708C119.57 82.873 119.57 82.876 119.57 82.8783C119.503 82.8738 119.503 82.867 119.57 82.8633C119.57 82.8655 119.57 82.8678 119.57 82.8708Z" fill="#B8BBBC"/>
<path d="M128.709 82.87C128.709 82.8678 128.709 82.8655 128.709 82.8633C128.771 82.867 128.771 82.8738 128.709 82.8775C128.709 82.8745 128.709 82.8723 128.709 82.87Z" fill="#B8BBBC"/>
<path d="M119.569 82.8625C122.027 82.7084 124.004 79.787 124.131 76.1357C124.259 79.7939 126.243 82.7183 128.706 82.8632C128.706 82.8655 128.706 82.8678 128.706 82.8701C128.706 82.8724 128.706 82.8747 128.706 82.8769C126.243 83.0219 124.258 85.9463 124.131 89.6044C124.004 85.9531 122.027 83.0318 119.569 82.8777C119.569 82.8754 119.569 82.8724 119.569 82.8701C119.569 82.867 119.569 82.8647 119.569 82.8625Z" fill="#B8BBBC"/>
<path d="M144.692 90.2946C144.692 90.2969 144.692 90.2999 144.692 90.3021C144.625 90.2976 144.625 90.2909 144.692 90.2871C144.692 90.2894 144.692 90.2916 144.692 90.2946Z" fill="#B8BBBC"/>
<path d="M153.83 90.2948C153.83 90.2926 153.83 90.2903 153.83 90.2881C153.892 90.2918 153.892 90.2986 153.83 90.3023C153.83 90.2993 153.83 90.2971 153.83 90.2948Z" fill="#B8BBBC"/>
<path d="M144.691 90.2873C147.149 90.1332 149.126 87.2118 149.253 83.5605C149.381 87.2187 151.365 90.1431 153.828 90.288C153.828 90.2903 153.828 90.2926 153.828 90.2949C153.828 90.2972 153.828 90.2995 153.828 90.3018C151.365 90.4467 149.381 93.3711 149.253 97.0292C149.126 93.3779 147.149 90.4566 144.691 90.3025C144.691 90.3002 144.691 90.2972 144.691 90.2949C144.691 90.2918 144.691 90.2895 144.691 90.2873Z" fill="#B8BBBC"/>
<path d="M136.305 252.223C136.305 252.226 136.305 252.229 136.305 252.231C136.238 252.226 136.238 252.22 136.305 252.216C136.305 252.219 136.305 252.221 136.305 252.223Z" fill="#B8BBBC"/>
<path d="M145.442 252.224C145.442 252.221 145.442 252.219 145.442 252.217C145.505 252.221 145.505 252.227 145.442 252.231C145.442 252.229 145.442 252.227 145.442 252.224Z" fill="#B8BBBC"/>
<path d="M136.306 252.216C138.763 252.062 140.74 249.141 140.868 245.489C140.995 249.147 142.979 252.072 145.443 252.217C145.443 252.219 145.443 252.221 145.443 252.224C145.443 252.226 145.443 252.228 145.443 252.23C142.979 252.375 140.995 255.3 140.868 258.958C140.74 255.307 138.763 252.385 136.306 252.231C136.306 252.229 136.306 252.226 136.306 252.224C136.306 252.221 136.306 252.219 136.306 252.216Z" fill="#B8BBBC"/>
<path d="M121.621 115.183C122.202 115.183 122.672 114.62 122.672 113.925C122.672 113.229 122.202 112.666 121.621 112.666C121.041 112.666 120.57 113.229 120.57 113.925C120.57 114.62 121.041 115.183 121.621 115.183Z" fill="#B8BBBC"/>
<path d="M138.736 117.701C138.736 118.396 139.207 118.959 139.787 118.959C140.368 118.959 140.838 118.396 140.838 117.701C140.838 117.006 140.368 116.442 139.787 116.442C139.207 116.442 138.736 117.006 138.736 117.701Z" fill="#B8BBBC"/>
<path d="M119.518 271.527C119.518 272.222 119.988 272.786 120.569 272.786C121.149 272.786 121.62 272.222 121.62 271.527C121.62 270.832 121.149 270.269 120.569 270.269C119.988 270.269 119.518 270.832 119.518 271.527Z" fill="#B8BBBC"/>
<path d="M82.668 82.8708C82.668 83.5657 83.1386 84.1294 83.719 84.1294C84.2995 84.1294 84.7701 83.5657 84.7701 82.8708C84.7701 82.176 84.2995 81.6123 83.719 81.6123C83.1386 81.6123 82.668 82.176 82.668 82.8708Z" fill="#B8BBBC"/>
</g>
<path d="M104.073 107.189L108.816 103.352V361.537L104.073 365.374V107.189Z" fill="#FDD849"/>
<g opacity="0.5">
<path d="M104.073 107.189L108.816 103.352V361.537L104.073 365.374V107.189Z" fill="#F19C25"/>
</g>
<path d="M104.074 107.189C104.074 107.189 12.295 75.6586 3.40207 71.3978C-5.49086 67.1371 5.18081 56.9117 11.2279 52.2253C17.275 47.539 26.1687 41.9999 36.1295 44.5566L185.537 46.2606L182.335 49.6693L29.0145 48.8173C29.0145 48.8173 21.1887 48.8173 13.7183 57.7644C6.2479 66.7115 10.1608 67.1379 19.7654 70.5458C29.37 73.9546 108.817 103.352 108.817 103.352L104.074 107.189Z" fill="#FDD849"/>
<path d="M104.074 107.189C104.074 107.189 12.295 75.6586 3.40207 71.3978C-5.49086 67.1371 5.18081 56.9117 11.2279 52.2253C17.275 47.539 26.1687 41.9999 36.1295 44.5566L185.537 46.2606L182.335 49.6693L29.0145 48.8173C29.0145 48.8173 21.1887 48.8173 13.7183 57.7644C6.2479 66.7115 10.1608 67.1379 19.7654 70.5458C29.37 73.9546 108.817 103.352 108.817 103.352L104.074 107.189Z" fill="#F19C25"/>
<path d="M0 67.9893V311.265C0 311.265 4.26912 323.195 12.6502 320.212L104.074 365.374V107.189L0 67.9893Z" fill="#FDD849"/>
<g opacity="0.5">
<path d="M30.4368 79.4534L0 67.9893V311.265C0 311.265 4.26912 323.195 12.6502 320.212L29.9761 328.771L30.4368 320.212V79.4534Z" fill="#F19C25"/>
</g>
<path d="M0 67.9893V311.265C0 311.265 4.26912 323.195 12.6502 320.212V72.7542L0 67.9893Z" fill="#FDD849"/>
<path d="M108.814 307.253C113.305 312.173 118.207 316.687 124.1 319.895C133.179 324.837 145.293 325.997 153.688 320.041C165.876 311.395 164.841 293.01 174.698 281.951C179.981 276.023 188.329 272.755 196.416 273.447C204.504 274.14 212.119 278.776 216.23 285.508C220.889 293.14 220.941 302.473 223.059 311.085C226.844 326.471 237.871 340.067 252.468 347.346C256.986 349.6 262.067 351.299 267.102 350.581C273.168 349.715 278.058 345.564 282.915 341.964C293.415 334.178 307.945 328.198 319.602 334.274C324.761 336.964 328.446 341.612 331.969 346.124C340.975 357.657 352.626 367.472 361.632 379.005V-0.00390625C337.847 13.1246 319.589 33.6296 301.938 53.8113C293.928 62.9697 285.658 72.3698 274.671 77.9936C264.045 83.4328 251.276 84.8789 239.626 81.9622C227.839 79.0111 217.001 71.7817 204.823 71.9686C195.783 72.1074 187.169 76.5161 180.948 82.8233C174.727 89.1313 170.716 97.2004 168.112 105.524C165.587 113.6 164.264 122.097 160.384 129.659C153.428 143.215 138.015 152.341 122.293 152.214C117.963 152.179 113.155 150.519 108.813 149.833L108.814 307.253Z" fill="#15509D"/>
<path d="M109.582 142.95C110.261 144.849 112.488 146.139 114.315 146.739C116.489 147.452 118.835 147.61 121.108 147.621C125.494 147.641 129.957 146.822 134.094 145.387C142.502 142.468 149.988 137.088 155.416 130.036C156.915 128.09 158.289 126.024 159.399 123.83C159.949 122.742 160.479 121.628 160.881 120.477C161.307 119.261 161.822 118.047 161.526 116.754C161.359 116.024 160.46 115.9 159.957 116.34C159.18 117.021 158.897 117.956 158.467 118.869C158.001 119.856 157.539 120.848 157.039 121.817C156.118 123.6 155.099 125.329 153.949 126.973C151.641 130.272 148.81 133.208 145.671 135.723C139.416 140.733 131.569 144.052 123.571 144.782C121.299 144.989 118.999 145.061 116.728 144.814C115.566 144.687 114.411 144.433 113.288 144.108C112.097 143.764 111.101 143.13 109.974 142.648C109.785 142.566 109.493 142.705 109.582 142.95Z" fill="#15509D"/>
<path d="M162.999 112.256C163.101 112.109 163.206 111.964 163.304 111.815C163.598 111.366 163.708 110.749 163.398 110.272C163.447 110.454 163.496 110.636 163.546 110.819C163.54 110.704 163.537 110.573 163.505 110.472C163.444 110.286 163.354 110.14 163.222 109.992C162.972 109.714 162.566 109.647 162.219 109.726C162.03 109.77 161.817 109.895 161.695 110.051C161.854 109.958 162.013 109.865 162.173 109.772C162.074 109.813 161.959 109.847 161.866 109.901C161.789 109.961 161.713 110.02 161.636 110.079C161.628 110.085 161.62 110.092 161.612 110.098C161.521 110.192 161.444 110.305 161.387 110.422C161.341 110.52 161.285 110.63 161.254 110.733C161.223 110.837 161.209 110.971 161.202 111.079C161.199 111.128 161.198 111.177 161.197 111.226C161.19 111.405 161.194 111.585 161.193 111.765C161.192 111.98 161.271 112.184 161.401 112.353C161.525 112.513 161.702 112.654 161.904 112.7C162.075 112.739 162.249 112.739 162.419 112.7C162.67 112.645 162.859 112.457 162.999 112.256Z" fill="#15509D"/>
<path d="M108.435 312.513C109.214 314.377 110.76 316.08 112.031 317.64C113.355 319.267 114.8 320.82 116.319 322.266C119.397 325.198 123.007 327.495 127.004 328.95C134.719 331.759 143.322 331.347 150.746 327.872C152.768 326.926 154.672 325.751 156.443 324.391C157.34 323.703 158.206 322.976 159.025 322.196C159.395 321.844 159.729 321.469 160.051 321.073C160.487 320.536 160.568 320.044 160.864 319.44C161.198 318.761 160.467 317.789 159.727 318.303C159.355 318.562 158.93 318.675 158.565 318.927C158.198 319.179 157.857 319.535 157.527 319.838C156.855 320.456 156.204 321.09 155.498 321.671C154.063 322.851 152.491 323.873 150.855 324.75C147.669 326.457 144.115 327.605 140.515 327.979C132.597 328.799 124.87 326.228 118.7 321.286C116.973 319.902 115.365 318.375 113.83 316.783C113.023 315.945 112.198 315.125 111.394 314.283C110.642 313.497 109.93 312.666 109.014 312.07C108.746 311.894 108.3 312.191 108.435 312.513Z" fill="#15509D"/>
<path d="M164.823 314.917C164.84 314.885 164.859 314.853 164.876 314.821C164.885 314.806 164.894 314.79 164.902 314.774C165.014 314.572 165.071 314.384 165.07 314.151C165.069 313.98 165.06 313.925 165.022 313.816C164.981 313.72 164.942 313.626 164.901 313.53C164.827 313.391 164.724 313.28 164.594 313.195C164.519 313.121 164.432 313.07 164.331 313.042C164.189 312.967 164.036 312.933 163.872 312.939C163.758 312.94 163.67 312.946 163.537 312.983C163.435 313.015 163.336 313.057 163.241 313.107C163.158 313.17 163.077 313.234 162.994 313.297C162.982 313.311 162.97 313.325 162.958 313.34C162.934 313.367 162.911 313.395 162.887 313.422C162.734 313.576 162.628 313.758 162.57 313.966C162.555 314.075 162.541 314.184 162.525 314.294C162.526 314.517 162.583 314.724 162.694 314.916C162.772 315.06 162.877 315.176 163.011 315.262C163.13 315.371 163.27 315.444 163.431 315.482C163.595 315.533 163.759 315.541 163.923 315.504C164.087 315.497 164.239 315.448 164.381 315.358C164.566 315.25 164.713 315.102 164.823 314.917Z" fill="#15509D"/>
<path d="M262.794 77.7774C269.856 76.9704 276.342 73.1734 281.925 68.9561C287.886 64.4529 293.054 59.0625 297.801 53.3121C307.835 41.1554 316.119 27.512 327.633 16.6222C330.618 13.7993 333.796 11.1815 337.22 8.90774C340.663 6.62101 344.314 4.9338 348.054 3.21074C349.295 2.63944 348.415 0.635692 347.132 1.02164C343.689 2.05746 340.399 3.87129 337.358 5.76367C334.268 7.68733 331.351 9.89321 328.594 12.2699C322.939 17.1455 318.012 22.7891 313.411 28.6516C303.71 41.0127 295.179 54.3922 283.182 64.7389C280.134 67.3681 276.865 69.738 273.405 71.7982C269.951 73.8545 266.283 75.5379 262.65 77.245C262.4 77.3617 262.514 77.8094 262.794 77.7774Z" fill="#15509D"/>
<path d="M252.738 76.9739C252.853 77.1303 252.954 77.2645 253.105 77.3812C253.278 77.5147 253.49 77.5894 253.696 77.6581C253.542 77.5681 253.387 77.4773 253.232 77.3873C253.239 77.3957 253.246 77.4041 253.253 77.4117C253.327 77.4689 253.4 77.5254 253.474 77.5826C253.555 77.6291 253.671 77.6695 253.757 77.7008C253.786 77.7115 253.816 77.7214 253.846 77.7298C253.947 77.7435 254.05 77.7572 254.151 77.771C254.159 77.7717 254.168 77.7725 254.176 77.7725C254.279 77.771 254.406 77.745 254.507 77.7275C254.545 77.7206 254.581 77.7138 254.618 77.7054C254.651 77.6977 254.683 77.6894 254.715 77.681C254.732 77.6764 254.748 77.6718 254.764 77.6665C254.815 77.6512 254.865 77.6306 254.913 77.6047C255.011 77.5772 255.095 77.5277 255.168 77.4567C255.255 77.4056 255.323 77.3362 255.374 77.25C255.407 77.2088 255.439 77.1676 255.47 77.1257C255.502 77.0723 255.575 76.8999 255.592 76.8397C255.598 76.8183 255.603 76.7977 255.607 76.7763C255.619 76.6848 255.632 76.5933 255.644 76.5018C255.649 76.3599 255.619 76.2272 255.555 76.1036C255.53 76.0159 255.486 75.9404 255.422 75.8755C255.349 75.7627 255.252 75.6742 255.132 75.6093C255.114 75.5971 255.097 75.5842 255.08 75.5712C255.156 75.6292 255.231 75.6879 255.307 75.7459C255.111 75.5941 255.022 75.5056 254.775 75.4392C254.569 75.3836 254.343 75.392 254.138 75.4469C254.081 75.4621 254.025 75.4781 253.967 75.4903C253.818 75.5216 253.691 75.5605 253.552 75.6467C253.532 75.6589 253.513 75.6711 253.493 75.6841C253.301 75.8054 253.185 75.919 253.066 76.1128C253.191 75.9869 253.317 75.861 253.443 75.7352C253.417 75.7482 253.389 75.7604 253.362 75.7726C253.442 75.7382 253.523 75.7039 253.604 75.6704C253.567 75.6864 253.529 75.7009 253.491 75.7146C253.385 75.7527 253.265 75.7848 253.173 75.8504C253.118 75.89 253.061 75.9297 253.002 75.964C252.849 76.054 252.703 76.2295 252.663 76.4057C252.622 76.5872 252.623 76.8168 252.738 76.9739Z" fill="#15509D"/>
<path d="M221.454 325.144C221.544 325.26 221.635 325.377 221.725 325.493C221.815 325.608 221.9 325.73 221.998 325.839C222.085 325.933 222.189 325.999 222.308 326.038C222.423 326.099 222.546 326.126 222.679 326.122C222.765 326.11 222.85 326.099 222.935 326.087C223.061 326.057 223.17 325.999 223.263 325.915C223.336 325.872 223.394 325.814 223.437 325.742C223.522 325.649 223.579 325.54 223.609 325.414C223.62 325.328 223.632 325.243 223.643 325.157C223.642 324.983 223.599 324.822 223.512 324.672C223.498 324.648 223.483 324.625 223.469 324.601C223.469 324.93 223.469 325.258 223.469 325.587C223.475 325.574 223.482 325.56 223.488 325.547C223.525 325.459 223.562 325.372 223.599 325.285C223.645 325.138 223.652 324.993 223.619 324.846C223.619 324.747 223.594 324.655 223.544 324.569C223.5 324.432 223.424 324.315 223.317 324.215C223.18 324.054 223.042 323.893 222.906 323.732C222.806 323.624 222.688 323.549 222.552 323.505C222.421 323.436 222.279 323.404 222.128 323.41C221.977 323.404 221.836 323.436 221.705 323.505C221.569 323.549 221.451 323.625 221.351 323.732C221.294 323.806 221.237 323.88 221.18 323.955C221.08 324.126 221.03 324.311 221.029 324.51C221.042 324.607 221.055 324.704 221.068 324.802C221.121 324.988 221.215 325.15 221.351 325.287C221.488 325.448 221.625 325.609 221.762 325.771C221.9 325.907 222.061 326.001 222.247 326.054C222.442 326.106 222.637 326.106 222.832 326.054C222.85 326.048 222.868 326.042 222.886 326.037C222.569 325.953 222.253 325.87 221.936 325.786C221.958 325.804 221.978 325.823 222 325.841C222.389 325.337 222.778 324.832 223.167 324.328C223.043 324.254 222.908 324.196 222.779 324.131C222.649 324.066 222.519 324.002 222.389 323.937C222.3 323.881 222.205 323.85 222.102 323.845C222 323.823 221.898 323.827 221.796 323.859C221.735 323.885 221.673 323.911 221.612 323.937C221.522 323.985 221.45 324.051 221.396 324.135C221.348 324.183 221.315 324.24 221.297 324.305C221.249 324.397 221.227 324.496 221.231 324.602C221.24 324.67 221.249 324.739 221.258 324.807C221.293 324.935 221.359 325.048 221.454 325.144Z" fill="#15509D"/>
<path d="M224.581 331.106C225.253 335.025 228.044 338.305 230.771 341.037C233.711 343.981 236.904 346.707 240.248 349.181C246.79 354.023 254.444 357.581 262.736 357.399C264.923 357.351 267.141 357.058 269.241 356.431C271.36 355.799 273.524 354.952 275.04 353.29C275.659 352.611 275.066 351.344 274.092 351.662C272.386 352.219 270.801 353.064 269.084 353.593C267.369 354.121 265.595 354.452 263.804 354.563C260.138 354.79 256.477 354.222 253.008 353.032C245.621 350.501 239.354 345.577 233.566 340.475C230.325 337.62 227.642 334.508 225.677 330.645C225.347 329.998 224.474 330.48 224.581 331.106Z" fill="#15509D"/>
<path d="M176.235 299.17C174.922 304.64 176.542 310.916 180.892 314.483C184.238 317.227 188.684 318.137 192.561 320.06C196.382 321.955 199.631 324.826 203.321 326.964C205.505 328.229 208.182 329.242 210.499 328.239C213.201 327.069 214.152 323.744 214.437 320.814C215.461 310.286 211.9 299.393 204.857 291.502C194.855 280.299 179.719 284.662 176.235 299.17Z" fill="#15509D"/>
<path d="M197.689 352.2C199.272 353.658 201.321 354.921 203.449 354.592C205.55 354.266 207.165 352.399 207.755 350.356C208.345 348.314 208.088 346.125 207.66 344.041C206.487 338.331 201.467 330.037 194.737 334.818C188.393 339.324 193.376 348.226 197.689 352.2Z" fill="#15509D"/>
<path d="M298.596 343.577C305.144 342.352 311.964 344.481 317.605 348.025C323.246 351.57 327.905 356.445 332.5 361.269C335.293 364.199 338.085 367.131 340.877 370.061C341.96 371.198 343.105 372.472 343.203 374.039C343.324 375.976 341.706 377.683 339.867 378.305C338.028 378.927 336.023 378.706 334.101 378.436C322.296 376.78 310.718 373.51 299.791 368.746C294.816 366.578 286.302 361.637 285.829 355.4C285.363 349.257 293.468 344.536 298.596 343.577Z" fill="#15509D"/>
<path d="M262.257 69.2227C274.559 65.5348 285.006 56.1018 289.927 44.2388C291.047 41.5394 291.903 38.647 291.686 35.7325C291.469 32.8181 290.011 29.87 287.441 28.478C284.107 26.6718 279.989 27.8548 276.477 29.2842C263.82 34.4336 252.262 42.3883 239.025 45.7803C235.253 46.7467 231.352 47.3409 227.79 48.9114C218.08 53.1919 217.082 63.4052 227.349 66.0458C239.36 69.1342 249.706 72.9853 262.257 69.2227Z" fill="#15509D"/>
<path d="M196.248 63.6468C197.372 64.4378 198.7 64.9038 200.053 65.141C204.044 65.8405 208.501 64.3569 210.79 61.0138C216.245 53.0491 207.405 47.2781 200.051 48.8014C193.51 50.1568 189.954 59.2152 196.248 63.6468Z" fill="#15509D"/>
<path d="M310.158 97.9137C310.158 97.9152 310.158 97.9175 310.158 97.9191C310.215 97.916 310.215 97.9113 310.158 97.9082C310.158 97.9098 310.158 97.9121 310.158 97.9137Z" fill="white"/>
<path d="M302.698 97.9137C302.698 97.9121 302.698 97.9105 302.698 97.9082C302.645 97.9105 302.645 97.916 302.698 97.9183C302.698 97.9168 302.698 97.9152 302.698 97.9137Z" fill="white"/>
<path d="M310.158 97.9087C308.151 97.8034 306.536 95.8119 306.432 93.3223C306.329 95.8165 304.708 97.8103 302.696 97.9087C302.696 97.9102 302.696 97.9117 302.696 97.914C302.696 97.9156 302.696 97.9171 302.696 97.9186C304.708 98.017 306.329 100.012 306.432 102.505C306.536 100.015 308.151 98.0239 310.158 97.9186C310.158 97.9171 310.158 97.9148 310.158 97.9133C310.158 97.9117 310.158 97.9102 310.158 97.9087Z" fill="white"/>
<path d="M202.65 106.49C202.65 106.491 202.65 106.494 202.65 106.495C202.707 106.492 202.707 106.487 202.65 106.484C202.65 106.486 202.65 106.488 202.65 106.49Z" fill="white"/>
<path d="M195.19 106.49C195.19 106.488 195.19 106.487 195.19 106.485C195.137 106.488 195.137 106.493 195.19 106.495C195.19 106.493 195.19 106.492 195.19 106.49Z" fill="white"/>
<path d="M202.65 106.485C200.643 106.38 199.028 104.388 198.924 101.898C198.821 104.393 197.201 106.386 195.188 106.485C195.188 106.486 195.188 106.488 195.188 106.489C195.188 106.491 195.188 106.492 195.188 106.494C197.201 106.592 198.821 108.587 198.924 111.08C199.028 108.591 200.643 106.599 202.65 106.494C202.65 106.492 202.65 106.49 202.65 106.489C202.65 106.489 202.65 106.486 202.65 106.485Z" fill="white"/>
<path d="M268.575 48.5552C268.575 48.5568 268.575 48.5591 268.575 48.5607C268.632 48.5576 268.632 48.5529 268.575 48.5498C268.575 48.5521 268.575 48.5537 268.575 48.5552Z" fill="white"/>
<path d="M261.115 48.5554C261.115 48.5539 261.115 48.5523 261.115 48.5508C261.062 48.5531 261.062 48.5586 261.115 48.5609C261.115 48.5593 261.115 48.557 261.115 48.5554Z" fill="white"/>
<path d="M268.575 48.5503C266.568 48.445 264.953 46.4535 264.849 43.9639C264.746 46.4573 263.125 48.4519 261.113 48.5503C261.113 48.5518 261.113 48.5533 261.113 48.5549C261.113 48.5564 261.113 48.5579 261.113 48.5594C263.125 48.6578 264.746 50.6524 264.849 53.1459C264.953 50.6563 266.568 48.6647 268.575 48.5594C268.575 48.5579 268.575 48.5556 268.575 48.5541C268.575 48.5541 268.575 48.5526 268.575 48.5503Z" fill="white"/>
<path d="M317.579 150.172C317.579 150.174 317.579 150.176 317.579 150.178C317.636 150.175 317.636 150.17 317.579 150.167C317.579 150.169 317.579 150.171 317.579 150.172Z" fill="white"/>
<path d="M310.119 150.172C310.119 150.17 310.119 150.169 310.119 150.167C310.066 150.169 310.066 150.174 310.119 150.177C310.119 150.176 310.119 150.174 310.119 150.172Z" fill="white"/>
<path d="M317.577 150.167C315.571 150.062 313.956 148.071 313.852 145.581C313.748 148.075 312.128 150.069 310.116 150.167C310.116 150.169 310.116 150.171 310.116 150.172C310.116 150.174 310.116 150.175 310.116 150.177C312.128 150.275 313.748 152.27 313.852 154.763C313.956 152.273 315.571 150.282 317.577 150.177C317.577 150.175 317.577 150.173 317.577 150.171C317.577 150.171 317.577 150.169 317.577 150.167Z" fill="white"/>
<path d="M264.804 113.924C264.804 113.926 264.804 113.928 264.804 113.93C264.861 113.927 264.861 113.922 264.804 113.919C264.804 113.921 264.804 113.923 264.804 113.924Z" fill="white"/>
<path d="M257.343 113.925C257.343 113.923 257.343 113.921 257.343 113.92C257.29 113.922 257.29 113.928 257.343 113.93C257.343 113.928 257.343 113.926 257.343 113.925Z" fill="white"/>
<path d="M264.804 113.919C262.797 113.814 261.182 111.823 261.079 109.333C260.975 111.827 259.355 113.821 257.343 113.919C257.343 113.921 257.343 113.922 257.343 113.924C257.343 113.926 257.343 113.927 257.343 113.929C259.355 114.027 260.975 116.022 261.079 118.515C261.182 116.025 262.797 114.034 264.804 113.929C264.804 113.927 264.804 113.925 264.804 113.923C264.804 113.922 264.804 113.922 264.804 113.919Z" fill="white"/>
<path d="M229.461 152.586C227.454 152.481 225.84 150.49 225.736 148C225.632 150.494 224.012 152.488 222 152.586C222 152.588 222 152.589 222 152.591C222 152.593 222 152.594 222 152.596C224.012 152.694 225.632 154.689 225.736 157.182C225.84 154.692 227.454 152.701 229.461 152.596C229.461 152.594 229.461 152.592 229.461 152.59C229.461 152.589 229.461 152.589 229.461 152.586Z" fill="white"/>
<path d="M253.461 255.586C251.454 255.481 249.84 253.49 249.736 251C249.632 253.494 248.012 255.488 246 255.586C246 255.588 246 255.589 246 255.591C246 255.593 246 255.594 246 255.596C248.012 255.694 249.632 257.689 249.736 260.182C249.84 257.692 251.454 255.701 253.461 255.596C253.461 255.594 253.461 255.592 253.461 255.59C253.461 255.589 253.461 255.589 253.461 255.586Z" fill="white"/>
<path d="M349.479 194.569C349.479 194.57 349.479 194.573 349.479 194.574C349.535 194.571 349.535 194.567 349.479 194.563C349.479 194.565 349.479 194.567 349.479 194.569Z" fill="white"/>
<path d="M342.018 194.569C342.018 194.568 342.018 194.566 342.018 194.564C341.965 194.567 341.965 194.572 342.018 194.575C342.019 194.572 342.018 194.571 342.018 194.569Z" fill="white"/>
<path d="M353.461 210.586C351.454 210.481 349.84 208.49 349.736 206C349.632 208.493 348.012 210.488 346 210.586C346 210.588 346 210.589 346 210.591C346 210.593 346 210.594 346 210.596C348.012 210.695 349.632 212.689 349.736 215.183C349.84 212.693 351.454 210.702 353.461 210.596C353.461 210.595 353.461 210.593 353.461 210.591C353.461 210.589 353.461 210.588 353.461 210.586Z" fill="white"/>
<path d="M257.485 302.205C257.485 302.206 257.485 302.208 257.485 302.21C257.542 302.207 257.542 302.202 257.485 302.199C257.484 302.201 257.485 302.203 257.485 302.205Z" fill="white"/>
<path d="M250.024 302.205C250.024 302.203 250.024 302.202 250.024 302.199C249.971 302.202 249.971 302.207 250.024 302.209C250.024 302.208 250.024 302.206 250.024 302.205Z" fill="white"/>
<path d="M257.484 302.2C255.477 302.094 253.862 300.103 253.758 297.613C253.655 300.107 252.035 302.101 250.022 302.2C250.022 302.201 250.022 302.203 250.022 302.205C250.022 302.207 250.022 302.208 250.022 302.21C252.035 302.308 253.655 304.303 253.758 306.796C253.862 304.306 255.477 302.315 257.484 302.21C257.484 302.208 257.484 302.206 257.484 302.204C257.484 302.204 257.484 302.201 257.484 302.2Z" fill="white"/>
<path d="M350.338 328.741C350.338 328.742 350.338 328.745 350.338 328.746C350.395 328.743 350.395 328.738 350.338 328.735C350.338 328.737 350.338 328.739 350.338 328.741Z" fill="white"/>
<path d="M342.878 328.741C342.878 328.739 342.878 328.738 342.878 328.736C342.825 328.739 342.825 328.744 342.878 328.746C342.878 328.744 342.878 328.743 342.878 328.741Z" fill="white"/>
<path d="M350.337 328.736C348.33 328.631 346.716 326.639 346.612 324.149C346.508 326.643 344.888 328.637 342.876 328.736C342.876 328.737 342.876 328.739 342.876 328.74C342.876 328.742 342.876 328.743 342.876 328.745C344.888 328.843 346.508 330.838 346.612 333.331C346.716 330.842 348.33 328.85 350.337 328.745C350.337 328.743 350.337 328.741 350.337 328.74C350.337 328.738 350.337 328.737 350.337 328.736Z" fill="white"/>
<path d="M199.402 300.144C199.402 300.146 199.402 300.147 199.402 300.15C199.459 300.146 199.459 300.142 199.402 300.139C199.401 300.14 199.402 300.142 199.402 300.144Z" fill="white"/>
<path d="M191.941 300.144C191.941 300.143 191.941 300.141 191.941 300.139C191.888 300.141 191.888 300.146 191.941 300.149C191.941 300.147 191.941 300.146 191.941 300.144Z" fill="white"/>
<path d="M199.401 300.139C197.394 300.034 195.779 298.042 195.675 295.553C195.572 298.047 193.952 300.041 191.939 300.139C191.939 300.141 191.939 300.142 191.939 300.145C191.939 300.146 191.939 300.148 191.939 300.149C193.952 300.247 195.572 302.242 195.675 304.736C195.779 302.246 197.394 300.254 199.401 300.149C199.401 300.148 199.401 300.145 199.401 300.144C199.401 300.142 199.401 300.141 199.401 300.139Z" fill="white"/>
<path d="M308.339 354.643C308.339 354.645 308.339 354.646 308.339 354.649C308.396 354.645 308.396 354.641 308.339 354.638C308.339 354.639 308.339 354.641 308.339 354.643Z" fill="white"/>
<path d="M300.879 354.643C300.879 354.642 300.879 354.64 300.879 354.638C300.826 354.64 300.826 354.645 300.879 354.648C300.879 354.646 300.879 354.645 300.879 354.643Z" fill="white"/>
<path d="M308.338 354.638C306.331 354.533 304.717 352.541 304.613 350.052C304.509 352.546 302.889 354.54 300.877 354.638C300.877 354.64 300.877 354.641 300.877 354.644C300.877 354.645 300.877 354.647 300.877 354.648C302.889 354.746 304.509 356.741 304.613 359.235C304.717 356.745 306.331 354.753 308.338 354.648C308.338 354.647 308.338 354.644 308.338 354.643C308.338 354.641 308.338 354.64 308.338 354.638Z" fill="white"/>
<path d="M143.519 286.957C143.519 286.958 143.519 286.96 143.519 286.962C143.575 286.959 143.575 286.954 143.519 286.951C143.519 286.954 143.519 286.955 143.519 286.957Z" fill="white"/>
<path d="M136.058 286.957C136.058 286.955 136.058 286.954 136.058 286.952C136.005 286.954 136.005 286.96 136.058 286.962C136.058 286.96 136.058 286.958 136.058 286.957Z" fill="white"/>
<path d="M143.518 286.952C141.511 286.846 139.896 284.855 139.793 282.365C139.689 284.859 138.069 286.853 136.057 286.952C136.057 286.953 136.057 286.955 136.057 286.956C136.057 286.958 136.057 286.959 136.057 286.962C138.069 287.06 139.689 289.054 139.793 291.548C139.896 289.058 141.511 287.067 143.518 286.962C143.518 286.96 143.518 286.958 143.518 286.956C143.518 286.955 143.518 286.954 143.518 286.952Z" fill="white"/>
<path d="M298.955 291.548C298.955 291.55 298.955 291.552 298.955 291.554C299.012 291.551 299.012 291.546 298.955 291.543C298.955 291.545 298.955 291.546 298.955 291.548Z" fill="white"/>
<path d="M291.495 291.549C291.495 291.547 291.495 291.546 291.495 291.544C291.442 291.546 291.442 291.552 291.495 291.554C291.495 291.552 291.495 291.55 291.495 291.549Z" fill="white"/>
<path d="M298.954 291.543C296.948 291.438 295.333 289.447 295.229 286.957C295.125 289.451 293.505 291.445 291.493 291.543C291.493 291.545 291.493 291.547 291.493 291.548C291.493 291.55 291.493 291.551 291.493 291.553C293.505 291.651 295.125 293.646 295.229 296.139C295.333 293.649 296.948 291.658 298.954 291.553C298.954 291.551 298.954 291.549 298.954 291.547C298.954 291.546 298.954 291.545 298.954 291.543Z" fill="white"/>
<path d="M149.221 174.359C149.221 174.361 149.221 174.363 149.221 174.364C149.278 174.361 149.278 174.357 149.221 174.354C149.221 174.355 149.221 174.357 149.221 174.359Z" fill="white"/>
<path d="M141.76 174.359C141.76 174.357 141.76 174.356 141.76 174.354C141.707 174.356 141.707 174.361 141.76 174.364C141.76 174.362 141.76 174.361 141.76 174.359Z" fill="white"/>
<path d="M146.461 169.586C144.454 169.481 142.84 167.49 142.736 165C142.632 167.494 141.012 169.488 139 169.586C139 169.588 139 169.589 139 169.592C139 169.593 139 169.595 139 169.596C141.012 169.695 142.631 171.689 142.736 174.183C142.84 171.693 144.454 169.702 146.461 169.596C146.461 169.595 146.461 169.593 146.461 169.591C146.461 169.589 146.461 169.588 146.461 169.586Z" fill="white"/>
<path d="M171.856 230.005C171.856 230.007 171.856 230.009 171.856 230.011C171.913 230.008 171.913 230.003 171.856 230C171.856 230.002 171.856 230.004 171.856 230.005Z" fill="white"/>
<path d="M164.396 230.005C164.396 230.003 164.396 230.002 164.396 230C164.343 230.002 164.343 230.007 164.396 230.01C164.396 230.008 164.396 230.006 164.396 230.005Z" fill="white"/>
<path d="M325.461 254.586C323.454 254.48 321.84 252.489 321.736 250C321.632 252.493 320.012 254.488 318 254.586C318 254.588 318 254.589 318 254.591C318 254.593 318 254.594 318 254.596C320.012 254.695 321.632 256.689 321.736 259.183C321.84 256.693 323.454 254.702 325.461 254.596C325.461 254.595 325.461 254.593 325.461 254.591C325.461 254.589 325.461 254.588 325.461 254.586Z" fill="white"/>
<path d="M353.208 57.022C353.208 57.0236 353.208 57.0259 353.208 57.0275C353.265 57.0244 353.265 57.0197 353.208 57.0166C353.208 57.0182 353.208 57.0197 353.208 57.022Z" fill="white"/>
<path d="M345.748 57.0222C345.748 57.0207 345.748 57.0191 345.748 57.0176C345.695 57.0199 345.695 57.0246 345.748 57.0277C345.748 57.0254 345.748 57.0238 345.748 57.0222Z" fill="white"/>
<path d="M353.207 57.0171C351.201 56.9118 349.586 54.9203 349.482 52.4307C349.378 54.9241 347.758 56.9187 345.746 57.0171C345.746 57.0186 345.746 57.0201 345.746 57.0217C345.746 57.0232 345.746 57.0247 345.746 57.027C347.758 57.1254 349.378 59.12 349.482 61.6134C349.586 59.1238 351.201 57.1323 353.207 57.027C353.207 57.0255 353.207 57.0232 353.207 57.0217C353.207 57.0201 353.207 57.0186 353.207 57.0171Z" fill="white"/>
<path d="M346.609 114.426C346.609 114.9 346.224 115.285 345.751 115.285C345.277 115.285 344.893 114.9 344.893 114.426C344.893 113.953 345.277 113.568 345.751 113.568C346.224 113.568 346.609 113.953 346.609 114.426Z" fill="white"/>
<path d="M341.119 169.768C341.119 170.242 340.734 170.626 340.26 170.626C339.787 170.626 339.402 170.242 339.402 169.768C339.402 169.295 339.787 168.91 340.26 168.91C340.735 168.91 341.119 169.295 341.119 169.768Z" fill="white"/>
<path d="M290.99 134.114C290.99 134.588 290.605 134.972 290.132 134.972C289.658 134.972 289.273 134.588 289.273 134.114C289.273 133.64 289.658 133.256 290.132 133.256C290.605 133.256 290.99 133.64 290.99 134.114Z" fill="white"/>
<path d="M272.866 323.553C272.866 324.027 272.481 324.412 272.008 324.412C271.534 324.412 271.149 324.027 271.149 323.553C271.149 323.08 271.534 322.695 272.008 322.695C272.481 322.695 272.866 323.08 272.866 323.553Z" fill="white"/>
<path d="M209.716 251.858C209.716 252.332 209.332 252.716 208.858 252.716C208.384 252.716 208 252.332 208 251.858C208 251.384 208.384 251 208.858 251C209.332 251.001 209.716 251.384 209.716 251.858Z" fill="white"/>
<path d="M202.444 312.684C202.444 313.158 202.059 313.542 201.586 313.542C201.112 313.542 200.728 313.158 200.728 312.684C200.728 312.211 201.112 311.826 201.586 311.826C202.06 311.826 202.444 312.211 202.444 312.684Z" fill="white"/>
<path d="M240.513 275.174C240.513 275.647 240.129 276.032 239.655 276.032C239.181 276.032 238.797 275.647 238.797 275.174C238.797 274.7 239.181 274.315 239.655 274.315C240.129 274.315 240.513 274.7 240.513 275.174Z" fill="white"/>
<path d="M347.467 277.344C347.467 277.818 347.083 278.203 346.609 278.203C346.135 278.203 345.751 277.818 345.751 277.344C345.751 276.871 346.135 276.486 346.609 276.486C347.083 276.486 347.467 276.87 347.467 277.344Z" fill="white"/>
<path d="M315.136 313.543C315.136 314.016 314.752 314.401 314.278 314.401C313.804 314.401 313.42 314.016 313.42 313.543C313.42 313.069 313.804 312.685 314.278 312.685C314.752 312.685 315.136 313.069 315.136 313.543Z" fill="white"/>
<path d="M323.853 366.179C323.853 366.653 323.468 367.037 322.995 367.037C322.521 367.037 322.137 366.653 322.137 366.179C322.137 365.706 322.521 365.321 322.995 365.321C323.468 365.321 323.853 365.706 323.853 366.179Z" fill="white"/>
<path d="M185.129 141.906C185.129 142.38 184.745 142.764 184.271 142.764C183.798 142.764 183.413 142.38 183.413 141.906C183.413 141.432 183.798 141.048 184.271 141.048C184.745 141.048 185.129 141.432 185.129 141.906Z" fill="white"/>
<path d="M141.716 243.858C141.716 244.332 141.332 244.716 140.858 244.716C140.384 244.716 140 244.332 140 243.858C140 243.384 140.384 243 140.858 243C141.333 243 141.716 243.384 141.716 243.858Z" fill="white"/>
<path d="M177.959 205.503C177.959 205.976 177.575 206.361 177.101 206.361C176.628 206.361 176.243 205.976 176.243 205.503C176.243 205.029 176.628 204.645 177.101 204.645C177.576 204.645 177.959 205.029 177.959 205.503Z" fill="white"/>
<path d="M127.423 206.998C127.423 207.471 127.039 207.856 126.565 207.856C126.091 207.856 125.707 207.471 125.707 206.998C125.707 206.524 126.091 206.14 126.565 206.14C127.039 206.14 127.423 206.523 127.423 206.998Z" fill="white"/>
<path d="M170.26 259.374C170.26 259.847 169.876 260.232 169.402 260.232C168.928 260.232 168.544 259.847 168.544 259.374C168.544 258.9 168.928 258.516 169.402 258.516C169.876 258.516 170.26 258.9 170.26 259.374Z" fill="white"/>
<path d="M232.532 115.284C232.532 115.758 232.147 116.142 231.674 116.142C231.2 116.142 230.815 115.758 230.815 115.284C230.815 114.81 231.2 114.426 231.674 114.426C232.147 114.426 232.532 114.809 232.532 115.284Z" fill="white"/>
<path d="M203.301 56.0749C203.301 56.5486 202.917 56.933 202.443 56.933C201.969 56.933 201.585 56.5486 201.585 56.0749C201.585 55.6012 201.969 55.2168 202.443 55.2168C202.917 55.2168 203.301 55.6012 203.301 56.0749Z" fill="white"/>
<path d="M249.012 56.9323C249.012 57.406 248.628 57.7904 248.154 57.7904C247.68 57.7904 247.296 57.406 247.296 56.9323C247.296 56.4586 247.68 56.0742 248.154 56.0742C248.628 56.0742 249.012 56.4586 249.012 56.9323Z" fill="white"/>
<path d="M314.279 283.39C314.279 283.627 314.087 283.818 313.85 283.818C313.612 283.818 313.421 283.626 313.421 283.39C313.421 283.152 313.613 282.961 313.85 282.961C314.087 282.961 314.279 283.153 314.279 283.39Z" fill="white"/>
<path d="M329.543 64.945C329.543 65.4187 329.159 65.8031 328.685 65.8031C328.212 65.8031 327.827 65.4187 327.827 64.945C327.827 64.4713 328.212 64.0869 328.685 64.0869C329.159 64.0869 329.543 64.4706 329.543 64.945Z" fill="white"/>
</svg>
