<svg width="176" height="144" viewBox="0 0 176 144" fill="none" xmlns="http://www.w3.org/2000/svg">
<path d="M87.7502 144C136.213 144 175.5 137.877 175.5 130.325C175.5 122.773 136.213 116.651 87.7502 116.651C39.2871 116.651 0 122.773 0 130.325C0 137.877 39.2871 144 87.7502 144Z" fill="url(#paint0_radial_69_11805)" fill-opacity="0.4"/>
<path d="M134.748 86.6172C134.321 84.1259 133.704 81.6654 132.924 79.2702C129.086 67.499 121.607 57.9772 113.683 48.7059C110.298 44.7458 106.839 40.8493 103.326 37.0033C101.38 34.8729 99.3948 32.7834 97.3947 30.7038C100.113 25.6532 103.83 21.0965 107.122 16.4111C109.651 12.8114 112.162 9.30927 114.365 5.49745C114.58 5.12598 114.798 4.74547 114.876 4.32325C114.954 3.90142 114.865 3.42292 114.545 3.13763C113.965 2.62097 113.278 3.01565 112.695 3.27261C111.854 3.64328 110.965 3.90928 110.062 4.07928C108.347 4.40155 106.568 4.36771 104.864 3.99428C102.031 3.37334 100.13 1.06468 97.3671 0.307593C91.6866 -1.24948 86.4932 3.50083 81.7362 5.69852C78.3974 7.24103 74.9972 6.65236 71.7559 5.19209C69.1061 3.99822 66.8675 2.46278 63.8619 2.41163C58.8873 2.32703 53.6026 6.47057 49.3769 8.70092C48.8519 8.97794 48.2936 9.28841 48.0342 9.82317C47.2866 11.3653 51.1441 14.5184 52.0196 15.5171C53.9226 17.6868 55.8283 19.8507 57.7576 21.9972C59.5244 23.9631 61.2825 25.9369 63.0356 27.9154C64.924 30.0462 68.8322 33.417 68.8322 33.417C68.8322 33.417 65.7165 37.8292 64.3963 39.5071C62.4339 42.0007 60.4708 44.4935 58.5139 46.9915C54.9488 51.5423 51.2818 56.0321 47.9367 60.7494C40.1525 71.7256 34.0639 83.6518 33.2088 97.3113C32.7657 104.386 33.3906 111.578 37.4389 117.498C41.22 123.027 46.4551 127.51 52.3206 130.706C60.3578 135.085 69.5153 137.134 78.6531 137.655C89.9792 138.302 101.608 136.597 111.705 131.425C121.802 126.253 130.238 117.4 133.653 106.582C135.681 100.158 135.891 93.2787 134.748 86.6172Z" fill="#FEEFD0"/>
<path d="M134.748 86.6173C134.321 84.126 133.705 81.6655 132.924 79.2703C129.086 67.4992 121.608 57.9773 113.683 48.7061C108.398 42.5222 102.879 36.5796 97.3296 30.6331C102.993 22.3684 108.656 14.1034 114.32 5.83872C114.68 5.3134 115.057 4.70781 114.925 4.0849C114.738 3.20504 113.618 2.83987 112.741 3.03701C111.864 3.23455 111.12 3.80197 110.29 4.14668C108.354 4.9506 106.116 4.48037 104.195 3.64261C102.273 2.80485 100.51 1.6157 98.5348 0.914089C94.3264 -0.581599 89.3301 0.424577 86.0291 3.43327C92.8456 6.03311 97.206 13.8826 95.8126 21.0439C95.1102 24.6523 93.14 28.0246 93.1376 31.7006C93.1357 34.4295 94.226 37.0298 95.3617 39.5112C97.4193 44.0085 99.6717 48.4208 102.215 52.6643C104.491 56.4619 107.243 59.9944 109.256 63.9404C113.171 71.6136 114.315 80.572 113.02 89.0483C112.746 90.8383 112.363 92.6115 111.869 94.3539C107.213 110.787 94.217 125.123 77.4339 129.355C72.6462 130.562 67.123 131.514 62.1775 131.222C59.2527 131.05 53.8417 131.609 51.21 130.081C51.5775 130.294 51.9478 130.503 52.3208 130.706C60.358 135.085 69.5155 137.133 78.6533 137.655C89.9794 138.302 101.608 136.597 111.705 131.425C121.802 126.253 130.238 117.4 133.653 106.582C135.681 100.158 135.89 93.2788 134.748 86.6173Z" fill="#F7E1BA"/>
<path d="M106.234 81.7047C104.634 79.8773 101.473 79.4779 99.1867 79.9749C98.0668 80.2184 96.965 80.6281 96.0545 81.3242C95.1439 82.0203 94.4372 83.0253 94.2527 84.1566C94.0107 85.6416 94.7142 87.1869 95.8554 88.1675C98.0279 90.0343 101.299 90.0138 103.815 88.9179C105.673 88.1089 107.405 86.2948 107.234 84.1361C107.155 83.1398 106.788 82.3366 106.234 81.7047Z" fill="#FFADA9"/>
<path d="M70.1431 81.7047C68.5427 79.8773 65.3817 79.4779 63.0959 79.9749C61.976 80.2184 60.8742 80.6281 59.9636 81.3242C59.0531 82.0203 58.3464 83.0253 58.1618 84.1566C57.9198 85.6416 58.6238 87.1869 59.7645 88.1675C61.937 90.0343 65.2082 90.0138 67.7242 88.9179C69.5819 88.1089 71.3145 86.2948 71.1429 84.1361C71.0634 83.1398 70.6967 82.3366 70.1431 81.7047Z" fill="#FFADA9"/>
<path d="M90.0329 86.0644C89.7984 85.9404 89.5281 85.8656 89.2841 85.8054C88.8103 85.6886 88.322 85.5914 87.8447 85.4745C87.4799 85.3852 87.1333 85.2923 86.7602 85.408C86.5048 85.4875 86.2931 85.6583 86.1656 85.8936C86.0669 86.0754 86.024 86.2942 86.0814 86.4929C86.1645 86.7801 86.4128 86.9368 86.6323 87.1127C86.8617 87.2964 87.1203 87.4743 87.3989 87.5778C87.5354 87.6285 87.6204 87.7678 87.5834 87.9087C87.1273 89.6432 86.401 91.2157 84.8462 92.2671C82.7249 93.7018 80.2187 93.6046 78.1666 92.164C76.4088 90.9304 74.8943 88.8086 75.1473 86.5759C75.1701 86.3737 75.3133 86.2041 75.5022 86.1289C75.6419 86.073 75.7816 86.0152 75.8025 86.005C76.0665 85.8731 76.2522 85.6174 76.2101 85.3092C76.1483 84.8591 75.695 84.7221 75.3078 84.6745C74.6987 84.5998 74.0762 84.6332 73.4789 84.7737C73.1467 84.8516 72.8134 84.9669 72.553 85.1873C72.2925 85.4076 72.1158 85.7508 72.1685 86.088C72.2181 86.4028 72.4656 86.668 72.7647 86.7778C72.8945 86.8254 73.0318 86.8463 73.17 86.8443C73.3935 86.8407 73.5729 87.0206 73.5721 87.2441C73.5701 87.9378 73.7775 89.1006 73.822 89.3111C74.0172 90.237 74.3745 91.1287 74.8773 91.9306C75.9032 93.5664 77.5236 94.7764 79.3971 95.2573C81.6388 95.8322 84.1183 95.2931 85.9642 93.9111C87.0998 93.0608 88.0328 91.9019 88.6817 90.6443C89.0095 90.0096 89.2707 89.3324 89.4077 88.6296C89.449 88.4179 89.53 87.8442 89.6575 87.6872C89.833 87.4707 90.1821 87.6163 90.3792 87.4373C90.5897 87.246 90.6728 86.9482 90.5862 86.6763C90.4945 86.3866 90.2844 86.1974 90.0329 86.0644Z" fill="#86695B"/>
<path d="M127.677 97.2098C127.526 96.5861 127.269 95.9644 126.878 95.347C125.561 93.2654 122.551 93.0309 120.578 94.2716C118.649 94.9153 117.588 97.6191 116.808 99.4827C115.264 103.169 113.65 106.837 111.075 109.937C108.808 112.667 105.658 114.65 105.733 118.587C105.759 119.963 106.623 121.322 107.742 122.063C109.204 123.031 111.228 122.587 112.792 122.153C116.755 121.054 119.739 118.663 122.313 115.528C124.858 112.429 126.89 108.953 127.906 105.056C128.39 103.203 128.497 101.264 128.337 99.3619C128.265 98.495 128.05 97.7985 127.677 97.2098Z" fill="#FEEFD0"/>
<path d="M127.152 81.2378C126.663 78.7478 125.431 76.3714 124.314 74.1163C123.334 72.1382 121.821 70.3163 119.524 69.9857C118.769 69.8771 118.229 70.155 117.923 70.8322C117.056 71.5279 116.953 73.02 117.158 74.1454C117.644 76.8236 118.664 79.4549 119.397 82.0783C119.966 84.1096 120.17 87.3862 122.183 88.6285C123.552 89.4734 125.578 89.6394 126.56 88.08C127.823 86.072 127.588 83.4619 127.152 81.2378Z" fill="#FEEFD0"/>
<path d="M76.0893 35.7341C76.1641 35.546 76.0881 35.3914 75.9579 35.295C75.7265 34.9373 75.2283 34.7224 74.9045 35.1364C74.4834 35.6743 74.1907 36.2933 73.9621 36.9465C72.8957 38.4666 72.1008 40.2468 71.3811 41.8837C70.7173 43.394 69.2841 45.8895 70.0019 47.5316C70.125 47.813 70.4851 47.9684 70.772 47.9735C72.6706 48.0054 73.4403 45.1805 73.979 43.7273C74.4299 42.5114 74.7577 41.2443 75.1237 40.0016C75.5266 38.6322 76.1948 37.1798 76.0858 35.742C76.0869 35.7392 76.0881 35.7369 76.0893 35.7341Z" fill="#F7E1BA"/>
<path d="M81.2472 35.2748C81.2444 34.3733 79.9073 34.319 79.7645 35.0946C78.8921 36.6029 78.3542 38.2135 78.0429 39.9366C77.9005 40.7252 77.3472 42.8453 78.5147 43.1664C81.2078 43.9074 81.2511 36.599 81.2472 35.2748Z" fill="#F7E1BA"/>
<path d="M85.5639 35.8635C85.5092 35.6995 85.4356 35.5468 85.3199 35.4331C84.9304 35.0494 84.2284 35.1871 83.9573 35.6436C83.8243 35.8679 83.794 36.1362 83.7668 36.3952C83.5972 38.014 83.4072 39.636 83.2045 41.2431C83.1152 41.951 83.0081 42.6593 82.9365 43.3695C82.796 44.7633 82.6796 46.172 82.702 47.5764C82.7181 48.5732 82.7657 49.6569 83.1577 50.5891C83.4457 51.2745 83.8652 51.594 84.5971 51.594C87.0281 51.2356 86.816 47.2604 86.8542 45.4728C86.8912 43.7445 86.7814 42.0131 86.5307 40.3026C86.4052 39.4467 86.2443 38.596 86.0483 37.7535C85.9484 37.3238 85.8394 36.8961 85.7209 36.4711C85.669 36.2838 85.6308 36.065 85.5639 35.8635Z" fill="#F7E1BA"/>
<path d="M91.87 35.7068C91.7968 35.5852 91.7051 35.4928 91.6036 35.4227C91.41 35.2153 91.0421 35.1681 90.7808 35.3098C90.427 35.4156 90.1303 35.7049 90.1158 36.0897C90.1087 36.2798 90.0611 38.1481 90.0237 38.8607C89.9832 39.6316 90.0017 40.4052 90.0816 41.1733C90.1772 42.0941 90.7855 44.1844 92.123 43.8164C93.3909 43.4678 93.418 41.7643 93.4176 40.6991C93.4168 39.0228 92.7278 37.1281 91.87 35.7068Z" fill="#F7E1BA"/>
<path d="M77.8175 27.8235C77.7959 27.3579 77.7321 26.8913 77.6483 26.425C77.6365 24.1328 77.3988 21.8734 76.9813 19.5993C76.5241 17.1089 76.0177 14.3843 74.1627 12.5321C73.6728 12.0426 72.8594 12.2885 72.6611 12.9288C71.9784 15.1316 73.1762 17.5929 73.796 19.6922C74.6066 22.4369 75.1256 25.6761 76.5599 28.165C76.6591 28.337 76.8173 28.435 76.988 28.4704C77.1675 28.5731 77.3996 28.544 77.5267 28.3759C77.7046 28.265 77.8293 28.0757 77.8175 27.8235Z" fill="#F7E1BA"/>
<path d="M85.399 18.7493C85.1688 18.5518 84.8233 18.3932 84.514 18.5156C83.1985 19.035 83.28 20.8931 83.2638 22.0893C83.239 23.9128 83.3244 26.0239 83.6066 27.8647C83.5499 28.0626 83.5983 28.2425 83.7026 28.3755C83.86 28.8327 84.6356 28.9268 84.8425 28.4561C84.9854 28.1307 85.0806 27.8049 85.1487 27.4767C85.8834 26.1298 86.2839 24.7309 86.4405 23.1459C86.5696 21.8414 86.4874 19.6835 85.399 18.7493Z" fill="#F7E1BA"/>
<path d="M90.4281 16.0804C89.9925 15.7561 89.4011 16.1134 89.2555 16.5573C88.6794 18.3135 88.9202 20.0106 89.2822 21.7873C89.6706 23.6926 89.695 25.3248 89.4975 27.2101C89.4156 27.3852 89.3318 27.5595 89.2382 27.7319C89.0036 28.1635 89.6124 28.6885 89.9449 28.2773C91.4929 26.3609 91.958 24.1097 92.0513 21.6862C92.1296 19.6545 92.1985 17.399 90.4281 16.0804Z" fill="#F7E1BA"/>
<path d="M102.92 27.9423C101.978 27.0852 100.738 26.6607 99.4752 26.6485C95.2491 26.6079 91.0374 26.4505 86.8077 26.4065C82.1633 26.3462 77.5184 26.3163 72.8735 26.2821C69.6964 26.2589 65.7756 25.8721 63.7562 28.8705C63.0003 29.9932 63.4792 31.5534 64.5928 32.2058C64.917 32.3955 65.2912 32.5309 65.6922 32.6304C65.5438 32.9771 65.4726 33.3635 65.5057 33.7936C65.6776 36.0314 67.4279 37.1112 69.5453 37.3201C72.5284 37.6145 75.5777 37.4488 78.5722 37.45C82 37.4512 85.4273 37.4354 88.8551 37.4221C92.0377 37.4095 95.2211 37.4051 98.4037 37.3717C100.11 37.3536 103.379 36.966 103.214 34.4925C103.153 33.5681 102.851 32.8964 102.391 32.4097C103.777 31.4165 104.452 29.336 102.92 27.9423Z" fill="#86695B"/>
<path d="M98.968 32.3357C97.7144 31.7194 96.2246 31.8162 94.8666 31.8528C93.245 31.8961 89.6248 31.4546 89.624 32.2601C89.6232 33.0652 96.2435 34.2119 98.968 32.8496C99.1612 32.7528 99.1636 32.4317 98.968 32.3357Z" fill="#725549"/>
<path d="M73.9379 32.0637C70.9312 31.3983 67.7454 31.7595 64.7001 31.1583C64.141 31.0477 63.7384 31.6801 64.1425 32.1164C65.214 33.2733 66.7077 32.9857 68.1621 32.8609C70.0667 32.6972 72.0833 32.7681 73.9379 32.288C74.0465 32.2593 74.0516 32.0885 73.9379 32.0637Z" fill="#725549"/>
<path d="M85.8898 31.428C83.7508 31.2175 81.195 31.0613 79.0831 31.4949C78.6601 31.5819 78.644 32.2886 79.0831 32.3626C81.2131 32.7222 83.7547 32.4814 85.8898 32.1973C86.3766 32.1324 86.3919 31.4772 85.8898 31.428Z" fill="#725549"/>
<path d="M108.709 75.5788C108.573 75.4348 108.361 75.2857 108.183 75.1956C107.553 74.876 106.923 74.5561 106.294 74.2366C106.218 74.198 106.168 74.1245 106.163 74.0395C106.144 73.7018 105.986 72.7889 105.957 72.6921C105.805 72.1869 105.555 71.7147 105.22 71.3074C104.817 70.8171 103.951 71.2185 103.982 71.8205C104.056 73.2788 104.243 74.5337 103.577 75.9031C102.853 77.394 101.455 78.5037 99.7814 78.4907C96.7042 78.4667 93.8246 76.404 94.1677 73.051C94.1803 72.9286 94.1949 72.7948 94.1268 72.6925C94.0213 72.5335 93.7659 72.5481 93.6207 72.6717C93.2288 73.0057 93.0081 73.8258 92.9479 74.3106C92.9069 74.6419 92.9164 74.978 92.9624 75.3081C92.977 75.412 93.2359 76.2804 93.2135 76.3005C92.8448 76.6366 92.5229 77.1032 92.2156 77.3995C91.68 77.9162 91.0095 78.3317 90.6231 78.9802C90.4637 79.2478 90.6628 79.6988 91.0115 79.657C91.8232 79.5606 92.4588 79.0656 93.0887 78.5761C93.3166 78.399 93.5861 78.2101 93.8431 78.0012C93.9481 77.9158 94.0977 77.9327 94.1831 78.0378C94.4518 78.3679 94.7587 78.654 95.0924 78.9035C95.1908 78.9771 95.2191 79.1089 95.1585 79.2159C95.0389 79.4272 94.9287 79.6425 94.8115 79.829C94.4125 80.4641 94.0044 81.0882 93.6207 81.7331C93.293 82.284 94.0347 82.8231 94.4868 82.4013C95.0401 81.8854 95.5316 81.3396 96.0132 80.7565C96.1328 80.6117 96.2631 80.468 96.3898 80.3217C96.6452 80.0269 97.0462 79.9065 97.4208 80.0147C97.5888 80.0635 97.7588 80.1076 97.9288 80.1485C98.037 80.1745 98.1118 80.2705 98.111 80.3815C98.1007 81.4766 98.1747 82.5516 98.4663 83.6168C98.5289 83.8458 98.7638 83.9903 98.9963 83.9753C99.3804 83.9509 99.4233 83.6404 99.4851 83.3268C99.6598 82.4375 99.8325 81.5474 100.006 80.6581C100.027 80.5519 100.116 80.4728 100.224 80.4649C100.413 80.4511 100.7 80.4326 100.86 80.4224C100.945 80.4169 101.024 80.4555 101.072 80.5255C101.369 80.9595 102.218 82.5319 102.541 82.7795C102.956 83.099 103.584 82.6646 103.567 82.1904C103.538 81.3943 103.265 80.5625 103.012 79.8066C102.914 79.5126 103.49 79.1258 103.93 78.7658C104.102 78.6253 104.357 78.6332 104.507 78.7965C105.062 79.3965 105.751 79.8935 106.437 80.2945C106.859 80.5408 107.505 80.1686 107.47 79.6669C107.447 79.3407 107.16 79.1069 106.912 78.8944C106.47 78.5163 106.079 78.0787 105.753 77.5971C105.614 77.3928 105.366 77.1005 105.381 76.8569C105.391 76.7011 105.491 76.5012 105.595 76.306C105.719 76.0734 106.001 75.9853 106.241 76.0947C106.913 76.4016 107.767 76.6224 108.431 76.4551C108.648 76.4004 108.853 76.2308 108.877 76.0077C108.894 75.8503 108.818 75.6949 108.709 75.5788Z" fill="#86695B"/>
<path d="M73.6398 76.4125C73.3652 76.0139 73.0834 75.631 72.7741 75.2583C72.6805 75.1454 72.5841 75.0242 72.4814 74.9065C72.3177 74.7188 72.272 74.4528 72.3857 74.2313C72.8835 73.259 73.1389 72.182 73.0441 71.0652C72.9874 70.3994 72.1524 70.1212 71.7731 70.7209C71.182 71.6551 70.8763 72.7305 70.2998 73.6851C69.4298 75.1261 67.8754 76.1331 66.2137 76.3542C63.0567 76.7745 59.3066 73.1543 59.4691 70.1169C59.4947 69.6411 58.7813 69.5664 58.6566 70.0071C58.3307 71.1577 58.4323 72.3606 58.8388 73.4884C58.9269 73.7323 58.8561 74.009 58.6601 74.1786C58.4154 74.3907 58.2009 74.6567 57.9762 74.8892C57.5355 75.3453 57.0298 75.7899 56.7233 76.3523C56.4644 76.8276 56.9736 77.3002 57.4383 77.0673C58.0108 76.78 58.474 76.283 58.945 75.8576C59.0693 75.7455 59.1988 75.6377 59.3247 75.5283C59.5297 75.3492 59.8461 75.376 60.0137 75.5904C60.286 75.9391 60.5879 76.2665 60.9125 76.5679C61.0982 76.7402 61.1498 77.0114 61.0274 77.2333C60.8641 77.5308 60.7327 77.8464 60.602 78.1639C60.3923 78.6739 60.2089 79.1882 60.2294 79.7462C60.2396 80.0291 60.5788 80.1668 60.7881 79.976C61.2796 79.5286 61.6531 78.8943 61.997 78.3323C62.0965 78.1698 62.2103 78.0069 62.3755 77.9125C62.6659 77.7464 62.9292 77.9459 63.1975 78.0569C63.4399 78.1568 63.689 78.2414 63.9416 78.3123C64.1659 78.3748 64.3308 78.5629 64.3532 78.7947C64.4284 79.577 64.5476 80.3557 64.8148 81.0986C64.9695 81.5299 65.5841 81.5653 65.7246 81.0986C65.928 80.4214 66.0181 79.623 66.065 78.888C66.0791 78.6664 66.2519 78.4945 66.4714 78.4618C66.9228 78.3945 67.373 78.2804 67.8145 78.1257C68.0258 78.0518 68.2524 78.1549 68.3331 78.3638C68.4177 78.583 68.52 78.7963 68.6121 78.9981C68.8159 79.444 69.0457 79.9394 69.4766 80.1991C69.8366 80.4163 70.2345 80.1298 70.2628 79.7478C70.2896 79.3873 70.1416 79.0525 70.0472 78.7125C69.9523 78.3701 69.8776 78.0242 69.8095 77.6756C69.7564 77.4025 69.7631 77.1483 70.0078 76.9665C70.4533 76.6391 71.1679 75.8446 71.6121 76.2185C72.0182 76.56 72.418 76.8921 72.8449 77.2065C73.3132 77.5516 73.9609 76.8788 73.6398 76.4125Z" fill="#86695B"/>
<path d="M132.063 38.9218C131.505 35.8698 127.493 35.5569 125.54 37.2266C125.36 37.38 125.094 37.3399 124.965 37.142C123.43 34.7841 119.268 34.8219 118.096 37.9014C116.914 41.0045 120.641 46.0394 122.607 48.3944C123.223 49.1315 124.29 49.1913 125.045 48.5983C127.642 46.5599 132.671 42.2429 132.063 38.9218Z" fill="#E3453C"/>
<path d="M131.309 24.7045C130.844 22.4517 127.723 22.2022 126.813 24.1819C126.838 24.1276 125.883 22.5757 123.818 22.8299C123.257 22.8991 122.763 23.2285 122.405 23.6641C122.136 23.9907 121.951 24.3787 121.831 24.7828C121.081 27.3122 125.964 31.5821 126.477 31.5821C126.989 31.5821 129.117 29.4883 129.97 28.414C130.729 27.4578 131.574 25.9853 131.309 24.7045Z" fill="#E3453C"/>
<path d="M146.236 32.5118C145.986 32.6854 145.638 32.5803 145.526 32.2974C145.355 31.8653 145.188 31.4545 144.853 31.0661C144.417 30.5617 143.857 30.1627 143.233 29.9258C141.968 29.4453 140.493 29.6184 139.326 30.3023C138.158 30.9862 137.301 32.151 136.905 33.4448C136.365 35.2093 136.776 36.7494 137.34 38.4198C137.81 39.8124 138.365 41.1523 138.975 42.4878C139.294 43.1851 140.066 44.6824 140.592 45.6917C140.889 46.2626 141.587 46.4858 142.167 46.2064C144.36 45.1506 146.461 43.9099 148.467 42.5323C150.325 41.2558 152.463 39.8947 153.88 38.1153C154.513 37.3192 154.975 36.3728 154.983 35.3387C155.009 32.1695 152.132 30.7258 149.283 31.183C148.635 31.2873 147.999 31.4777 147.401 31.7516C146.978 31.9452 146.613 32.251 146.236 32.5118Z" fill="#E3453C"/>
<path d="M164.939 96.2584C163.982 94.3645 161.608 93.2501 159.772 92.4981C157.855 91.7131 155.921 91.3609 154.033 91.4392C153.277 89.9597 151.357 87.4338 150.965 86.9227C150.918 86.8621 150.893 86.7912 150.889 86.7149C150.871 86.3116 150.801 84.952 150.657 84.167C150.563 83.6511 150.221 82.5151 149.454 82.726C148.505 82.9873 148.628 84.1835 148.643 84.956C148.649 85.2562 148.489 85.4203 148.196 85.3188C147.524 85.0862 146.5 84.8615 145.931 85.4274C145.687 85.6698 145.556 86.0275 145.606 86.3674C145.672 86.8144 145.991 87.0561 146.39 87.1926C146.719 87.3055 147.053 87.4043 147.382 87.5188C147.51 87.5637 147.516 87.7419 147.39 87.7943C146.465 88.1818 145.703 88.7599 146.01 89.8164C146.112 90.169 146.473 90.5035 146.864 90.4669C147.866 90.3736 148.834 89.9927 149.51 89.2852C149.645 89.1451 149.876 89.177 149.96 89.3525C150.381 90.2363 150.995 91.1949 151.394 91.8371C149.77 92.2727 148.206 93.0526 146.746 94.1831C145.318 95.2892 144.271 96.7546 143.582 98.3837C143.41 98.6851 143.26 99.0082 143.13 99.3497C143.17 99.2447 142.427 99.0011 142.362 98.9889C142.025 98.9275 141.66 99.0007 141.383 99.2049C140.714 99.698 140.794 100.627 141.335 101.187C141.41 101.264 141.489 101.318 141.579 101.376C141.594 101.386 141.744 101.473 141.679 101.494C141.033 101.697 140.531 102.282 140.609 102.989C140.702 103.823 141.584 104.063 142.295 103.966C142.342 103.96 142.389 103.952 142.436 103.943C142.566 104.167 142.457 104.821 142.475 105.091C142.526 105.863 142.635 106.633 142.816 107.385C142.899 107.732 143 108.074 143.116 108.412C140.325 108.279 137.271 107.009 135.08 105.531C134.898 105.408 134.509 105.183 134.49 104.957C134.636 103.27 133.723 101.51 132.072 100.955C131.628 100.806 131.176 101.198 131.174 101.639C131.171 102.122 131.232 102.586 131.346 103.032C131.387 103.192 131.246 103.335 131.082 103.314C130.334 103.22 129.565 103.264 128.803 103.446C128.096 103.614 127.996 104.613 128.605 104.964C128.931 105.152 129.266 105.313 129.607 105.448C129.762 105.51 129.831 105.692 129.743 105.835C129.614 106.045 129.503 106.272 129.411 106.513C129.301 106.803 129.441 107.125 129.63 107.341C130.416 108.241 132.224 108.304 133.146 107.494C133.415 107.243 133.548 107.398 133.794 107.55C136.897 109.468 140.618 110.927 144.232 110.925C144.289 110.925 144.346 110.918 144.402 110.916C144.528 111.088 144.659 111.257 144.799 111.419C145.223 111.913 145.708 112.353 146.239 112.729C147.241 113.439 148.252 114.029 149.274 114.486C149.72 114.686 149.916 115.209 149.707 115.65C149.303 116.508 148.837 117.526 148.797 117.609C148.175 118.903 147.344 120.209 147.114 121.637C146.944 122.691 147.733 123.644 148.307 124.434C148.836 125.163 149.39 125.875 149.949 126.584C150.055 126.719 149.962 126.918 149.79 126.919C149.225 126.924 148.665 126.954 148.157 126.93C147.005 126.875 146.822 128.595 147.891 128.898C148.663 129.117 149.465 129.216 150.265 129.266C151.261 129.328 152.886 129.415 153.265 128.218C153.426 127.71 153.275 127.145 152.992 126.692C152.737 126.283 152.374 125.971 152.044 125.625C151.687 125.252 151.342 124.867 151.01 124.472C150.456 123.812 149.936 123.123 149.456 122.408C149.248 122.097 149.148 121.885 149.183 121.506C149.216 121.142 149.366 120.791 149.521 120.463C150.277 118.857 151.031 117.251 151.78 115.641C151.859 115.471 152.044 115.377 152.229 115.417C152.426 115.46 152.66 115.511 152.852 115.553C153.055 115.597 153.171 115.81 153.101 116.005C152.955 116.415 152.735 117.026 152.715 117.082C152.415 117.889 152.108 118.696 151.842 119.516C151.693 119.975 151.581 120.407 151.732 120.88C151.841 121.218 152.103 121.499 152.437 121.625C152.607 121.689 152.773 121.689 152.951 121.701C153.081 121.709 153.212 121.716 153.342 121.719C153.953 121.732 154.564 121.689 155.173 121.636C155.819 121.58 156.464 121.507 157.109 121.441C157.647 121.386 158.188 121.329 158.73 121.319C158.916 121.315 159.105 121.316 159.289 121.342C159.395 121.357 159.529 121.378 159.611 121.453C159.672 121.509 159.681 121.583 159.651 121.658C159.338 122.443 158.625 123.256 158.39 123.716C157.834 124.804 159.308 125.63 160.004 124.66C160.916 123.388 162.367 121.654 161.759 119.999C161.613 119.601 161.267 119.243 160.804 119.272C159.626 119.345 158.447 119.417 157.268 119.489C156.536 119.534 155.118 119.672 154.358 119.749C154.133 119.771 153.97 119.542 154.067 119.338C154.379 118.679 154.925 117.516 155.036 117.215C155.167 116.857 155.247 116.511 155.554 116.259C155.83 116.032 156.174 115.962 156.522 115.929C157.135 115.871 158.119 115.67 158.707 115.487C159.598 115.209 160.465 114.83 161.241 114.307C162.551 113.422 163.64 112.226 164.542 110.936C165.422 109.675 166.156 108.289 166.646 106.829C167.646 103.851 167.397 98.7162 164.939 96.2584Z" fill="#FFD03B"/>
<path d="M156.555 99.1656C155.508 99.2475 155.099 100.19 154.302 100.767C153.079 101.654 152.514 99.99 152.423 99.0527C152.387 98.6875 151.927 98.6257 151.796 98.9677C151.217 100.471 151.7 102.001 153.259 102.6C154.713 103.16 157.177 101.273 157.252 99.8625C157.271 99.504 156.92 99.1369 156.555 99.1656Z" fill="#EFAC26"/>
<path d="M160.238 95.7014C159.953 95.6932 159.754 95.8758 159.789 96.2468C159.83 96.6805 160.172 97.0256 160.334 97.4139C160.527 97.8759 160.686 98.3517 160.811 98.8361C161.052 99.7694 161.166 100.735 161.146 101.699C161.121 102.832 160.711 103.901 160.159 104.877C159.642 105.791 158.688 106.693 158.698 107.803C158.709 109.051 159.778 110.017 161.012 109.98C162.292 109.942 163.301 108.845 163.902 107.815C164.65 106.534 164.942 105.023 164.882 103.552C164.82 102.025 164.415 100.507 163.7 99.1568C163.339 98.4748 162.897 97.8342 162.377 97.2644C161.887 96.7281 161.227 96.0576 160.547 95.7742C160.438 95.7282 160.333 95.7042 160.238 95.7014Z" fill="#FFDA73"/>
<path d="M157.03 110.476C156.559 109.717 155.666 109.465 154.828 109.687C154.425 109.793 154.021 109.998 153.718 110.287C153.158 110.819 152.74 111.66 153.233 112.37C153.48 112.726 153.873 112.957 154.283 113.097C154.801 113.275 155.372 113.32 155.899 113.17C156.426 113.02 156.902 112.665 157.148 112.175C157.423 111.626 157.347 110.988 157.03 110.476Z" fill="#FFDA73"/>
<path d="M28.3147 117.392C28.406 116.202 28.4946 114.996 28.5437 113.789C28.5575 113.453 28.759 113.159 29.062 113.013C33.2571 110.985 35.9096 106.917 36.4015 102.014C36.9863 96.1816 32.524 90.7143 27.0449 89.1828C20.6557 87.3971 13.2237 90.8871 10.649 97.0095C9.22258 100.402 9.4209 103.956 10.943 107.275C12.3442 110.329 15.2494 112.5 18.5025 113.581C18.6996 113.646 18.8291 113.833 18.8161 114.04C18.7012 115.871 18.5839 117.702 18.4643 119.532C18.4005 120.507 18.3136 121.179 18.2486 122.153C18.2207 122.57 18.1436 123.384 18.1208 123.872C18.1007 124.306 17.6403 124.578 17.246 124.397C16.4059 124.011 15.5709 123.678 14.5738 123.671C13.3787 123.661 12.3965 124.26 12.3965 125.55C12.3965 126.89 13.6959 127.553 14.8331 127.826C15.2179 127.919 15.5961 127.938 15.9821 127.991C16.6042 128.077 17.235 128.15 17.863 128.087C18.5654 128.016 19.2741 127.758 19.7546 127.241C20.3283 126.624 20.5333 125.717 20.6864 124.913C20.8548 124.028 20.9118 123.124 20.9418 122.225C20.9756 121.2 20.9626 120.173 21.0279 119.149C21.1157 117.776 21.2463 116.326 21.2928 114.877C21.3034 114.539 21.5887 114.272 21.9247 114.302C23.1119 114.41 24.2928 114.373 25.4174 114.18C25.4512 114.174 25.4851 114.168 25.5189 114.162C25.8558 114.1 26.1584 114.369 26.1355 114.71C26.0667 115.745 26.0155 116.777 25.9313 117.788C25.6696 120.94 25.5272 124.103 25.3635 127.261C25.3419 127.679 25.6944 128.205 26.1304 128.268C27.6001 128.481 29.0545 128.452 30.44 127.841C31.4202 127.409 33.0792 126.595 33.0792 125.287C33.0792 122.422 29.8903 123.825 28.1837 124.992C27.9271 125.167 27.5844 124.965 27.6139 124.656C27.7815 122.909 28.19 119.018 28.3147 117.392Z" fill="#FFD03B"/>
<path d="M30.1146 98.4533C30.0071 98.0724 29.5113 97.8217 29.1595 98.0649C28.3159 98.6473 28.1597 99.8341 27.5305 100.634C27.0799 101.206 26.3775 100.822 25.9455 100.439C25.5319 100.072 25.55 99.6043 25.3344 99.1541C25.2816 99.0443 25.1085 98.9979 25.0085 99.0687C24.4718 99.4488 24.5245 100.156 24.7705 100.719C25.1486 101.583 25.951 102.186 26.8631 102.39C27.7241 102.582 28.4619 102.097 28.9518 101.433C29.5365 100.639 30.405 99.4807 30.1146 98.4533Z" fill="#EFAC26"/>
<path d="M20.7424 98.6634C20.6227 98.0948 19.9294 98.0287 19.5489 98.3482C18.8217 98.9585 18.8831 100.004 18.004 100.532C17.2205 101.003 15.8417 99.9875 15.8693 99.1804C15.8807 98.8499 15.438 98.7617 15.2743 99.0195C14.363 100.451 16.164 101.872 17.4374 102.147C19.2006 102.527 21.0914 100.324 20.7424 98.6634Z" fill="#EFAC26"/>
<path d="M23.8514 103.387C23.6873 104.078 23.6244 105.042 22.7252 105.108C21.6848 105.183 20.5984 104.143 20.8943 103.113C21.0119 102.703 20.38 102.417 20.1938 102.818C19.4312 104.46 20.7439 105.955 22.3073 106.373C24.1178 106.857 25.1023 105.1 25.2314 103.574C25.2987 102.777 24.032 102.625 23.8514 103.387Z" fill="#EFAC26"/>
<path d="M34.9389 101.623C34.7745 101.223 34.4581 100.93 33.9245 100.826C32.5547 100.562 31.8181 102.404 31.3691 103.369C30.93 104.312 30.6097 105.355 30.1524 106.31C29.9159 106.803 29.6432 107.313 29.2828 107.728C28.9601 108.1 28.5202 108.355 28.2656 108.789C28.1117 109.051 28.0476 109.41 28.2416 109.644C28.3998 109.835 28.6737 109.878 28.9216 109.882C31.2621 109.925 33.069 107.715 34.0894 105.85C34.5509 105.006 35.4351 102.83 34.9389 101.623Z" fill="#FFDA73"/>
<path d="M32.5474 96.148C32.4872 95.9992 32.4235 95.8615 32.3636 95.7442C31.7309 94.4988 30.5819 93.6379 29.2251 93.3136C28.8843 93.2322 28.5074 93.1924 28.1989 93.3581C27.295 93.8433 28.2787 94.7176 28.71 95.0887C29.1818 95.4948 29.7111 95.832 30.1664 96.2582C30.3997 96.4765 30.6185 96.7158 30.7861 96.9897C30.9541 97.2647 31.0439 97.587 31.2571 97.8377C31.4476 98.0616 31.74 98.2217 32.0304 98.1753C33.07 98.0108 32.8606 96.9247 32.5474 96.148Z" fill="#FFDA73"/>
<path d="M29.4416 76.2799C28.5594 75.1109 26.7772 75.3418 25.8131 76.3071C25.7781 76.3425 25.7518 76.3807 25.7183 76.4165C25.5483 75.9809 25.3138 75.5732 25.0045 75.2313C24.1604 74.2983 22.5121 73.7072 21.4949 74.8039C20.2514 76.145 20.5375 77.63 21.0967 79.2379C21.5763 80.6171 23.9987 84.19 24.6728 84.19C24.9132 84.19 25.1627 83.9937 25.3468 83.8619C25.6931 83.614 26.0115 83.3267 26.32 83.0336C27.0483 82.341 27.7236 81.5914 28.3209 80.7843C28.6947 80.2795 29.0611 79.7648 29.3456 79.2028C29.5856 78.7283 29.7666 78.2171 29.8304 77.6875C29.8925 77.17 29.7588 76.7002 29.4416 76.2799Z" fill="#E3453C"/>
<path d="M14.1032 71.3247C12.0652 69.9053 9.7857 72.0912 9.13604 74.3747C9.01838 74.3046 8.89994 74.2362 8.78307 74.1787C7.2134 73.4063 5.22899 73.4925 4.13113 74.994C3.16942 76.3095 3.50743 77.804 4.54784 78.8912C6.41696 80.8446 8.99595 82.1876 11.5187 83.0938C12.0302 83.2776 12.7507 83.6856 13.1541 83.1387C13.3614 82.8569 13.4149 82.4764 13.5586 82.162C13.6455 81.9716 13.7132 81.7697 13.7872 81.5741C13.9698 81.0909 14.1421 80.6038 14.3023 80.1127C14.6816 78.9518 15.0031 77.7666 15.1998 76.5602C15.4706 74.9024 15.6937 72.4324 14.1032 71.3247Z" fill="#E3453C"/>
<path d="M152.534 35.6559C152.184 34.3841 150.588 34.8642 150.027 35.6355C148.95 37.1198 147.636 38.7185 147.007 40.4547C146.986 40.5133 146.977 40.5684 146.974 40.6215C146.865 40.7813 146.986 40.9993 147.172 41.0303C147.392 41.1964 147.745 41.2196 147.973 41.0174C148.007 40.9874 148.036 40.9524 148.069 40.9213C149.041 40.6333 149.924 39.8636 150.655 39.2431C151.62 38.4218 152.924 37.0733 152.534 35.6559Z" fill="#F2524E"/>
<path d="M129.627 39.6688C128.963 38.7457 128.034 39.2324 127.504 40.0501C127.097 40.6782 126.805 41.3656 126.468 42.0322C126.136 42.6909 125.709 43.3276 125.544 44.0524C125.471 44.3759 125.599 44.645 125.811 44.7997C125.845 44.8323 125.886 44.8544 125.932 44.8701C126.176 44.9846 126.486 44.9669 126.736 44.7461C126.826 44.6671 126.909 44.5821 126.988 44.4935C127.64 44.0914 128.205 43.4921 128.641 42.9081C129.174 42.1943 130.301 40.6061 129.627 39.6688Z" fill="#F2524E"/>
<path d="M129.471 24.5466C129.11 24.3581 128.638 24.4446 128.431 24.8192C128.112 25.3953 127.848 26.0053 127.553 26.5947C127.25 27.2023 127.141 27.7756 126.984 28.4221C126.869 28.8935 127.494 29.3378 127.847 28.9246C127.942 28.8133 128.035 28.7078 128.127 28.6027C129.294 27.7965 130.922 25.3064 129.471 24.5466Z" fill="#F2524E"/>
<path d="M13.0543 75.0918C12.9335 74.7479 12.612 74.644 12.2913 74.7813C11.6908 75.0387 11.4244 75.88 11.2127 76.445C10.9231 77.2179 10.4273 78.2138 10.9872 78.9626C11.3079 79.3916 11.7943 79.464 12.2137 79.1204C12.4459 78.9304 12.5675 78.7084 12.6364 78.4664C13.1967 77.4728 13.3895 76.0441 13.0543 75.0918Z" fill="#F2524E"/>
<path d="M26.2612 77.8952C25.9905 78.3099 25.5777 78.6617 25.2712 79.0568C25.0921 79.287 24.8698 79.5234 24.7773 79.8048C24.6975 80.048 24.677 80.3045 24.6435 80.5576C24.6113 80.8015 24.784 80.9983 25.0012 81.0892C25.004 81.0911 25.006 81.0943 25.0087 81.0959C26.2954 81.853 27.642 79.5459 27.8206 78.5523C27.9898 77.6091 26.8082 77.0578 26.2612 77.8952Z" fill="#F2524E"/>
<defs>
<radialGradient id="paint0_radial_69_11805" cx="0" cy="0" r="1" gradientUnits="userSpaceOnUse" gradientTransform="translate(87.7502 130.325) scale(87.7502 13.6741)">
<stop/>
<stop offset="1" stop-opacity="0"/>
</radialGradient>
</defs>
</svg>
