<svg width="54" height="39" viewBox="0 0 54 39" fill="none" xmlns="http://www.w3.org/2000/svg">
<path d="M32.4079 6.67491C34.0463 3.57962 37.2879 -0.111123 40.5561 0.00256277C43.8242 -0.111123 47.0658 3.57962 48.7043 6.67491C50.3031 9.69509 51.3377 13.3168 51.1955 16.7457C51.1528 17.7723 51.0166 18.7999 50.757 19.7947C49.5725 24.3344 45.7495 28.7778 40.7055 28.587C40.6555 28.585 40.6059 28.5811 40.5561 28.5781C40.5062 28.5811 40.4567 28.5851 40.4068 28.587C35.3626 28.7778 31.5396 24.3344 30.355 19.7947C30.0954 18.7998 29.9593 17.7723 29.9166 16.7457C29.7744 13.3169 30.809 9.69509 32.4079 6.67491Z" fill="#BE235A"/>
<g opacity="0.06">
<path d="M32.4082 6.67515C33.2734 5.04067 34.5859 3.24059 36.1129 1.92188C35.7852 2.41716 35.4905 2.9146 35.2347 3.39775C33.636 6.41793 32.6013 10.0396 32.7437 13.4685C32.7863 14.495 32.9225 15.5225 33.182 16.5174C34.3667 21.0572 38.1895 25.5005 43.2336 25.3097C43.2836 25.3079 43.3333 25.3039 43.3831 25.301C43.4327 25.304 43.4824 25.308 43.5324 25.3097C45.7085 25.3921 47.6565 24.6107 49.2642 23.3323C47.4367 26.3807 44.3994 28.727 40.7057 28.5873C40.6557 28.5853 40.6061 28.5814 40.5563 28.5784C40.5064 28.5814 40.4569 28.5854 40.407 28.5873C35.3628 28.7781 31.5398 24.3347 30.3553 19.7948C30.0957 18.8001 29.9595 17.7725 29.9168 16.7459C29.7747 13.3171 30.8093 9.69532 32.4082 6.67515Z" fill="#1D1D1B"/>
</g>
<g opacity="0.2">
<path d="M39.5774 12.3096C40.8861 15.563 43.8139 17.4502 46.117 16.5246C48.42 15.5991 49.226 12.2115 47.9174 8.95806C46.6088 5.70465 43.681 3.81757 41.3779 4.74314C39.075 5.66859 38.2689 9.05632 39.5774 12.3096Z" fill="white"/>
</g>
<path d="M6.89915 26.1127C4.64333 23.4333 2.4368 19.0452 3.76832 16.0598C4.88893 12.9891 9.52779 11.3703 13.013 11.0134C16.4136 10.6651 20.1605 11.0653 23.287 12.4834C24.223 12.9081 25.1248 13.4198 25.9501 14.0335C29.7157 16.8342 32.4021 22.0434 30.3328 26.6453C30.3122 26.6909 30.2899 26.7353 30.2685 26.7804C30.2526 26.8277 30.2377 26.8751 30.2207 26.922C28.5053 31.6673 22.9503 33.5424 18.2959 32.9368C17.2759 32.804 16.2719 32.5447 15.3039 32.1991C12.0707 31.0445 9.10018 28.7271 6.89915 26.1127Z" fill="#FFCA46"/>
<g opacity="0.06">
<path d="M6.89956 26.1126C5.70841 24.6978 4.5315 22.8063 3.88139 20.8967C4.21775 21.3862 4.56854 21.8459 4.92058 22.2641C7.1216 24.8784 10.0921 27.1959 13.3254 28.3504C14.2933 28.696 15.2973 28.9554 16.3173 29.0881C20.9719 29.6937 26.5267 27.8186 28.242 23.0735C28.2592 23.0266 28.2741 22.979 28.29 22.9318C28.3114 22.8869 28.3337 22.8423 28.3541 22.7967C29.2469 20.8113 29.253 18.7133 28.6707 16.7441C30.8121 19.581 31.8485 23.2754 30.3332 26.6453C30.3126 26.6909 30.2903 26.7354 30.269 26.7804C30.253 26.8277 30.2381 26.8751 30.2212 26.9221C28.5057 31.6673 22.9507 33.5424 18.2962 32.9368C17.2764 32.8041 16.2723 32.5448 15.3043 32.1992C12.0711 31.0445 9.10059 28.7271 6.89956 26.1126Z" fill="#1D1D1B"/>
</g>
<g opacity="0.2">
<path d="M14.8144 21.5834C18.3226 21.5914 21.1711 19.5868 21.1767 17.1056C21.1824 14.6245 18.3432 12.6067 14.8351 12.5987C11.327 12.5906 8.47857 14.5954 8.47294 17.0764C8.46726 19.5575 11.3065 21.5753 14.8144 21.5834Z" fill="white"/>
</g>
<path d="M37.0243 16.7805C36.9708 16.6618 36.9283 16.5386 36.9068 16.4088C36.8838 16.2798 36.8699 16.1505 36.8769 16.0195C36.8951 15.7553 36.9664 15.497 37.1223 15.2601C37.1856 15.1613 37.2551 15.0738 37.3292 14.9967C37.4071 14.9189 37.4897 14.8515 37.5751 14.7932C37.7461 14.6767 37.9293 14.597 38.1183 14.5428C38.4981 14.4347 38.8995 14.4268 39.2846 14.4358C39.5964 14.4428 39.9944 14.4583 40.3408 14.4582C40.5203 14.457 40.6829 14.4518 40.8167 14.4433C40.9285 14.4342 41.0294 14.426 41.1285 14.418C41.1609 14.4184 41.1887 14.4176 41.2003 14.4247C41.2089 14.4338 41.2151 14.4433 41.209 14.4626C41.2065 14.4719 41.1988 14.4854 41.1936 14.4977C41.1888 14.5097 41.1817 14.5239 41.173 14.5406C41.1627 14.5593 41.1522 14.5784 41.1416 14.5977C41.131 14.6186 41.1202 14.6399 41.1092 14.6616C41.0583 14.759 41.0063 14.8763 40.9515 15.0175C40.8985 15.1555 40.8508 15.3051 40.7997 15.4593C40.5712 16.1607 40.3824 17.0163 39.7606 17.5506C39.677 17.6227 39.5817 17.6893 39.4786 17.7426C39.3765 17.7945 39.2647 17.8363 39.1447 17.8662C38.9018 17.9306 38.6393 17.9278 38.3623 17.8735C38.2285 17.8416 38.0935 17.7942 37.96 17.7335C37.825 17.6742 37.7045 17.5896 37.5837 17.4984C37.4618 17.4079 37.3585 17.2955 37.2624 17.1755C37.2153 17.115 37.1681 17.0538 37.1295 16.987C37.091 16.9201 37.0558 16.8511 37.0243 16.7805Z" fill="#F8B6BD"/>
<path d="M42.548 19.3009C42.0271 19.351 41.4816 19.1776 41.1326 18.7353C40.5432 17.9901 40.7666 17.14 41.016 16.4261C41.1183 16.1324 41.2563 15.7557 41.3645 15.4276C41.4192 15.2608 41.4664 15.0976 41.5011 14.971C41.5186 14.9069 41.5324 14.8414 41.5443 14.7921C41.5544 14.7494 41.5642 14.7082 41.5739 14.6671C41.5831 14.6313 41.5919 14.6155 41.6005 14.6014C41.6095 14.5904 41.6224 14.5992 41.6368 14.6058C41.6686 14.6312 41.7169 14.6861 41.7936 14.7643C41.8357 14.804 41.8791 14.845 41.9235 14.887C41.9728 14.9314 42.0243 14.973 42.0828 15.0205C42.2013 15.1171 42.3278 15.2059 42.4576 15.3002C42.6123 15.41 42.7691 15.5211 42.9275 15.6335C43.0864 15.7472 43.2465 15.8666 43.3977 15.9964C43.7003 16.2554 43.9678 16.5584 44.1285 16.937C44.2158 17.1418 44.2534 17.3696 44.2393 17.619C44.2336 17.7452 44.2057 17.8647 44.1677 17.9912C44.1283 18.1156 44.0772 18.2452 44.0045 18.3611C43.933 18.4788 43.849 18.5974 43.7492 18.7035C43.6478 18.8068 43.5332 18.9039 43.4089 18.9907C43.2824 19.0724 43.1439 19.1405 43.0002 19.1968C42.856 19.2518 42.7017 19.2814 42.548 19.3009Z" fill="#F8B6BD"/>
<path d="M46.6554 14.8267C46.5414 15.3322 46.209 15.7952 45.6813 15.9967C45.5746 16.0407 45.4654 16.0698 45.3562 16.0869C45.2482 16.1045 45.1427 16.1112 45.04 16.1085C44.835 16.1034 44.6406 16.0606 44.4527 15.9916C44.0794 15.8547 43.7504 15.6257 43.4457 15.3932C43.2034 15.208 42.8842 14.9582 42.6035 14.7548C42.4666 14.6544 42.3199 14.5577 42.2099 14.4877C42.1566 14.4531 42.0972 14.4188 42.0534 14.3924C42.0078 14.3653 41.9762 14.345 41.944 14.3245C41.8197 14.243 41.9165 14.2361 42.1054 14.1392C42.1545 14.1154 42.2019 14.0887 42.2609 14.0559C42.2906 14.0386 42.3207 14.0212 42.351 14.0035C42.3803 13.9846 42.4098 13.9657 42.4396 13.9466C42.5006 13.9066 42.5651 13.8627 42.6308 13.8166C42.6952 13.7698 42.7591 13.7233 42.8216 13.678C42.9744 13.5643 43.1292 13.4491 43.2855 13.3329C43.4417 13.2172 43.604 13.1021 43.7738 12.9983C44.1113 12.7913 44.4886 12.6266 44.8932 12.5927C45.1105 12.5749 45.3484 12.6055 45.5778 12.6977C45.8009 12.7917 46.0316 12.9422 46.2111 13.1531C46.3035 13.2576 46.3914 13.3743 46.4568 13.5037C46.5233 13.6326 46.5883 13.7714 46.6249 13.9171C46.6621 14.0627 46.6884 14.2152 46.6962 14.3687C46.6978 14.5212 46.6845 14.6759 46.6554 14.8267Z" fill="#F8B6BD"/>
<path d="M43.6667 9.53792C44.1209 9.80147 44.4498 10.2722 44.4821 10.8272C44.4925 11.0639 44.4562 11.2788 44.3886 11.4708C44.3201 11.6637 44.2143 11.8399 44.0931 11.9948C43.8487 12.3063 43.5293 12.5485 43.2128 12.7673C43.0857 12.8543 42.9411 12.9532 42.7911 13.0558C42.6428 13.157 42.4853 13.2672 42.3442 13.3694C42.2757 13.4203 42.2086 13.4701 42.1435 13.5184C42.0787 13.5688 42.0192 13.6167 41.967 13.6596C41.9149 13.7022 41.8701 13.7395 41.8286 13.7771C41.7876 13.8141 41.7584 13.8375 41.7316 13.8601C41.7012 13.8872 41.6853 13.8943 41.6714 13.8976C41.6565 13.9036 41.6504 13.8917 41.6446 13.8723C41.6373 13.8573 41.6334 13.8287 41.6293 13.788C41.6224 13.7451 41.6153 13.7006 41.6079 13.6546C41.5998 13.5969 41.5877 13.5455 41.5738 13.4801C41.5599 13.4181 41.5425 13.341 41.5234 13.2747C41.4856 13.1378 41.435 12.9751 41.3864 12.828C41.2731 12.4792 41.1276 12.0946 41.0359 11.7119C40.9434 11.3253 40.9039 10.9186 40.9981 10.5253C41.0488 10.3134 41.1515 10.09 41.3109 9.90786C41.3904 9.81463 41.4835 9.7263 41.5889 9.64538C41.6939 9.56722 41.8108 9.50305 41.9379 9.44564C42.0015 9.41759 42.0676 9.39092 42.1354 9.36933C42.203 9.35008 42.2727 9.33369 42.3441 9.32047C42.4867 9.29583 42.6366 9.27526 42.7866 9.28716C42.9367 9.29685 43.0909 9.31444 43.2386 9.35827C43.3861 9.40366 43.5314 9.46238 43.6667 9.53792Z" fill="#F8B6BD"/>
<path d="M37.7154 10.7462C38.0989 10.3928 38.6518 10.2314 39.1894 10.3728C39.6435 10.4918 39.9602 10.774 40.1804 11.0997C40.401 11.4266 40.5332 11.8049 40.6446 12.1745C40.6886 12.3229 40.7386 12.4916 40.7905 12.6665C40.842 12.84 40.8944 13.0153 40.9507 13.1856C41.0073 13.3561 41.0572 13.5018 41.1105 13.6343C41.1338 13.6923 41.1561 13.7477 41.1776 13.8011C41.1996 13.852 41.2172 13.8927 41.2263 13.9218C41.2795 14.0582 41.2036 14.0081 40.9922 13.9758C40.9641 13.9712 40.9354 13.9665 40.9064 13.9617C40.8767 13.9583 40.8466 13.9548 40.8162 13.9512C40.7528 13.9446 40.6783 13.9374 40.6051 13.9339C40.4629 13.9281 40.2969 13.927 40.1377 13.9275C39.4005 13.9316 38.5241 14.0123 37.8275 13.5892C37.6385 13.4753 37.4613 13.3115 37.3354 13.1031C37.2709 12.9988 37.2139 12.8828 37.17 12.7578C37.1308 12.6344 37.1029 12.5014 37.0878 12.3619C37.0697 12.2211 37.0785 12.0802 37.0961 11.9343C37.1053 11.8616 37.1181 11.7883 37.1345 11.715C37.1536 11.6435 37.1771 11.5724 37.2038 11.5016C37.2573 11.3602 37.3228 11.2196 37.4125 11.0948C37.5007 10.9694 37.5959 10.8455 37.7154 10.7462Z" fill="#F8B6BD"/>
<path d="M41.8218 13.768C41.8622 13.7381 41.9039 13.7072 41.9464 13.6757C41.9492 13.6736 41.9523 13.6715 41.9551 13.6694C41.9084 13.7078 41.8668 13.7425 41.8287 13.7771C41.7877 13.814 41.7584 13.8374 41.7317 13.86C41.7012 13.8871 41.6853 13.8943 41.6714 13.8976C41.6673 13.8992 41.664 13.8993 41.661 13.8984C41.677 13.8848 41.6937 13.8708 41.7122 13.8557C41.7447 13.829 41.7816 13.7993 41.8218 13.768Z" fill="#F2B1AF"/>
<path d="M41.0825 14.6978C41.1165 14.6102 41.1488 14.5375 41.1803 14.4771C41.1871 14.4637 41.1938 14.4504 41.2004 14.4375C41.2018 14.4348 41.2033 14.4323 41.2047 14.4297C41.2106 14.4375 41.214 14.4466 41.209 14.4624C41.2065 14.4717 41.1989 14.4852 41.1936 14.4975C41.1889 14.5095 41.1818 14.5237 41.173 14.5404C41.1627 14.5591 41.1523 14.5781 41.1417 14.5974C41.131 14.6184 41.1202 14.6397 41.1092 14.6614C41.0926 14.6932 41.0757 14.7282 41.0587 14.7645C41.0666 14.7422 41.0743 14.7193 41.0825 14.6978Z" fill="#F2B1AF"/>
<path d="M41.1775 13.8015C41.1995 13.8524 41.2171 13.893 41.2262 13.9222C41.2384 13.9534 41.2429 13.974 41.2414 13.9881C41.2361 13.9751 41.2299 13.9605 41.2226 13.9438C41.2094 13.9106 41.1955 13.8762 41.1811 13.8402C41.148 13.7581 41.117 13.6676 41.0819 13.5619C41.0814 13.5603 41.0809 13.5587 41.0804 13.5571C41.0904 13.5833 41.1003 13.6095 41.1105 13.6346C41.1336 13.6926 41.1559 13.748 41.1775 13.8015Z" fill="#F2B1AF"/>
<path d="M42.8575 13.0104C42.9197 12.9523 42.9786 12.8902 43.0315 12.8228C43.1067 12.7267 43.1723 12.6174 43.2148 12.4977C43.2568 12.3786 43.2793 12.2453 43.2729 12.0984C43.2528 11.754 43.0487 11.462 42.7669 11.2985C42.683 11.2516 42.5929 11.2152 42.5015 11.187C42.4098 11.1598 42.3142 11.1489 42.221 11.1429C42.1279 11.1355 42.0349 11.1482 41.9465 11.1635C41.9022 11.1717 41.859 11.1819 41.817 11.1938C41.7749 11.2073 41.7339 11.2238 41.6945 11.2412C41.6156 11.2769 41.5431 11.3166 41.4779 11.3651C41.4125 11.4153 41.3547 11.4701 41.3054 11.528C41.2065 11.641 41.1428 11.7796 41.1114 11.9111C41.1077 11.9263 41.1053 11.9416 41.1023 11.957C41.0787 11.8754 41.0557 11.7936 41.0361 11.7119C40.9436 11.3253 40.9041 10.9186 40.9983 10.5253C41.049 10.3134 41.1517 10.09 41.3111 9.90786C41.3906 9.81463 41.4837 9.7263 41.5891 9.64538C41.6941 9.56722 41.811 9.50305 41.9381 9.44564C42.0017 9.41759 42.0678 9.39092 42.1356 9.36933C42.2032 9.35008 42.2729 9.33369 42.3443 9.32047C42.4869 9.29583 42.6367 9.27526 42.7868 9.28716C42.9369 9.29685 43.0911 9.31444 43.2388 9.35827C43.3861 9.40366 43.5314 9.46238 43.6667 9.53792C44.1209 9.80147 44.4497 10.2722 44.4821 10.8272C44.4925 11.0639 44.4562 11.2788 44.3886 11.4708C44.3201 11.6637 44.2143 11.8399 44.0931 11.9948C43.8487 12.3063 43.5293 12.5485 43.2128 12.7673C43.1047 12.8413 42.9835 12.9243 42.8575 13.0104Z" fill="#F2B1AF"/>
<path d="M41.1947 17.0044C41.4113 17.2788 41.7497 17.3864 42.0729 17.3553C42.1682 17.3432 42.2639 17.3248 42.3533 17.2908C42.4425 17.2559 42.5284 17.2137 42.607 17.163C42.6841 17.1091 42.7551 17.0489 42.818 16.9848C42.88 16.9189 42.9321 16.8453 42.9765 16.7724C43.0216 16.7004 43.0533 16.62 43.0778 16.5428C43.1013 16.4643 43.1186 16.3902 43.1221 16.3119C43.1309 16.1571 43.1076 16.0158 43.0534 15.8887C43.0094 15.7849 42.9518 15.6907 42.8857 15.6035C42.8998 15.6135 42.9134 15.6232 42.9275 15.6332C43.0864 15.7469 43.2465 15.8664 43.3977 15.9961C43.7003 16.2551 43.9678 16.5581 44.1285 16.9367C44.2158 17.1415 44.2534 17.3693 44.2393 17.6187C44.2336 17.7449 44.2057 17.8644 44.1677 17.9909C44.1283 18.1153 44.0772 18.2449 44.0045 18.3609C43.933 18.4785 43.849 18.5971 43.7492 18.7032C43.6478 18.8066 43.5332 18.9036 43.4089 18.9905C43.2824 19.0722 43.1439 19.1402 43.0002 19.1965C42.856 19.2514 42.7018 19.2809 42.548 19.3005C42.0271 19.3505 41.4816 19.1771 41.1326 18.7349C40.5714 18.0254 40.7471 17.2211 40.9804 16.5296C41.0088 16.6914 41.0738 16.8515 41.1947 17.0044Z" fill="#F2B1AF"/>
<path d="M38.1181 14.5426C38.4801 14.4396 38.8615 14.4278 39.23 14.4347C39.1461 14.4659 39.0648 14.5062 38.9874 14.5589C38.9344 14.595 38.8832 14.6369 38.8349 14.6851C38.7889 14.733 38.7458 14.7872 38.7065 14.8486C38.6098 14.9956 38.5655 15.1558 38.5542 15.3197C38.5499 15.401 38.5585 15.4812 38.5728 15.5613C38.5862 15.6419 38.6126 15.7183 38.6458 15.7919C38.6653 15.8357 38.6871 15.8785 38.711 15.9201C38.7349 15.9615 38.7642 15.9994 38.7934 16.037C38.8531 16.1114 38.9172 16.1811 38.9928 16.2372C39.0678 16.2938 39.1426 16.3463 39.2263 16.3831C39.309 16.4208 39.3928 16.4502 39.4759 16.47C39.6477 16.5037 39.8107 16.5055 39.9613 16.4655C40.0358 16.447 40.1051 16.421 40.1685 16.3888C40.2324 16.3558 40.2915 16.3145 40.3434 16.2697C40.4954 16.1391 40.6054 15.9773 40.6919 15.8029C40.5003 16.4242 40.2837 17.1009 39.7605 17.5505C39.6769 17.6226 39.5816 17.6892 39.4785 17.7425C39.3764 17.7944 39.2647 17.8361 39.1446 17.8661C38.9017 17.9305 38.6392 17.9277 38.3622 17.8733C38.2284 17.8415 38.0934 17.7941 37.9599 17.7333C37.825 17.6741 37.7044 17.5895 37.5836 17.4983C37.4617 17.4078 37.3585 17.2953 37.2623 17.1754C37.2152 17.1149 37.168 17.0537 37.1294 16.9869C37.091 16.9201 37.0558 16.851 37.0244 16.7804C36.9708 16.6617 36.9283 16.5385 36.9068 16.4087C36.8838 16.2797 36.87 16.1504 36.8769 16.0194C36.8951 15.7552 36.9664 15.4969 37.1224 15.26C37.1857 15.1612 37.2551 15.0737 37.3293 14.9966C37.4072 14.9188 37.4897 14.8514 37.5752 14.7931C37.7459 14.6765 37.9291 14.5968 38.1181 14.5426Z" fill="#F2B1AF"/>
<path d="M37.7149 10.7462C38.0985 10.3928 38.6513 10.2314 39.1889 10.3728C39.643 10.4918 39.9598 10.774 40.1799 11.0997C40.4005 11.4266 40.5327 11.8049 40.6441 12.1745C40.6783 12.2899 40.7163 12.4179 40.7559 12.5513C40.7133 12.4526 40.664 12.3568 40.6036 12.2674C40.4671 12.0654 40.2705 11.8903 39.9888 11.8164C39.6552 11.7286 39.3122 11.8288 39.0742 12.0481C39.0002 12.1096 38.9411 12.1865 38.8863 12.2645C38.8307 12.342 38.79 12.4292 38.7568 12.5169C38.7402 12.5608 38.7257 12.605 38.7137 12.6493C38.7036 12.6947 38.6957 12.7402 38.6899 12.7853C38.679 12.8759 38.6736 12.9633 38.6848 13.0506C38.6941 13.1372 38.7114 13.2197 38.7358 13.2963C38.763 13.3737 38.7983 13.4458 38.8384 13.5105C38.9165 13.6397 39.0265 13.7414 39.1437 13.812C39.2319 13.8656 39.3248 13.9056 39.4206 13.9362C38.8736 13.9333 38.3075 13.8812 37.8269 13.5893C37.6379 13.4754 37.4608 13.3116 37.3349 13.1032C37.2703 12.999 37.2134 12.8829 37.1695 12.758C37.1302 12.6345 37.1023 12.5015 37.0873 12.362C37.0692 12.2212 37.0779 12.0803 37.0955 11.9344C37.1049 11.8617 37.1176 11.7884 37.1339 11.7152C37.1531 11.6436 37.1765 11.5725 37.2032 11.5017C37.2567 11.3603 37.3222 11.2198 37.4119 11.0949C37.5003 10.9694 37.5955 10.8454 37.7149 10.7462Z" fill="#F2B1AF"/>
<path d="M45.3562 16.0871C45.2482 16.1048 45.1427 16.1114 45.04 16.1087C44.835 16.1036 44.6406 16.0609 44.4527 15.9918C44.0794 15.8549 43.7504 15.626 43.4457 15.3935C43.4232 15.3762 43.3994 15.358 43.3757 15.3398C43.4545 15.3601 43.5352 15.3731 43.619 15.3752C43.6826 15.3769 43.7481 15.3728 43.8152 15.3618C43.8829 15.3512 43.9507 15.3331 44.0169 15.3059C44.3442 15.1809 44.5505 14.8936 44.6212 14.58C44.6393 14.4864 44.6475 14.3905 44.6465 14.2957C44.6417 14.2005 44.6254 14.1058 44.6022 14.0155C44.5795 13.9252 44.5392 13.839 44.4979 13.7591C44.4573 13.6788 44.4028 13.6064 44.3455 13.5415C44.2342 13.4106 44.091 13.3173 43.9526 13.2589C43.8103 13.2017 43.6628 13.1828 43.5279 13.1938C43.5081 13.1954 43.4886 13.1985 43.4689 13.2011C43.5682 13.131 43.6692 13.0623 43.7738 12.9983C44.1113 12.7913 44.4886 12.6266 44.8932 12.5927C45.1105 12.5749 45.3484 12.6055 45.5778 12.6977C45.8009 12.7917 46.0316 12.9422 46.2111 13.1531C46.3034 13.2576 46.3914 13.3743 46.4568 13.5037C46.5233 13.6326 46.5883 13.7714 46.6249 13.9171C46.6621 14.0627 46.6884 14.2152 46.6962 14.3687C46.6978 14.5214 46.6846 14.676 46.6554 14.8268C46.5415 15.3323 46.2091 15.7953 45.6814 15.9968C45.5746 16.0408 45.4654 16.07 45.3562 16.0871Z" fill="#F2B1AF"/>
<path d="M40.5635 13.053C39.9395 13.6582 39.9244 14.6543 40.5298 15.278C41.1352 15.9018 42.1318 15.9169 42.7558 15.3118C43.3798 14.7066 43.3949 13.7105 42.7895 13.0867C42.1842 12.463 41.1876 12.4479 40.5635 13.053Z" fill="#F6F6B6"/>
<path d="M41.0335 13.3968C40.6373 13.781 40.6277 14.4135 41.0121 14.8095C41.3965 15.2056 42.0292 15.2151 42.4254 14.8309C42.8217 14.4467 42.8313 13.8142 42.4468 13.4182C42.0625 13.0221 41.4297 13.0125 41.0335 13.3968Z" fill="#F3F19C"/>
<path d="M42.6217 14.7875C42.5745 14.8333 42.5734 14.9087 42.6192 14.9559C42.665 15.003 42.7404 15.0042 42.7875 14.9584C42.8348 14.9126 42.8359 14.8373 42.7901 14.7901C42.7443 14.7429 42.669 14.7417 42.6217 14.7875Z" fill="#F3F19C"/>
<path d="M42.9015 14.2811C42.8544 14.3269 42.8532 14.4023 42.899 14.4495C42.9448 14.4966 43.0202 14.4978 43.0673 14.452C43.1146 14.4062 43.1157 14.3308 43.0699 14.2837C43.0241 14.2365 42.9487 14.2354 42.9015 14.2811Z" fill="#F3F19C"/>
<path d="M42.2492 15.1971C42.202 15.243 42.2008 15.3183 42.2466 15.3655C42.2924 15.4127 42.3678 15.4138 42.415 15.3681C42.4622 15.3223 42.4633 15.2469 42.4176 15.1998C42.3718 15.1525 42.2964 15.1514 42.2492 15.1971Z" fill="#F3F19C"/>
<path d="M41.7077 15.3617C41.6604 15.4075 41.6593 15.4829 41.7051 15.5301C41.7509 15.5772 41.8263 15.5784 41.8735 15.5326C41.9207 15.4868 41.9218 15.4115 41.8761 15.3643C41.8302 15.3171 41.7549 15.316 41.7077 15.3617Z" fill="#F3F19C"/>
<path d="M41.1686 15.2655C41.1214 15.3113 41.1202 15.3867 41.1661 15.4339C41.2118 15.4811 41.2872 15.4822 41.3344 15.4365C41.3816 15.3906 41.3828 15.3153 41.337 15.2681C41.2912 15.2209 41.2159 15.2197 41.1686 15.2655Z" fill="#F3F19C"/>
<path d="M40.7067 14.8808C40.6595 14.9266 40.6583 15.002 40.7041 15.0491C40.7499 15.0963 40.8253 15.0975 40.8725 15.0517C40.9197 15.0059 40.9209 14.9305 40.8751 14.8834C40.8293 14.8361 40.7539 14.835 40.7067 14.8808Z" fill="#F3F19C"/>
<path d="M40.3751 14.3681C40.3279 14.4138 40.3268 14.4892 40.3725 14.5364C40.4184 14.5836 40.4938 14.5847 40.541 14.5389C40.5882 14.4931 40.5893 14.4178 40.5435 14.3706C40.4977 14.3234 40.4223 14.3223 40.3751 14.3681Z" fill="#F3F19C"/>
<path d="M40.3253 13.8383C40.2781 13.8841 40.277 13.9594 40.3228 14.0066C40.3686 14.0538 40.444 14.0549 40.4912 14.0092C40.5384 13.9634 40.5395 13.8881 40.4938 13.8408C40.448 13.7937 40.3725 13.7925 40.3253 13.8383Z" fill="#F3F19C"/>
<path d="M40.5671 13.2929C40.5198 13.3387 40.5187 13.4141 40.5645 13.4613C40.6103 13.5084 40.6857 13.5096 40.7329 13.4638C40.7801 13.418 40.7812 13.3427 40.7354 13.2954C40.6897 13.2482 40.6143 13.2471 40.5671 13.2929Z" fill="#F3F19C"/>
<path d="M41.0294 12.9223C40.9822 12.9681 40.9811 13.0435 41.0269 13.0906C41.0726 13.1378 41.1481 13.139 41.1953 13.0932C41.2425 13.0474 41.2436 12.9721 41.1979 12.9249C41.152 12.8776 41.0766 12.8765 41.0294 12.9223Z" fill="#F3F19C"/>
<path d="M41.5797 12.788C41.5325 12.8338 41.5314 12.9092 41.5771 12.9564C41.623 13.0035 41.6983 13.0047 41.7456 12.9589C41.7928 12.9131 41.7939 12.8378 41.7481 12.7906C41.7024 12.7433 41.6269 12.7422 41.5797 12.788Z" fill="#F3F19C"/>
<path d="M42.1076 12.8973C42.0603 12.9432 42.0592 13.0185 42.105 13.0657C42.1508 13.1129 42.2262 13.114 42.2734 13.0683C42.3206 13.0225 42.3217 12.9471 42.276 12.8999C42.2301 12.8527 42.1548 12.8516 42.1076 12.8973Z" fill="#F3F19C"/>
<path d="M42.6183 13.2524C42.5711 13.2982 42.57 13.3735 42.6157 13.4207C42.6615 13.4679 42.7369 13.469 42.7841 13.4233C42.8314 13.3775 42.8325 13.3021 42.7867 13.2549C42.7409 13.2077 42.6655 13.2065 42.6183 13.2524Z" fill="#F3F19C"/>
<path d="M42.068 13.7856C42.0207 13.8314 42.0196 13.9067 42.0654 13.9539C42.1113 14.0011 42.1867 14.0022 42.2339 13.9565C42.2811 13.9107 42.2822 13.8353 42.2364 13.7881C42.1906 13.7409 42.1152 13.7397 42.068 13.7856Z" fill="#F6F6B6"/>
<path d="M42.0929 14.4135C42.0457 14.4593 42.0446 14.5346 42.0903 14.5818C42.1361 14.629 42.2115 14.6302 42.2588 14.5844C42.306 14.5386 42.3071 14.4632 42.2613 14.4161C42.2155 14.3689 42.1401 14.3677 42.0929 14.4135Z" fill="#F6F6B6"/>
<path d="M41.2897 14.2089C41.2424 14.2547 41.2413 14.33 41.2871 14.3772C41.3329 14.4244 41.4083 14.4255 41.4555 14.3798C41.5027 14.334 41.5039 14.2586 41.4581 14.2114C41.4122 14.1643 41.3368 14.1631 41.2897 14.2089Z" fill="#F6F6B6"/>
<path d="M40.9475 13.8563C40.9003 13.9021 40.8991 13.9775 40.9449 14.0247C40.9907 14.0719 41.066 14.073 41.1132 14.0272C41.1605 13.9814 41.1616 13.9061 41.1158 13.8589C41.0701 13.8117 40.9946 13.8106 40.9475 13.8563Z" fill="#F6F6B6"/>
<path d="M41.4059 13.5346C41.3587 13.5804 41.3576 13.6557 41.4033 13.7029C41.4492 13.7501 41.5245 13.7512 41.5717 13.7055C41.6189 13.6597 41.6201 13.5843 41.5743 13.5371C41.5285 13.4899 41.4531 13.4888 41.4059 13.5346Z" fill="#F6F6B6"/>
<path d="M41.6301 14.6962C41.5829 14.742 41.5817 14.8173 41.6275 14.8645C41.6733 14.9117 41.7487 14.9128 41.7959 14.8671C41.8431 14.8213 41.8442 14.7459 41.7984 14.6987C41.7527 14.6516 41.6773 14.6504 41.6301 14.6962Z" fill="#F6F6B6"/>
<path d="M42.8864 13.8422C42.8392 13.888 42.838 13.9634 42.8838 14.0105C42.9296 14.0577 43.005 14.0588 43.0522 14.0131C43.0994 13.9672 43.1006 13.8919 43.0548 13.8447C43.009 13.7975 42.9336 13.7965 42.8864 13.8422Z" fill="#F3F19C"/>
<path d="M41.1873 14.2983C41.1841 14.2914 41.168 14.291 41.1493 14.2983L39.7872 14.8383C39.769 14.8453 39.762 14.8754 39.7745 14.9038C39.7875 14.9319 39.8131 14.948 39.8309 14.9395L41.1614 14.3256C41.1792 14.3173 41.1911 14.3049 41.1873 14.2983Z" fill="#ECAE00"/>
<path d="M39.9301 15.0956C39.9679 15.0737 39.987 15.0324 39.9933 14.9831C40.0001 14.9332 39.992 14.8764 39.9664 14.8216C39.922 14.7106 39.824 14.6367 39.7424 14.6587C39.6571 14.6816 39.6249 14.8113 39.6786 14.9449C39.7083 15.0094 39.7525 15.0599 39.7979 15.0872C39.8439 15.1142 39.8931 15.1172 39.9301 15.0956Z" fill="#FFDA34"/>
<path d="M41.3541 14.508C41.348 14.5035 41.3326 14.5126 41.3203 14.5279L40.4097 15.6755C40.3973 15.6909 40.4073 15.7189 40.4321 15.7374C40.4569 15.756 40.4866 15.7577 40.4979 15.7415L41.3446 14.5461C41.3559 14.5299 41.3603 14.5126 41.3541 14.508Z" fill="#ECAE00"/>
<path d="M40.6617 15.8266C40.7048 15.7489 40.6509 15.6445 40.5574 15.5701C40.5082 15.5349 40.4553 15.5135 40.407 15.5065C40.358 15.5005 40.3119 15.511 40.282 15.5422C40.2521 15.5735 40.2449 15.6202 40.2598 15.6718C40.2738 15.7242 40.312 15.7791 40.3696 15.8206C40.4826 15.9092 40.6215 15.9003 40.6617 15.8266Z" fill="#FFDA34"/>
<path d="M41.6007 14.607C41.5932 14.6055 41.5846 14.6205 41.5816 14.6401L41.3696 16.0893C41.3666 16.1089 41.3893 16.1287 41.42 16.133C41.4506 16.1379 41.4772 16.1231 41.4789 16.1033L41.6115 14.6447C41.6132 14.625 41.6081 14.6093 41.6007 14.607Z" fill="#ECAE00"/>
<path d="M41.6626 16.0959C41.6608 16.0084 41.5627 15.9384 41.4443 15.9256C41.3844 15.9171 41.3275 15.9258 41.2816 15.9467C41.2364 15.9649 41.2018 15.9965 41.1915 16.0385C41.1813 16.0805 41.1985 16.1252 41.2372 16.1635C41.2762 16.199 41.3371 16.2266 41.4075 16.2364C41.5499 16.2518 41.6645 16.1812 41.6626 16.0959Z" fill="#FFDA34"/>
<path d="M41.8655 14.5701C41.8586 14.5732 41.8583 14.5893 41.8656 14.608L42.4057 15.9696C42.4128 15.9877 42.4429 15.9947 42.4712 15.9823C42.4993 15.9693 42.5154 15.9437 42.5071 15.9258L41.8928 14.596C41.8845 14.5781 41.8721 14.5662 41.8655 14.5701Z" fill="#ECAE00"/>
<path d="M42.663 15.8267C42.6411 15.789 42.5997 15.7699 42.5504 15.7635C42.5005 15.7567 42.4437 15.7648 42.3888 15.7904C42.2777 15.8348 42.2038 15.9328 42.2258 16.0143C42.2488 16.0996 42.3785 16.1318 42.5121 16.078C42.5767 16.0483 42.6272 16.0041 42.6544 15.9588C42.6816 15.9128 42.6846 15.8636 42.663 15.8267Z" fill="#FFDA34"/>
<path d="M42.0757 14.4037C42.0711 14.4099 42.0802 14.4252 42.0956 14.4376L43.2437 15.3478C43.2591 15.3601 43.2871 15.3502 43.3057 15.3254C43.3242 15.3007 43.3259 15.271 43.3097 15.2597L42.1137 14.4133C42.0976 14.402 42.0803 14.3975 42.0757 14.4037Z" fill="#ECAE00"/>
<path d="M43.3947 15.0956C43.317 15.0526 43.2125 15.1065 43.1381 15.1999C43.1028 15.2491 43.0815 15.302 43.0745 15.3503C43.0685 15.3992 43.079 15.4453 43.1102 15.4753C43.1414 15.5052 43.1883 15.5123 43.2399 15.4974C43.2923 15.4834 43.3471 15.4452 43.3887 15.3877C43.4774 15.2747 43.4685 15.1359 43.3947 15.0956Z" fill="#FFDA34"/>
<path d="M42.1746 14.157C42.1729 14.1645 42.188 14.1731 42.2076 14.1761L43.6575 14.3881C43.6771 14.3911 43.6969 14.3684 43.7012 14.3377C43.7062 14.3071 43.6913 14.2805 43.6715 14.2789L42.2121 14.1463C42.1925 14.1446 42.1767 14.1497 42.1746 14.157Z" fill="#ECAE00"/>
<path d="M43.6639 14.0952C43.5764 14.0969 43.5063 14.1951 43.4936 14.3135C43.485 14.3733 43.4938 14.4301 43.5147 14.476C43.5329 14.5212 43.5644 14.5558 43.6065 14.5661C43.6485 14.5763 43.6933 14.5592 43.7316 14.5204C43.7671 14.4814 43.7947 14.4205 43.8045 14.3502C43.8199 14.2079 43.7492 14.0933 43.6639 14.0952Z" fill="#FFDA34"/>
<path d="M42.1376 13.8926C42.1407 13.8994 42.1568 13.8998 42.1756 13.8925L43.5376 13.3526C43.5558 13.3455 43.5628 13.3155 43.5504 13.2871C43.5373 13.259 43.5118 13.2429 43.4939 13.2512L42.1635 13.8652C42.1456 13.8736 42.1337 13.8859 42.1376 13.8926Z" fill="#ECAE00"/>
<path d="M43.3945 13.0953C43.3567 13.1173 43.3377 13.1585 43.3314 13.2079C43.3245 13.2577 43.3327 13.3146 43.3582 13.3694C43.4026 13.4804 43.5006 13.5543 43.5823 13.5323C43.6676 13.5093 43.6998 13.3797 43.6461 13.2461C43.6163 13.1816 43.5721 13.1311 43.5268 13.1039C43.4807 13.0767 43.4314 13.0738 43.3945 13.0953Z" fill="#FFDA34"/>
<path d="M41.971 13.6831C41.9772 13.6877 41.9926 13.6786 42.005 13.6631L42.9156 12.5156C42.928 12.5001 42.918 12.4721 42.8932 12.4536C42.8684 12.4351 42.8387 12.4333 42.8274 12.4496L41.9807 13.645C41.9693 13.6612 41.9649 13.6785 41.971 13.6831Z" fill="#ECAE00"/>
<path d="M42.6632 12.364C42.6202 12.4417 42.6741 12.5462 42.7676 12.6205C42.8168 12.6558 42.8697 12.6771 42.9181 12.6842C42.967 12.6901 43.0131 12.6796 43.043 12.6484C43.073 12.6173 43.0801 12.5704 43.0652 12.5188C43.0512 12.4664 43.0131 12.4116 42.9555 12.3701C42.8424 12.2815 42.7035 12.2903 42.6632 12.364Z" fill="#FFDA34"/>
<path d="M41.7247 13.5835C41.7322 13.5851 41.7408 13.5701 41.7438 13.5505L41.9558 12.1013C41.9588 12.0817 41.9361 12.0619 41.9055 12.0576C41.8748 12.0526 41.8483 12.0675 41.8465 12.0873L41.7139 13.546C41.7122 13.5656 41.7174 13.5813 41.7247 13.5835Z" fill="#ECAE00"/>
<path d="M41.6627 12.0948C41.6644 12.1823 41.7626 12.2523 41.881 12.265C41.941 12.2737 41.9978 12.2649 42.0437 12.2439C42.0889 12.2258 42.1236 12.1942 42.1338 12.1522C42.144 12.1102 42.1269 12.0654 42.0881 12.0271C42.0492 11.9916 41.9882 11.9641 41.9178 11.9542C41.7754 11.9389 41.6608 12.0095 41.6627 12.0948Z" fill="#FFDA34"/>
<path d="M41.4596 13.6201C41.4664 13.617 41.4668 13.6008 41.4595 13.5822L40.9194 12.2206C40.9123 12.2025 40.8823 12.1955 40.8538 12.2079C40.8257 12.2209 40.8096 12.2465 40.818 12.2643L41.4322 13.5942C41.4405 13.6121 41.4529 13.6239 41.4596 13.6201Z" fill="#ECAE00"/>
<path d="M40.6615 12.3641C40.6835 12.4019 40.7248 12.4209 40.7741 12.4273C40.8241 12.4341 40.8808 12.426 40.9357 12.4004C41.0467 12.3561 41.1206 12.2581 41.0987 12.1765C41.0757 12.0912 40.9459 12.059 40.8123 12.1127C40.7478 12.1425 40.6973 12.1866 40.67 12.232C40.6429 12.278 40.64 12.3272 40.6615 12.3641Z" fill="#FFDA34"/>
<path d="M41.2493 13.7872C41.2539 13.7811 41.2448 13.7657 41.2294 13.7534L40.0813 12.8432C40.0659 12.8309 40.0379 12.8408 40.0193 12.8655C40.0008 12.8903 39.9991 12.92 40.0152 12.9313L41.2112 13.7777C41.2274 13.789 41.2447 13.7934 41.2493 13.7872Z" fill="#ECAE00"/>
<path d="M39.9301 13.0949C40.0078 13.1379 40.1123 13.084 40.1866 12.9906C40.2219 12.9414 40.2432 12.8885 40.2504 12.8402C40.2563 12.7913 40.2458 12.7452 40.2146 12.7152C40.1835 12.6853 40.1366 12.6782 40.085 12.6931C40.0326 12.7071 39.9777 12.7452 39.9362 12.8028C39.8475 12.9158 39.8563 13.0546 39.9301 13.0949Z" fill="#FFDA34"/>
<path d="M41.1503 14.033C41.1519 14.0256 41.1368 14.0169 41.1172 14.014L39.6673 13.802C39.6478 13.7991 39.628 13.8217 39.6237 13.8524C39.6187 13.883 39.6336 13.9095 39.6534 13.9113L41.1128 14.0438C41.1324 14.0455 41.1481 14.0404 41.1503 14.033Z" fill="#ECAE00"/>
<path d="M39.6614 14.0954C39.7489 14.0937 39.819 13.9955 39.8317 13.8772C39.8403 13.8173 39.8315 13.7605 39.8106 13.7146C39.7924 13.6694 39.7608 13.6348 39.7188 13.6245C39.6768 13.6142 39.632 13.6314 39.5937 13.6701C39.5582 13.7091 39.5306 13.77 39.5208 13.8403C39.5054 13.9827 39.5761 14.0973 39.6614 14.0954Z" fill="#FFDA34"/>
<path d="M10.7078 15.9662L10.7319 15.9265C10.6527 15.8784 8.78543 14.7534 8.24295 14.9989L8.26216 15.0412C8.7825 14.8058 10.6886 15.9546 10.7078 15.9662Z" fill="#FF5209"/>
<path d="M9.90498 17.5073L9.9209 17.4636C9.21341 17.2071 7.84516 16.6627 7.7307 16.4385L7.6893 16.4596C7.84055 16.756 9.8208 17.4767 9.90498 17.5073Z" fill="#FF5209"/>
<path d="M9.29437 18.9857L9.30908 18.9416C9.29149 18.9358 7.54535 18.3462 7.11069 17.6748L7.07162 17.7C7.51514 18.3851 9.22191 18.9615 9.29437 18.9857Z" fill="#FF5209"/>
<path d="M24.5508 28.2811C21.6712 21.1484 14.0515 18.7408 13.9749 18.7173L13.8657 19.0682C13.9407 19.0912 21.3967 21.4514 24.2099 28.4194L24.5508 28.2811Z" fill="#4F9E4F"/>
<path d="M19.6313 22.0471C19.6313 22.0471 14.7699 20.7493 13.1689 23.7224C13.1689 23.7224 17.0373 26.0184 19.6313 22.0471Z" fill="#4F9E4F"/>
<g opacity="0.33">
<path d="M19.1299 22.2026C19.1299 22.2026 14.4073 23.8212 13.6405 23.5263C13.6405 23.5263 18.7291 22.2078 19.1299 22.2026Z" fill="white"/>
</g>
<path d="M22.4521 25.3215C22.4521 25.3215 16.7069 23.7878 14.8149 27.3013C14.8149 27.3013 19.3866 30.0147 22.4521 25.3215Z" fill="#4F9E4F"/>
<g opacity="0.33">
<path d="M21.8599 25.5049C21.8599 25.5049 16.2788 27.4177 15.3725 27.0692C15.3725 27.0692 21.3862 25.511 21.8599 25.5049Z" fill="white"/>
</g>
<path d="M20.6211 22.8992C20.6211 22.8992 23.9045 19.0731 21.9119 16.3604C21.9119 16.3604 18.1572 18.8651 20.6211 22.8992Z" fill="#4F9E4F"/>
<g opacity="0.33">
<path d="M20.6985 22.3811C20.6985 22.3811 21.2853 17.4342 21.8848 16.8691C21.8848 16.8691 20.8678 22.0177 20.6985 22.3811Z" fill="white"/>
</g>
<path d="M23.2515 26.206C23.2515 26.206 27.7486 22.2952 25.8885 18.7788C25.8885 18.7788 21.0688 21.0629 23.2515 26.206Z" fill="#4F9E4F"/>
<g opacity="0.33">
<path d="M23.4309 25.6129C23.4309 25.6129 24.9706 19.927 25.7686 19.3691C25.7686 19.3691 23.6915 25.217 23.4309 25.6129Z" fill="white"/>
</g>
<path d="M10.2612 20.3877C11.1575 20.0634 12.035 19.4363 12.4737 18.5623C13.1953 17.1249 12.6007 15.6906 11.6906 14.5425C12.0596 14.6794 12.4083 14.8756 12.7236 15.119C12.8087 15.1848 12.8913 15.2539 12.9713 15.3262C14.0142 16.2697 15.1053 17.7518 14.3593 19.2379C14.0234 19.9071 13.3516 20.3871 12.6654 20.6355C11.7297 20.9741 10.5757 21.0761 9.64862 20.7117C9.58059 20.685 9.5143 20.6546 9.44825 20.624C9.72825 20.5608 10.0014 20.4818 10.2612 20.3877Z" fill="#CC3D36"/>
<path d="M12.4735 18.5623C12.0348 19.4364 11.1572 20.0634 10.261 20.3877C10.0012 20.4817 9.72801 20.5607 9.44801 20.624C8.83481 20.3399 8.30944 19.8924 7.96326 19.302C7.86897 19.1411 7.64797 18.7187 7.99354 18.7395C8.16873 18.7501 8.34618 18.8502 8.49785 18.93C8.63827 19.0038 8.76499 19.1178 8.9169 19.1673C9.09854 19.2264 9.35527 19.0806 9.25828 18.8658C9.22478 18.7915 9.15711 18.7391 9.08603 18.7003C8.92629 18.613 8.7584 18.5493 8.61822 18.4292C8.41869 18.2583 8.23561 17.9358 8.40852 17.6779C8.69038 17.2573 9.20258 17.6078 9.5767 17.5955C9.91988 17.5841 9.92347 17.2475 9.7289 17.0429C9.56946 16.8754 9.35742 16.7731 9.19367 16.613C8.94304 16.368 8.81501 15.8412 9.32296 15.8176C9.6753 15.8012 9.92072 16.1875 10.2792 16.1103C10.4418 16.0753 10.5263 15.9084 10.4741 15.7557C10.3556 15.4093 9.98498 15.1775 9.71473 14.9617C9.48779 14.7805 9.36395 14.4934 9.74608 14.4048C10.41 14.2509 11.0781 14.3152 11.6904 14.5425C12.6004 15.6906 13.1951 17.1249 12.4735 18.5623Z" fill="#E04C3D"/>
<path d="M8.34343 15.2769C8.46446 15.3224 8.59986 15.2611 8.6458 15.1401C8.69175 15.0191 8.63091 14.8841 8.50993 14.8387C8.3889 14.7933 8.2535 14.8546 8.20755 14.9756C8.1616 15.0965 8.22245 15.2315 8.34343 15.2769Z" fill="#E04C3D"/>
<path d="M8.33878 15.162C8.39179 15.182 8.45114 15.1551 8.4713 15.1021C8.49146 15.049 8.46478 14.9899 8.41171 14.97C8.3587 14.95 8.29935 14.9769 8.27919 15.0299C8.25909 15.083 8.28577 15.1421 8.33878 15.162Z" fill="white"/>
<path d="M7.61686 16.6945C7.7379 16.7399 7.87329 16.6786 7.91924 16.5576C7.96519 16.4366 7.90434 16.3017 7.78337 16.2562C7.66233 16.2108 7.52694 16.2721 7.48099 16.393C7.43504 16.514 7.49583 16.649 7.61686 16.6945Z" fill="#E04C3D"/>
<path d="M7.6127 16.58C7.66571 16.5999 7.72506 16.5731 7.74522 16.52C7.76539 16.467 7.7387 16.4078 7.68564 16.3879C7.63257 16.368 7.57327 16.3949 7.55311 16.4479C7.533 16.501 7.55969 16.5601 7.6127 16.58Z" fill="white"/>
<path d="M7.00797 17.9068C7.12901 17.9522 7.26441 17.8909 7.31036 17.77C7.3563 17.649 7.29546 17.514 7.17448 17.4686C7.05345 17.4232 6.91805 17.4845 6.8721 17.6054C6.82609 17.7264 6.88693 17.8613 7.00797 17.9068Z" fill="#E04C3D"/>
<path d="M7.00333 17.7924C7.0564 17.8123 7.11569 17.7855 7.13585 17.7324C7.15601 17.6794 7.12933 17.6202 7.07632 17.6003C7.02325 17.5804 6.96396 17.6073 6.9438 17.6603C6.92363 17.7133 6.95032 17.7725 7.00333 17.7924Z" fill="white"/>
<g opacity="0.12">
<path d="M12.7993 17.0947C12.9119 17.2069 13.0699 17.3229 13.1051 17.5206C13.1205 17.6078 13.072 17.711 12.9949 17.7408C12.8249 17.8064 12.7334 17.5922 12.5698 17.6217C12.3338 17.6641 12.363 17.9677 12.4649 18.0982C12.5314 18.1835 12.6236 18.232 12.6877 18.3219C12.766 18.4316 12.7452 18.6305 12.5861 18.6564C12.4126 18.6847 12.1958 18.5066 12.0418 18.7706C11.9473 18.9324 12.0136 19.1124 12.096 19.2021C12.154 19.2651 12.2279 19.2933 12.2968 19.3359C12.3274 19.3548 12.3556 19.3819 12.3669 19.4239C12.3995 19.5452 12.2726 19.6456 12.1921 19.6209C12.1247 19.6003 12.0726 19.5401 12.012 19.5044C11.9464 19.4659 11.8701 19.4167 11.7898 19.4203C11.6313 19.4274 11.7095 19.6642 11.7439 19.7539C11.8703 20.0828 12.0876 20.3173 12.3548 20.4506C11.8624 20.6469 11.337 20.7131 10.9177 20.5454C10.5162 20.3847 10.1883 20.0583 10.0054 19.5824C9.96039 19.4653 9.85833 19.1559 10.0653 19.1466C10.1703 19.142 10.2699 19.2061 10.3555 19.2565C10.4348 19.3031 10.5028 19.3817 10.5908 19.4086C10.6961 19.4409 10.8618 19.3097 10.8192 19.1513C10.8045 19.0965 10.7675 19.0611 10.7275 19.0364C10.6376 18.9808 10.541 18.944 10.4654 18.8617C10.3576 18.7446 10.271 18.5095 10.3945 18.2981C10.5957 17.9533 10.8788 18.1859 11.1055 18.1489C11.3134 18.115 11.3406 17.8553 11.2383 17.712C11.1545 17.5945 11.0342 17.5312 10.9472 17.4198C10.8142 17.2494 10.7759 16.8527 11.0842 16.7973C11.298 16.7589 11.4175 17.0386 11.6395 16.9529C11.7403 16.9141 11.8036 16.7793 11.7834 16.6654C11.7376 16.4071 11.531 16.2556 11.384 16.1091C11.2604 15.9861 11.207 15.7738 11.4442 15.6775C12.1045 15.4095 12.7299 15.5724 13.1878 16.0099C13.2343 16.0543 13.279 16.1015 13.3219 16.1514C13.4671 16.3203 13.6113 16.517 13.7358 16.7366C13.4659 16.6368 13.1609 16.6363 12.8455 16.7643C12.6638 16.8381 12.7047 17.0005 12.7993 17.0947Z" fill="white"/>
</g>
<path d="M14.3917 38.9999H39.482C39.7673 38.9999 39.9985 38.7687 39.9985 38.4836V33.3449C39.9985 33.0598 39.7673 32.8286 39.482 32.8286H14.3917C14.1064 32.8286 13.8752 33.0598 13.8752 33.3449V38.4836C13.8752 38.7687 14.1064 38.9999 14.3917 38.9999Z" fill="#C4C4C4"/>
<path d="M27.1771 27.6209H26.9376L0.0271759 27.6214C-0.0994835 26.6738 0.223122 25.5402 0.815739 25.5402L26.7597 25.54H26.9369H27.1143L53.0582 25.5402C53.6509 25.5402 53.9734 26.6738 53.8467 27.6214L27.4167 27.6209H27.1771Z" fill="#C4C4C4"/>
<path d="M53.4889 28.5644C52.6084 29.6023 51.7003 30.5486 50.7723 31.4024C45.8292 35.9499 40.2798 36.6693 34.9137 36.5742C32.2535 36.5272 29.5961 36.2687 26.937 36.1321C24.2779 36.2687 21.6205 36.5272 18.9603 36.5742C13.5942 36.6694 8.04478 35.95 3.10175 31.4024C2.1736 30.5486 1.2655 29.6023 0.384983 28.5644C0.186947 28.3307 0.0763817 27.9891 0.0272026 27.6215L26.9376 27.6211H27.1771H27.4167L53.8467 27.6215C53.7976 27.9891 53.687 28.3307 53.4889 28.5644Z" fill="#E8E8E8"/>
</svg>
