<svg width="63" height="64" viewBox="0 0 63 64" fill="none" xmlns="http://www.w3.org/2000/svg">
<path d="M39.5962 39.2623C39.5962 39.2623 50.5086 29.9631 61.0167 44.8466C57.5125 44.9171 53.9043 44.9981 50.8427 46.7042C50.0748 47.1321 49.3488 47.6599 48.8036 48.3499C48.028 49.3315 47.6634 50.5778 46.9633 51.6146C46.0722 52.9342 44.6289 53.8668 43.0605 54.1363C42.1248 54.2972 41.1665 54.2308 40.2196 54.1582C37.8029 53.9728 35.3301 53.7543 32.9897 54.383C31.8177 54.6978 30.6732 55.2446 29.8662 56.1515C29.0592 57.0585 28.6421 58.3687 29.0066 59.5279C29.0066 59.5279 26.1373 51.2076 37.5902 42.1233L39.5962 39.2623Z" fill="#FF7F15"/>
<path opacity="0.2" d="M38.8271 40.3596C38.9397 40.3656 39.0524 40.3739 39.1671 40.3947C42.5702 41.0137 45.3458 43.5177 47.3917 46.3105C47.8828 46.9808 48.3439 47.6844 48.7556 48.4138C48.7718 48.3927 48.7872 48.3709 48.8037 48.3499C49.349 47.66 50.075 47.1322 50.8428 46.7043C52.5547 45.7503 54.4375 45.3046 56.3774 45.0846C54.5998 43.028 52.3761 41.3631 49.8645 40.3376C46.4447 38.9412 42.5011 38.7817 39.042 40.053L38.8271 40.3596ZM35.5058 49.8839C35.8821 49.1555 36.2228 48.4098 36.6073 47.6856C38.1656 44.7511 37.4431 42.2403 37.5904 42.1235L38.3726 41.0079C39.849 42.9112 40.7567 45.2103 41.2857 47.5618C41.7776 49.7484 41.9567 51.9907 42.0787 54.2298C41.4604 54.2492 40.8377 54.2057 40.2197 54.1583C38.1177 53.997 35.9735 53.8114 33.9106 54.1793C34.2228 52.6839 34.8029 51.2444 35.5058 49.8839Z" fill="black"/>
<path opacity="0.2" d="M35.8197 43.6239C35.3494 44.0495 34.9089 44.4724 34.4967 44.8919C35.2165 44.9112 35.9656 44.7821 36.5745 44.6501C37.9607 44.3497 39.3043 43.7275 40.4139 42.8409C41.5844 41.9056 42.3608 40.6965 43.1614 39.4499C43.7031 38.6062 44.2976 37.8129 45.0464 37.1406C45.2943 36.9181 45.5606 36.7275 45.8335 36.5479C45.3019 36.6322 44.7955 36.7467 44.3181 36.8821C44.0732 37.1035 43.8459 37.3334 43.6432 37.5609C42.5696 38.7657 41.8956 40.275 40.7268 41.4022C39.7065 42.3862 38.4097 43.0787 37.0381 43.4229C36.6369 43.5236 36.2297 43.5867 35.8197 43.6239ZM46.6854 50.4657C45.7187 51.4198 44.5762 52.1743 43.247 52.5121C41.8817 52.859 40.4952 52.7376 39.1213 52.5064C36.321 52.0351 33.3697 51.5767 30.6477 52.6698C30.1246 52.8798 29.6365 53.1619 29.1883 53.4981C29.3983 52.7419 29.6885 51.9324 30.082 51.08C32.8042 50.0055 35.8041 50.3435 38.6073 50.8952C40.261 51.2205 41.9476 51.5577 43.5754 50.9276C45.0915 50.3407 45.912 49.1801 46.6563 47.808C47.9775 45.3727 49.1349 42.5824 51.8085 41.3706C53.2622 40.7117 54.9512 40.4906 56.5359 40.4641C56.7579 40.4603 56.9912 40.4622 57.2289 40.4723C57.8265 41.019 58.4272 41.6291 59.0289 42.3141C58.6132 42.2743 58.1979 42.2359 57.7757 42.2628C57.0098 42.3115 56.2417 42.4188 55.4816 42.5241C53.8706 42.7473 52.2379 43.0788 51.0256 44.248C49.1843 46.0239 48.5216 48.6537 46.6854 50.4657ZM30.5937 50.0592C30.9499 49.4011 31.369 48.7215 31.8607 48.0249C32.167 47.9598 32.4768 47.9093 32.7885 47.8768C35.3723 47.6072 37.9796 48.3458 40.5674 48.2304C41.9484 48.1687 43.2682 47.6013 44.2276 46.5963C45.1798 45.5989 45.56 44.2964 46.0815 43.054C47.0512 40.744 48.9232 38.9016 51.2517 37.9864C51.7593 37.7868 52.309 37.6318 52.8689 37.5242C53.7145 37.907 54.5785 38.4023 55.4542 39.0285C54.9869 39.0658 54.5193 39.1102 54.0562 39.1704C52.7659 39.338 51.5079 39.7871 50.3889 40.4454C49.3526 41.0551 48.469 41.8089 47.8533 42.8558C47.2263 43.9217 46.9203 45.1389 46.3113 46.2127C45.1816 48.2047 43.0892 49.5464 40.7942 49.6742C39.5472 49.7436 38.3984 49.4296 37.1798 49.255C35.9061 49.0725 34.685 49.0302 33.4089 49.2042C32.4319 49.3374 31.4678 49.6016 30.5937 50.0592ZM50.9473 36.8258C49.3096 37.6546 47.7724 38.6387 46.5884 40.085C45.2614 41.7058 44.6605 43.8947 42.9139 45.1545C41.1733 46.41 38.874 46.6831 36.7893 46.7671C35.7124 46.8105 34.6348 46.8121 33.5618 46.9272C33.2362 46.9621 32.8827 47.0479 32.5223 47.1335C32.8659 46.6935 33.24 46.2477 33.6449 45.7971C34.4857 45.6926 35.3336 45.6584 36.1805 45.6237C38.4877 45.5292 41.1734 45.4793 42.867 43.655C43.6507 42.8107 44.0658 41.71 44.6644 40.7405C45.2086 39.8589 45.8377 39.0295 46.5772 38.3024C47.3268 37.5655 48.1557 36.9334 49.101 36.4704C49.6999 36.5381 50.3162 36.6525 50.9473 36.8258Z" fill="black"/>
<path d="M13.0351 35.9542C13.0351 35.9542 6.53678 39.2903 5.80969 32.0596C5.80969 32.0596 7.26961 30.6655 6.75821 29.7337C6.75821 29.7337 8.6922 29.4577 9.12641 28.026C9.12641 28.026 10.7725 29.0079 11.8048 28.1875C11.8048 28.1875 9.91308 33.1224 11.5159 34.9203C11.5159 34.9203 12.8118 34.8478 13.0351 35.9542Z" fill="#FF5E17"/>
<path opacity="0.2" d="M5.80969 32.0596C6.39813 37.9118 10.7665 36.8423 12.411 36.2217C11.502 36.3035 10.5701 36.3004 9.71075 35.999C8.79468 35.6777 7.9691 34.9634 7.73681 34.0199C7.7176 33.9418 7.70304 33.8568 7.73534 33.7833C7.81186 33.6092 8.0626 33.6314 8.24563 33.6827C8.61191 33.7854 8.97825 33.8882 9.34455 33.991C8.84614 33.7649 8.36938 33.4909 7.92287 33.1742C7.69829 33.0149 7.47326 32.8347 7.35874 32.5842C7.24424 32.3336 7.27704 31.9952 7.50171 31.8363C7.7933 31.63 8.19363 31.8219 8.48351 32.0309C8.96627 32.3788 9.41309 32.7767 9.81455 33.2162C9.41227 32.6748 9.01006 32.1334 8.60784 31.592C8.43269 31.3563 8.25353 31.1122 8.18372 30.8268C8.11391 30.5415 8.18109 30.2016 8.42111 30.0329C8.70637 29.8324 9.12466 29.9536 9.36455 30.2071C9.60444 30.4606 9.70972 30.8095 9.80738 31.1446C9.96197 31.6752 10.1166 32.2057 10.2711 32.7363C10.0802 31.7162 9.88973 30.6599 10.129 29.6504C10.1934 29.3786 10.4028 29.0518 10.6669 29.1422C10.9039 29.2234 10.9111 29.5506 10.8837 29.7998C10.8063 30.5055 10.8164 31.2205 10.9106 31.9243C11.0862 30.064 11.8048 28.1875 11.8048 28.1875C10.7726 29.0079 9.12641 28.026 9.12641 28.026C8.69214 29.4577 6.75821 29.7337 6.75821 29.7337C7.26961 30.6655 5.80969 32.0596 5.80969 32.0596Z" fill="black"/>
<path opacity="0.3" d="M8.84036 31.3503C8.97288 31.5137 9.24091 31.7564 9.46049 31.5834C9.66379 31.4234 9.58345 31.1342 9.49883 30.9332C9.39324 30.6823 9.25808 30.3965 8.9584 30.36C8.80693 30.3415 8.64791 30.4246 8.58959 30.5692C8.47144 30.862 8.66036 31.1282 8.84036 31.3503Z" fill="white"/>
<path opacity="0.3" d="M8.22996 32.3894C8.3091 32.3532 8.40715 32.3396 8.4822 32.3829C8.60897 32.456 8.68735 32.5324 8.75648 32.6618C8.83943 32.8171 8.72584 33.0063 8.5845 33.0715C8.43542 33.1402 8.28552 33.0617 8.20084 32.9395C8.15137 32.9098 8.11227 32.8667 8.08531 32.8165C7.9626 32.6671 8.06784 32.4518 8.22996 32.3894Z" fill="white"/>
<path opacity="0.3" d="M8.56058 34.8008C8.66422 34.8785 8.75951 34.915 8.89 34.913C9.00552 34.9112 9.11647 34.7912 9.12811 34.6801C9.14853 34.4847 9.02799 34.3239 8.84473 34.2654C8.69924 34.219 8.58895 34.256 8.4846 34.3608C8.35388 34.4923 8.43159 34.7041 8.56058 34.8008Z" fill="white"/>
<path d="M41.3207 38.1673C41.3207 38.1673 38.3144 38.2247 38.2629 30.2201C38.2115 22.2156 27.4942 18.5728 27.4942 18.5728L16.5812 41.5373C17.0518 41.8257 17.5 42.1653 17.9714 42.4321C18.3081 42.6226 18.6368 42.8256 18.9653 43.0285C32.508 48.5828 39.0541 43.7805 40.656 42.1473C42.3556 40.4147 41.3207 38.1673 41.3207 38.1673Z" fill="#FFB229"/>
<path opacity="0.3" d="M41.6285 39.5689C40.0946 41.0066 38.3507 42.1497 36.3164 42.6111C33.9265 43.1531 31.4367 42.6777 29.0322 42.2019C31.1888 39.4768 32.5365 36.1178 32.8623 32.6554C32.9994 31.1983 32.8826 29.5442 31.7979 28.5621C31.9738 30.7199 31.08 32.811 30.1035 34.7418C29.5772 35.7826 29.0166 36.815 28.2835 37.7217C26.5057 39.9205 23.7674 41.2468 20.9562 41.5402C19.5403 41.688 18.1107 41.5854 16.7195 41.2814C16.9117 41.465 17.1035 41.6494 17.3015 41.8286C17.7962 42.2762 18.3524 42.6387 18.9073 43.0051C20.349 43.5987 21.713 44.077 22.9989 44.4523C23.2898 44.508 23.5822 44.5646 23.875 44.6283C23.9833 44.6519 24.0671 44.7004 24.1326 44.7621C34.2059 47.3308 39.2733 43.5579 40.6563 42.148C41.4844 41.3038 41.6627 40.338 41.6285 39.5689Z" fill="black"/>
<path d="M31.3056 35.4102C33.481 30.1827 35.731 20.9421 26.1482 18.1007C26.1482 18.1007 20.5379 15.8934 16.6631 20.3597C12.7882 24.8261 14.3226 28.4808 11.8613 30.4641C9.91601 32.0317 10.0488 37.3656 13.9111 40.4415C14.9356 41.2574 20.6153 44.2479 23.4632 43.4707C28.7346 42.0322 30.147 38.1946 31.3056 35.4102Z" fill="#FFC639"/>
<path opacity="0.3" d="M23.4631 43.4709C25.8835 42.8104 27.489 41.6435 28.6312 40.3056C26.8501 41.8175 24.7675 42.897 22.4675 42.9276C19.5146 42.967 16.4967 41.2047 14.3855 39.2384C13.4998 38.4135 12.765 37.3826 12.4876 36.204C12.1006 34.5591 12.686 32.9199 13.6486 31.5909C14.2862 30.7105 15.137 29.9184 15.5321 28.884C16.0068 27.6411 15.8732 26.3037 16.1837 25.031C16.4664 23.8723 16.9924 22.7645 17.6611 21.7809C18.3351 20.7897 19.1737 19.9094 20.1315 19.1895C20.8612 18.6411 22.3429 17.5244 23.3076 17.5656C21.3589 17.4823 18.758 17.9451 16.6629 20.36C12.788 24.8263 14.3224 28.481 11.8611 30.4644C9.91583 32.032 10.0486 37.3659 13.9109 40.4418C14.9355 41.2576 20.6152 44.2481 23.4631 43.4709Z" fill="white"/>
<path opacity="0.4" d="M30.0534 22.1825C32.4915 22.7715 34.4674 24.5079 36.3109 26.2111C36.966 26.8164 37.6456 27.4763 38.028 28.2621C36.4554 21.6197 27.4948 18.5728 27.4948 18.5728L27.4947 18.573C27.074 18.4006 26.6265 18.2422 26.1484 18.1004C26.1484 18.1004 24.326 17.3852 22.0419 17.5949C21.7392 17.9576 21.5956 18.4722 21.6643 18.9482C21.7688 19.6723 22.2681 20.2897 22.8632 20.7147C24.8773 22.1532 27.6486 21.6016 30.0534 22.1825Z" fill="black"/>
<path opacity="0.4" d="M16.9099 31.7C15.4692 31.6458 14.3562 30.1138 14.4239 28.2782C14.4917 26.4426 15.7144 24.9985 17.1551 25.0527C18.5958 25.1069 19.7088 26.6389 19.6411 28.4745C19.5733 30.3101 18.3506 31.7542 16.9099 31.7Z" fill="black"/>
<path d="M17.5539 31.4076C16.1133 31.3534 15.0003 29.8214 15.068 27.9858C15.1357 26.1501 16.3585 24.706 17.7992 24.7602C19.2398 24.8144 20.3528 26.3465 20.2851 28.1821C20.2174 30.0177 18.9946 31.4618 17.5539 31.4076Z" fill="#18191E"/>
<path opacity="0.3" d="M19.8155 27.3075C19.7768 28.3564 19.0781 29.1817 18.2548 29.1507C17.4316 29.1198 16.7955 28.2444 16.8342 27.1954C16.8728 26.1464 17.5715 25.3212 18.3948 25.3521C19.2181 25.3831 19.8541 26.2585 19.8155 27.3075Z" fill="white"/>
<path d="M19.6245 26.5035C19.6402 26.0774 19.3078 25.719 18.8822 25.7029C18.4565 25.6869 18.0987 26.0195 18.083 26.4455C18.079 26.5532 18.0975 26.6563 18.1339 26.7509C17.8938 26.8357 17.7174 27.0593 17.7074 27.3295C17.6944 27.6828 17.9699 27.9799 18.3228 27.9932C18.6757 28.0065 18.9723 27.7308 18.9854 27.3775C18.9872 27.3292 18.9825 27.2823 18.9741 27.2366C19.3313 27.1808 19.6107 26.8788 19.6245 26.5035Z" fill="white"/>
<path opacity="0.2" d="M20.1949 33.4734C19.9425 32.6165 18.4022 32.5401 17.6968 32.6989C17.4311 32.7587 17.422 33.191 17.6667 33.2857C18.0676 33.4409 18.4889 33.5399 18.8981 33.6704C19.266 33.7879 19.6501 33.9797 20.0297 33.821C20.1709 33.7619 20.2385 33.6212 20.1949 33.4734Z" fill="white"/>
<path opacity="0.2" d="M21.7182 34.1895C21.6787 34.1007 21.6511 34.0195 21.5782 33.9491C21.5115 33.8845 21.4298 33.8354 21.3471 33.794C21.204 33.7224 21.0544 33.69 20.8968 33.6714C20.7311 33.6519 20.5704 33.7361 20.5202 33.9015C20.4682 34.073 20.5467 34.217 20.6935 34.3079C20.7919 34.3688 20.8851 34.4389 20.9845 34.4996C21.0267 34.5254 21.0671 34.5542 21.1114 34.5763C21.1859 34.6134 21.3041 34.6252 21.346 34.6299C21.5753 34.6551 21.8277 34.4353 21.7182 34.1895Z" fill="white"/>
<path d="M19.1503 20.9696C19.1285 20.9638 19.1068 20.9581 19.085 20.9523L19.1016 20.9602C18.4991 20.7683 17.6631 21.2146 17.4684 21.8022C17.3731 22.09 17.5348 22.404 17.8706 22.3836C18.1469 22.3668 18.3945 22.2597 18.65 22.1646C18.8938 22.0738 19.1319 21.9856 19.3083 21.8081C19.3146 21.8035 19.3208 21.7987 19.3271 21.7941C19.6587 21.5447 19.534 21.0713 19.1503 20.9696Z" fill="#FFB229"/>
<path d="M20.3733 21.5731C20.3603 21.5673 20.3469 21.5636 20.3335 21.5594L20.3333 21.5594C20.3467 21.5639 20.36 21.5685 20.3733 21.5731Z" fill="#A6A4A7"/>
<path d="M20.9085 21.2786C20.9189 21.0442 20.6938 20.887 20.4755 20.8976C20.3169 20.9053 20.1729 20.9952 20.1011 21.1345C20.0446 21.2441 20.0789 21.3937 20.1719 21.4726C20.1925 21.49 20.2073 21.5014 20.2316 21.5173C20.2637 21.5382 20.2983 21.548 20.3327 21.5591C20.3544 21.5679 20.3765 21.5755 20.3991 21.5819C20.4278 21.5955 20.4581 21.601 20.4897 21.5984C20.5492 21.6006 20.5505 21.6011 20.4936 21.5998C20.5236 21.6012 20.5536 21.6025 20.5835 21.6039C20.6125 21.5976 20.6414 21.5914 20.6703 21.5851C20.7181 21.5703 20.7611 21.544 20.798 21.5111C20.8684 21.4483 20.9043 21.3714 20.9085 21.2786Z" fill="#FFB229"/>
<path d="M30.0625 26.5393C30.1322 26.5598 30.1238 26.5566 30.0374 26.5296C29.9871 26.5204 29.9427 26.4991 29.9038 26.4659C29.8485 26.4298 29.8018 26.3945 29.7566 26.3471C29.7566 26.3471 29.7063 26.2896 29.6785 26.2577C29.6326 26.2052 29.5856 26.1552 29.545 26.0986C29.4194 25.9231 29.3458 25.7537 29.3227 25.5382C29.2982 25.3101 29.4741 25.1613 29.6751 25.1199C29.9444 25.0644 30.1852 25.174 30.3945 25.3413C30.489 25.4169 30.5826 25.5283 30.6432 25.6344C30.6899 25.7161 30.7245 25.796 30.7444 25.8876C30.7606 25.9338 30.7645 25.981 30.7562 26.0293C30.7544 26.1146 30.7528 26.1255 30.7515 26.0619C30.7444 26.4268 30.422 26.6969 30.0625 26.5393Z" fill="#FFB229"/>
<path opacity="0.3" d="M33.6306 29.7262C33.5557 29.7333 33.554 29.8381 33.6248 29.8549C34.0742 29.9617 34.3171 30.4924 34.3338 30.9132C34.3498 31.3126 34.1767 31.6955 34.0354 32.0588C34.0103 32.1232 34.0709 32.2222 34.1478 32.1836C35.1996 31.6575 34.9349 29.6017 33.6306 29.7262Z" fill="black"/>
<path opacity="0.3" d="M36.2058 36.3911C36.3116 35.8221 35.966 35.4 35.6268 34.9951C35.5755 34.9339 35.4772 34.9967 35.5225 35.0661C35.7229 35.3724 35.8402 35.7922 35.7807 36.1598C35.7219 36.5231 35.4869 36.6924 35.2297 36.9167C35.1321 37.0017 35.1513 37.1582 35.288 37.189C35.7557 37.2944 36.1289 36.8048 36.2058 36.3911Z" fill="black"/>
<path opacity="0.3" d="M33.5619 38.8429C33.5263 38.7517 33.3877 38.8005 33.4187 38.8938C33.6743 39.6642 32.9295 39.9428 32.461 40.359C32.3922 40.4201 32.4175 40.5469 32.5247 40.5384C32.9409 40.5051 33.3255 40.3468 33.5717 39.9917C33.8431 39.6005 33.7208 39.2498 33.5619 38.8429Z" fill="black"/>
<path opacity="0.3" d="M37.2095 41.7758C37.3761 41.3373 37.2437 40.8323 36.9401 40.489C36.8633 40.4022 36.7129 40.4958 36.7869 40.5934C37.0628 40.9575 36.9957 41.3992 36.7217 41.7441C36.5196 41.9985 36.2207 42.118 35.9951 42.3385C35.9218 42.4102 35.979 42.5387 36.0718 42.5545C36.5601 42.6381 37.0439 42.2117 37.2095 41.7758Z" fill="black"/>
<path opacity="0.3" d="M33.0111 42.1715C32.9723 42.1 32.8478 42.1622 32.8832 42.2364C33.1938 42.8858 32.6114 43.3789 32.015 43.4622C31.9541 43.4707 31.9309 43.5581 31.9926 43.5856C32.351 43.7453 32.7744 43.6255 33.0003 43.3046C33.2369 42.9684 33.1999 42.5185 33.0111 42.1715Z" fill="black"/>
<path opacity="0.3" d="M30.1691 40.3728C30.1409 40.2596 29.9447 40.3003 29.9679 40.4163C30.0738 40.9463 29.5408 41.1007 29.1365 41.1709C29.04 41.1876 28.9905 41.3052 29.07 41.3758C29.3217 41.5995 29.7243 41.5361 29.9591 41.3204C30.2184 41.0824 30.2507 40.6998 30.1691 40.3728Z" fill="black"/>
<path opacity="0.2" d="M27.7571 41.9503C27.2165 41.8356 26.6323 42.1684 26.4025 42.6713C26.1727 43.1742 26.2802 43.7979 26.6191 44.2351C26.7044 44.3453 26.8217 44.4529 26.9607 44.446C27.1343 44.4373 27.2438 44.2617 27.3261 44.1085C27.4491 43.8796 27.5831 43.6502 27.7787 43.4793C28.1187 43.1822 28.6609 43.3324 28.569 42.7564C28.5074 42.3703 28.1261 42.0286 27.7571 41.9503Z" fill="black"/>
<path opacity="0.3" d="M41.7394 39.1895C40.9508 39.3799 40.1779 39.6628 39.3788 39.8122C37.4445 40.1739 35.369 39.7071 33.7743 38.5516C32.4346 37.5808 31.3028 36.0986 29.6603 35.9084C27.8041 35.6936 26.2619 37.2204 24.5521 37.9733C21.602 39.2725 17.9587 38.1045 15.767 35.7363C14.1554 33.9948 13.2672 31.7509 12.8423 29.4435C12.791 29.5272 12.7362 29.609 12.6783 29.689C12.672 29.6977 12.6657 29.7064 12.6593 29.7151C12.6078 29.7851 12.5534 29.8535 12.4962 29.9206C12.4835 29.9357 12.4711 29.9509 12.458 29.9658C12.4043 30.0268 12.3473 30.0864 12.2883 30.145C12.2714 30.1617 12.2556 30.1791 12.2383 30.1956C12.1627 30.2678 12.0836 30.3385 11.9989 30.4068C11.8165 30.5538 11.6524 30.7339 11.5079 30.9421C11.4115 31.0809 11.324 31.2322 11.2455 31.3945C10.9709 31.9627 10.808 32.6661 10.7742 33.4416C10.6696 35.8414 11.8317 38.8874 13.8993 40.2285C19.8738 44.1038 27.82 46.8678 34.9637 45.1317C37.0519 44.6243 39.5786 43.5638 40.9906 41.8713C41.0053 41.8536 41.0197 41.836 41.0339 41.8183C41.0926 41.7451 41.1486 41.6715 41.1991 41.5972C41.7688 40.7577 41.8225 39.8627 41.7394 39.1895Z" fill="black"/>
<path d="M30.3426 33.9919C30.0495 33.7412 29.5829 33.6533 29.2054 33.6448C29.0504 33.6412 28.9293 33.8556 29.0599 33.9702C29.3342 34.2112 29.7391 34.4868 30.1153 34.5001C30.3564 34.5086 30.5479 34.1676 30.3426 33.9919Z" fill="#FFB229"/>
<path d="M29.7697 34.8091C29.7946 34.8181 29.788 34.8129 29.7497 34.7934C29.7091 34.7729 29.6676 34.7548 29.6251 34.739C29.5883 34.7242 29.5512 34.7108 29.5144 34.6962C29.4168 34.6578 29.3214 34.6257 29.2155 34.617C29.0328 34.6021 28.8529 34.8087 28.915 34.9895C29.0266 35.3147 29.335 35.4648 29.6583 35.4884C29.8285 35.5009 29.9833 35.3599 30.0073 35.1972C30.0343 35.0147 29.933 34.8794 29.7697 34.8091Z" fill="#FFB229"/>
<path d="M14.1929 28.5986C14.1592 28.5505 14.1275 28.5155 14.0789 28.4838C13.9349 28.3633 13.7033 28.3135 13.5312 28.3042C13.4145 28.2979 13.3518 28.4068 13.3657 28.5094C13.4136 28.8613 13.8929 29.0702 14.1537 28.8471C14.2164 28.7936 14.2427 28.6697 14.1929 28.5986Z" fill="#FFB229"/>
<path d="M14.3708 28.0014C14.3106 27.7736 14.0281 27.6311 13.8082 27.6113C13.7092 27.6024 13.6246 27.7306 13.6829 27.8163C13.807 27.9987 14.0673 28.1824 14.2966 28.1241C14.3489 28.1108 14.385 28.0549 14.3708 28.0014Z" fill="#FFB229"/>
<path d="M22.3635 31.3895C22.6888 29.6484 24.4396 28.6897 26.0646 29.3616C27.448 29.9337 28.5403 31.712 27.9461 33.1915C28.2817 33.228 28.6295 33.2147 28.933 33.0383C28.9954 33.002 29.0922 33.0632 29.0639 33.1388C28.9331 33.4876 28.7309 33.712 28.3568 33.8207C28.0175 33.9192 27.4798 33.8894 27.2852 33.5408C27.2377 33.4555 27.2238 33.388 27.2321 33.334C26.8875 32.178 27.1277 31.0435 25.8468 30.3719C25.2656 30.0672 24.5708 29.9036 23.9857 30.2945C23.4805 30.632 23.2236 31.2229 22.7902 31.6362C22.5975 31.82 22.3176 31.6354 22.3635 31.3895Z" fill="#18191E"/>
<path d="M15.9271 34.2112C16.8159 34.9436 17.9871 35.2652 19.1371 35.3078C20.2871 35.3504 21.4298 35.1345 22.5552 34.8947C23.1568 34.7665 24.2692 34.3526 24.5381 33.7989C24.5785 33.7156 25.0867 34.7275 25.1065 34.7944C25.3032 35.458 25.3359 36.1831 25.2125 36.863C24.712 39.6196 21.3529 41.5334 18.8742 39.9873C17.8962 39.3772 17.0668 38.347 16.5971 37.2971C16.3736 36.7974 16.2012 36.2732 16.0854 35.7381C16.0385 35.5213 16.0414 34.3054 15.9271 34.2112Z" fill="#FF5E17"/>
<path d="M18.5573 36.7682C17.6785 36.6047 16.8206 36.2604 16.0881 35.7506C16.0871 35.7464 16.0859 35.7423 16.085 35.738C16.0381 35.5212 16.041 34.3053 15.9267 34.2112C16.8155 34.9435 17.9867 35.2652 19.1367 35.3078C20.2867 35.3503 21.4294 35.1344 22.5548 34.8947C23.1565 34.7665 24.2688 34.3526 24.5377 33.7988C24.5782 33.7155 25.0863 34.7274 25.1061 34.7943C25.1683 35.0041 25.2122 35.2204 25.2418 35.4391C24.6529 35.8447 23.9674 36.1225 23.2812 36.3401C21.7589 36.8231 20.1279 37.0604 18.5573 36.7682Z" fill="white"/>
<path d="M18.874 39.9868C18.0064 39.4456 17.2571 38.5735 16.7708 37.6506C18.883 38.3738 21.125 38.7151 23.2407 38.1008C23.8273 37.9305 24.3933 37.6892 24.9895 37.556C25.0002 37.5536 25.0112 37.5514 25.022 37.5491C24.1422 39.9205 21.1407 41.4007 18.874 39.9868Z" fill="white"/>
<path d="M26.9495 43.0745C26.9495 43.0745 30.0095 49.7172 35.0338 44.476C35.0338 44.476 34.7433 42.4763 35.7195 42.0592C35.7195 42.0592 34.3674 40.6465 34.9072 39.2512C34.9072 39.2512 33.007 39.0065 32.6998 37.7227C32.6998 37.7227 31.1501 42.7758 28.7815 43.2C28.7816 43.1999 27.8065 42.3418 26.9495 43.0745Z" fill="#FF5E17"/>
<path opacity="0.2" d="M35.0338 44.4757C30.9673 48.7176 28.1879 45.1754 27.2758 43.6705C27.9409 44.2968 28.6761 44.8704 29.538 45.1644C30.4568 45.4777 31.5464 45.426 32.3101 44.8271C32.3733 44.7775 32.4371 44.7196 32.457 44.6418C32.5039 44.4574 32.293 44.3199 32.1173 44.2471C31.7657 44.1016 31.4141 43.956 31.0626 43.8104C31.5941 43.9406 32.138 44.0197 32.6845 44.0464C32.9593 44.0598 33.2473 44.0572 33.4917 43.9308C33.736 43.8044 33.9186 43.5178 33.8397 43.2538C33.7372 42.9113 33.304 42.8148 32.9471 42.8001C32.353 42.7754 31.7563 42.8124 31.1698 42.91C31.8197 42.7326 32.4696 42.5552 33.1196 42.3778C33.4025 42.3006 33.6939 42.2191 33.9245 42.0378C34.1551 41.8564 34.3116 41.5473 34.2266 41.2662C34.1255 40.932 33.7217 40.7689 33.3768 40.8201C33.0319 40.8713 32.7343 41.0808 32.4511 41.2842C32.0027 41.6061 31.5544 41.9281 31.106 42.2502C31.8844 41.5654 32.6846 40.8518 33.1179 39.9094C33.2346 39.6556 33.2711 39.2691 33.0075 39.1769C32.771 39.0943 32.5638 39.3475 32.432 39.5605C32.0584 40.1638 31.6102 40.7202 31.1027 41.2158C32.1099 39.6432 32.6998 37.7222 32.6998 37.7222C33.007 39.006 34.9072 39.2507 34.9072 39.2507C34.3674 40.646 35.7195 42.0587 35.7195 42.0587C34.7432 42.4761 35.0338 44.4757 35.0338 44.4757Z" fill="black"/>
<path opacity="0.3" d="M33.0858 42.0447C32.8808 42.0914 32.5205 42.1166 32.4542 41.8449C32.3928 41.5932 32.634 41.4153 32.8244 41.3094C33.062 41.1772 33.3444 41.0358 33.6027 41.1923C33.7333 41.2714 33.8073 41.4351 33.7642 41.5849C33.6768 41.8885 33.3642 41.9812 33.0858 42.0447Z" fill="white"/>
<path opacity="0.3" d="M32.7776 43.6648C32.7254 43.6877 32.668 43.6975 32.6109 43.6902C32.469 43.734 32.3026 43.7032 32.2277 43.5569C32.1566 43.4183 32.1837 43.1992 32.3446 43.1282C32.4787 43.0691 32.5873 43.0574 32.7322 43.0782C32.8179 43.0905 32.8867 43.1619 32.9267 43.2393C33.0159 43.3886 32.966 43.6232 32.7776 43.6648Z" fill="white"/>
<path opacity="0.3" d="M31.1816 44.9327C31.0521 44.9297 30.9547 44.8997 30.8532 44.8174C30.7634 44.7445 30.7499 44.5815 30.8092 44.4869C30.9134 44.3205 31.1073 44.2685 31.2876 44.3357C31.4307 44.3891 31.4947 44.4864 31.5123 44.6334C31.5342 44.8176 31.3426 44.9363 31.1816 44.9327Z" fill="white"/>
<path d="M23.6222 17.159C23.7642 12.1576 25.4973 2.6704 37.0132 6.10696C37.0132 6.10696 26.7084 7.33947 28.2197 14.0679C28.2197 14.0679 32.6303 7.47452 38.7424 12.5603C38.7424 12.5603 30.6163 12.7723 31.3578 16.467C31.3578 16.467 36.1056 14.3327 39.3182 19.2934C39.3182 19.2934 37.361 18.178 36.1594 19.1559C36.1594 19.1559 38.8056 22.905 37.9821 28.071C37.9821 28.071 35.4296 20.978 26.2602 20.0544C24.7481 19.9021 23.5791 18.6797 23.6222 17.159Z" fill="#FF7F15"/>
<path opacity="0.2" d="M23.8187 14.687C23.8336 14.7316 23.8476 14.7764 23.8633 14.8207C24.3407 16.1684 25.279 17.394 26.5743 17.9965C27.4443 18.4012 28.417 18.5077 29.3565 18.7021C31.7766 19.2028 34.0657 20.3277 35.9421 21.9384C36.7739 22.6525 37.5425 23.5148 38.0427 24.4819C38.1769 25.5641 38.1892 26.7724 37.9823 28.0705C37.9823 28.0705 35.4298 20.9775 26.2603 20.0539C24.7482 19.9016 23.5792 18.6792 23.6223 17.1585C23.6436 16.4149 23.7004 15.5717 23.8187 14.687Z" fill="black"/>
<path opacity="0.2" d="M28.2059 14.0011C27.3827 14.8771 26.845 15.5841 26.845 15.5841C25.2916 6.32512 37.0128 6.10696 37.0128 6.10696C37.0128 6.10696 26.7785 7.33194 28.2059 14.0011Z" fill="black"/>
<path opacity="0.2" d="M31.981 11.04C30.7317 11.5916 29.4661 12.7042 28.5034 13.6906C29.027 13.0394 30.2521 11.7103 31.981 11.04Z" fill="black"/>
<path opacity="0.2" d="M38.742 12.5609C38.742 12.5609 30.6159 12.7729 31.3574 16.4677L29.2888 18.0602C29.7882 10.8896 38.742 12.5609 38.742 12.5609Z" fill="black"/>
<path opacity="0.2" d="M36.159 19.1557C35.2978 18.7305 33.5337 18.7932 33.5337 18.7932C36.3436 16.4583 39.3178 19.2932 39.3178 19.2932C39.3178 19.2932 37.3606 18.1778 36.159 19.1557Z" fill="black"/>
<path opacity="0.4" d="M14.2927 31.5173C16.1518 31.1516 14.5608 33.7541 14.4146 34.3256C14.2424 34.9986 14.1344 37.4817 12.7768 36.3626C11.2425 35.0978 12.5808 31.854 14.2927 31.5173Z" fill="white"/>
<path opacity="0.4" d="M27.37 26.2421C28.4434 26.3739 29.3497 26.9846 29.881 27.9279C30.2019 28.4979 30.7324 30.1441 29.8264 30.5351C29.2673 30.7764 28.9423 30.1181 28.6745 29.7075C28.2484 29.0543 27.8339 28.5479 27.2402 28.0338C26.7539 27.6129 26.0537 26.0804 27.37 26.2421Z" fill="white"/>
<path opacity="0.4" d="M27.4833 15.5712C27.7264 15.0704 28.298 14.3599 28.9448 14.6943C29.6667 15.0675 29.2801 16.1137 29.0064 16.6256C28.7423 17.1196 28.1549 17.8651 27.5044 17.4436C26.8743 17.0355 27.2288 16.0958 27.4833 15.5712Z" fill="white"/>
<path opacity="0.4" d="M29.97 12.8936C30.1749 11.9511 32.3085 10.9788 32.255 12.4059C32.2218 13.2917 29.7587 13.8657 29.97 12.8936Z" fill="white"/>
<path opacity="0.4" d="M26.9459 9.86771C26.7247 9.15111 28.4555 6.80883 28.8454 8.1074C29.0037 8.63453 28.6312 9.4618 28.2975 9.86467C28.0719 10.137 27.0912 10.7307 26.9838 9.97327C27.0392 10.0678 27.0265 10.0326 26.9459 9.86771Z" fill="white"/>
<path opacity="0.4" d="M51.0066 37.9352C52.2251 36.3849 57.1365 40.762 56.0432 42.0496C55.2767 42.9524 53.1267 40.7243 52.5397 40.2741C51.9807 39.8454 50.3029 38.8305 51.0066 37.9352Z" fill="white"/>
<path opacity="0.4" d="M47.3983 37.2952C47.9887 36.9555 48.8312 36.9368 49.4545 37.2031C50.2313 37.5351 50.248 37.9976 49.4678 38.2876C48.9549 38.4783 48.0336 38.7891 47.5143 38.5477C47.0182 38.3172 46.8735 37.5972 47.3983 37.2952Z" fill="white"/>
<path opacity="0.4" d="M42.444 48.35C42.413 47.5472 42.277 46.8357 42.0811 46.0615C41.9575 45.573 41.694 44.5077 42.5324 44.5975C43.538 44.7052 44.0247 46.4838 44.1807 47.2601C44.3351 48.029 44.5194 49.4302 43.5887 49.814C42.6918 50.1839 42.4687 48.9897 42.444 48.35Z" fill="white"/>
</svg>
