<svg width="51" height="48" viewBox="0 0 51 48" fill="none" xmlns="http://www.w3.org/2000/svg">
<path d="M13.0963 46.9838H40.9591C47.0381 42.6374 51.0002 35.5221 51.0002 27.4817C51.0002 24.4404 50.4321 21.5322 49.3982 18.8555H4.65715C3.62333 21.5322 3.05518 24.4405 3.05518 27.4817C3.05514 35.5221 7.0173 42.6374 13.0963 46.9838Z" fill="#C5E1F7"/>
<path d="M46.6889 19.6733H6.45619C5.52654 22.1552 5.01562 24.8517 5.01562 27.6716C5.01562 35.9432 9.4018 43.1588 15.9077 46.9834H37.2373C43.7432 43.1588 48.1294 35.9432 48.1294 27.6716C48.1294 24.8517 47.6185 22.1552 46.6889 19.6733Z" fill="#D9F0FF"/>
<path d="M46.9754 28.8042C45.6454 27.9895 43.3099 28.0186 41.9971 28.1333C39.9002 28.3166 37.8672 28.9235 35.8039 29.3396C35.2208 29.4572 34.5826 29.5525 34.0574 29.2732C33.4893 28.971 33.2189 28.3243 32.8934 27.7694C30.8257 24.2452 26.0512 25.9513 23.5179 23.2497C22.449 22.1099 22.2009 20.7286 22.2191 19.2264C22.2349 17.9234 22.2506 16.6204 22.2664 15.3173C22.2868 13.6342 21.07 11.7362 19.8002 10.6003C17.9743 8.96674 16.0515 10.2999 13.9347 10.0658C11.2103 9.76405 9.7875 6.55668 7.27271 5.46647C6.12876 4.97055 4.84276 4.95257 3.59589 4.94251C2.61016 4.93454 1.36088 4.99405 0.569652 5.72187C-0.442353 6.65276 0.0171185 8.06753 0.987705 8.84564C3.23749 10.6493 6.20713 10.8623 7.63561 13.6754C8.78238 15.9339 8.74837 18.5948 8.09142 20.992C7.75242 22.229 7.24546 23.4228 6.59982 24.5309C5.9954 25.5682 5.21907 26.5255 4.96718 27.7282C4.56671 29.6403 4.80975 31.6445 5.36249 33.5007C6.24025 36.4483 7.88199 39.1693 9.81085 41.5458C10.7492 42.702 11.7753 43.7921 12.8921 44.778C13.4815 45.2983 15.0773 46.9836 15.9076 46.9836C15.9268 46.9836 37.2346 46.9836 37.2372 46.9836C38.8351 46.9836 41.677 43.6972 42.6583 42.5985C44.2193 40.8508 45.4938 38.8499 46.4127 36.6944C47.1322 35.0066 48.5249 31.7151 47.8683 29.845C47.7117 29.3992 47.3931 29.06 46.9754 28.8042Z" fill="#5FC1ED"/>
<path d="M9.78194 26.1053C10.3129 26.0386 10.7974 26.4149 10.8641 26.9456C10.9308 27.4763 10.5544 27.9606 10.0234 28.0273C9.49245 28.0939 9.00794 27.7177 8.94124 27.187C8.87459 26.6563 9.25094 26.172 9.78194 26.1053Z" fill="#88DBEA"/>
<path opacity="0.36" d="M9.7168 26.6362C10.0181 26.5984 10.2931 26.8118 10.3309 27.113C10.3687 27.4142 10.1552 27.689 9.85385 27.7269C9.55253 27.7647 9.27757 27.5512 9.23969 27.25C9.20186 26.9488 9.41547 26.674 9.7168 26.6362Z" fill="white"/>
<path opacity="0.1" d="M10.5041 27.3878C10.6765 27.0127 10.512 26.5689 10.1368 26.3966C9.76155 26.2243 9.31758 26.3886 9.14518 26.7637C8.97277 27.1388 9.13721 27.5826 9.51245 27.7549C9.8877 27.9272 10.3317 27.7629 10.5041 27.3878Z" fill="white"/>
<path opacity="0.69" d="M9.59219 27.0004C9.75625 26.9798 9.90595 27.096 9.92656 27.26C9.94717 27.424 9.83088 27.5737 9.66681 27.5943C9.50275 27.6149 9.35305 27.4986 9.33244 27.3346C9.31184 27.1706 9.42812 27.021 9.59219 27.0004Z" fill="white"/>
<path d="M15.9664 24.5541C16.2687 25.7328 15.5577 26.9333 14.3785 27.2354C13.1993 27.5375 11.9983 26.827 11.696 25.6483C11.3937 24.4696 12.1047 23.2692 13.2839 22.967C14.4631 22.6648 15.6641 23.3754 15.9664 24.5541Z" fill="#88DBEA"/>
<path opacity="0.36" d="M14.7491 24.5603C14.9206 25.2292 14.5172 25.9105 13.848 26.082C13.1787 26.2534 12.4972 25.8502 12.3256 25.1813C12.1541 24.5123 12.5575 23.8311 13.2267 23.6596C13.896 23.4881 14.5775 23.8914 14.7491 24.5603Z" fill="white"/>
<path opacity="0.1" d="M15.4344 24.5045C15.6677 25.414 15.1191 26.3404 14.2091 26.5736C13.2992 26.8067 12.3724 26.2584 12.1391 25.3488C11.9059 24.4393 12.4545 23.5129 13.3644 23.2797C14.2744 23.0466 15.2011 23.5949 15.4344 24.5045Z" fill="white"/>
<path opacity="0.69" d="M13.8907 24.383C13.9841 24.7472 13.7645 25.1181 13.4001 25.2114C13.0358 25.3048 12.6647 25.0852 12.5713 24.721C12.4779 24.3568 12.6975 23.9859 13.0619 23.8926C13.4262 23.7992 13.7973 24.0188 13.8907 24.383Z" fill="white"/>
<path d="M10.873 1.97689C11.267 1.6798 11.82 1.90865 12.1 2.25454C12.3184 2.52443 12.4728 2.91666 12.6163 3.23145C12.761 3.54917 12.7957 3.91212 12.7853 4.2574C12.7717 4.70846 12.7846 5.27165 12.6718 5.70299C12.2593 5.54214 12.0746 5.10146 11.7898 4.79621C11.5384 4.52673 11.2598 4.30371 11.0372 4.00409C10.6217 3.44461 10.1687 2.50797 10.873 1.97689Z" fill="#5FC1ED"/>
<path d="M20.0232 0.0418354C22.1761 -0.371685 21.6931 3.33278 20.981 4.30739C20.3345 5.19225 19.2906 5.70796 18.4792 6.41856C17.6198 7.17133 15.9516 8.95581 14.6431 8.45197C14.7483 8.49248 15.4352 7.29316 15.497 7.15733C15.7267 6.65248 15.7946 6.07807 15.8829 5.53492C16.0736 4.36074 16.2367 3.17393 16.9052 2.15755C17.623 1.0663 18.7351 0.289271 20.0232 0.0418354Z" fill="#5FC1ED"/>
<path d="M42.6024 47.1287H11.5293C11.2358 47.1287 10.9956 46.8887 10.9956 46.5953V45.9768C10.9956 45.6834 11.2357 45.4434 11.5293 45.4434H42.6024C42.896 45.4434 43.1361 45.6834 43.1361 45.9768V46.5953C43.1361 46.8887 42.896 47.1287 42.6024 47.1287Z" fill="#CFE8F9"/>
<path d="M0.987705 8.84564C3.23749 10.6493 6.20713 10.8623 7.63562 13.6754C8.71279 15.7967 8.74805 18.2732 8.20397 20.5526L22.2606 20.292C22.2261 19.945 22.2147 19.5893 22.2191 19.2264C22.2349 17.9234 22.2506 16.6204 22.2664 15.3173C22.2868 13.6342 21.07 11.7362 19.8002 10.6003C17.9743 8.96674 16.0515 10.2999 13.9347 10.0658C11.2103 9.76405 9.78751 6.55667 7.27271 5.46647C6.12876 4.97055 4.84276 4.95256 3.59589 4.9425C2.61017 4.93458 1.36088 4.99404 0.569652 5.72187C-0.442353 6.65275 0.0171185 8.06752 0.987705 8.84564Z" fill="#5FC1ED"/>
<path d="M46.9751 28.8039C46.3745 28.436 45.5688 28.2405 44.7449 28.147C44.1608 28.4416 43.616 28.8735 43.1361 29.4778C39.5132 34.0395 29.8674 32.439 28.2345 29.6585C26.6017 26.878 15.0557 26.1412 14.5812 28.541C14.2777 30.0762 9.1523 31.5369 5.01416 32.0998C5.10791 32.5733 5.2256 33.0414 5.36226 33.5004C5.86468 35.1877 6.61774 36.8005 7.53141 38.3171C9.26461 37.9322 11.3142 37.8011 13.5367 38.295C20.0059 39.7327 29.4477 41.2068 32.014 37.3528C34.5804 33.4988 39.1039 39.735 42.3863 41.1415C42.7429 41.2943 43.1458 41.4088 43.5807 41.4917C44.726 40.023 45.6819 38.4077 46.4124 36.6941C47.1319 35.0064 48.5246 31.7149 47.868 29.8447C47.7114 29.3989 47.3929 29.0598 46.9751 28.8039Z" fill="#6ACCEF"/>
<path d="M39.5885 36.5136C39.6713 35.9851 40.1671 35.6238 40.6957 35.7066C41.2244 35.7894 41.5858 36.285 41.503 36.8134C41.4202 37.3418 40.9244 37.7031 40.3958 37.6203C39.8671 37.5375 39.5056 37.042 39.5885 36.5136Z" fill="#88DBEA"/>
<path opacity="0.36" d="M40.0814 36.7229C40.1284 36.423 40.4097 36.218 40.7098 36.265C41.0098 36.312 41.2149 36.5932 41.1679 36.8931C41.1209 37.193 40.8396 37.398 40.5396 37.3511C40.2395 37.3041 40.0344 37.0228 40.0814 36.7229Z" fill="white"/>
<path opacity="0.1" d="M40.5475 37.4851C40.9604 37.4775 41.2889 37.1368 41.2813 36.7241C41.2737 36.3114 40.9329 35.983 40.52 35.9906C40.1072 35.9982 39.7786 36.3389 39.7862 36.7516C39.7938 37.1643 40.1347 37.4927 40.5475 37.4851Z" fill="white"/>
<path opacity="0.69" d="M40.3967 36.9434C40.4223 36.7801 40.5755 36.6685 40.7388 36.6941C40.9022 36.7196 41.0139 36.8728 40.9883 37.036C40.9627 37.1993 40.8095 37.3109 40.6462 37.2854C40.4828 37.2598 40.3711 37.1067 40.3967 36.9434Z" fill="white"/>
<path d="M39.8086 30.1435C41.0254 30.1793 41.9828 31.1943 41.947 32.4106C41.9112 33.6269 40.8958 34.5838 39.679 34.5481C38.4622 34.5123 37.5047 33.4973 37.5405 32.281C37.5763 31.0648 38.5917 30.1078 39.8086 30.1435Z" fill="#88DBEA"/>
<path opacity="0.36" d="M39.4777 31.3145C40.1682 31.3348 40.7116 31.9109 40.6912 32.6011C40.6709 33.2914 40.0946 33.8345 39.4041 33.8141C38.7135 33.7938 38.1702 33.2178 38.1905 32.5276C38.2108 31.8373 38.7871 31.2942 39.4777 31.3145Z" fill="white"/>
<path opacity="0.1" d="M39.6138 30.6409C40.5528 30.6685 41.2916 31.4518 41.264 32.3903C41.2363 33.3289 40.4527 34.0674 39.5137 34.0398C38.5748 34.0122 37.8359 33.2289 37.8635 32.2904C37.8912 31.3517 38.6747 30.6133 39.6138 30.6409Z" fill="white"/>
<path opacity="0.69" d="M39.0697 32.0897C39.4457 32.1007 39.7415 32.4143 39.7305 32.7901C39.7194 33.1659 39.4057 33.4616 39.0297 33.4506C38.6537 33.4395 38.3579 33.1259 38.369 32.7501C38.38 32.3743 38.6937 32.0786 39.0697 32.0897Z" fill="white"/>
<path d="M9.99148 37.209C10.3704 37.5866 10.3713 38.1999 9.99345 38.5786C9.61561 38.9574 9.0021 38.9583 8.62317 38.5806C8.2442 38.2029 8.24336 37.5897 8.6212 37.2109C8.999 36.8321 9.61251 36.8313 9.99148 37.209Z" fill="#88DBEA"/>
<path opacity="0.36" d="M9.53239 37.4847C9.74746 37.699 9.74794 38.047 9.53352 38.262C9.3191 38.4769 8.97092 38.4774 8.75586 38.2631C8.54079 38.0487 8.54031 37.7008 8.75473 37.4858C8.96915 37.2708 9.31733 37.2703 9.53239 37.4847Z" fill="white"/>
<path opacity="0.1" d="M9.51315 38.5398C9.90008 38.3956 10.0968 37.9652 9.9525 37.5784C9.80822 37.1917 9.37758 36.995 8.99065 37.1393C8.60371 37.2835 8.407 37.7139 8.55129 38.1007C8.69557 38.4874 9.12621 38.6841 9.51315 38.5398Z" fill="white"/>
<path opacity="0.69" d="M9.16848 37.6098C9.28557 37.7265 9.28581 37.916 9.16908 38.033C9.05235 38.15 8.86277 38.1503 8.74572 38.0336C8.62862 37.9169 8.62834 37.7274 8.74511 37.6104C8.86184 37.4934 9.05139 37.4931 9.16848 37.6098Z" fill="white"/>
<path d="M15.1264 40.9748C15.7831 39.9503 15.4845 38.5877 14.4594 37.9313C13.4344 37.275 12.0712 37.5735 11.4145 38.598C10.7579 39.6226 11.0565 40.9852 12.0815 41.6415C13.1065 42.2979 14.4698 41.9994 15.1264 40.9748Z" fill="#88DBEA"/>
<path opacity="0.36" d="M14.2632 40.1762C13.8407 40.7225 13.0551 40.8232 12.5085 40.4009C11.9619 39.9786 11.8612 39.1933 12.2837 38.6469C12.7061 38.1006 13.4917 37.9999 14.0384 38.4222C14.585 38.8445 14.6856 39.6298 14.2632 40.1762Z" fill="white"/>
<path opacity="0.1" d="M14.729 40.6828C14.1545 41.4257 13.0863 41.5625 12.343 40.9883C11.5997 40.4142 11.4629 39.3464 12.0373 38.6034C12.6117 37.8605 13.68 37.7237 14.4232 38.2979C15.1666 38.872 15.3034 39.9398 14.729 40.6828Z" fill="white"/>
<path opacity="0.69" d="M13.8762 39.391C13.6462 39.6885 13.2184 39.7432 12.9209 39.5133C12.6232 39.2834 12.5685 38.8559 12.7985 38.5584C13.0285 38.261 13.4562 38.2062 13.7538 38.4361C14.0514 38.666 14.1062 39.0935 13.8762 39.391Z" fill="white"/>
<path d="M22.8264 41.5182C23.18 41.8634 23.5052 42.1852 23.7633 42.5002C24.0245 42.8152 24.2371 43.1234 24.3872 43.4459C24.5437 43.7656 24.6462 44.0964 24.7163 44.4091C24.7268 44.453 24.7344 44.4954 24.7432 44.5384C25.0311 44.6016 25.3017 44.7041 25.5519 44.8389C25.5956 44.7157 25.6375 44.5853 25.6721 44.4405C25.7644 44.068 25.8216 43.6186 25.7829 43.1151C25.7668 42.863 25.7144 42.6041 25.6502 42.3372C25.5775 42.0758 25.4865 41.8051 25.3674 41.5494C25.1364 41.0272 24.8242 40.5451 24.4939 40.0862C23.8261 39.1761 23.0888 38.3686 22.4266 37.5446C22.2577 37.34 22.0958 37.1314 21.9435 36.9384C21.86 36.8287 21.7766 36.7192 21.6936 36.61C21.628 36.5256 21.5665 36.4285 21.4991 36.3409C21.2473 35.977 21.0531 35.6041 20.9193 35.2222C20.7854 34.8407 20.7028 34.4486 20.681 34.0527C20.6584 33.6577 20.6848 33.2614 20.7446 32.8867C20.8678 32.1361 21.0992 31.4778 21.2793 31.0168C21.4625 30.5553 21.5943 30.2827 21.5943 30.2827C21.5943 30.2827 21.5245 30.3117 21.4009 30.3796C21.2776 30.4478 21.0996 30.5545 20.8888 30.7135C20.6767 30.8715 20.4314 31.0816 20.1744 31.3548C19.9181 31.6282 19.6518 31.9665 19.4097 32.3812C19.1716 32.7968 18.9613 33.2925 18.8351 33.8608C18.7043 34.4272 18.6825 35.069 18.7836 35.7168C18.8833 36.3656 19.1177 37.0125 19.4493 37.5921C19.5345 37.736 19.6171 37.8775 19.7128 38.0211C19.7924 38.14 19.8621 38.2489 19.9534 38.3747C20.1355 38.6325 20.3179 38.8702 20.5049 39.1025C20.8822 39.5666 21.2823 40.0012 21.6794 40.4031C22.0756 40.805 22.4685 41.1726 22.8264 41.5182Z" fill="#55B8C9"/>
<path d="M31.8467 40.5828L28.0157 41.7024C28.0448 41.6046 28.0737 41.5068 28.1029 41.4082C28.18 41.1463 28.2395 40.8773 28.299 40.6052C28.3568 40.332 28.4031 40.054 28.4372 39.7706C28.4674 39.4826 28.4912 39.2095 28.4924 38.894C28.4947 38.8124 28.4916 38.7592 28.4915 38.6904L28.4892 38.5927L28.4867 38.5241L28.4837 38.4697C28.4765 38.3233 28.4663 38.1812 28.4509 38.0395C28.4194 37.7588 28.3793 37.4879 28.338 37.2252L28.201 36.4637C28.1566 36.2178 28.1115 35.9783 28.0814 35.7442C28.0681 35.6279 28.0486 35.5114 28.0389 35.3973C28.0269 35.272 28.0176 35.1988 28.015 35.0636L28.0126 34.9653L28.0112 34.9161L28.0108 34.9038L28.0106 34.8976L28.0106 34.8946C28.0072 34.9258 28.0096 34.9019 28.0089 34.9082L28.0091 34.8888L28.0093 34.7316C28.0156 34.626 28.0235 34.5189 28.0386 34.4109C28.0946 33.9776 28.2382 33.5398 28.4775 33.1494C28.5971 32.9532 28.748 32.776 28.9317 32.6216C29.1176 32.4671 29.3306 32.3412 29.5985 32.2573C29.3444 32.183 29.0402 32.18 28.7555 32.2483C28.4689 32.3169 28.191 32.4509 27.948 32.6291C27.7067 32.8091 27.4896 33.0242 27.3064 33.2656C27.1175 33.5046 26.9732 33.7732 26.849 34.0548C26.7838 34.1949 26.7401 34.3436 26.6928 34.4928L26.6351 34.7221L26.5913 34.9361C26.5685 35.0605 26.5458 35.2478 26.534 35.3831C26.5196 35.5295 26.5098 35.6734 26.5055 35.8175C26.5 36.1039 26.5052 36.3833 26.5192 36.6551L26.5746 37.445C26.5977 37.6993 26.6174 37.9461 26.6285 38.1848L26.6403 38.5349L26.6413 38.578L26.6416 38.5911L26.6416 38.5949L26.6415 38.6071L26.6407 38.7048C26.6401 38.7663 26.6426 38.8433 26.6395 38.8919C26.6342 39.0975 26.6189 39.3445 26.5973 39.5748C26.5761 39.8097 26.5444 40.0471 26.5132 40.2873C26.4799 40.5279 26.4329 40.7691 26.3943 41.0152L26.2569 41.7596C26.2274 41.9272 26.1948 42.0953 26.1631 42.2644C26.1513 42.2708 26.1401 42.2751 26.128 42.2824C26.0493 42.3332 25.9804 42.3909 25.9211 42.4716C25.9056 42.4923 25.8917 42.513 25.8791 42.5336C25.8356 42.5779 25.789 42.6199 25.7469 42.6652L25.5811 42.8597L25.4247 43.0599C25.3751 43.1284 25.3261 43.1969 25.2791 43.2665L25.1452 43.4796L25.0214 43.6968L24.9109 43.9202L24.8106 44.1466L24.7243 44.3775L24.6768 44.525C24.8938 44.5676 25.1017 44.6316 25.2986 44.7157C25.2999 44.7141 25.3013 44.7124 25.3027 44.7108C25.4023 44.6034 25.5021 44.4992 25.6031 44.3981C25.7071 44.2991 25.812 44.2039 25.9169 44.1109L26.0788 43.9773C26.1352 43.9356 26.1894 43.8927 26.2431 43.8498L26.368 43.7594C26.3762 43.7621 26.3837 43.7652 26.3922 43.7678C26.433 43.7822 26.5462 43.8022 26.6394 43.7975L26.7307 43.7912L26.7338 43.791C26.6621 43.8057 26.8338 43.7711 26.8223 43.773L26.8501 43.7654L26.9054 43.748C26.9418 43.7356 26.9773 43.7196 27.0123 43.7027C27.1519 43.6333 27.257 43.5357 27.3272 43.4505C27.3987 43.364 27.4429 43.2865 27.4772 43.2196C27.51 43.1544 27.5325 43.0989 27.5516 43.0487L31.8467 40.5828Z" fill="#55B8C9"/>
<path d="M26.7827 43.4903L26.8934 43.4268C26.8837 43.4334 26.8754 43.4417 26.8651 43.4478C26.836 43.4654 26.8094 43.4791 26.7827 43.4903Z" fill="#5EC4DB"/>
<path d="M33.2895 35.7811C33.2547 35.7382 33.218 35.6845 33.1484 35.6333C33.0839 35.5818 32.9998 35.506 32.9029 35.4593C32.8542 35.4327 32.8017 35.4028 32.7444 35.3752C32.6872 35.3477 32.6251 35.3309 32.5589 35.3072C32.4254 35.2542 32.2785 35.2397 32.1134 35.2135C31.7886 35.1851 31.4146 35.2239 31.0311 35.3434C30.6483 35.4641 30.2573 35.6632 29.8912 35.9482C29.7076 36.0901 29.5305 36.2542 29.3658 36.4428C29.2857 36.5397 29.1991 36.633 29.1279 36.7441L29.0161 36.9082L28.9185 37.0697L28.8393 37.201L28.7497 37.3759C28.6874 37.4986 28.6409 37.6039 28.5913 37.7146C28.4961 37.9358 28.4141 38.1577 28.3413 38.3794C28.198 38.8212 28.0914 39.2541 27.9946 39.6607C27.8997 40.0679 27.8112 40.4451 27.7127 40.7897C27.6905 40.8785 27.6617 40.958 27.6368 41.0419L27.6278 41.0732C27.6331 41.0612 27.6142 41.1056 27.6395 41.0473L27.6378 41.0519L27.6345 41.0612L27.6276 41.0797L27.6006 41.1536L27.5466 41.3007C27.5181 41.3755 27.4898 41.4498 27.4617 41.5236C27.44 41.5901 27.3967 41.6738 27.3662 41.7483C27.2291 42.0536 27.0696 42.3445 26.9007 42.6192C26.7324 42.8948 26.5467 43.1468 26.3619 43.3775C26.1799 43.6127 25.9898 43.8155 25.8152 44.001C25.6383 44.1826 25.4721 44.3394 25.3296 44.4692C25.2576 44.5319 25.1921 44.5896 25.1351 44.6424C25.1316 44.6454 25.1289 44.6476 25.1255 44.6505C25.3064 44.7154 25.4796 44.7947 25.6428 44.8898C25.7388 44.8804 25.8427 44.8662 25.953 44.847C26.1359 44.7843 26.3238 44.7376 26.5147 44.7092C26.7247 44.6435 26.9477 44.56 27.1762 44.4472C27.505 44.2867 27.8506 44.0779 28.1818 43.8063C28.515 43.5372 28.8367 43.2088 29.1228 42.826C29.1925 42.7254 29.2648 42.6406 29.3333 42.5225L29.4369 42.3527C29.4711 42.2956 29.5087 42.2344 29.5294 42.1936L29.604 42.0557L29.6414 41.9864L29.6507 41.9691L29.6554 41.9604L29.6577 41.9561L29.6732 41.921L29.6927 41.879C29.7424 41.7665 29.797 41.6517 29.8403 41.5386C30.0227 41.0828 30.1503 40.6245 30.2523 40.1934C30.353 39.7614 30.4316 39.3526 30.5123 38.9763C30.5535 38.7896 30.5927 38.6085 30.6371 38.4382C30.6589 38.3537 30.6802 38.2638 30.6996 38.1983L30.727 38.0899L30.7773 37.946L30.8025 37.8743L30.8148 37.8385C30.8101 37.8476 30.8273 37.8117 30.8047 37.8578L30.8058 37.8548L30.808 37.8488L30.8124 37.8368L30.8468 37.7401C30.8659 37.6741 30.9007 37.6117 30.9266 37.5458C30.9858 37.4167 31.0566 37.2912 31.1314 37.1679C31.285 36.9251 31.466 36.7067 31.6549 36.527C31.8434 36.3456 32.0405 36.2021 32.2356 36.0965C32.4293 36.0018 32.6241 35.9321 32.7968 35.9105C32.8414 35.9013 32.8833 35.8946 32.9191 35.8949C32.9586 35.8924 32.9957 35.8901 33.0302 35.8879C33.1014 35.8797 33.1709 35.8924 33.2245 35.8983C33.334 35.9091 33.3924 35.9148 33.3924 35.9148C33.3924 35.9148 33.3567 35.8682 33.2895 35.7811Z" fill="#78D9EA"/>
<path d="M24.5461 44.4736L24.6143 44.4914L24.666 44.5025C24.7014 44.5108 24.7393 44.5212 24.7775 44.5326C24.8555 44.5572 24.932 44.5814 25.007 44.605C25.2991 44.7012 25.5653 44.805 25.7896 44.9079C26.0541 44.8015 26.3311 44.7286 26.6135 44.696C26.5476 44.5593 26.4616 44.4257 26.3659 44.294C26.1728 44.0337 25.93 43.7789 25.6406 43.5291C25.5687 43.4651 25.4919 43.4052 25.41 43.3434C25.369 43.3125 25.3264 43.2816 25.2799 43.2497L25.2073 43.2017L25.1494 43.1615C24.9941 43.0534 24.8312 42.9513 24.6695 42.8412C24.3432 42.6272 24.0074 42.4083 23.6893 42.1812C23.3696 41.954 23.0662 41.7177 22.783 41.4587C22.6397 41.331 22.5044 41.1932 22.3682 41.0541L22.2683 40.9465L22.2433 40.9197L22.2393 40.9155L22.2361 40.9118L22.1794 40.847L22.0657 40.7177L21.9875 40.6178C21.8779 40.4854 21.7474 40.3056 21.6219 40.1369C21.4877 39.9542 21.3539 39.7721 21.2212 39.5916C20.942 39.2182 20.6193 38.8248 20.2277 38.4763C20.0355 38.3016 19.8182 38.1412 19.5937 38.0043C19.479 37.9378 19.3614 37.8763 19.2462 37.8181C19.1862 37.7923 19.1265 37.7668 19.0671 37.7414L18.9783 37.7052L18.9339 37.688C18.886 37.6658 18.918 37.6811 18.9061 37.6758L18.9016 37.6746L18.8926 37.6721L18.8745 37.6671C18.7657 37.6378 18.6585 37.6089 18.5528 37.5805C18.4246 37.5457 18.3151 37.5276 18.203 37.5116C17.9792 37.4842 17.765 37.4692 17.5608 37.4782C17.1525 37.4932 16.7919 37.5704 16.4912 37.676C16.1901 37.7819 15.949 37.9134 15.7646 38.0356C15.5808 38.1607 15.4525 38.2748 15.3704 38.3574C15.2888 38.4412 15.249 38.4872 15.249 38.4872C15.249 38.4872 15.3099 38.4816 15.4241 38.4711C15.5361 38.4607 15.6995 38.4517 15.8974 38.4498C16.0969 38.4534 16.3314 38.4651 16.5872 38.5069C16.8425 38.5478 17.1185 38.6159 17.3941 38.7216C17.5319 38.7736 17.6698 38.8337 17.8038 38.9063C17.8691 38.9455 17.9418 38.9786 17.9916 39.0159C18.0629 39.0615 18.1352 39.1078 18.2086 39.1548L18.2243 39.165L18.2322 39.17L18.2362 39.1726C18.2271 39.1686 18.2621 39.185 18.2169 39.1643L18.2379 39.1827C18.2518 39.1951 18.2661 39.2066 18.2805 39.2179L18.3668 39.2855C18.4216 39.3371 18.4764 39.3876 18.5303 39.4412C18.6343 39.5572 18.741 39.6716 18.8435 39.8115C19.0514 40.0831 19.2555 40.4118 19.4868 40.7845C19.6019 40.9676 19.7244 41.1666 19.8585 41.3658C19.9959 41.5717 20.1333 41.7657 20.3134 41.9901L20.4526 42.1576L20.5682 42.2854L20.626 42.3491L20.6608 42.386L20.6783 42.4033L20.7133 42.438L20.8536 42.5763C21.044 42.7576 21.2442 42.9295 21.4534 43.0855C21.8692 43.4018 22.3145 43.6535 22.7448 43.8501C23.176 44.049 23.593 44.1892 23.9813 44.3113C24.1772 44.3689 24.3637 44.4265 24.5461 44.4736Z" fill="#78D9EA"/>
<path d="M22.557 35.9437C22.7723 36.7159 23.0883 37.4201 23.4525 38.0734C23.6349 38.3997 23.8278 38.715 24.038 39.0144C24.1418 39.165 24.2481 39.3124 24.3578 39.4576C24.4598 39.5887 24.561 39.7189 24.6615 39.848L24.7659 39.9956C24.8018 40.0534 24.8377 40.1109 24.8734 40.1681C24.9406 40.2858 25.0037 40.4055 25.0639 40.5267C25.1821 40.77 25.2693 41.024 25.3395 41.2762C25.4762 41.7818 25.5231 42.2875 25.4824 42.7474L25.4812 42.7691L25.4806 42.78C25.4748 42.8042 25.4881 42.753 25.4863 42.7606L25.4854 42.7668L25.4776 42.8159L25.4622 42.9133C25.4521 42.9864 25.4413 43.0226 25.4321 43.0678L25.4185 43.1349L25.395 43.211C25.3775 43.262 25.3667 43.3133 25.3457 43.3646C25.277 43.5696 25.1775 43.7697 25.0893 43.9663C24.9932 44.1692 24.9022 44.3687 24.827 44.5604C25.0114 44.6062 25.1892 44.6662 25.358 44.7426C25.4586 44.6222 25.5686 44.4957 25.6915 44.3558C25.8354 44.1888 25.99 44.0052 26.1425 43.7791C26.1823 43.7256 26.2171 43.6627 26.2538 43.6021L26.3085 43.508L26.3619 43.3979C26.3971 43.324 26.4357 43.2412 26.4557 43.1877L26.4927 43.0962L26.5114 43.0501L26.5344 42.9723C26.7177 42.3936 26.7865 41.7285 26.7161 41.0349C26.6822 40.6877 26.6065 40.3349 26.4962 39.9814C26.4662 39.8936 26.436 39.8052 26.4056 39.7165C26.3715 39.6289 26.3335 39.5419 26.2967 39.4539C26.2576 39.3667 26.2142 39.2805 26.1722 39.1932C26.1256 39.1034 26.0711 39.0092 26.0191 38.9172C25.975 38.8452 25.9307 38.7729 25.8862 38.7003C25.8401 38.6289 25.7937 38.5571 25.7472 38.4851C25.6636 38.3541 25.5812 38.2189 25.5016 38.0815C25.4221 37.9435 25.3433 37.8042 25.2694 37.6611C25.1895 37.5214 25.1192 37.3761 25.0444 37.2326C24.7612 36.6524 24.5121 36.0488 24.3474 35.4558C24.3131 35.3089 24.2675 35.1602 24.247 35.0169C24.2358 34.9452 24.2164 34.8716 24.2091 34.8018L24.1854 34.5926C24.173 34.5213 24.1811 34.4587 24.1763 34.3914L24.1716 34.292C24.1682 34.2546 24.1746 34.2415 24.1746 34.2151C24.1786 34.1661 24.1743 34.1271 24.1773 34.0681L24.2287 33.8112L24.2346 33.7818L24.2402 33.766L24.2654 33.6892C24.2775 33.6346 24.3028 33.5908 24.3233 33.5448L24.353 33.4744L24.3935 33.4096L24.4325 33.343L24.4838 33.2783C24.6173 33.1027 24.8336 32.9224 25.1043 32.6845C25.3702 32.4509 25.7022 32.1407 25.9161 31.7355C25.9683 31.6362 26.0114 31.5319 26.0558 31.4309C26.0989 31.3292 26.1211 31.2249 26.1519 31.123C26.1839 31.024 26.1983 30.912 26.2137 30.8039L26.2334 30.6422C26.2359 30.6165 26.2401 30.5862 26.2407 30.5647L26.2401 30.5073C26.2394 30.431 26.2385 30.3552 26.2378 30.2799L26.2373 30.2235L26.2372 30.2165C26.2355 30.2476 26.2394 30.1663 26.2387 30.1715L26.2372 30.155L26.2343 30.122L26.2222 29.9909C26.2107 29.8167 26.1786 29.6486 26.1443 29.4852C26.0664 29.1616 25.9686 28.8596 25.8421 28.5947C25.5975 28.0582 25.3074 27.6409 25.0558 27.2829C24.8016 26.9262 24.5799 26.6267 24.4057 26.3719C24.2347 26.1153 24.1019 25.9146 24.0206 25.7656C23.9374 25.6178 23.893 25.5391 23.893 25.5391C23.893 25.5391 23.9022 25.629 23.9195 25.7976C23.943 25.9634 23.9845 26.2179 24.0684 26.5261C24.1508 26.8356 24.2775 27.2033 24.4226 27.6116C24.5665 28.0196 24.7314 28.4683 24.8285 28.939C24.881 29.1743 24.91 29.4134 24.9178 29.6554C24.9157 29.7764 24.921 29.8973 24.9063 30.0193L24.8994 30.1108L24.8978 30.1337L24.897 30.1451C24.8973 30.1373 24.8997 30.0829 24.8979 30.1141L24.8968 30.1211L24.888 30.1767C24.8762 30.2511 24.8643 30.3259 24.8523 30.4013L24.8433 30.4579C24.8398 30.4743 24.8343 30.4812 24.8301 30.4932C24.8215 30.5148 24.8124 30.5361 24.8055 30.5576C24.7905 30.6006 24.7827 30.643 24.7559 30.6895C24.732 30.7336 24.718 30.784 24.6906 30.8236C24.6619 30.8625 24.6394 30.9036 24.6113 30.9421C24.4955 31.0887 24.3349 31.2255 24.0814 31.4016C23.8332 31.5759 23.4992 31.7962 23.1822 32.1366L23.0646 32.2653C23.0276 32.3118 22.9919 32.3609 22.956 32.4093L22.8495 32.5567C22.8176 32.6082 22.7884 32.6618 22.7583 32.7149C22.697 32.8212 22.6408 32.9304 22.6013 33.0422L22.537 33.2102L22.5213 33.2524L22.5135 33.2736L22.5096 33.2841C22.5017 33.3131 22.5217 33.2343 22.4909 33.3516L22.4751 33.4151L22.4119 33.6692C22.3917 33.7834 22.3749 33.9194 22.3603 34.0449C22.3418 34.1808 22.3432 34.2853 22.3418 34.3948C22.3437 34.5031 22.3363 34.6176 22.3488 34.7213C22.3733 35.1511 22.4569 35.5535 22.557 35.9437Z" fill="#78D9EA"/>
<path opacity="0.37" d="M33.5502 32.5378C38.6348 32.5378 42.7567 30.5663 42.7567 28.1344C42.7567 25.7024 38.6348 23.731 33.5502 23.731C28.4656 23.731 24.3438 25.7024 24.3438 28.1344C24.3438 30.5663 28.4656 32.5378 33.5502 32.5378Z" fill="white"/>
<path d="M18.4266 14.4053C18.1928 13.7121 17.7245 13.0627 17.0478 12.7843C16.524 12.5688 15.938 12.5942 15.3718 12.5785C13.8851 12.5374 12.4113 12.1748 11.0663 11.5427C10.4675 11.2613 10.0739 10.8488 9.53225 10.4834C8.92396 10.0732 8.25977 9.75441 7.60009 9.43701C7.34393 9.72166 7.34538 10.1714 7.51303 10.5157C7.68067 10.8599 7.98353 11.1176 8.29383 11.3421C8.57357 11.5444 8.86616 11.7283 9.15847 11.912C9.79605 12.3127 9.86988 12.4286 9.84907 13.2061C9.83168 13.8542 9.72413 14.5183 9.92603 15.15C10.1515 15.8555 10.7391 16.4019 11.4041 16.7285C12.0691 17.0552 12.8109 17.1881 13.545 17.2881C14.6498 17.4387 15.7636 17.523 16.8784 17.5406C17.4945 17.5503 18.0285 17.5851 18.2357 17.0534C18.5211 16.3205 18.6747 15.1411 18.4266 14.4053Z" fill="#45B4DB"/>
<path opacity="0.37" d="M18.9 2.45813C19.0181 2.39786 19.1712 2.46811 19.2395 2.58169C19.3078 2.69527 19.3089 2.83697 19.2896 2.96809C19.2398 3.30472 19.0651 3.61307 18.8096 3.83621C18.6923 3.93864 18.2234 4.34983 18.0343 4.19223C17.901 4.08103 18.6772 2.57187 18.9 2.45813Z" fill="white"/>
<path opacity="0.37" d="M12.1248 4.40897C11.931 4.42594 11.8033 4.305 11.6828 4.174C11.5455 4.02453 11.6297 3.75803 11.6229 3.57698C11.6149 3.361 11.6002 3.12636 11.7234 2.94873C12.1027 3.29772 12.284 3.84883 12.1858 4.35473C12.1831 4.36837 12.1799 4.38273 12.1703 4.39275C12.1589 4.40458 12.1412 4.40756 12.1248 4.40897Z" fill="white"/>
<path opacity="0.37" d="M5.56031 5.80762C4.9819 5.51166 4.20432 5.44495 3.738 5.8973C3.55365 6.07614 3.44034 6.3142 3.33774 6.5496C3.05429 7.19982 2.81894 7.90724 2.92903 8.60791C3.07007 8.62062 3.21115 8.63334 3.35219 8.64609C3.50004 8.65941 3.67296 8.66307 3.76831 8.54937C3.83038 8.47538 3.84 8.3717 3.84161 8.27518C3.84926 7.81398 3.74468 7.31549 3.97758 6.91726C4.13513 6.64781 4.42317 6.47863 4.71877 6.37809C4.96274 6.29509 5.21994 6.25171 5.4776 6.24834C5.60161 6.24673 5.72192 6.29501 5.84513 6.29971C5.93622 6.30321 6.11446 6.32832 6.10604 6.19261C6.09679 6.04351 5.6772 5.86744 5.56031 5.80762Z" fill="white"/>
<path d="M48.7696 20.0959H4.12253C3.5355 20.0959 3.05518 19.6158 3.05518 19.029V17.792C3.05518 17.2052 3.5355 16.7251 4.12253 16.7251H48.7696C49.3566 16.7251 49.8369 17.2052 49.8369 17.792V19.029C49.8369 19.6158 49.3566 20.0959 48.7696 20.0959Z" fill="#CFE8F9"/>
<path d="M47.5773 18.8551H5.47795C5.22369 18.8551 5.01562 18.6471 5.01562 18.393V17.8571C5.01562 17.603 5.22369 17.395 5.47795 17.395H47.5773C47.8316 17.395 48.0396 17.603 48.0396 17.8571V18.393C48.0396 18.6472 47.8316 18.8551 47.5773 18.8551Z" fill="white"/>
<path d="M38.2271 28.8092C39.6744 28.8092 40.8477 27.9275 40.8477 26.8399C40.8477 25.7523 39.6744 24.8706 38.2271 24.8706C36.7797 24.8706 35.6064 25.7523 35.6064 26.8399C35.6064 27.9275 36.7797 28.8092 38.2271 28.8092Z" fill="white"/>
<path opacity="0.36" d="M11.9075 20.0962C11.9075 20.0962 9.12079 37.0411 20.3677 45.4434H21.6096C21.6096 45.4434 12.2264 39.7245 12.9732 20.0962H11.9075Z" fill="white"/>
<path opacity="0.36" d="M8.53351 20.0962C8.53351 20.0962 5.74677 37.0411 16.9937 45.4434H18.2355C18.2355 45.4434 8.85234 39.7245 9.59917 20.0962H8.53351Z" fill="white"/>
<path d="M37.3437 1.06078C36.8476 0.582924 34.5157 -1.26222 30.3207 1.43302C30.1878 1.51843 30.2448 1.72463 30.4027 1.72978C31.4692 1.76442 33.8065 2.01842 33.9478 3.57292C34.1139 5.39928 36.843 1.94793 37.3601 1.27558C37.4103 1.21025 37.403 1.11799 37.3437 1.06078Z" fill="#FF8912"/>
<path d="M36.88 0.429439C38.1928 0.343178 39.5624 0.665127 40.7389 1.61448C41.1899 1.97855 41.5185 2.37787 41.7462 2.79867C41.9208 3.12134 42.0475 3.47081 42.0997 3.83472C42.1382 4.10316 42.1233 4.37345 42.1416 4.64305C42.1441 4.6791 42.1453 4.71515 42.1463 4.7512C42.1298 4.76685 42.114 4.78242 42.0967 4.79819C42.0331 4.85738 41.9603 4.91314 41.8857 4.9708C41.8095 5.02668 41.728 5.08007 41.6428 5.13048C41.6012 5.1572 41.556 5.17888 41.5125 5.20359C41.4677 5.22592 41.4226 5.24825 41.3769 5.26909C41.2854 5.31097 41.1923 5.34984 41.0981 5.38166C41.0041 5.41357 40.9108 5.44394 40.8187 5.46744C40.7266 5.49138 40.6367 5.51125 40.5508 5.52932C40.5076 5.5368 40.4656 5.54412 40.4249 5.55116C40.3843 5.55937 40.3447 5.56517 40.3066 5.57003C40.2304 5.58078 40.1603 5.59079 40.0978 5.59655C40.0353 5.60323 39.9807 5.61035 39.9355 5.61304C39.8451 5.62073 39.793 5.62652 39.793 5.62652C39.793 5.62652 39.8445 5.63372 39.9353 5.64378C39.9807 5.6495 40.036 5.6534 40.0997 5.65565C40.1315 5.65698 40.1655 5.65843 40.2012 5.65992C40.237 5.65943 40.2746 5.65895 40.3139 5.65843C40.3927 5.65903 40.4777 5.65094 40.5678 5.64338C40.6127 5.63767 40.6589 5.63187 40.706 5.62588C40.7533 5.6202 40.8007 5.60858 40.8495 5.59993C40.8984 5.59164 40.9469 5.57768 40.9967 5.56609C41.0467 5.55535 41.0958 5.53877 41.1456 5.52308C41.2451 5.4913 41.3441 5.45235 41.4414 5.40938C41.4895 5.38649 41.5367 5.36203 41.5838 5.33756C41.6295 5.31069 41.6766 5.28675 41.7204 5.25774C41.7425 5.2437 41.7645 5.22966 41.7865 5.21574C41.8076 5.20057 41.8286 5.18548 41.8494 5.17047C41.8915 5.1411 41.9304 5.10831 41.9695 5.07749C42.0342 5.02358 42.0929 4.96766 42.147 4.91097C42.147 4.9121 42.147 4.91322 42.147 4.91439C42.1264 5.68997 41.82 6.4771 41.4758 7.16372C41.0991 7.91533 40.5918 8.56691 39.9858 9.107C33.6994 6.29412 35.8146 1.99907 36.88 0.429439Z" fill="#F7DB34"/>
<path d="M33.9606 3.54196C34.1848 3.43112 34.3017 3.19788 34.2508 2.99072C34.2692 3.01374 34.2855 3.0388 34.299 3.06608C34.4119 3.29428 34.2971 3.58135 34.0424 3.70728C33.7878 3.83317 33.4898 3.75025 33.3769 3.52205C33.3634 3.49477 33.3533 3.4666 33.3462 3.438C33.4801 3.60416 33.7365 3.6528 33.9606 3.54196Z" fill="#F7DB34"/>
<path d="M38.1104 3.43479C38.1104 3.43479 38.1363 3.46018 38.189 3.49418C38.2414 3.5281 38.3205 3.57199 38.4245 3.60466C38.5279 3.63814 38.657 3.66071 38.8002 3.65181C38.8714 3.6459 38.9462 3.63488 39.0196 3.60997C39.0931 3.58635 39.1658 3.55272 39.2321 3.50891C39.299 3.4659 39.3579 3.4123 39.41 3.35574C39.4604 3.2978 39.5029 3.23584 39.5363 3.17336C39.5515 3.14137 39.5691 3.11132 39.5808 3.07977C39.5924 3.04823 39.6042 3.0179 39.6144 2.98792C39.6305 2.92693 39.6462 2.87008 39.6522 2.81629C39.6556 2.78945 39.6597 2.76414 39.6617 2.73984C39.6627 2.71546 39.6635 2.69229 39.6643 2.67056C39.6662 2.62735 39.664 2.58953 39.6609 2.55847C39.6557 2.49647 39.649 2.46143 39.649 2.46143C39.649 2.46143 39.6295 2.49257 39.6018 2.5464C39.5889 2.57356 39.5706 2.6055 39.5508 2.64159C39.5321 2.67812 39.5107 2.71844 39.4856 2.7606C39.4632 2.80405 39.4336 2.84722 39.4065 2.89369C39.3907 2.91554 39.3759 2.93839 39.3603 2.96129C39.3444 2.98394 39.327 3.00542 39.3102 3.02799C39.2933 3.05044 39.2737 3.07032 39.2559 3.09225C39.2372 3.11321 39.2162 3.13172 39.1975 3.15272C39.1552 3.18917 39.1138 3.22703 39.0661 3.25555C39.0208 3.28774 38.9703 3.31148 38.9196 3.33413C38.8686 3.35634 38.8148 3.37195 38.7615 3.38676C38.6538 3.41315 38.5449 3.4261 38.4481 3.43158C38.3514 3.43777 38.2671 3.43697 38.2067 3.43701C38.1454 3.43556 38.1104 3.43479 38.1104 3.43479Z" fill="#1D1D1B"/>
<path d="M38.1028 5.33122C38.1768 5.48081 38.5065 5.46874 38.8391 5.3043C39.1717 5.13983 39.3813 4.88523 39.3073 4.73564C39.2332 4.58601 38.9036 4.59809 38.571 4.76256C38.2383 4.92699 38.0287 5.18159 38.1028 5.33122Z" fill="#FF8912"/>
<path d="M41.8498 5.17025C41.8289 5.18522 41.808 5.20035 41.7869 5.21551C41.7649 5.22943 41.7429 5.24347 41.7208 5.25752C41.677 5.28652 41.6299 5.31042 41.5842 5.33734C41.5372 5.3618 41.4899 5.38626 41.4418 5.40916C41.3445 5.45213 41.2455 5.49107 41.146 5.52286C41.0962 5.53855 41.0471 5.55512 40.9971 5.56587C40.9474 5.57745 40.8988 5.59141 40.8499 5.5997C40.8012 5.60835 40.7538 5.61998 40.7064 5.62565C40.6593 5.63165 40.6131 5.63744 40.5682 5.64316C40.4781 5.65068 40.3931 5.65881 40.3143 5.6582C40.275 5.65873 40.2374 5.65921 40.2016 5.65969C40.1659 5.6582 40.1319 5.65675 40.1001 5.65543C40.0365 5.65317 39.9812 5.64927 39.9357 5.64356C39.8449 5.6335 39.7935 5.6263 39.7935 5.6263C39.7935 5.6263 39.8455 5.6205 39.9359 5.61282C39.981 5.61012 40.0357 5.60304 40.0982 5.59632C40.1608 5.59053 40.2308 5.58055 40.307 5.56981C40.3451 5.56494 40.3847 5.55915 40.4253 5.55094C40.466 5.5439 40.508 5.53658 40.5512 5.52909C40.6371 5.51103 40.7271 5.49119 40.8191 5.46721C40.9112 5.44372 41.0045 5.41334 41.0985 5.38144C41.1927 5.34965 41.2858 5.31075 41.3773 5.26886C41.423 5.24802 41.4681 5.22569 41.5129 5.20336C41.5564 5.1787 41.6016 5.15697 41.6432 5.13026C41.7284 5.07985 41.8099 5.02646 41.8861 4.97057C41.9607 4.91296 42.0334 4.85715 42.0971 4.79797C42.1144 4.7822 42.1302 4.76663 42.1467 4.75098C42.1483 4.80429 42.1488 4.85752 42.1475 4.91074C42.0934 4.96739 42.0347 5.02332 41.97 5.07727C41.9308 5.10809 41.892 5.14088 41.8498 5.17025Z" fill="#F9B233"/>
<path d="M29.1073 9.71184C28.957 9.41206 28.7872 9.12266 28.6318 8.82549C28.5583 8.68476 28.4873 8.54249 28.4241 8.39677C28.3987 8.33827 28.3332 8.23949 28.3364 8.17902C28.3498 8.21966 28.3633 8.26029 28.3768 8.30093C28.3612 8.25176 28.3469 8.20228 28.3339 8.15239C28.3296 8.13666 28.3241 8.12173 28.3193 8.10632C29.2721 7.72438 29.5322 6.42846 29.8642 5.4734C30.1432 4.67195 30.5572 3.97096 31.0686 3.36102C31.2457 3.14991 31.434 2.94947 31.633 2.76001C32.4125 2.0177 33.5718 1.45411 34.536 1.02076C34.786 0.908265 35.047 0.810176 35.3151 0.726289C35.5509 0.6525 35.7919 0.589415 36.0379 0.540692C36.3143 0.485894 36.5961 0.448356 36.8804 0.429688C35.815 1.99932 33.6998 6.29436 39.9862 9.10721C39.2886 9.72886 38.4602 10.2029 37.5485 10.5112C36.4921 10.8683 35.3626 11.0128 34.25 10.9446C33.628 10.9065 33.0153 10.8022 32.433 10.6285C31.5116 10.3541 29.763 9.55976 28.92 10.065C28.9124 10.0695 28.8651 9.95899 28.8575 9.96378C28.7887 9.78454 29.1931 9.88291 29.1073 9.71184Z" fill="#F9B233"/>
<path d="M29.0495 9.3192C29.0565 9.31119 29.0636 9.30322 29.0706 9.29522C29.1042 9.25704 29.1385 9.21749 29.1547 9.16929C29.172 9.11759 29.1666 9.06138 29.1611 9.00715C29.1563 8.961 29.1163 8.91151 29.0965 8.86697C29.0783 8.82585 29.0595 8.78498 29.0403 8.7443C28.9095 8.46806 28.7557 8.20216 28.5759 7.9548C28.3712 7.67317 28.1318 7.41523 27.8554 7.20263C27.5536 6.97045 27.2089 6.79636 26.84 6.7C26.3999 6.58501 25.938 6.58288 25.4912 6.65912C22.466 7.17519 22.6278 8.24428 21.5923 7.19897C21.6011 7.20786 21.6014 7.25365 21.6038 7.26572C21.6167 7.32836 21.6339 7.39012 21.6535 7.45091C21.6839 7.5447 21.7209 7.63635 21.7632 7.72543C21.8184 7.84162 21.8827 7.95347 21.9547 8.06009C22.0424 8.19008 22.1415 8.31227 22.2496 8.42581C22.3782 8.56076 22.5196 8.68331 22.67 8.79339C22.8482 8.92382 23.0391 9.03672 23.2374 9.13368C23.4741 9.24939 23.7214 9.34261 23.9739 9.41757C24.2771 9.50765 24.5879 9.57154 24.901 9.61592C25.2785 9.66939 25.6597 9.69454 26.0408 9.69957C26.4994 9.70564 26.9583 9.68259 27.4148 9.63938C27.6761 9.61463 27.9367 9.58321 28.1966 9.54624C28.3354 9.52648 28.4739 9.50512 28.6123 9.4823C28.6838 9.47052 28.7551 9.45804 28.8265 9.44581C28.8916 9.43463 28.9314 9.4537 28.9794 9.39902C29.0028 9.37243 29.0262 9.34583 29.0495 9.3192Z" fill="#FF8912"/>
<path d="M29.0706 8.80106C29.0706 8.80106 27.8041 6.24595 25.3107 6.98463C22.8173 7.72332 23.1265 8.52751 22.0771 7.84028C22.0771 7.84028 22.9711 10.4729 28.6712 8.72948C28.713 8.71669 28.747 8.70277 28.7916 8.70204C28.822 8.70156 28.8519 8.71001 28.8812 8.71838C28.9247 8.73077 28.9682 8.74316 29.0117 8.75555C29.0289 8.76042 29.0467 8.76565 29.0601 8.77659C29.0735 8.78758 29.079 8.78726 29.0706 8.80106Z" fill="#F7DB34"/>
<path d="M29.212 9.35668C29.213 9.39446 29.2053 9.42954 29.2023 9.47432C29.1976 9.5463 29.1925 9.61828 29.187 9.69022C29.1764 9.82946 29.1643 9.96859 29.1506 10.1076C29.125 10.3677 29.0937 10.6273 29.0559 10.8859C28.9897 11.3379 28.9034 11.7873 28.7889 12.2296C28.6937 12.5971 28.5791 12.96 28.4378 13.3126C28.3207 13.6051 28.185 13.8907 28.0259 14.1628C27.8933 14.3893 27.7443 14.6066 27.5761 14.8082C27.435 14.9773 27.2804 15.1353 27.1117 15.2769C26.9693 15.3965 26.817 15.5042 26.6557 15.5968C26.52 15.6746 26.3781 15.7417 26.2314 15.7958C26.111 15.8402 25.9874 15.8761 25.8616 15.902C25.7654 15.9219 25.6678 15.936 25.5698 15.9433C25.5063 15.948 25.4425 15.9501 25.3789 15.9477C25.3667 15.9473 25.3226 15.9368 25.312 15.9432C26.5727 15.1842 25.4952 15.089 25.7076 12.0288C25.737 11.6041 25.8365 11.1828 26.0279 10.8011C26.1889 10.4798 26.4128 10.1931 26.6819 9.95519C26.929 9.73665 27.2111 9.55986 27.5095 9.42005C27.779 9.29371 28.062 9.19695 28.3506 9.12449C28.4725 9.09387 28.5955 9.06764 28.7191 9.04559C28.7741 9.03582 28.8292 9.02685 28.8843 9.01868C28.9602 9.00749 29.0188 9.0093 29.0953 9.01687C29.1031 9.01763 29.1111 9.01848 29.1182 9.02198C29.1247 9.02524 29.13 9.03059 29.1347 9.03618C29.1641 9.07106 29.1759 9.11741 29.1821 9.16259C29.1883 9.20778 29.1899 9.25392 29.2027 9.29774C29.2089 9.31902 29.2115 9.33817 29.212 9.35668Z" fill="#FF8912"/>
<path d="M28.6415 9.46772C28.4166 15.3103 25.9077 15.5847 25.9077 15.5847C26.8073 14.7317 26.0301 14.8501 26.1488 12.2997C26.2675 9.74928 28.8222 9.10107 28.8222 9.10107C28.791 9.18874 28.6927 9.27001 28.6574 9.3564C28.6328 9.41666 28.6439 9.40584 28.6415 9.46772Z" fill="#F7DB34"/>
<path d="M35.4088 5.9404C34.9875 12.9653 31.5112 12.5269 31.5112 12.5269C32.7719 11.7679 31.6944 11.6727 31.9068 8.61251C32.1192 5.55235 35.6658 5.55078 35.6658 5.55078C35.6209 5.64766 35.4835 5.7161 35.433 5.81013C35.3977 5.87579 35.4133 5.86601 35.4088 5.9404Z" fill="#FF8912"/>
<path d="M34.8407 6.05122C34.6159 11.8938 32.1069 12.1682 32.1069 12.1682C33.0065 11.3152 32.2293 11.4336 32.348 8.88317C32.4667 6.33277 35.0214 5.68457 35.0214 5.68457C34.9902 5.77228 34.892 5.85347 34.8566 5.93989C34.832 6.0002 34.8431 5.98938 34.8407 6.05122Z" fill="#F7DB34"/>
<path d="M34.4141 2.40182C34.5735 2.73922 34.9185 2.91999 35.2292 2.8497C35.1943 2.87654 35.1564 2.90015 35.1153 2.91959C34.7715 3.08177 34.3461 2.90261 34.1651 2.51934C33.9841 2.13612 34.1161 1.69396 34.4599 1.53173C34.501 1.51234 34.5433 1.49814 34.5862 1.48828C34.3345 1.68333 34.2548 2.06442 34.4141 2.40182Z" fill="#F7DB34"/>
<path d="M34.6808 4.56837C34.8401 4.90577 35.185 5.08649 35.4958 5.01625C35.4609 5.04308 35.423 5.0667 35.3819 5.08609C35.0381 5.24831 34.6127 5.06911 34.4317 4.68585C34.2507 4.30259 34.3827 3.86042 34.7265 3.69824C34.7676 3.67885 34.8099 3.66464 34.8528 3.65479C34.6011 3.84992 34.5215 4.23097 34.6808 4.56837Z" fill="#F7DB34"/>
<path d="M35.8399 7.40776C35.9992 7.74516 36.3442 7.92589 36.6549 7.85564C36.62 7.88248 36.5822 7.90609 36.5411 7.92549C36.1973 8.08771 35.7719 7.90851 35.5909 7.52524C35.4099 7.14198 35.5419 6.69985 35.8857 6.53763C35.9268 6.51824 35.9691 6.50404 36.012 6.49414C35.7602 6.68927 35.6806 7.07037 35.8399 7.40776Z" fill="#F7DB34"/>
<path d="M33.233 3.0811C33.3923 3.4185 33.7372 3.59923 34.048 3.52898C34.0131 3.55582 33.9753 3.57943 33.9341 3.59883C33.5904 3.76101 33.165 3.58185 32.984 3.19858C32.803 2.81532 32.935 2.37315 33.2787 2.21097C33.3199 2.19154 33.3622 2.17738 33.4051 2.16748C33.1533 2.36265 33.0736 2.7437 33.233 3.0811Z" fill="#F7DB34"/>
<path d="M33.4735 5.21248C33.5868 5.45239 33.832 5.5809 34.0529 5.53089C34.0282 5.54996 34.0012 5.56677 33.972 5.58057C33.7276 5.69588 33.4251 5.5685 33.2965 5.29604C33.1678 5.02358 33.2616 4.7092 33.506 4.59389C33.5353 4.58009 33.5654 4.56999 33.5959 4.56299C33.4169 4.70171 33.3602 4.97261 33.4735 5.21248Z" fill="#F7DB34"/>
<path d="M37.3207 8.55086C37.434 8.79073 37.6792 8.91924 37.9001 8.86927C37.8753 8.88834 37.8484 8.90515 37.8192 8.91895C37.5748 9.03426 37.2723 8.90688 37.1436 8.63442C37.0149 8.36196 37.1088 8.04758 37.3532 7.93227C37.3824 7.91847 37.4125 7.90837 37.443 7.90137C37.264 8.04005 37.2074 8.31098 37.3207 8.55086Z" fill="#F7DB34"/>
<path d="M32.5682 5.95666C32.6815 6.19653 32.9267 6.32504 33.1477 6.27507C33.1229 6.29414 33.096 6.31091 33.0667 6.32471C32.8223 6.44002 32.5198 6.31264 32.3912 6.04018C32.2625 5.76772 32.3563 5.45334 32.6007 5.33803C32.63 5.32423 32.6601 5.31413 32.6905 5.30713C32.5115 5.44585 32.4549 5.71679 32.5682 5.95666Z" fill="#F7DB34"/>
<path d="M36.2484 9.08113C36.3617 9.321 36.6069 9.44951 36.8278 9.39954C36.803 9.41865 36.7761 9.43543 36.7469 9.44923C36.5025 9.56454 36.2 9.43716 36.0714 9.1647C35.9427 8.89223 36.0365 8.57785 36.2809 8.46254C36.3101 8.44874 36.3402 8.43864 36.3707 8.43164C36.1917 8.57033 36.1351 8.84126 36.2484 9.08113Z" fill="#F7DB34"/>
<path d="M35.2963 9.43033C35.4095 9.6702 35.6548 9.79871 35.8757 9.74874C35.8509 9.76781 35.824 9.78459 35.7948 9.79839C35.5503 9.9137 35.2479 9.78632 35.1192 9.51382C34.9905 9.24136 35.0844 8.92697 35.3288 8.81166C35.358 8.7979 35.3881 8.78776 35.4186 8.78076C35.2396 8.91953 35.183 9.19042 35.2963 9.43033Z" fill="#F7DB34"/>
<path d="M31.6533 6.84888C31.7346 7.021 31.9106 7.11321 32.0691 7.07736C32.0513 7.09104 32.0319 7.10311 32.011 7.11301C31.8356 7.19573 31.6186 7.10432 31.5262 6.90882C31.4339 6.71333 31.5013 6.48774 31.6766 6.40502C31.6976 6.39512 31.7192 6.38788 31.7411 6.38281C31.6127 6.48235 31.5721 6.67676 31.6533 6.84888Z" fill="#F7DB34"/>
<path d="M31.2744 7.97726C31.3557 8.14937 31.5317 8.24159 31.6901 8.20574C31.6723 8.21942 31.653 8.23149 31.6321 8.24139C31.4567 8.32411 31.2396 8.2327 31.1473 8.0372C31.055 7.84171 31.1224 7.61616 31.2977 7.5334C31.3187 7.5235 31.3403 7.51626 31.3622 7.51123C31.2337 7.61073 31.1931 7.80514 31.2744 7.97726Z" fill="#F7DB34"/>
<path d="M30.601 8.74679C30.6824 8.91891 30.8583 9.01108 31.0168 8.97527C30.9991 8.98895 30.9797 9.00102 30.9587 9.01092C30.7833 9.09364 30.5663 9.00227 30.474 8.80673C30.3817 8.61124 30.449 8.38565 30.6244 8.30293C30.6454 8.29303 30.667 8.28579 30.6888 8.28076C30.5604 8.38026 30.5198 8.57467 30.601 8.74679Z" fill="#F7DB34"/>
<path d="M29.8545 9.51538C29.9358 9.68754 30.1117 9.77972 30.2702 9.74387C30.2524 9.75759 30.2331 9.76962 30.2121 9.77951C30.0368 9.86228 29.8197 9.77082 29.7274 9.57533C29.6351 9.37979 29.7024 9.15425 29.8778 9.07148C29.8988 9.06159 29.9204 9.05435 29.9423 9.04932C29.8138 9.14885 29.7732 9.34326 29.8545 9.51538Z" fill="#F7DB34"/>
<path d="M38.5903 9.26095C38.6716 9.43311 38.8475 9.52528 39.0061 9.48943C38.9883 9.50315 38.9689 9.51518 38.948 9.52508C38.7726 9.60784 38.5556 9.51643 38.4633 9.32093C38.3709 9.12544 38.4383 8.89985 38.6136 8.81713C38.6346 8.80723 38.6562 8.79999 38.6781 8.79492C38.5496 8.89442 38.509 9.08883 38.5903 9.26095Z" fill="#F7DB34"/>
<path d="M37.5879 9.84204C37.6692 10.0142 37.8451 10.1064 38.0036 10.0705C37.9858 10.0842 37.9665 10.0963 37.9455 10.1061C37.7702 10.1889 37.5531 10.0975 37.4608 9.90199C37.3685 9.70645 37.4358 9.48091 37.6112 9.39815C37.6322 9.38825 37.6538 9.38101 37.6757 9.37598C37.5472 9.47547 37.5066 9.66992 37.5879 9.84204Z" fill="#F7DB34"/>
<path d="M36.5103 10.216C36.5915 10.3881 36.7675 10.4804 36.926 10.4445C36.9082 10.4582 36.8889 10.4703 36.8679 10.4802C36.6926 10.5629 36.4755 10.4715 36.3832 10.276C36.2909 10.0805 36.3582 9.85493 36.5336 9.77217C36.5545 9.76227 36.5761 9.75503 36.598 9.75C36.4696 9.8495 36.429 10.0439 36.5103 10.216Z" fill="#F7DB34"/>
<path d="M32.0538 4.06886C32.2131 4.40629 32.5581 4.58702 32.8688 4.51673C32.8339 4.54357 32.796 4.56719 32.7549 4.58662C32.4111 4.7488 31.9857 4.56964 31.8048 4.18638C31.6238 3.80315 31.7558 3.36095 32.0996 3.19877C32.1407 3.17937 32.183 3.16517 32.2259 3.15527C31.9741 3.35041 31.8944 3.73146 32.0538 4.06886Z" fill="#F7DB34"/>
<path d="M31.0138 5.03419C31.1731 5.37159 31.5181 5.55232 31.8288 5.48207C31.7939 5.5089 31.756 5.53252 31.7149 5.55191C31.3711 5.71409 30.9457 5.53493 30.7647 5.15171C30.5837 4.76845 30.7157 4.32628 31.0595 4.16406C31.1006 4.14467 31.143 4.13046 31.1858 4.12061C30.9341 4.31574 30.8544 4.69679 31.0138 5.03419Z" fill="#F7DB34"/>
<path d="M30.504 6.54499C30.6468 6.84742 30.956 7.00944 31.2345 6.94648C31.2033 6.97054 31.1693 6.9917 31.1324 7.00908C30.8242 7.15448 30.4429 6.99387 30.2807 6.65032C30.1185 6.30676 30.2368 5.91042 30.5449 5.76506C30.5818 5.74764 30.6197 5.73493 30.6582 5.72607C30.4326 5.90097 30.3612 6.24255 30.504 6.54499Z" fill="#F7DB34"/>
<path d="M29.8528 7.61064C29.9816 7.88338 30.2605 8.02947 30.5117 7.9727C30.4834 7.99438 30.4529 8.01349 30.4196 8.02915C30.1417 8.16027 29.7978 8.01543 29.6515 7.70559C29.5052 7.39579 29.6119 7.03836 29.8898 6.90723C29.9231 6.89154 29.9573 6.88008 29.9919 6.87207C29.7884 7.02979 29.724 7.33785 29.8528 7.61064Z" fill="#F7DB34"/>
<path d="M29.2078 8.3044C29.3366 8.57719 29.6155 8.72328 29.8667 8.66647C29.8385 8.68815 29.8079 8.70726 29.7746 8.72295C29.4967 8.85407 29.1528 8.70923 29.0065 8.39943C28.8602 8.0896 28.9669 7.73216 29.2448 7.60104C29.278 7.58539 29.3123 7.57388 29.3469 7.56592C29.1434 7.72363 29.079 8.03166 29.2078 8.3044Z" fill="#F7DB34"/>
</svg>
