<svg width="295" height="186" viewBox="0 0 295 186" fill="none" xmlns="http://www.w3.org/2000/svg">
<path d="M295 158.82C295 159.73 294.748 160.624 294.26 161.51C294.244 161.526 294.236 161.542 294.236 161.559C294.065 161.867 293.87 162.168 293.635 162.469C293.399 162.786 293.131 163.103 292.83 163.42C292.716 163.542 292.602 163.655 292.481 163.769C292.359 163.891 292.237 164.005 292.107 164.127C291.847 164.354 291.57 164.59 291.278 164.826C290.985 165.061 290.684 165.289 290.359 165.516C289.709 165.972 289.002 166.427 288.222 166.874C287.645 167.215 287.027 167.548 286.377 167.873C285.719 168.207 285.036 168.532 284.313 168.857C284.069 168.962 283.825 169.068 283.581 169.182C283.086 169.393 282.574 169.613 282.045 169.824C281.785 169.929 281.517 170.035 281.249 170.141C280.68 170.36 280.127 170.563 279.566 170.775C279.006 170.978 278.421 171.181 277.835 171.384C277.437 171.522 277.031 171.652 276.616 171.791C275.381 172.197 274.097 172.595 272.756 172.985C272.309 173.115 271.854 173.245 271.399 173.375C271.195 173.432 270.992 173.489 270.789 173.546C270.066 173.741 269.326 173.944 268.57 174.139C265.263 175.001 261.687 175.83 257.859 176.618C257.469 176.691 257.079 176.773 256.68 176.854C255.892 177.008 255.096 177.163 254.291 177.317C254.218 177.333 254.153 177.341 254.088 177.358C252.958 177.569 251.804 177.78 250.634 177.992C249.333 178.227 248.017 178.447 246.676 178.674C244.928 178.967 243.141 179.243 241.32 179.52C241.296 179.52 241.271 179.52 241.247 179.528C238.646 179.918 235.972 180.292 233.225 180.649C231.852 180.828 230.462 180.999 229.056 181.169C227.65 181.34 226.22 181.511 224.789 181.665C224.099 181.746 223.408 181.82 222.709 181.901C219.035 182.291 215.264 182.665 211.396 182.998C209.86 183.136 208.307 183.266 206.747 183.388C206.593 183.404 206.438 183.404 206.284 183.404C205.512 183.404 204.715 183.258 203.894 183.039C203.618 182.965 203.334 182.884 203.041 182.795C201.716 182.372 200.367 181.836 199.042 181.478C199.002 181.462 198.969 181.454 198.929 181.446C197.555 181.015 196.23 180.714 195.068 180.787C191.988 180.991 190.184 184.022 187.193 184.607C186.99 184.648 186.779 184.672 186.567 184.688C186.527 184.688 186.478 184.697 186.437 184.697C183.211 184.859 179.936 184.997 176.62 185.119C175.197 185.168 173.767 185.217 172.337 185.265C172.215 185.265 172.093 185.265 171.979 185.274C170.451 185.314 168.915 185.355 167.371 185.395C165.778 185.436 164.185 185.469 162.576 185.501C160.902 185.534 159.219 185.558 157.521 185.574C155.871 185.599 154.205 185.615 152.531 185.623C150.865 185.631 149.182 185.639 147.5 185.639C141.315 185.639 135.212 185.566 129.222 185.436C128.044 185.412 126.865 185.379 125.695 185.347C125.475 185.339 125.256 185.339 125.036 185.33C123.2 185.282 121.379 185.225 119.567 185.16C118.063 185.103 116.568 185.046 115.081 184.989C114.284 184.957 113.488 184.924 112.691 184.892C112.001 184.859 111.318 184.827 110.635 184.794C109.457 184.737 108.286 184.68 107.116 184.623C105.206 184.526 103.313 184.42 101.435 184.306C100.314 184.241 99.2083 184.168 98.1031 184.095C97.0059 184.03 95.9087 183.957 94.8116 183.876C94.3077 183.843 93.8119 183.803 93.308 183.77C92.3734 183.705 91.4388 183.64 90.5123 183.567C89.789 183.51 89.0656 183.453 88.3504 183.396C87.3183 183.315 86.2943 183.234 85.2784 183.144C81.036 182.787 76.8993 182.388 72.8844 181.958C71.8929 181.852 70.9014 181.746 69.9262 181.633C68.6908 181.494 67.4636 181.348 66.2527 181.21C65.5456 181.121 64.8385 181.039 64.1396 180.95C63.2131 180.836 62.2948 180.714 61.3845 180.6C60.4255 180.47 59.4828 180.34 58.5481 180.218C56.8983 179.991 55.2729 179.755 53.6799 179.52C53.5011 179.487 53.3305 179.463 53.1517 179.438C52.2658 179.3 51.3962 179.17 50.5347 179.032C47.0726 178.479 43.7567 177.902 40.6033 177.301C39.8312 177.155 39.0754 177 38.3196 176.854C37.5231 176.691 36.7429 176.529 35.9708 176.374C33.7196 175.895 31.5578 175.407 29.4854 174.911C29.1359 174.822 28.7945 174.741 28.4613 174.66C27.7787 174.489 27.1122 174.318 26.4539 174.147C26.3645 174.123 26.2751 174.099 26.1938 174.082C25.6249 173.928 25.0642 173.782 24.5115 173.627C24.0808 173.505 23.6582 173.392 23.2356 173.278C22.2766 173.01 21.3419 172.733 20.4398 172.449C20.2692 172.392 20.1066 172.343 19.9441 172.295C18.7819 171.937 17.6603 171.571 16.5957 171.189C15.3441 170.758 14.1494 170.311 13.0279 169.856C12.9547 169.824 12.8815 169.791 12.8084 169.767C12.0932 169.483 11.4105 169.19 10.7522 168.889C10.3134 168.694 9.89077 168.491 9.47628 168.296C8.66356 167.906 7.89147 167.508 7.17628 167.109C6.98935 166.996 6.80244 166.89 6.62364 166.784C6.09537 166.484 5.60774 166.175 5.14449 165.866C4.06357 165.134 3.13709 164.395 2.38939 163.647C2.29186 163.55 2.19433 163.452 2.10493 163.355C1.99115 163.233 1.89362 163.119 1.78796 163.005C1.69856 162.899 1.60918 162.786 1.51978 162.68C1.34911 162.461 1.1947 162.249 1.04841 162.03C0.983394 161.932 0.926503 161.835 0.869613 161.745C0.796468 161.624 0.731451 161.493 0.666434 161.372C0.609544 161.266 0.552651 161.16 0.512016 161.055C0.455125 160.941 0.406344 160.827 0.365708 160.713C0.325072 160.6 0.284449 160.494 0.25194 160.38C0.211304 160.274 0.186927 160.161 0.154418 160.055C0.048765 159.641 0 159.226 0 158.82C0 144.012 66.0332 132 147.5 132C228.959 132 295 144.012 295 158.82Z" fill="#276B7C"/>
<path d="M147.227 179.679C108.064 179.679 71.2821 176.913 43.6554 171.89C10.9517 165.944 3.79004 159.071 3.79004 156.924C3.79004 154.778 10.9517 147.905 43.6554 141.959C71.2821 136.936 108.064 134.17 147.227 134.17C186.39 134.17 223.172 136.936 250.799 141.959C283.502 147.905 290.664 154.778 290.664 156.924C290.664 159.071 283.502 165.944 250.799 171.89C237.517 174.305 222.117 176.198 205.355 177.513C202.345 177.749 197.15 174.091 194.057 174.29C190.385 174.525 188.798 178.609 185.022 178.791C172.847 179.376 160.167 179.679 147.227 179.679Z" fill="#FFE8D7"/>
<path opacity="0.5" d="M191.652 162.742L194.214 170.336L194.873 178.657L205.942 182.721L199.847 166.196L192.126 161.184L191.652 162.742Z" fill="url(#paint0_linear_0_1)"/>
<path d="M250.236 155.977C250.236 160.886 230.446 165.258 200.213 167.583C200.197 167.591 200.172 167.591 200.156 167.591C197.612 167.778 194.597 163.462 191.923 163.625C190.412 163.714 187.779 167.388 185.974 168.29C185.739 168.42 185.519 168.493 185.316 168.501C173.369 169.135 161.617 169.314 147.907 169.314C91.3903 169.314 45.5693 163.34 45.5693 155.977C45.5693 148.614 93.1458 142.494 149.662 142.494C206.178 142.494 250.236 148.614 250.236 155.977Z" fill="#276B7C"/>
<path d="M200.213 167.582C200.197 167.591 200.172 167.591 200.156 167.591C197.612 167.777 194.597 163.462 191.923 163.624C191.923 163.624 190.639 157.391 181.699 156.172C181.699 156.172 196.808 157.553 200.213 167.582Z" fill="#194F59"/>
<path opacity="0.35" d="M185.974 168.289C186.649 167.257 189.079 162.503 181.699 156.172C181.699 156.172 189.379 156.716 191.923 163.624C190.412 163.714 187.778 167.387 185.974 168.289Z" fill="url(#paint1_linear_0_1)"/>
<path opacity="0.35" d="M56.59 177.861C56.5982 178.56 56.6469 179.259 56.7363 179.958C55.7042 179.82 54.6883 179.665 53.6805 179.519C53.5017 179.486 53.331 179.462 53.1522 179.438C52.2664 179.3 51.3968 179.169 50.5353 179.031C47.0731 178.479 43.7572 177.902 40.6039 177.3C39.8318 177.154 39.076 177 38.3202 176.853C37.5237 176.691 36.7435 176.528 35.9714 176.374C33.7202 175.894 31.5584 175.407 29.4859 174.911C29.1365 174.821 28.7951 174.74 28.4619 174.659C27.7792 174.488 27.1128 174.318 26.4545 174.147C26.3651 174.122 26.2757 174.098 26.1944 174.082C25.6255 173.927 25.0648 173.781 24.5121 173.627C24.0814 173.505 23.6587 173.391 23.2361 173.277C22.2771 173.001 21.3425 172.725 20.4404 172.448C20.2697 172.391 20.1072 172.343 19.9446 172.294C18.7825 171.928 17.669 171.562 16.5962 171.189C15.3446 170.75 14.15 170.303 13.0284 169.856C12.9553 169.823 12.8821 169.791 12.809 169.766C12.0938 169.474 11.4111 169.181 10.7528 168.889C10.3139 168.694 9.89133 168.49 9.47684 168.295C8.66413 167.905 7.89203 167.507 7.17684 167.109C6.98991 166.995 6.803 166.889 6.6242 166.784C6.09593 166.483 5.6083 166.174 5.14505 165.865C4.16979 165.207 3.31644 164.532 2.60938 163.85C2.63376 163.468 2.69065 163.086 2.76379 162.696C3.26768 160.152 4.91749 157.543 9.06235 156.105C19.0181 152.651 67.1716 155.292 67.1716 155.292C67.1716 155.292 56.4681 166.264 56.59 177.861Z" fill="url(#paint2_linear_0_1)"/>
<path d="M294.838 160.047C294.716 160.535 294.521 161.022 294.261 161.51C294.245 161.526 294.237 161.542 294.237 161.559C294.058 161.859 293.863 162.168 293.635 162.469C293.4 162.786 293.132 163.103 292.831 163.42C292.717 163.542 292.603 163.655 292.481 163.769C292.359 163.891 292.238 164.005 292.108 164.127C291.848 164.354 291.571 164.59 291.279 164.826C290.994 165.053 290.685 165.281 290.36 165.516C289.71 165.972 289.003 166.427 288.223 166.874C287.646 167.207 287.028 167.548 286.378 167.873C285.72 168.207 285.037 168.532 284.314 168.857C284.07 168.962 283.826 169.068 283.582 169.182C283.086 169.393 282.574 169.613 282.046 169.824C281.786 169.93 281.518 170.035 281.25 170.141C280.681 170.36 280.128 170.563 279.567 170.775C279.007 170.978 278.421 171.181 277.836 171.384C277.438 171.522 277.032 171.652 276.617 171.791C275.382 172.189 274.098 172.587 272.757 172.985C272.31 173.115 271.855 173.245 271.4 173.375C271.196 173.432 270.993 173.489 270.79 173.546C270.067 173.741 269.327 173.944 268.571 174.139C265.264 175.001 261.688 175.83 257.86 176.618C257.47 176.691 257.079 176.773 256.681 176.854C255.893 177.008 255.096 177.163 254.292 177.317C254.219 177.333 254.154 177.341 254.089 177.358C252.959 177.569 251.805 177.78 250.635 177.992C249.334 178.227 248.018 178.447 246.677 178.674C244.929 178.959 243.141 179.243 241.321 179.52C241.297 179.52 241.272 179.52 241.248 179.528C238.647 179.918 235.973 180.292 233.226 180.649C231.853 180.828 230.463 180.999 229.057 181.169C227.651 181.34 226.221 181.511 224.79 181.665C224.099 181.746 223.409 181.82 222.71 181.901C219.036 182.291 215.265 182.665 211.397 182.998C209.861 183.136 208.308 183.266 206.748 183.388C206.593 183.404 206.439 183.404 206.285 183.404C205.545 183.396 204.74 183.258 203.895 183.039C203.619 182.965 203.334 182.884 203.042 182.795C201.733 182.405 200.368 181.885 199.043 181.478C199.003 181.462 198.97 181.454 198.93 181.446C197.556 181.015 196.231 180.714 195.069 180.787C191.989 180.991 190.185 184.022 187.194 184.607C186.991 184.648 186.779 184.672 186.568 184.688C186.527 184.688 186.479 184.697 186.438 184.697C183.212 184.859 179.936 184.997 176.62 185.119C175.198 185.168 173.768 185.217 172.337 185.265C172.216 185.265 172.094 185.265 171.98 185.274C170.452 185.314 168.916 185.355 167.372 185.396C165.779 185.436 164.186 185.469 162.577 185.501C160.903 185.534 159.22 185.558 157.522 185.574C155.872 185.599 154.206 185.615 152.532 185.623C150.865 185.631 149.183 185.639 147.501 185.639C141.316 185.639 135.213 185.566 129.223 185.436C128.044 185.412 126.866 185.379 125.696 185.347C125.476 185.339 125.257 185.339 125.037 185.33C123.201 185.282 121.38 185.225 119.568 185.16C118.064 185.103 116.569 185.046 115.082 184.989C114.285 184.957 113.489 184.924 112.692 184.892C112.001 184.859 111.319 184.827 110.636 184.794C109.458 184.737 108.287 184.68 107.117 184.623C105.207 184.526 103.313 184.42 101.436 184.306C100.314 184.241 99.2092 184.168 98.1039 184.095C97.0067 184.03 95.9096 183.957 94.8124 183.876C94.3085 183.843 93.8128 183.803 93.3089 183.77C92.3743 183.705 91.4396 183.64 90.5131 183.567C89.7898 183.51 89.0665 183.453 88.3513 183.396C87.3192 183.315 86.2951 183.234 85.2792 183.144C81.0368 182.787 76.9001 182.388 72.8853 181.958C71.8938 181.852 70.9023 181.746 69.927 181.633C68.6917 181.494 67.4645 181.348 66.2535 181.21C65.5465 181.121 64.8394 181.039 64.1405 180.95C63.214 180.836 62.2956 180.714 61.3854 180.6C60.4264 180.47 59.4836 180.34 58.549 180.219C57.9394 180.137 57.338 180.048 56.7366 179.958C55.7045 179.82 54.6886 179.666 53.6808 179.52C53.502 179.487 53.3313 179.463 53.1525 179.438C52.2667 179.3 51.3971 179.17 50.5356 179.032C47.0734 178.479 43.7575 177.902 40.6042 177.301C39.8321 177.155 39.0763 177 38.3205 176.854C37.524 176.691 36.7438 176.529 35.9717 176.374C33.7205 175.895 31.5587 175.407 29.4862 174.911C29.1368 174.822 28.7954 174.741 28.4622 174.66C27.7795 174.489 27.1131 174.318 26.4548 174.148C26.3654 174.123 26.276 174.099 26.1947 174.082C25.6258 173.928 25.065 173.782 24.5124 173.627C24.0817 173.505 23.659 173.392 23.2364 173.278C22.2774 173.002 21.3428 172.725 20.4407 172.449C20.27 172.392 20.1075 172.343 19.9449 172.295C18.7827 171.929 17.6693 171.563 16.5965 171.189C15.3449 170.75 14.1503 170.303 13.0287 169.856C12.9556 169.824 12.8824 169.791 12.8093 169.767C12.0941 169.474 11.4114 169.182 10.7531 168.889C10.3142 168.694 9.89162 168.491 9.47714 168.296C8.66442 167.906 7.89233 167.508 7.17713 167.109C6.99021 166.996 6.80329 166.89 6.62449 166.784C6.09623 166.484 5.60859 166.175 5.14534 165.866C4.17008 165.208 3.31673 164.533 2.60967 163.85C2.53653 163.794 2.46339 163.72 2.39024 163.647C2.29272 163.55 2.19519 163.452 2.10579 163.355C1.99201 163.233 1.89447 163.119 1.78882 163.005C1.69942 162.9 1.61003 162.786 1.52063 162.68C1.34996 162.461 1.19556 162.249 1.04927 162.03C0.98425 161.932 0.927358 161.835 0.870468 161.745C0.797324 161.624 0.732306 161.494 0.667289 161.372C0.610399 161.266 0.553507 161.16 0.512871 161.055C0.455981 160.941 0.407199 160.827 0.366563 160.713C0.325927 160.6 0.285304 160.494 0.252795 160.38C0.21216 160.274 0.187782 160.161 0.155273 160.055C0.781065 160.949 1.65879 161.835 2.76409 162.696C10.5743 168.816 29.982 174.139 56.5903 177.862C81.7195 181.381 113.261 183.469 147.501 183.469C160.935 183.469 173.955 183.152 186.324 182.543C189.665 182.38 191.639 178.861 194.874 178.658C198.206 178.455 202.814 181.559 206.041 181.308C253.455 177.634 288.142 169.629 294.838 160.047Z" fill="#194F59"/>
<ellipse cx="147.5" cy="159" rx="147.5" ry="27" fill="url(#paint3_linear_0_1)"/>
<path d="M143.727 123.738C143.802 123.598 144.44 101.978 144.467 75.9951C144.514 62.9045 144.495 48.4556 144.306 34.7657C144.098 21.1465 143.72 8.286 142.594 0C142.684 0.153333 145.006 25.6202 146.052 51.8903C147.253 78.7239 147.177 106.361 146.04 123.863C145.27 123.821 144.499 123.78 143.727 123.738Z" fill="#327734"/>
<path d="M146.33 123.879C146.476 123.586 147.05 107.286 147.988 87.3789C148.821 67.5828 150.018 44.1787 148.974 32.2422C149.083 32.3229 149.965 49.9674 150.12 69.432C150.338 89.135 149.828 110.658 148.637 124.004C147.869 123.962 147.1 123.921 146.33 123.879Z" fill="#327734"/>
<path d="M145.77 123.848C145.464 102.188 144.67 81.0347 143.312 58.0098C143.366 58.0404 145.257 70.0497 146.306 84.0263C147.446 98.0787 147.744 114.099 146.715 123.899C146.4 123.883 146.085 123.865 145.77 123.848Z" fill="#4F9E4F"/>
<path d="M149.185 124.034C148.907 102.283 148.749 81.0371 148.323 57.8809C148.256 57.9195 147.354 70.0506 147.051 84.0263C146.705 98.1032 146.958 114.025 148.242 123.983C148.556 124 148.871 124.017 149.185 124.034Z" fill="#3A823A"/>
<path d="M153.996 28.3033C152.728 49.6663 151.086 73.3028 150.116 91.8661C149.086 110.393 148.727 123.847 148.618 124.003C149.482 124.05 150.344 124.097 151.206 124.143C152.118 112.656 152.817 96.6148 153.483 79.2763C154.118 61.9807 154.721 43.3883 154.713 27.7949C154.495 28.0217 154.252 28.1937 153.996 28.3033Z" fill="#327734"/>
<path d="M151.529 124.162C151.689 123.885 152.333 107.449 154.383 87.4613C156.189 67.5729 159.4 44.1323 159.085 32.1406C159.282 32.2365 158.747 49.9353 157.761 69.4719C156.789 89.2475 155.368 110.861 154.11 124.302C153.251 124.255 152.391 124.208 151.529 124.162Z" fill="#327734"/>
<path d="M150.902 124.128C150.638 102.333 150.803 81.048 150.847 57.8457C150.945 57.8831 152.143 70.0004 152.647 84.0699C153.213 98.2198 153.085 114.322 151.96 124.185C151.608 124.166 151.255 124.147 150.902 124.128Z" fill="#4F9E4F"/>
<path d="M154.725 124.334C154.496 102.44 155.391 81.0907 156.49 57.8359C156.452 57.8684 154.501 70.0309 153.485 84.0783C152.38 98.2232 152.211 114.253 153.67 124.277C154.022 124.296 154.374 124.315 154.725 124.334Z" fill="#3A823A"/>
<path d="M154.725 124.334C154.717 124.042 154.808 96.6683 158.495 67.0598C160.269 52.2129 162.835 36.615 165.878 24.0711C168.888 11.6374 172.374 2.25747 175.22 2.38607C175.276 2.54466 174.483 3.11767 173.148 6.25604C171.81 9.3397 169.928 14.9886 167.719 24.0125C163.609 42.3101 157.287 73.2308 156.789 124.446C156.101 124.409 155.414 124.371 154.725 124.334Z" fill="#3A823A"/>
<path d="M164.406 49.832C164.414 49.9289 160.97 65.5409 158.959 82.1942C156.752 98.982 155.977 116.811 156.788 124.447C157.444 124.483 158.1 124.518 158.754 124.553C158.661 124.31 158.928 107.127 160.597 88.8688C162.028 70.7249 164.86 51.5048 164.406 49.832Z" fill="#4F9E4F"/>
<path d="M158.38 124.53C158.437 124.442 159.029 104.531 162.697 81.1605C164.419 69.401 166.715 56.5871 168.866 44.6543C170.982 32.7638 172.952 21.7546 173.241 14.5781C173.186 14.4573 172.749 20.1507 171.756 28.5459C170.791 36.9813 169.27 48.1185 167.722 59.8102C164.366 83.314 161.73 108.802 160.661 124.653C159.902 124.612 159.141 124.571 158.38 124.53Z" fill="#327734"/>
<path d="M160.947 124.668C161.054 124.5 161.666 109.369 164.784 91.5175C167.533 73.6966 172.788 53.1558 173.684 42.8652C173.942 42.9614 171.417 58.2048 169.026 75.5347C166.563 93.0145 164.234 112.581 163.223 124.79C162.466 124.749 161.707 124.709 160.947 124.668Z" fill="#327734"/>
<path d="M160.395 124.638C160.239 104.841 161.867 85.5672 164.144 65.0312C164.272 65.0739 163.98 75.814 163.488 88.4487C162.984 101.137 162.28 115.72 161.328 124.687C161.017 124.671 160.706 124.654 160.395 124.638Z" fill="#4F9E4F"/>
<path d="M163.765 124.818C163.644 104.945 165.858 85.67 168.949 65.209C168.975 65.2302 166.019 75.8857 164.213 88.472C162.276 101.112 161.488 115.682 162.834 124.769C163.144 124.785 163.455 124.802 163.765 124.818Z" fill="#3A823A"/>
<path d="M163.205 124.787C163.369 124.828 163.377 119.687 164.215 111.766C165.011 103.819 166.637 93.0917 169.078 81.3762C171.477 69.6657 174.691 56.9679 177.717 45.2007C180.702 33.469 183.498 22.6681 184.128 15.5702C184.053 15.453 183.32 21.062 181.789 29.34C180.295 37.6587 178.003 48.6466 175.677 60.2311C173.348 71.8384 170.984 84.0416 169.287 95.3127C167.548 106.588 166.477 116.932 165.758 124.922C164.908 124.878 164.057 124.832 163.205 124.787Z" fill="#327734"/>
<path d="M166.078 124.939C166.185 124.802 166.906 109.506 171.073 91.7467C174.744 73.9822 181.862 53.7539 183.318 43.6367C183.388 43.6554 180.21 58.8037 176.526 75.9032C172.706 93.1189 169.975 112.869 168.624 125.072C167.777 125.028 166.928 124.984 166.078 124.939Z" fill="#327734"/>
<path d="M165.459 124.908C165.357 104.998 167.879 85.7287 171.385 65.3223C171.554 65.3761 170.682 76.0512 169.698 88.6667C168.684 101.33 167.556 115.935 166.503 124.963C166.155 124.944 165.807 124.926 165.459 124.908Z" fill="#4F9E4F"/>
<path d="M169.23 125.103C169.174 105.11 172.419 85.8732 176.866 65.6289C176.921 65.6471 172.996 76.1529 170.522 88.6978C167.875 101.281 166.678 115.904 168.189 125.049C168.536 125.067 168.883 125.085 169.23 125.103Z" fill="#3A823A"/>
<path d="M169.23 125.106C169.434 125.073 169.152 118.612 170.292 109.048C171.346 99.4631 173.824 86.7754 177.577 73.8111C181.278 60.8647 186.254 47.6424 191.087 37.4043C195.9 27.2228 200.569 20.0253 203.176 20.4346C203.309 20.4536 199.757 22.5778 192.94 37.542C189.504 44.9131 185.082 55.2422 180.615 69.4184C176.267 83.6253 171.875 101.679 171.266 125.211C170.588 125.176 169.91 125.141 169.23 125.106Z" fill="#3A823A"/>
<path d="M185.804 59.168C185.955 59.2269 179.897 72.432 176.158 87.1781C172.08 101.953 170.321 118.269 171.267 125.212C171.914 125.245 172.56 125.278 173.206 125.311C172.99 125.152 173.565 109.29 177.1 93.1486C180.158 77.0015 186.177 60.5742 185.804 59.168Z" fill="#4F9E4F"/>
<path d="M143.727 123.737C143.653 103.878 142.888 84.4449 141.72 63.5801C143.451 84.4275 144.462 103.892 144.917 123.802C144.521 123.78 144.124 123.759 143.727 123.737Z" fill="#4F9E4F"/>
<path d="M172.836 125.288C173.173 125.359 172.873 119.526 174.186 110.688C175.395 101.813 178.217 89.9339 182.407 77.0486C190.418 51.5698 204.659 21.1195 207.588 5.14318C207.408 4.99603 206.177 11.21 203.439 20.2765C200.777 29.3977 196.608 41.3715 192.313 54.0097C188.022 66.6742 183.604 80.0021 180.542 92.4327C177.413 104.861 175.64 116.391 175.087 125.402C174.337 125.364 173.587 125.326 172.836 125.288Z" fill="#327734"/>
<path d="M175.367 125.417C175.493 125.36 175.479 120.983 176.526 114.214C177.523 107.439 179.579 98.2715 182.691 88.5153C185.753 78.7539 189.871 68.4038 193.839 59.1438C197.758 49.8788 201.527 41.7043 202.739 36.1744C202.662 36.1174 201.434 40.3294 199.164 46.7502C196.934 53.1946 193.662 61.8479 190.438 71.2201C187.208 80.6003 184.026 90.6991 181.822 100.218C179.563 109.729 178.283 118.66 177.613 125.528C176.865 125.491 176.116 125.454 175.367 125.417Z" fill="#327734"/>
<path d="M174.823 125.389C174.855 102.997 180.333 81.8111 187.231 59.4434C187.514 59.5363 184.551 71.2114 181.833 85.1064C179.036 99.0513 176.483 115.216 175.744 125.435C175.437 125.419 175.13 125.404 174.823 125.389Z" fill="#4F9E4F"/>
<path d="M178.149 125.554C178.242 103.084 184.682 82.0106 192.591 59.9863C192.767 60.0171 186.745 71.3608 182.616 85.1544C178.238 98.9658 175.753 115.227 177.23 125.509C177.536 125.524 177.842 125.539 178.149 125.554Z" fill="#3A823A"/>
<path d="M212.408 27.4931C212.349 27.4838 212.292 27.4688 212.234 27.4512C208.29 36.9308 202.771 47.5442 197.727 58.3149C192.634 69.0768 188.017 79.9959 184.757 89.8884C181.448 99.7723 179.496 108.63 178.617 115.072C177.689 121.505 177.834 125.523 177.598 125.529C178.438 125.57 179.278 125.611 180.117 125.651C180.729 119.336 181.812 111.645 183.852 103.368C185.852 95.081 188.811 86.2088 192.24 77.28C199.191 59.4968 207.641 41.24 212.65 27.515C212.566 27.5125 212.486 27.5051 212.408 27.4931Z" fill="#327734"/>
<path d="M180.432 125.667C180.547 125.657 180.54 121.212 181.836 114.431C183.072 107.641 185.61 98.5149 189.417 88.9129C193.164 79.3009 198.179 69.2129 202.974 60.268C207.709 51.313 212.223 43.5012 213.57 38.2114C213.456 38.163 212.055 42.1852 209.346 48.3567C206.693 54.5512 202.733 62.8952 198.779 72.0219C194.82 81.1534 190.866 91.0674 188.117 100.508C185.304 109.936 183.696 118.89 182.944 125.786C182.107 125.747 181.27 125.707 180.432 125.667Z" fill="#327734"/>
<path d="M179.821 125.638C179.949 103.13 186.903 82.1225 195.327 60.293C195.392 60.3157 192.243 71.8797 188.527 85.5274C184.688 99.195 181.939 115.482 180.851 125.687C180.508 125.671 180.165 125.655 179.821 125.638Z" fill="#4F9E4F"/>
<path d="M183.542 125.811C183.752 103.22 191.93 82.3822 201.517 61.0391C201.751 61.0681 194.486 71.9858 189.408 85.5816C184.038 99.1616 180.854 115.42 182.515 125.763C182.857 125.78 183.2 125.795 183.542 125.811Z" fill="#3A823A"/>
<path d="M183.542 125.812C183.882 125.828 183.412 119.83 185.162 111.207C186.761 102.561 190.579 91.2899 195.979 80.2111C206.713 58.1173 223.538 36.5393 228.576 37.6001C228.812 37.6857 227.693 37.9214 225.715 39.686C223.687 41.4336 220.8 44.7103 216.341 50.4823C211.957 56.2648 206.003 64.5432 199.592 76.5361C193.382 88.5669 186.715 104.312 185.551 125.904C184.882 125.873 184.212 125.843 183.542 125.812Z" fill="#3A823A"/>
<path d="M213.291 54.9453C213.428 54.9549 203.453 68.3772 195.899 84.1075C192.108 91.9706 188.969 100.418 187.304 107.942C185.565 115.453 185.3 122.04 185.551 125.903C186.189 125.932 186.827 125.961 187.464 125.989C187.715 126.042 187.376 121.368 188.54 114.672C189.594 107.951 192.153 99.2074 195.677 90.5643C202.614 73.2807 213.431 56.3248 213.291 54.9453Z" fill="#4F9E4F"/>
<path d="M172.837 125.289C173.044 104.752 177.496 85.1292 183.584 64.6465C178.096 85.1755 173.85 104.764 173.996 125.348C173.61 125.328 173.224 125.309 172.837 125.289Z" fill="#4F9E4F"/>
<path d="M107.067 122.775C106.683 122.877 107.653 117.399 106.382 109.399C105.289 101.353 101.956 90.7847 97.0521 79.6332C92.215 68.474 85.8047 56.732 80.0772 46.1714C74.3053 35.6426 69.2162 26.2951 66 20.6586C66.1658 20.6088 68.299 25.0663 72.5575 32.1014C76.7165 39.1515 83.0005 48.7791 89.1651 59.4169C95.3288 70.0565 101.375 81.706 105.057 92.8419C108.839 103.967 110.257 114.578 109.455 122.879C108.66 122.844 107.864 122.809 107.067 122.775Z" fill="#327734"/>
<path d="M109.754 122.894C109.556 122.946 110.188 118.79 109.67 112.57C109.236 106.327 107.652 98.0217 104.952 89.2298C99.6455 71.7571 89.8445 51.9521 84.0404 43.0508C83.9122 43.0508 92.8697 56.7093 100.866 73.4162C104.804 81.7889 108.324 90.9691 110.307 99.6895C112.35 108.402 112.856 116.656 112.137 123.002C111.344 122.966 110.549 122.93 109.754 122.894Z" fill="#327734"/>
<path d="M109.175 122.868C108.89 102.137 99.7434 83.2956 88.5723 64.8223C88.2773 64.8465 96.3473 74.1963 102.053 86.4026C108.083 98.5274 111.749 113.509 110.152 122.911C109.826 122.897 109.501 122.882 109.175 122.868Z" fill="#4F9E4F"/>
<path d="M112.704 123.027C112.408 102.208 104.339 83.0492 94.1388 63.9082C94.0605 63.9353 98.3431 74.0994 102.882 86.3431C105.092 92.4949 107.205 99.2341 108.677 105.674C110.19 112.106 111.062 118.238 111.73 122.983C112.055 122.998 112.379 123.012 112.704 123.027Z" fill="#3A823A"/>
<path d="M87.6875 38.6442C95.215 55.9782 104.62 76.3298 108.578 93.1251C113.102 109.8 112.18 122.918 112.118 123.002C113.01 123.043 113.901 123.084 114.791 123.126C115.995 112.145 113.627 97.0476 108.167 81.6458C102.9 66.2336 94.5399 50.5162 88.2179 38.0508C88.0863 38.2891 87.9074 38.4901 87.6875 38.6442Z" fill="#327734"/>
<path d="M115.126 123.144C114.973 123.187 115.554 119.024 115.244 112.728C115 106.41 113.865 97.9591 111.799 88.9052C107.743 70.9737 99.9337 50.0577 94.5721 40.4824C94.4779 40.477 102.488 55.1659 109.087 72.552C112.369 81.2779 115.215 90.7464 116.745 99.6483C118.321 108.548 118.581 116.88 117.792 123.271C116.904 123.228 116.015 123.186 115.126 123.144Z" fill="#327734"/>
<path d="M114.479 123.113C114.178 102.248 106.62 82.9373 96.9041 63.4785C96.6896 63.494 103.944 73.402 108.917 85.9852C114.197 98.5176 117.195 113.725 115.572 123.164C115.208 123.147 114.844 123.13 114.479 123.113Z" fill="#4F9E4F"/>
<path d="M118.427 123.301C118.117 102.336 111.628 82.7042 102.982 62.582C102.915 62.6051 106.212 73.3062 109.798 85.9333C113.547 98.5879 116.044 113.641 117.336 123.248C117.7 123.266 118.063 123.283 118.427 123.301Z" fill="#3A823A"/>
<path d="M118.428 123.297C118.104 123.374 118.81 116.438 117.401 106.548C116.182 96.5946 112.847 83.6862 108.86 70.3539C104.929 57.0368 100.343 43.297 97.8997 32.0428C95.3763 20.883 94.9951 12.2087 97.6328 11.1992C97.3418 11.3233 97.319 12.0597 97.3773 15.099C97.5078 18.0913 97.7192 23.3866 99.5761 31.5423C101.353 39.7088 104.773 50.7367 109.453 65.4562C113.899 80.2454 119.606 98.7262 120.56 123.402C119.85 123.367 119.139 123.332 118.428 123.297Z" fill="#3A823A"/>
<path d="M107.778 54.3262C107.697 54.3637 111.499 68.6084 114.946 83.8268C116.627 91.4962 118.091 99.5374 118.947 106.616C119.85 113.686 120.144 119.793 120.559 123.403C121.237 123.436 121.914 123.47 122.59 123.504C122.884 123.297 122.551 106.741 118.679 89.8377C115.332 72.9433 108.445 55.7023 107.778 54.3262Z" fill="#4F9E4F"/>
<path d="M122.203 123.487C122.047 123.539 122.584 118.611 122.186 111.128C121.857 103.613 120.594 93.5421 118.411 82.5963C116.261 71.6554 113.191 59.8404 110.012 48.9597C106.831 38.1202 103.541 28.2149 100.908 22.0449C100.808 22.0357 108.729 41.2756 115.404 62.6295C118.716 73.3955 121.62 84.8638 123.223 95.5138C124.876 106.168 125.229 116.004 124.561 123.606C123.776 123.566 122.99 123.526 122.203 123.487Z" fill="#327734"/>
<path d="M124.855 123.622C125.048 123.414 125.767 109.002 123.715 92.0851C121.957 75.2014 117.427 55.8117 113.908 46.4219C113.752 46.4661 119.214 60.4885 122.873 76.849C126.761 93.2995 128.846 112.088 127.207 123.743C126.423 123.702 125.64 123.662 124.855 123.622Z" fill="#327734"/>
<path d="M124.284 123.591C123.997 104.624 119.896 86.5075 113.929 67.8008C113.843 67.815 118.504 77.4685 121.57 89.2854C124.844 101.098 126.523 115.075 125.248 123.64C124.926 123.624 124.605 123.608 124.284 123.591Z" fill="#4F9E4F"/>
<path d="M127.767 123.77C127.48 104.722 124.006 86.4128 118.841 67.3398C118.657 67.399 120.599 77.3941 122.317 89.261C124.122 101.176 125.703 114.963 126.806 123.72C127.126 123.737 127.447 123.753 127.767 123.77Z" fill="#3A823A"/>
<path d="M127.19 123.741C127.079 123.786 127.567 118.845 127.38 111.285C127.245 103.695 126.433 93.4837 124.918 82.3005C123.426 71.1252 121.229 58.9782 118.853 47.7142C116.47 36.4971 113.908 26.1629 111.555 19.6934C111.308 19.7757 118.415 39.7849 123.382 61.8319C128.624 84.1624 131.727 108.531 129.828 123.878C128.95 123.832 128.071 123.786 127.19 123.741Z" fill="#327734"/>
<path d="M130.158 123.894C130.338 123.674 131.169 109.215 130.078 91.9966C129.167 74.8386 126.334 54.9219 123.373 45.1797C123.303 45.2222 127.602 59.7633 130.303 76.4778C133.193 93.3111 134.485 112.318 132.789 124.033C131.913 123.987 131.036 123.94 130.158 123.894Z" fill="#327734"/>
<path d="M129.52 123.862C129.233 104.773 126.061 86.373 121.295 67.1309C121.255 67.1426 125.301 77.1023 127.886 89.1386C130.652 101.186 131.958 115.311 130.598 123.919C130.239 123.899 129.88 123.881 129.52 123.862Z" fill="#4F9E4F"/>
<path d="M133.416 124.068C133.131 104.888 130.602 86.3016 126.719 66.7188C126.565 66.7704 127.622 77.0438 128.712 89.1189C129.856 101.256 131.033 115.195 132.341 124.01C132.699 124.03 133.058 124.049 133.416 124.068Z" fill="#3A823A"/>
<path d="M133.415 124.066C133.248 124.065 133.601 117.837 133.186 108.624C132.85 99.3787 131.745 87.1482 130.502 74.395C129.285 61.6668 127.929 48.4168 127.693 37.7162C127.432 27.0983 128.291 19.0295 130.888 18.5723C130.816 18.6772 130.433 19.2984 129.991 22.0763C129.57 24.8147 129.09 29.7096 129.303 37.4505C129.481 45.1891 130.349 55.7745 131.821 69.8525C133.203 83.9664 135.188 101.573 135.518 124.179C134.818 124.141 134.116 124.103 133.415 124.066Z" fill="#3A823A"/>
<path d="M132.379 59.3496C132.212 59.4492 133.1 72.8718 133.749 87.3279C134.466 101.883 134.945 117.471 135.518 124.178C136.186 124.214 136.855 124.25 137.522 124.287C137.587 124.115 137.625 108.96 136.378 93.0678C135.31 77.2467 132.958 60.689 132.379 59.3496Z" fill="#4F9E4F"/>
<path d="M107.067 122.775C107.026 103.766 99.006 86.4728 89.0703 69.6016C99.6621 86.3807 107.869 103.777 108.297 122.829C107.887 122.811 107.477 122.793 107.067 122.775Z" fill="#4F9E4F"/>
<path d="M137.141 124.267C137.229 124.127 137.966 102.652 136.197 77.07C135.423 64.1744 134.258 49.9753 132.925 36.5571C131.58 23.2085 130.068 10.6412 128.317 2.61133C128.241 2.74704 133.013 27.4987 136.06 53.3111C139.329 79.6411 140.873 107.032 139.466 124.393C138.692 124.351 137.917 124.309 137.141 124.267Z" fill="#327734"/>
<path d="M139.757 124.41C139.92 124.11 140.539 107.943 140.376 88.256C140.253 68.6754 139.347 45.5738 137.357 33.873C137.38 33.9435 139.971 51.263 141.414 70.4913C142.986 89.94 143.408 111.297 142.077 124.537C141.305 124.494 140.531 124.452 139.757 124.41Z" fill="#327734"/>
<path d="M139.193 124.379C138.886 102.876 136.895 81.983 133.788 59.4062C133.796 59.4308 136.73 71.175 138.525 84.9637C140.457 98.8131 141.25 114.707 140.144 124.431C139.828 124.414 139.511 124.397 139.193 124.379Z" fill="#4F9E4F"/>
<path d="M142.63 124.564C142.329 102.971 140.975 81.9426 138.786 59.1348C138.674 59.1833 138.827 71.1422 139.27 84.9508C139.72 98.8571 140.459 114.613 141.681 124.513C141.997 124.53 142.314 124.547 142.63 124.564Z" fill="#3A823A"/>
<path d="M141.91 22.8039C141.856 22.811 141.8 22.8124 141.744 22.811C143.509 65.5958 142.488 123.993 142.06 124.534C142.929 124.582 143.796 124.629 144.663 124.677C145.662 112.414 145.843 95.0071 145.303 76.3711C144.782 57.8115 143.539 38.0232 142.125 22.7578C142.053 22.7785 141.981 22.7944 141.91 22.8039Z" fill="#327734"/>
<path d="M144.988 124.695C145.163 124.402 145.836 108.126 146.751 88.2693C147.571 68.5213 148.633 45.1909 147.37 33.3145C147.48 33.3944 148.664 50.9533 148.997 70.3664C149.407 90.0119 148.966 111.512 147.584 124.838C146.72 124.79 145.855 124.743 144.988 124.695Z" fill="#327734"/>
<path d="M144.358 124.659C144.061 103.021 143.023 81.9317 141.298 59.0273C141.351 59.0561 143.59 70.9913 144.852 84.9264C146.22 98.9313 146.611 114.936 145.422 124.718C145.067 124.698 144.713 124.679 144.358 124.659Z" fill="#4F9E4F"/>
<path d="M148.202 124.871C147.916 103.132 147.58 81.9295 146.89 58.8574C146.808 58.8985 145.935 70.9869 145.684 84.9238C145.394 98.9615 145.725 114.848 147.141 124.812C147.495 124.832 147.848 124.851 148.202 124.871Z" fill="#3A823A"/>
<path d="M148.202 124.874C148.242 124.716 148.347 102.424 149.615 79.017C150.294 67.279 151.379 55.1346 153.064 45.5204C154.721 35.9665 156.978 28.9429 159.383 28.836C159.433 28.8166 157.027 31.3419 154.62 45.4084C152.174 59.4372 150.152 83.523 150.278 124.989C149.586 124.95 148.895 124.912 148.202 124.874Z" fill="#3A823A"/>
<path d="M154.06 50.6621C153.999 50.7691 152.059 66.4018 150.999 82.9843C149.83 99.7138 149.542 117.393 150.277 124.989C150.937 125.025 151.596 125.062 152.255 125.098C152.22 124.852 152.356 107.803 152.989 89.6056C153.524 71.535 154.556 52.3165 154.06 50.6621Z" fill="#4F9E4F"/>
<path d="M137.141 124.267C137.077 104.552 135.295 85.3728 132.606 64.918C135.859 85.3423 137.885 104.568 138.338 124.332C137.939 124.31 137.54 124.289 137.141 124.267Z" fill="#4F9E4F"/>
<g opacity="0.33">
<path d="M179.331 123.84C178.063 123.84 178.061 124.497 179.331 124.497C180.598 124.497 180.6 123.84 179.331 123.84Z" fill="#B77A54"/>
</g>
<g opacity="0.33">
<path d="M121.627 124.707C120.36 124.707 120.357 125.364 121.627 125.364C122.895 125.364 122.897 124.707 121.627 124.707Z" fill="#B77A54"/>
</g>
<g opacity="0.33">
<path d="M158.763 125.797C157.495 125.797 157.493 126.454 158.763 126.454C160.031 126.454 160.033 125.797 158.763 125.797Z" fill="#B77A54"/>
</g>
<g opacity="0.33">
<path d="M138.937 125.422C137.669 125.422 137.667 126.079 138.937 126.079C140.204 126.079 140.207 125.422 138.937 125.422Z" fill="#B77A54"/>
</g>
<path d="M190.595 122.068L147.736 122.81L104.876 122.068C104.876 122.068 92.032 135.601 116.882 159.294V159.608C116.882 159.608 136.707 160.784 147.736 160.392C158.765 160.784 178.589 159.608 178.589 159.608V159.294C203.439 135.601 190.595 122.068 190.595 122.068Z" fill="#D78377"/>
<path d="M121.122 159.669C120.414 159.669 119.765 159.536 119.572 159.335C97.9962 136.575 108.367 122.839 108.474 122.703C108.665 122.459 109.508 122.308 110.387 122.36C111.253 122.414 111.8 122.655 111.608 122.898C111.503 123.032 101.32 136.577 122.674 159.102C122.903 159.343 122.393 159.59 121.537 159.655C121.398 159.664 121.26 159.669 121.122 159.669Z" fill="#D17163"/>
<path d="M127.193 159.945C126.481 159.945 125.831 159.811 125.641 159.608C106.252 138.788 114.115 123.179 114.197 123.024C114.325 122.777 115.125 122.607 116.019 122.644C116.896 122.68 117.502 122.909 117.372 123.156C117.292 123.309 109.534 138.749 128.748 159.38C128.972 159.621 128.458 159.867 127.6 159.931C127.464 159.94 127.328 159.945 127.193 159.945Z" fill="#D17163"/>
<path d="M116.88 159.608C116.88 159.608 136.704 160.784 147.734 160.392C158.763 160.784 178.587 159.608 178.587 159.608V159.294C203.437 135.601 190.593 122.068 190.593 122.068C190.593 122.068 189.912 122.08 189.911 122.08C189.573 122.086 187.605 125.627 187.273 126.038C182.938 131.403 176.916 136.015 171.267 139.913C162.575 145.911 152.895 150.711 142.453 152.633C137.636 153.52 132.763 154.047 127.898 154.59C125.516 154.855 123.088 155.03 120.73 155.458C119.871 155.614 114.721 157.157 114.186 156.6C115.036 157.485 115.92 158.379 116.88 159.294V159.608Z" fill="#D17163"/>
<g opacity="0.33">
<path d="M132.052 136.111C130.784 136.111 130.782 136.665 132.052 136.665C133.319 136.665 133.322 136.111 132.052 136.111Z" fill="#B77A54"/>
</g>
<g opacity="0.33">
<path d="M161.089 127.848C159.822 127.848 159.819 128.401 161.089 128.401C162.357 128.401 162.359 127.848 161.089 127.848Z" fill="#B77A54"/>
</g>
<g opacity="0.33">
<path d="M167.419 134.02C166.152 134.02 166.15 134.573 167.419 134.573C168.687 134.573 168.689 134.02 167.419 134.02Z" fill="#B77A54"/>
</g>
<g opacity="0.33">
<path d="M144.708 131.195C143.441 131.195 143.438 131.749 144.708 131.749C145.976 131.749 145.978 131.195 144.708 131.195Z" fill="#B77A54"/>
</g>
<g opacity="0.33">
<path d="M135.774 126.59C134.506 126.59 134.504 127.143 135.774 127.143C137.041 127.143 137.043 126.59 135.774 126.59Z" fill="#B77A54"/>
</g>
<g opacity="0.33">
<path d="M173.375 125.756C172.108 125.756 172.106 126.309 173.375 126.309C174.643 126.309 174.645 125.756 173.375 125.756Z" fill="#B77A54"/>
</g>
<g opacity="0.33">
<path d="M144.708 141.131C143.441 141.131 143.438 141.684 144.708 141.684C145.976 141.684 145.978 141.131 144.708 141.131Z" fill="#B77A54"/>
</g>
<g opacity="0.33">
<path d="M135.032 145.838C133.764 145.838 133.762 146.391 135.032 146.391C136.299 146.391 136.301 145.838 135.032 145.838Z" fill="#B77A54"/>
</g>
<g opacity="0.33">
<path d="M156.995 139.982C155.727 139.982 155.725 140.536 156.995 140.536C158.262 140.536 158.264 139.982 156.995 139.982Z" fill="#B77A54"/>
</g>
<g opacity="0.33">
<path d="M127.212 130.146C125.945 130.146 125.942 130.7 127.212 130.7C128.48 130.7 128.482 130.146 127.212 130.146Z" fill="#B77A54"/>
</g>
<g opacity="0.33">
<path d="M154.852 135.324C153.584 135.324 153.582 135.878 154.852 135.878C156.119 135.878 156.122 135.324 154.852 135.324Z" fill="#B77A54"/>
</g>
<g opacity="0.33">
<path d="M171.886 127.559C170.618 127.559 170.616 128.112 171.886 128.112C173.153 128.112 173.156 127.559 171.886 127.559Z" fill="#B77A54"/>
</g>
<g opacity="0.33">
<path d="M147.873 125.756C146.606 125.756 146.604 126.309 147.873 126.309C149.141 126.309 149.143 125.756 147.873 125.756Z" fill="#B77A54"/>
</g>
<g opacity="0.33">
<path d="M145.92 155.486C144.653 155.486 144.651 156.04 145.92 156.04C147.188 156.04 147.19 155.486 145.92 155.486Z" fill="#B77A54"/>
</g>
<g opacity="0.33">
<path d="M168.815 151.881C167.547 151.881 167.545 152.434 168.815 152.434C170.082 152.434 170.085 151.881 168.815 151.881Z" fill="#B77A54"/>
</g>
<g opacity="0.33">
<path d="M170.209 143.955C168.942 143.955 168.94 144.509 170.209 144.509C171.477 144.509 171.479 143.955 170.209 143.955Z" fill="#B77A54"/>
</g>
<g opacity="0.33">
<path d="M188.361 137.916C187.093 137.916 187.091 138.469 188.361 138.469C189.628 138.469 189.63 137.916 188.361 137.916Z" fill="#B77A54"/>
</g>
<g opacity="0.33">
<path d="M186.126 132.895C184.859 132.895 184.857 133.448 186.126 133.448C187.394 133.448 187.396 132.895 186.126 132.895Z" fill="#B77A54"/>
</g>
<g opacity="0.33">
<path d="M177.192 149.289C175.924 149.289 175.922 149.843 177.192 149.843C178.459 149.843 178.462 149.289 177.192 149.289Z" fill="#B77A54"/>
</g>
<g opacity="0.33">
<path d="M150.107 152.35C148.839 152.35 148.837 152.903 150.107 152.903C151.374 152.903 151.377 152.35 150.107 152.35Z" fill="#B77A54"/>
</g>
<g opacity="0.33">
<path d="M164.348 149.133C163.08 149.133 163.078 149.686 164.348 149.686C165.616 149.686 165.618 149.133 164.348 149.133Z" fill="#B77A54"/>
</g>
<g opacity="0.33">
<path d="M126.933 148.975C125.665 148.975 125.663 149.528 126.933 149.528C128.201 149.528 128.203 148.975 126.933 148.975Z" fill="#B77A54"/>
</g>
<g opacity="0.33">
<path d="M124.699 140.346C123.431 140.346 123.429 140.899 124.699 140.899C125.966 140.899 125.968 140.346 124.699 140.346Z" fill="#B77A54"/>
</g>
<g opacity="0.33">
<path d="M122.185 131.404C120.917 131.404 120.915 131.958 122.185 131.958C123.452 131.958 123.454 131.404 122.185 131.404Z" fill="#B77A54"/>
</g>
<g opacity="0.33">
<path d="M109.621 128.268C108.354 128.268 108.352 128.821 109.621 128.821C110.889 128.821 110.891 128.268 109.621 128.268Z" fill="#B77A54"/>
</g>
<g opacity="0.33">
<path d="M110.457 136.74C109.19 136.74 109.188 137.294 110.457 137.294C111.725 137.294 111.727 136.74 110.457 136.74Z" fill="#B77A54"/>
</g>
<g opacity="0.33">
<path d="M113.53 144.348C112.262 144.348 112.26 144.901 113.53 144.901C114.797 144.901 114.799 144.348 113.53 144.348Z" fill="#B77A54"/>
</g>
<g opacity="0.33">
<path d="M117.998 148.738C116.731 148.738 116.729 149.292 117.998 149.292C119.266 149.292 119.268 148.738 117.998 148.738Z" fill="#B77A54"/>
</g>
<g opacity="0.33">
<path d="M121.348 156.037C120.08 156.037 120.078 156.591 121.348 156.591C122.615 156.591 122.618 156.037 121.348 156.037Z" fill="#B77A54"/>
</g>
<g opacity="0.33">
<path d="M166.861 155.801C165.593 155.801 165.591 156.354 166.861 156.354C168.128 156.354 168.13 155.801 166.861 155.801Z" fill="#B77A54"/>
</g>
<g opacity="0.33">
<path d="M182.497 143.33C181.23 143.33 181.228 143.884 182.497 143.884C183.765 143.884 183.767 143.33 182.497 143.33Z" fill="#B77A54"/>
</g>
<g opacity="0.33">
<path d="M180.263 137.76C178.995 137.76 178.993 138.313 180.263 138.313C181.53 138.313 181.533 137.76 180.263 137.76Z" fill="#B77A54"/>
</g>
<g opacity="0.33">
<path d="M138.379 144.191C137.112 144.191 137.109 144.745 138.379 144.745C139.647 144.745 139.649 144.191 138.379 144.191Z" fill="#B77A54"/>
</g>
<g opacity="0.33">
<path d="M145.641 145.135C144.373 145.135 144.371 145.688 145.641 145.688C146.908 145.688 146.91 145.135 145.641 145.135Z" fill="#B77A54"/>
</g>
<g opacity="0.33">
<path d="M153.457 142.15C152.19 142.15 152.188 142.704 153.457 142.704C154.725 142.704 154.727 142.15 153.457 142.15Z" fill="#B77A54"/>
</g>
<g opacity="0.33">
<path d="M162.393 131.951C161.125 131.951 161.123 132.505 162.393 132.505C163.66 132.505 163.663 131.951 162.393 131.951Z" fill="#B77A54"/>
</g>
<g opacity="0.33">
<path d="M127.212 127.246C125.945 127.246 125.942 127.8 127.212 127.8C128.48 127.8 128.482 127.246 127.212 127.246Z" fill="#B77A54"/>
</g>
<path d="M191.835 123.948H103.901C103.162 123.948 102.558 123.343 102.558 122.605C102.558 121.866 103.162 121.262 103.901 121.262H191.835C192.574 121.262 193.178 121.866 193.178 122.605C193.178 123.343 192.574 123.948 191.835 123.948Z" fill="#C46258"/>
<path d="M177.967 161.288H117.766C117.027 161.288 116.422 160.683 116.422 159.945C116.422 159.206 117.027 158.602 117.766 158.602H177.967C178.706 158.602 179.31 159.206 179.31 159.945C179.31 160.683 178.706 161.288 177.967 161.288Z" fill="#C46258"/>
<path d="M105.879 111.351C107.815 112.789 111.104 112.349 113.582 112.263C117.199 112.138 120.815 112.002 124.431 111.873C131.664 111.613 138.899 111.378 146.14 111.299C147.878 111.28 149.615 111.27 151.353 111.271C157.784 111.274 164.215 111.418 170.636 111.703C173.662 111.837 176.688 111.961 179.717 112.054C182.589 112.143 185.7 112.428 188.561 112.169C190.917 111.955 192.032 110.491 192.369 108.855C192.538 108.038 192.712 107.208 192.693 106.379C192.675 105.553 192.693 104.824 191.64 104.633C190.414 104.41 188.762 104.619 187.495 104.613C186.187 104.606 184.879 104.6 183.571 104.594C181.975 104.586 180.379 104.578 178.784 104.57C177.663 104.565 176.541 104.559 175.42 104.554C169.517 104.528 163.614 104.513 157.711 104.511C143.393 104.505 128.962 105.007 114.699 104.261C112.246 104.133 109.796 103.973 107.35 103.782C105.035 103.601 103.005 103.86 103.356 105.954C103.512 106.88 103.775 107.792 104.073 108.697C104.387 109.653 104.682 110.159 105.397 110.921C105.546 111.081 105.707 111.223 105.879 111.351Z" fill="#F26150"/>
<path d="M188.979 106.224C184.168 106.836 107.193 106.224 107.193 106.224C103.431 104.864 117.208 108.5 126.502 108.149C135.796 107.798 143.144 108.759 143.144 108.759L167.635 107.694L188.979 106.224Z" fill="#E85246"/>
<path d="M149.565 109.274C149.565 109.274 129.447 123.919 118.842 119.875L121.466 117.033L118.077 113.318C118.077 113.318 134.586 114.739 140.053 107.634C145.519 100.532 147.438 106.232 149.606 109.009" fill="#F24538"/>
<path d="M148.509 108.801C148.509 108.801 168.627 123.445 179.232 119.402L176.608 116.56L179.996 112.845C179.996 112.845 163.488 114.265 158.021 107.162C152.555 100.059 150.636 105.759 148.468 108.537" fill="#F24538"/>
<path d="M176.915 99.3739C177.769 96.9039 177.315 94.0804 175.128 92.3724C172.065 89.9812 167.394 90.1699 163.841 91.234C160.075 92.362 156.553 94.5869 154.083 97.6581C152.331 99.8367 149.869 103.975 151.927 106.641C152.22 107.021 152.624 107.277 153.074 107.464C157.68 103.902 167.332 97.6996 176.915 99.3739Z" fill="#F24538"/>
<path d="M166.697 105.962C170.415 104.981 174.865 103.916 176.638 100.075C176.744 99.8454 176.834 99.61 176.916 99.3729C167.333 97.6986 157.681 103.901 153.075 107.463C154.132 107.901 155.477 107.912 156.491 107.917C160.001 107.936 163.34 106.847 166.697 105.962Z" fill="#C4443D"/>
<path d="M121.542 99.6028C120.687 97.1327 121.141 94.3089 123.328 92.6018C126.391 90.2094 131.062 90.3985 134.615 91.4627C138.381 92.5902 141.903 94.8164 144.373 97.8864C146.125 100.065 148.587 104.205 146.529 106.869C146.236 107.249 145.832 107.505 145.382 107.692C140.775 104.131 131.124 97.9282 121.542 99.6028Z" fill="#F24538"/>
<path d="M131.761 106.19C128.043 105.209 123.593 104.145 121.82 100.303C121.714 100.074 121.624 99.8391 121.542 99.6015C131.125 97.9269 140.776 104.13 145.383 107.691C144.326 108.13 142.98 108.14 141.967 108.145C138.456 108.165 135.118 107.076 131.761 106.19Z" fill="#C4443D"/>
<path d="M154.526 105.684C154.526 108.943 152.092 111.585 149.089 111.585C146.086 111.585 143.651 108.943 143.651 105.684C143.651 102.425 146.086 99.7832 149.089 99.7832C152.092 99.7832 154.526 102.425 154.526 105.684Z" fill="#C4443D"/>
<path d="M199.542 43.8857C197.642 42.2671 195.209 35.4144 194.816 33.0355C194.353 30.2333 193.344 26.2488 194.14 23.4427C195.309 19.318 199.466 19.6512 199.455 24.2213C198.518 21.5992 201.842 19.3948 204.141 19.1232C206.709 18.8198 209.895 21.5246 207.525 24.0488C209.663 21.6379 214.65 20.0975 217.652 21.4149C222.95 23.739 223.325 31.5727 221.668 36.1631C220.058 40.6219 217.144 43.9141 212.684 45.6491C209.903 46.7319 203.96 48.5478 201.937 45.4299" fill="#F9EFDE"/>
<path d="M202.813 45.6431C202.702 39.8397 209.742 33.3565 214.749 32.0661C217.515 31.3531 221.124 31.1371 223.161 33.5958C224.688 35.4378 223.538 36.2141 222.696 37.7956C228.098 36.8643 234.482 40.8094 233.602 46.926C232.587 53.9802 225.24 55.0532 219.44 54.5197C216.221 54.2237 212.527 53.0303 209.79 51.2707C207.643 49.8911 203.701 47.3434 202.813 45.6431Z" fill="#EDDCC5"/>
<path d="M196.972 42.2141C197.084 42.7814 197.477 43.1215 197.866 43.5256C198.309 43.985 198.788 44.3934 199.278 44.8033C200.245 45.6129 201.24 46.3919 202.214 47.1924C203.151 47.9619 204.118 48.7298 205.109 49.4278C205.988 50.0475 207.199 50.5296 207.693 51.5424C208.223 51.1689 208.753 50.7961 209.282 50.4227C207.53 48.9198 205.894 47.2812 204.149 45.7692C202.377 44.2331 200.575 42.7313 198.689 41.3382C198.132 40.9268 197.275 41.1664 196.917 41.7218C196.515 42.3462 196.752 43.0689 197.301 43.4936C198.976 44.7903 200.652 46.0868 202.327 47.3834C203.15 48.0202 203.972 48.6563 204.795 49.2931C205.657 49.96 206.497 50.6878 207.591 50.9026C208.343 51.0506 209.012 50.3901 208.654 49.6381C208.164 48.6111 207.247 47.9617 206.366 47.2792C205.514 46.6194 204.661 45.9589 203.808 45.2991C202.102 43.9788 200.396 42.6585 198.69 41.3388C198.227 42.0573 197.764 42.7758 197.302 43.4942C199.102 44.8237 200.914 46.1389 202.685 47.5081C204.441 48.8663 206.239 50.2042 207.839 51.7486C208.66 52.5402 209.857 51.6564 209.428 50.6289C208.97 49.5324 207.971 48.6877 207.143 47.8695C206.184 46.9201 205.057 46.0858 203.964 45.2953C202.921 44.5407 201.825 43.8423 200.73 43.1664C200.16 42.8147 199.573 42.4773 198.957 42.2188C198.378 41.9763 197.868 41.6817 197.23 41.8048C197.044 41.8401 196.937 42.0376 196.972 42.2141Z" fill="#633D2D"/>
<path d="M195.738 40.2421C195.737 40.2442 195.736 40.2457 195.736 40.2472C195.772 40.1717 195.807 40.0956 195.843 40.0201C195.835 40.0354 195.825 40.0496 195.815 40.0625C195.871 39.9956 195.928 39.9285 195.984 39.8616C195.973 39.8746 195.96 39.8857 195.947 39.8955C196.022 39.842 196.098 39.7891 196.173 39.7356C196.076 39.8027 195.978 39.8699 195.883 39.9401C195.962 39.8841 196.042 39.828 196.122 39.7719C196.117 39.7752 196.111 39.7786 196.106 39.782C196.302 39.738 196.498 39.6939 196.695 39.6497C196.684 39.6483 196.673 39.6469 196.662 39.6455C196.766 39.6638 196.869 39.6823 196.972 39.7007C196.945 39.6951 196.919 39.6858 196.894 39.6744C196.989 39.7198 197.084 39.7645 197.179 39.8099C197.152 39.7967 197.128 39.7798 197.105 39.7606C197.187 39.8301 197.27 39.9002 197.353 39.9696C197.331 39.9497 197.311 39.9282 197.294 39.9035C197.359 39.9956 197.423 40.0871 197.488 40.1792C197.473 40.1571 197.461 40.1332 197.451 40.1077C197.492 40.2184 197.533 40.3285 197.574 40.4391C197.529 40.3153 197.484 40.1927 197.436 40.0706C197.477 40.1826 197.519 40.2939 197.561 40.4059C197.552 40.381 197.546 40.3556 197.543 40.3293C197.555 40.4551 197.566 40.581 197.578 40.7069C197.576 40.6846 197.577 40.6625 197.581 40.6402C197.558 40.7667 197.535 40.8933 197.513 41.0205C197.517 40.9981 197.525 40.9767 197.534 40.9563C197.481 41.0709 197.426 41.1856 197.371 41.3002C197.38 41.2842 197.389 41.2687 197.4 41.2543C197.318 41.3518 197.236 41.4484 197.154 41.5452C197.168 41.5305 197.183 41.5178 197.2 41.5062C197.094 41.5812 196.988 41.6555 196.882 41.7304C196.903 41.7156 196.926 41.7039 196.951 41.6941C196.825 41.7414 196.698 41.7881 196.571 41.8354C196.589 41.8285 196.608 41.8235 196.626 41.8206C196.631 41.82 196.635 41.8195 196.64 41.819C196.769 41.7706 196.899 41.7229 197.029 41.6745C197.031 41.6736 197.033 41.6719 197.035 41.671C197.046 41.6655 197.057 41.6602 197.068 41.6561C196.938 41.7045 196.808 41.753 196.678 41.8007C196.7 41.7926 196.723 41.7871 196.746 41.7843C196.603 41.7974 196.46 41.8105 196.316 41.8236C196.338 41.8217 196.358 41.8226 196.38 41.8262C196.237 41.8009 196.095 41.7755 195.954 41.7501C195.971 41.7535 195.988 41.759 196.005 41.7659C195.878 41.7058 195.752 41.6457 195.625 41.5856C195.641 41.5933 195.656 41.6024 195.67 41.6138C195.564 41.5246 195.458 41.4346 195.352 41.3454C195.367 41.3579 195.38 41.3722 195.392 41.3886C195.312 41.275 195.232 41.1615 195.151 41.048C195.165 41.0675 195.176 41.0888 195.184 41.1111C195.134 40.9788 195.085 40.8459 195.036 40.7128C195.045 40.7377 195.05 40.7631 195.054 40.7894C195.04 40.6433 195.027 40.4963 195.014 40.3502C195.016 40.3745 195.015 40.398 195.011 40.4216C195.038 40.2761 195.063 40.1308 195.09 39.9853C195.086 40.0084 195.079 40.0304 195.069 40.0514C195.131 39.9216 195.192 39.7918 195.254 39.6626C195.25 39.6691 195.246 39.6758 195.243 39.6823C195.181 39.8122 195.12 39.9421 195.058 40.0719C195.013 40.2182 194.987 40.3664 194.979 40.5165C194.978 40.5282 194.978 40.5398 194.976 40.551C195.002 40.4063 195.028 40.2616 195.054 40.1169C195.053 40.119 195.053 40.1204 195.053 40.1218C195.027 40.2665 195.001 40.4105 194.976 40.5552C194.989 40.7014 195.002 40.8476 195.015 40.9938C195.065 41.1268 195.114 41.2597 195.164 41.3927C195.258 41.5879 195.392 41.7477 195.566 41.8712C195.664 41.9771 195.781 42.0527 195.919 42.0977C196.043 42.1772 196.18 42.221 196.328 42.2279C196.471 42.2729 196.616 42.2795 196.764 42.2468C196.983 42.2465 197.189 42.1903 197.382 42.0789C197.388 42.076 197.394 42.0726 197.4 42.0692C197.402 42.0675 197.405 42.0658 197.408 42.0641C197.425 42.0531 197.741 41.8305 197.756 41.8184C197.759 41.8161 197.762 41.8143 197.764 41.812C197.988 41.6388 198.03 41.5086 198.134 41.2902C198.183 41.1864 198.212 41.1535 198.231 41.0732C198.248 41.0021 198.281 40.7957 198.271 40.8481C198.273 40.8418 198.303 40.6945 198.312 40.6202C198.312 40.6133 198.314 40.607 198.313 40.6002C198.323 40.4423 198.286 40.2204 198.272 40.1146C198.252 39.9541 198.142 39.7265 198.105 39.6305C198.099 39.6168 198.093 39.6024 198.086 39.5896C198.083 39.5832 198.079 39.5774 198.075 39.5717C198.073 39.5686 198.071 39.5654 198.068 39.5616C197.988 39.4475 197.908 39.3339 197.827 39.2198C197.825 39.2172 197.824 39.2147 197.821 39.2129C197.812 39.201 197.803 39.1898 197.791 39.1802C197.788 39.1772 197.785 39.1748 197.782 39.1724C197.708 39.1068 197.537 38.9597 197.46 38.8999C197.453 38.8951 197.447 38.8905 197.441 38.8864C197.312 38.804 197.167 38.7427 197.026 38.6884C197.019 38.6859 197.011 38.6827 197.004 38.6808C197.001 38.6798 196.999 38.6795 196.996 38.6784C196.923 38.6632 196.849 38.6502 196.776 38.6391C196.703 38.626 196.629 38.6129 196.557 38.5997C196.54 38.5976 196.524 38.5969 196.507 38.5975C196.504 38.5978 196.502 38.598 196.5 38.5984C196.356 38.6115 196.212 38.6247 196.069 38.6371C196.064 38.6377 196.059 38.6382 196.054 38.6388C196.045 38.6406 196.036 38.6424 196.027 38.6448C196.022 38.6461 196.018 38.6473 196.013 38.6492C196.011 38.6501 196.009 38.6511 196.007 38.6514C195.876 38.6998 195.746 38.7483 195.616 38.7968C195.607 38.8005 195.598 38.8037 195.59 38.8081C195.583 38.8117 195.575 38.8161 195.568 38.8203C195.564 38.8228 195.56 38.8254 195.556 38.8279C195.499 38.8676 195.442 38.9079 195.385 38.9482C195.327 38.9881 195.269 39.0285 195.212 39.0703C195.208 39.0735 195.204 39.076 195.201 39.0792C195.193 39.0849 194.939 39.389 194.936 39.3949L194.934 39.3979C194.903 39.4618 194.873 39.5263 194.843 39.5908C194.837 39.6038 194.776 39.7212 194.751 39.7859C194.744 39.8017 194.739 39.8181 194.735 39.835C194.734 39.8392 194.733 39.8441 194.731 39.8484C194.713 39.9333 194.671 40.1752 194.657 40.2616C194.656 40.27 194.654 40.2777 194.654 40.286C194.653 40.3039 194.653 40.3217 194.653 40.3394C194.661 40.4514 194.676 40.637 194.69 40.7489C194.691 40.7529 194.691 40.757 194.692 40.761C194.693 40.7684 194.694 40.7758 194.696 40.7831C194.699 40.8012 194.703 40.8185 194.708 40.8357C194.728 40.8969 194.768 40.9975 194.778 41.0236C194.779 41.0263 194.821 41.1525 194.848 41.2103C194.851 41.2174 194.854 41.2245 194.858 41.2316C194.862 41.24 194.867 41.2476 194.873 41.2551C194.908 41.3049 194.944 41.3554 194.979 41.4052C195.015 41.4577 195.051 41.5095 195.089 41.5604C195.091 41.5642 195.094 41.5672 195.097 41.571C195.177 41.6647 195.398 41.8304 195.406 41.837C195.42 41.8476 195.434 41.8576 195.449 41.8661C195.506 41.8975 195.582 41.9302 195.629 41.9519C195.651 41.9629 195.752 42.0165 195.811 42.0375C195.939 42.0817 196.078 42.0964 196.213 42.1096C196.229 42.1112 196.245 42.1113 196.26 42.1108C196.325 42.1078 196.4 42.0989 196.455 42.0936C196.511 42.0883 196.59 42.0856 196.654 42.0745C196.669 42.072 196.685 42.068 196.701 42.0635C196.819 42.0267 196.935 41.9853 197.048 41.9342C197.065 41.926 197.082 41.9165 197.098 41.9056C197.166 41.8612 197.288 41.7726 197.354 41.7251C197.359 41.7218 197.363 41.7185 197.368 41.7145C197.374 41.7096 197.381 41.704 197.387 41.6986C197.394 41.6922 197.401 41.6846 197.408 41.6776C197.443 41.6392 197.484 41.587 197.51 41.5565C197.542 41.5184 197.581 41.4755 197.614 41.4333C197.674 41.3556 197.77 41.0691 197.745 41.1582C197.763 41.0568 197.782 40.9554 197.8 40.8533C197.8 40.8513 197.8 40.8485 197.8 40.8465C197.8 40.8417 197.799 40.837 197.799 40.8322C197.795 40.7793 197.79 40.7259 197.785 40.6731C197.782 40.6215 197.777 40.5695 197.771 40.5181C197.757 40.4152 197.71 40.3004 197.666 40.2229C197.664 40.2197 197.663 40.2165 197.661 40.2132C197.637 40.1723 197.523 40.0135 197.494 39.9773C197.485 39.9648 197.474 39.9544 197.463 39.9442C197.416 39.9019 197.303 39.8053 197.254 39.7674C197.251 39.7651 197.248 39.7627 197.245 39.7603C197.239 39.7556 197.232 39.7516 197.225 39.7483C197.223 39.7472 197.22 39.7455 197.218 39.7444C197.149 39.7074 197.051 39.6604 196.978 39.6302C196.971 39.6269 196.964 39.6244 196.956 39.6211C196.83 39.5753 196.702 39.564 196.573 39.5871C196.445 39.5874 196.324 39.6204 196.21 39.686C196.143 39.733 196.076 39.7808 196.009 39.8278C195.879 39.9426 195.79 40.0812 195.738 40.2421Z" fill="#633D2D"/>
<path d="M196.451 40.5675C196.26 38.4018 195.426 36.2386 194.535 34.2712C193.608 32.226 192.457 30.289 191.116 28.4878C189.794 26.7142 188.285 25.0022 186.573 23.5944C185.785 22.946 184.838 22.4254 183.785 22.5223C182.71 22.6218 181.999 23.3454 181.67 24.3379C181.289 25.4851 181.461 26.7883 182.137 27.795C182.763 28.7283 184.105 29.7859 185.297 29.4732C185.841 29.3306 185.793 28.6693 185.341 28.456C184.926 28.2602 184.467 28.2202 184.045 28.03C183.607 27.8328 183.224 27.5332 182.92 27.1633C182.301 26.4118 182.041 25.2827 182.313 24.3401C182.64 23.209 183.697 22.7832 184.784 23.1132C185.78 23.4159 186.57 24.2057 187.301 24.9089C190.095 27.5963 192.363 30.8073 194.006 34.3168C194.483 35.3345 194.907 36.3803 195.285 37.4384C195.657 38.4776 195.948 39.5427 196.331 40.5771C196.351 40.6355 196.457 40.6433 196.451 40.5675Z" fill="#633D2D"/>
<path d="M196.686 41.0073C195.5 38.5661 194.054 36.129 192.166 34.1621C191.699 33.6756 191.199 33.2196 190.669 32.8023C190.154 32.3961 189.578 32.0041 188.912 31.9136C187.601 31.735 186.759 32.7815 186.86 34.0289C186.914 34.6847 187.16 35.2962 187.581 35.8047C187.956 36.2584 188.802 36.9869 189.431 36.7594C189.831 36.6151 190.07 36.1375 189.735 35.7823C189.473 35.5052 189.148 35.5175 188.822 35.3623C188.555 35.2349 188.319 35.045 188.121 34.8273C187.699 34.3647 187.419 33.6608 187.648 33.0416C187.967 32.1775 189.056 32.3931 189.677 32.7441C190.309 33.1013 190.883 33.603 191.411 34.0967C193.553 36.1022 194.948 38.6584 196.546 41.0809C196.601 41.1652 196.731 41.101 196.686 41.0073Z" fill="#633D2D"/>
<path d="M195.445 26.5446C195.446 26.5541 195.447 26.5628 195.448 26.5723C195.435 26.4288 195.422 26.2853 195.41 26.1411C195.412 26.1778 195.409 26.213 195.403 26.2486C195.429 26.1046 195.455 25.9605 195.481 25.8165C195.475 25.8432 195.468 25.868 195.458 25.8931C196.107 26.6007 196.755 27.3083 197.404 28.0159C197.429 28.0115 197.454 28.0072 197.479 28.0027C197.734 27.9537 197.96 27.8473 198.154 27.6844C198.294 27.5855 198.308 27.5962 198.372 27.5241C198.571 27.3546 198.715 27.1505 198.805 26.9112C198.938 26.6832 199.005 26.4336 199.007 26.1632C199.029 25.8937 198.984 25.6392 198.871 25.4002C198.802 25.154 198.676 24.9378 198.493 24.7519C198.365 24.6441 198.237 24.5363 198.109 24.4284C197.811 24.2377 197.485 24.1346 197.131 24.1182C196.957 24.1343 196.782 24.1498 196.607 24.1653C196.271 24.2439 195.976 24.3998 195.72 24.6315C195.454 24.9262 195.167 25.2193 195.086 25.6278C195.073 25.6937 195.06 25.7596 195.047 25.8255C195.02 25.9607 194.993 26.0967 194.966 26.2319C194.847 26.6081 194.831 26.9884 194.916 27.3736C195.003 27.7416 195.173 28.0653 195.428 28.3447C195.568 28.4626 195.708 28.5813 195.848 28.6993C196.174 28.9078 196.531 29.0217 196.918 29.0395C197.213 29.0636 197.492 29.0138 197.754 28.8907C198.024 28.8159 198.26 28.6774 198.464 28.4764C198.742 28.2201 198.94 27.9124 199.057 27.5535C199.176 27.1773 199.192 26.797 199.106 26.4119C199.091 26.2748 199.076 26.1371 199.061 25.9993C199.054 25.9325 199.046 25.8656 199.039 25.7994C199.037 25.7832 199.036 25.7676 199.034 25.7521C198.99 25.5734 198.927 25.4038 198.843 25.2428C198.743 25.1008 198.643 24.959 198.543 24.8177C198.527 24.7957 198.51 24.7744 198.493 24.7525C197.529 25.6364 196.565 26.5204 195.601 27.4044C195.658 27.4796 195.693 27.4884 195.804 27.5832C195.92 27.7089 196.059 27.7982 196.222 27.8512C196.316 27.9131 196.417 27.9558 196.526 27.979C196.815 28.0708 197.108 28.0835 197.405 28.0172C197.622 27.9754 197.814 27.8847 197.98 27.7457C198.165 27.6366 198.313 27.4881 198.426 27.3002C198.586 27.049 198.674 26.7737 198.687 26.4752C198.676 26.328 198.664 26.1667 198.646 26.0203C198.645 26.0095 198.644 25.9988 198.642 25.9874C198.638 25.9673 198.633 25.9481 198.626 25.9283C198.585 25.7992 198.525 25.6456 198.475 25.5196C198.472 25.5117 198.468 25.5033 198.465 25.4955C198.456 25.4747 198.444 25.4555 198.432 25.4364C198.34 25.245 198.209 25.089 198.038 24.9678C197.89 24.8194 197.712 24.7156 197.505 24.6569C197.364 24.6314 197.223 24.6066 197.081 24.5812C196.86 24.5632 196.652 24.6005 196.456 24.6924C196.319 24.7247 196.198 24.7884 196.093 24.883C195.914 24.9887 195.77 25.1326 195.66 25.3154C195.601 25.4409 195.541 25.5664 195.482 25.6919C195.393 25.9721 195.38 26.2568 195.445 26.5446Z" fill="white"/>
<path d="M202.036 25.7208C202.056 25.7383 202.073 25.7575 202.089 25.7789C201.977 25.6205 201.865 25.4629 201.754 25.3045C201.769 25.3267 201.781 25.3499 201.79 25.3747C201.721 25.1874 201.651 25.0008 201.581 24.8135C201.586 24.8253 201.59 24.8371 201.593 24.8498C201.648 25.0757 201.471 24.8699 201.811 25.4523C201.927 25.6156 202.042 25.779 202.157 25.943C202.159 25.9462 202.162 25.9493 202.165 25.9523C202.17 25.9572 202.175 25.9614 202.179 25.9664C202.19 25.9774 202.2 25.9892 202.209 26.0018C202.094 25.8397 201.98 25.677 201.865 25.5149C201.88 25.5363 201.892 25.5581 201.902 25.5823C201.832 25.395 201.763 25.2077 201.693 25.0204C201.701 25.0426 201.707 25.0646 201.709 25.0882C201.691 24.8838 201.673 24.6794 201.654 24.475C201.656 24.4987 201.655 24.5227 201.651 24.5465C201.687 24.3458 201.723 24.1459 201.759 23.9452C201.721 24.1557 201.629 24.3624 201.646 24.5785C201.63 24.9869 201.716 25.3727 201.906 25.7344C202.092 26.0835 202.351 26.3658 202.683 26.5819C203.027 26.8019 203.404 26.9216 203.812 26.9404C204.221 26.957 204.607 26.8704 204.968 26.6806C205.058 26.6384 205.138 26.5815 205.211 26.5106C205.306 26.4697 205.386 26.4122 205.453 26.3379C205.601 26.212 205.714 26.0418 205.834 25.8857C205.842 25.8752 205.849 25.8654 205.856 25.8536C205.963 25.6753 206.049 25.4755 206.125 25.2891C206.13 25.2755 206.136 25.2626 206.139 25.2484C206.194 25.0394 206.228 24.8239 206.254 24.6093C206.256 24.5954 206.257 24.5809 206.257 24.5672C206.257 24.561 206.257 24.5549 206.257 24.5482C206.247 24.4419 206.238 24.3362 206.228 24.23C206.221 24.1235 206.211 24.0173 206.199 23.9112C206.197 23.8972 206.195 23.8831 206.191 23.8691C206.142 23.6793 205.883 23.1035 205.969 23.2656C205.756 22.8602 205.676 22.8164 205.39 22.5751C205.236 22.445 205.245 22.4234 205.147 22.3743C205.191 22.3964 204.728 22.1358 204.531 22.0917C204.427 22.068 204.298 22.0499 204.213 22.0348C204.133 22.0205 204.002 21.9931 203.896 21.9784C203.883 21.9766 203.868 21.9756 203.854 21.9752C203.848 21.9753 203.842 21.9753 203.836 21.976C203.833 21.9765 203.829 21.9763 203.824 21.9767C203.624 21.9946 203.424 22.0132 203.223 22.0311C203.209 22.0328 203.196 22.0351 203.183 22.038C202.425 22.2158 201.798 22.7842 201.559 23.5265C201.436 23.9169 201.419 24.3117 201.508 24.7115C201.595 25.095 201.772 25.431 202.036 25.7208Z" fill="white"/>
<path d="M211.369 27.1989C211.391 27.2319 211.779 27.7867 211.806 27.8177C212.06 28.1163 212.367 28.3326 212.727 28.4673C212.834 28.5482 212.95 28.6026 213.076 28.6314C213.087 28.6341 213.098 28.6362 213.109 28.639C213.119 28.6413 213.128 28.6435 213.138 28.6458C213.141 28.6461 213.143 28.6465 213.145 28.6477C213.533 28.7879 213.925 28.8223 214.322 28.7515C214.588 28.7626 214.84 28.7057 215.076 28.5822C215.208 28.5575 215.33 28.5121 215.442 28.4454C215.896 28.202 216.265 27.865 216.546 27.433C216.833 26.9847 216.989 26.4939 217.014 25.9615C217.035 25.4287 216.922 24.9263 216.675 24.4545C216.432 24 216.095 23.6313 215.663 23.3499C215.651 23.3397 214.983 23.023 214.965 23.017C214.944 23.0099 214.194 22.8769 214.176 22.8784C214.164 22.8791 214.152 22.8805 214.141 22.8812C214.13 22.8818 214.12 22.8831 214.109 22.8836C213.977 22.8941 213.845 22.9058 213.712 22.9196C213.447 22.9091 213.196 22.9651 212.961 23.0885C212.709 23.1475 212.487 23.2644 212.295 23.4386C212.172 23.4909 212.068 23.565 211.983 23.66C211.822 23.8518 211.66 24.043 211.498 24.2348C211.269 24.5626 211.137 24.9212 211.103 25.3119C211.021 25.5693 211.01 25.8292 211.069 26.0924C211.069 26.4838 211.169 26.8528 211.369 27.1989Z" fill="white"/>
<path d="M218.667 37.0013C218.874 37.0182 219.069 36.9832 219.253 36.8968C219.442 36.844 219.608 36.7475 219.75 36.6066C219.903 36.4768 220.013 36.3198 220.082 36.1357C220.184 35.9607 220.236 35.7691 220.237 35.5616C220.225 35.4276 220.213 35.2936 220.201 35.1596C220.14 34.9021 220.021 34.675 219.843 34.4794C219.744 34.3968 219.646 34.3135 219.548 34.2309C219.319 34.0846 219.069 34.005 218.798 33.9925C218.591 33.9755 218.396 34.0106 218.212 34.0969C218.023 34.1497 217.857 34.2462 217.715 34.3872C217.562 34.517 217.452 34.6739 217.383 34.858C217.28 35.0331 217.229 35.2247 217.228 35.4321C217.24 35.5662 217.252 35.7002 217.264 35.8341C217.325 36.0923 217.444 36.3188 217.622 36.515C217.721 36.5976 217.819 36.6803 217.917 36.7636C218.146 36.9092 218.396 36.9887 218.667 37.0013Z" fill="white"/>
<path d="M224.831 43.5725C224.854 43.6238 224.877 43.6745 224.898 43.7259C224.827 43.5327 224.755 43.3401 224.683 43.1469C224.689 43.1634 224.695 43.1797 224.7 43.1962C224.761 43.5119 224.892 43.7895 225.094 44.0308C225.176 44.1462 225.257 44.2596 225.339 44.3736C225.221 44.2065 225.102 44.0387 224.984 43.8716C225.214 44.1998 225.399 44.5531 225.541 44.9282C225.467 44.7318 225.394 44.5346 225.322 44.3381C225.412 44.5885 225.475 44.8471 225.551 45.102C225.624 45.3464 225.681 45.5996 225.705 45.8533C225.686 45.6435 225.667 45.4337 225.648 45.2239C225.653 45.3142 225.65 45.4008 225.636 45.49C225.673 45.2845 225.709 45.0797 225.746 44.8741C225.738 44.9169 225.727 44.9544 225.712 44.9952C225.798 44.8145 225.884 44.6332 225.969 44.4526C225.95 44.4912 225.932 44.5207 225.904 44.5541C226.031 44.4042 226.157 44.2549 226.284 44.105C226.265 44.125 226.244 44.1426 226.22 44.1571C226.38 44.0449 226.538 43.9321 226.698 43.8199C226.684 43.8277 226.669 43.835 226.655 43.8428C226.84 43.7742 227.024 43.7055 227.209 43.6368C227.18 43.6491 227.151 43.6574 227.12 43.6605C227.322 43.6424 227.524 43.6237 227.726 43.6056C227.696 43.6085 227.666 43.608 227.636 43.6027C227.835 43.6384 228.033 43.6734 228.232 43.7091C228.183 43.6985 228.144 43.6847 228.098 43.6642C228.273 43.7472 228.447 43.8297 228.622 43.9127C228.577 43.8873 228.536 43.8608 228.494 43.8295C228.638 43.9511 228.783 44.0726 228.927 44.1949C228.871 44.147 228.826 44.0955 228.783 44.0357C228.891 44.1883 228.999 44.3416 229.106 44.4942C228.925 44.2246 228.798 43.9101 228.683 43.6071C228.747 43.7807 228.812 43.9549 228.877 44.1284C228.737 43.7484 228.606 43.3413 228.564 42.9372C228.581 43.1227 228.597 43.3081 228.614 43.4935C228.611 43.4351 228.612 43.3802 228.62 43.3224C228.588 43.505 228.555 43.6881 228.523 43.8706C228.528 43.844 228.535 43.8185 228.545 43.7933C228.468 43.9551 228.391 44.1169 228.315 44.2786C228.321 44.2676 228.327 44.2559 228.334 44.2449C228.22 44.3796 228.106 44.5144 227.992 44.6498C228.001 44.6413 228.01 44.6326 228.019 44.6241C227.874 44.7262 227.73 44.8277 227.585 44.93C227.604 44.914 227.625 44.9025 227.648 44.895C227.479 44.9577 227.31 45.0204 227.141 45.0837C227.154 45.0808 227.167 45.0786 227.179 45.0757C226.993 45.0926 226.807 45.1095 226.62 45.1264C226.636 45.1266 226.652 45.1267 226.667 45.127C226.482 45.0937 226.298 45.0611 226.113 45.0278C226.128 45.0315 226.142 45.0353 226.157 45.0383C225.992 44.9602 225.828 44.8828 225.663 44.8047C225.692 44.8156 225.719 44.8316 225.742 44.852C225.605 44.7358 225.467 44.6189 225.329 44.5027C225.354 44.5243 225.376 44.5484 225.396 44.5754C225.292 44.4271 225.187 44.2782 225.082 44.13C225.166 44.252 225.219 44.3935 225.271 44.5308C225.205 44.3527 225.139 44.1739 225.072 43.9958C225.186 44.3058 225.257 44.6256 225.291 44.954C225.272 44.7435 225.253 44.533 225.234 44.3226C225.266 44.6704 225.25 45.0171 225.191 45.3615C225.231 45.1385 225.271 44.9154 225.311 44.6931C225.251 45.0081 225.186 45.3217 225.144 45.6394C225.184 45.4136 225.225 45.1884 225.265 44.9633C225.255 45.0158 225.243 45.061 225.224 45.1105C225.319 44.9103 225.414 44.7101 225.508 44.5099C225.494 44.541 225.476 44.5686 225.453 44.5938C225.595 44.427 225.736 44.2597 225.876 44.0929C225.866 44.1031 225.855 44.1125 225.845 44.1227C226.024 43.9966 226.202 43.8705 226.381 43.7443C226.359 43.7621 226.334 43.7766 226.308 43.7866C226.516 43.7097 226.724 43.632 226.932 43.5551C226.905 43.5659 226.878 43.5732 226.85 43.5766C227.078 43.556 227.306 43.5355 227.535 43.5149C227.489 43.5184 227.45 43.5169 227.404 43.5115C227.63 43.5521 227.856 43.5921 228.082 43.6326C228.037 43.6224 227.998 43.6092 227.955 43.5897C228.156 43.6846 228.356 43.7797 228.557 43.8753C228.531 43.862 228.506 43.8459 228.483 43.8275C228.65 43.9688 228.818 44.1102 228.985 44.2516C228.932 44.2053 228.889 44.1564 228.848 44.0991C228.974 44.2782 229.101 44.4573 229.227 44.6365C229.171 44.5467 229.129 44.4526 229.092 44.3537C229.169 44.562 229.247 44.7709 229.324 44.9799C229.157 44.5101 229.054 44.023 229.008 43.527C229.029 43.7578 229.05 43.9879 229.071 44.2187C229.055 44.0263 229.035 43.8282 229.062 43.6355C229.021 43.8641 228.981 44.092 228.94 44.3206C228.95 44.2729 228.962 44.2324 228.981 44.1871C228.885 44.3895 228.789 44.5926 228.692 44.795C228.705 44.7682 228.722 44.7436 228.742 44.722C228.599 44.891 228.456 45.0601 228.313 45.2291C228.325 45.2188 228.335 45.2094 228.346 45.1992C228.165 45.3269 227.985 45.4546 227.804 45.5817C227.829 45.5623 227.856 45.5487 227.888 45.5395C227.677 45.6174 227.467 45.6959 227.256 45.7739C227.272 45.7714 227.287 45.7682 227.302 45.7657C227.07 45.7867 226.839 45.8075 226.608 45.8284C226.623 45.8287 226.639 45.8288 226.654 45.8291C226.425 45.7881 226.197 45.7471 225.968 45.7061C225.999 45.7099 226.03 45.7179 226.058 45.7302C225.855 45.6341 225.653 45.538 225.45 45.4413C225.497 45.465 225.536 45.4898 225.578 45.5224C225.409 45.3791 225.239 45.2367 225.07 45.0934C225.112 45.1315 225.144 45.1666 225.178 45.2118C225.05 45.0301 224.922 44.8485 224.794 44.6675C224.92 44.8603 225.012 45.0778 225.093 45.2932C225.013 45.0777 224.932 44.8623 224.852 44.6461C224.972 44.98 225.047 45.324 225.08 45.6779C225.058 45.4335 225.036 45.1886 225.014 44.9442C225.03 45.1509 225.037 45.3621 225.011 45.5685C225.055 45.3224 225.099 45.0763 225.143 44.8295C225.13 44.8988 225.112 44.9605 225.084 45.0248C225.188 44.8049 225.292 44.5859 225.396 44.3661C225.383 44.3978 225.366 44.4265 225.345 44.4536C225.499 44.2702 225.654 44.0874 225.809 43.9047C225.791 43.9267 225.771 43.9468 225.749 43.9639C225.944 43.8255 226.14 43.6878 226.335 43.5501C226.313 43.5671 226.29 43.5802 226.264 43.5914C226.492 43.5067 226.719 43.4226 226.946 43.3379C226.905 43.3531 226.868 43.3623 226.825 43.3688C227.075 43.3464 227.325 43.3239 227.574 43.3008C227.53 43.3035 227.49 43.3028 227.446 43.2978C227.692 43.3421 227.938 43.3858 228.185 43.4301C228.126 43.4187 228.072 43.4019 228.017 43.3777C228.236 43.4815 228.454 43.5846 228.673 43.6884C228.633 43.6664 228.599 43.6445 228.563 43.6167C228.745 43.7707 228.927 43.924 229.109 44.078C229.056 44.0303 229.013 43.9801 228.972 43.9227C229.108 44.117 229.246 44.3113 229.383 44.5056C229.326 44.416 229.282 44.3227 229.242 44.2235C229.326 44.4487 229.41 44.674 229.494 44.9C229.315 44.4097 229.178 43.8912 229.126 43.3713C229.148 43.6163 229.17 43.8613 229.192 44.1057C229.173 43.8699 229.182 43.6382 229.219 43.4052C229.176 43.6471 229.133 43.8897 229.09 44.1316C229.114 43.9994 229.142 43.8681 229.198 43.7457C229.096 43.9605 228.994 44.1759 228.892 44.3906C228.907 44.3622 228.923 44.3349 228.943 44.3099C228.792 44.4896 228.64 44.6685 228.489 44.8482C228.508 44.824 228.53 44.8042 228.555 44.7875C228.364 44.9227 228.172 45.0579 227.979 45.1939C227.992 45.1875 228.006 45.1804 228.019 45.1741C227.795 45.257 227.572 45.3399 227.349 45.4228C227.363 45.419 227.378 45.4152 227.393 45.4113C227.148 45.4332 226.903 45.4558 226.657 45.4777C226.673 45.4772 226.688 45.4767 226.703 45.4763C226.461 45.4329 226.218 45.3895 225.975 45.346C226.006 45.3492 226.034 45.3575 226.061 45.3721C225.845 45.27 225.63 45.1679 225.415 45.0657C225.428 45.0738 225.441 45.0825 225.453 45.0905C225.274 44.939 225.094 44.7874 224.915 44.6359C224.954 44.6702 224.983 44.703 225.014 44.7437C224.879 44.5512 224.743 44.3595 224.608 44.1671C224.68 44.2795 224.728 44.4024 224.776 44.5267C224.693 44.3027 224.609 44.0787 224.526 43.854C224.622 44.1141 224.696 44.3802 224.744 44.6529C224.767 44.7836 224.772 44.9205 224.808 45.0476C224.846 45.1832 224.9 45.3177 224.942 45.4529C225.023 45.6697 225.104 45.8871 225.184 46.1039C225.339 46.4233 225.558 46.6836 225.841 46.8851C226.001 47.0582 226.193 47.1815 226.417 47.2552C226.729 47.4367 227.07 47.5286 227.439 47.5308C227.526 47.5367 228.07 47.477 228.155 47.4661C228.614 47.3583 229.018 47.1464 229.366 46.8289C229.712 46.5096 229.959 46.1256 230.106 45.6777C230.191 45.3466 230.242 45.0025 230.294 44.6665C230.35 44.3171 230.292 43.9627 230.228 43.616C230.179 43.3523 230.105 43.0972 230.014 42.8454C229.867 42.4388 229.725 41.9687 229.488 41.5921C229.154 41.0595 228.921 40.8002 228.402 40.4301C227.769 39.9778 226.852 39.8737 226.116 40.0489C225.063 40.3004 224.203 41.15 223.906 42.1879C223.777 42.6392 223.692 43.1352 223.691 43.61C223.69 44.3737 223.796 45.141 223.99 45.8784C224.102 46.2988 224.228 46.7317 224.446 47.1085C224.893 47.88 225.558 48.4775 226.419 48.7505C226.626 48.8161 226.985 48.8673 227.202 48.8926C227.246 48.8977 227.286 48.9003 227.331 48.9011C227.886 48.9125 228.429 48.7974 228.922 48.5365C229.91 48.015 230.6 46.9368 230.6 45.8092C230.601 44.8623 230.345 43.9783 229.96 43.1214C229.863 42.9059 229.745 42.7018 229.614 42.5055C229.26 41.9807 228.911 41.4548 228.353 41.1181C227.417 40.5537 226.358 40.4749 225.38 40.9856C224.451 41.4706 223.879 42.5155 223.869 43.5511C223.864 44.0141 223.923 44.4839 223.991 44.941C224.033 45.2212 224.096 45.4983 224.18 45.7695C224.244 45.9807 224.324 46.1859 224.401 46.3922C224.467 46.571 224.528 46.7744 224.622 46.9452C225.027 47.6806 225.655 48.2463 226.459 48.5069C227.432 48.8226 228.554 48.5888 229.311 47.8994C229.683 47.5606 229.967 47.1133 230.121 46.6351C230.312 46.0381 230.277 45.6236 230.205 45.0138C230.129 44.3744 229.897 43.7344 229.61 43.1626C229.43 42.8026 229.185 42.4686 228.946 42.1477C228.705 41.823 228.418 41.5405 228.08 41.3123C227.217 40.7296 225.996 40.8268 225.235 41.5331C224.749 41.9848 224.438 42.6872 224.45 43.3534C224.462 44.0094 224.568 44.7021 224.762 45.3315C224.855 45.6317 224.969 45.9299 225.082 46.2208C225.131 46.347 225.179 46.472 225.249 46.588C225.656 47.2555 226.165 47.7883 226.931 48.0255C228.016 48.3619 229.29 47.9019 229.887 46.9244C230.197 46.418 230.35 45.8735 230.367 45.2797C230.38 44.8217 230.34 44.349 230.267 43.8994C230.245 43.7679 230.203 43.6409 230.159 43.5149C230.052 43.2088 229.944 42.9023 229.815 42.6051C229.709 42.3606 229.582 42.1261 229.436 41.9035C229.26 41.6372 229.077 41.3746 228.883 41.1222C228.689 40.8718 228.424 40.6887 228.162 40.5163C227.98 40.4301 227.797 40.3432 227.615 40.257C227.309 40.1466 227 40.1187 226.686 40.1748C226.476 40.1665 226.277 40.2108 226.091 40.3085C225.797 40.3902 225.54 40.5401 225.319 40.7582C225.032 41.0443 224.816 41.3823 224.674 41.7619C224.456 42.349 224.581 43.0264 224.831 43.5725Z" fill="white"/>
<defs>
<linearGradient id="paint0_linear_0_1" x1="191.652" y1="171.952" x2="205.942" y2="171.952" gradientUnits="userSpaceOnUse">
<stop stop-color="white"/>
<stop offset="0.0309" stop-color="#F8F1ED"/>
<stop offset="0.0979" stop-color="#ECD8CB"/>
<stop offset="0.1664" stop-color="#E2C4B0"/>
<stop offset="0.236" stop-color="#DBB69D"/>
<stop offset="0.3076" stop-color="#D7AE92"/>
<stop offset="0.3838" stop-color="#D6AB8E"/>
<stop offset="0.4802" stop-color="#D9B298"/>
<stop offset="0.6413" stop-color="#E3C5B1"/>
<stop offset="0.8461" stop-color="#F2E4DB"/>
<stop offset="1" stop-color="white"/>
</linearGradient>
<linearGradient id="paint1_linear_0_1" x1="181.699" y1="162.231" x2="191.923" y2="162.231" gradientUnits="userSpaceOnUse">
<stop/>
<stop offset="1" stop-color="white"/>
</linearGradient>
<linearGradient id="paint2_linear_0_1" x1="2.60937" y1="167.142" x2="67.1716" y2="167.142" gradientUnits="userSpaceOnUse">
<stop stop-color="white"/>
<stop offset="1"/>
</linearGradient>
<linearGradient id="paint3_linear_0_1" x1="139" y1="132" x2="139" y2="186" gradientUnits="userSpaceOnUse">
<stop stop-color="#AFD1A5"/>
<stop offset="0.93" stop-color="#76B369" stop-opacity="0"/>
</linearGradient>
</defs>
</svg>
