<svg width="335" height="281" viewBox="0 0 335 281" fill="none" xmlns="http://www.w3.org/2000/svg">
<path fillRule="evenodd" clipRule="evenodd" d="M45.9401 37.6694C31.0856 42.0471 -8.92886 34.2448 5.94137 11.5083C20.8116 -11.2274 43.997 22.3061 45.9401 37.6694Z" fill="#E48A29"/>
<path fillRule="evenodd" clipRule="evenodd" d="M45.94 37.67C39.8796 39.4561 29.63 39.2132 20.6293 36.7573C19.3395 32.1058 19.9808 26.9448 22.8304 22.5868C25.691 18.2123 30.1886 15.552 34.9883 14.8823C40.8318 22.1395 45.1488 31.4124 45.94 37.67Z" fill="#F59F42"/>
<path fillRule="evenodd" clipRule="evenodd" d="M45.9393 37.6705C45.7886 37.7147 45.6324 37.7557 45.4762 37.7975C39.553 34.0091 31.8595 29.0303 23.4702 23.5426C16.9388 19.2707 10.8579 15.2622 5.72755 11.8525C5.80013 11.7373 5.86561 11.6253 5.94134 11.5093C6.01708 11.3941 6.0936 11.29 6.17013 11.1772C11.3501 14.5111 17.4603 18.4746 23.9917 22.7466C32.3818 28.2351 40.0271 33.2873 45.8714 37.1956C45.8935 37.3549 45.9195 37.5151 45.9393 37.6705ZM43.9591 38.1509C30.4284 33.0261 14.9941 25.4123 3.2898 17.008C3.15569 17.4538 3.03972 17.894 2.95215 18.3255C13.3745 26.4521 28.8025 33.6589 42.6992 38.375C43.1315 38.3071 43.5512 38.2322 43.9591 38.1509ZM38.6647 38.7726C26.6937 36.0753 13.0195 30.2586 6.18985 22.3837C10.1612 30.7359 23.2974 36.368 35.7323 38.8325C36.7358 38.8396 37.7156 38.8207 38.6647 38.7726ZM9.90011 6.89102C22.2979 14.2508 35.4704 25.35 45.5929 35.699C45.5054 35.2943 45.4075 34.8817 45.2955 34.4604C35.401 23.6097 22.6024 12.3495 10.9699 6.05398C10.6101 6.30722 10.2543 6.58887 9.90011 6.89102ZM42.8909 27.8075C35.651 17.4175 25.2405 7.66257 16.0079 7.37225C25.9521 10.4703 36.7524 20.6536 44.0214 30.5324C43.6814 29.6393 43.3043 28.7289 42.8909 27.8075Z" fill="#BD6E1F"/>
<path fillRule="evenodd" clipRule="evenodd" d="M45.9397 37.669C45.7891 37.7132 45.6329 37.7543 45.4767 37.7961C39.5535 34.0077 31.86 29.0289 23.4707 23.5412L22.5895 22.9653C22.6684 22.8383 22.7488 22.712 22.8309 22.5866C22.9224 22.4462 23.0163 22.3073 23.1109 22.1716L23.9914 22.746C32.3815 28.2344 40.0268 33.2866 45.8711 37.1949C45.894 37.3535 45.92 37.5136 45.9397 37.669ZM20.0902 33.9304C24.9113 36.1252 30.3863 37.77 35.7328 38.8303C36.7363 38.8382 37.7161 38.8185 38.6652 38.7712C32.5045 37.3835 25.8919 35.169 19.9932 32.2721C19.9995 32.8267 20.0318 33.3797 20.0902 33.9304ZM20.2685 29.0005C27.5257 32.6689 35.3281 35.8711 42.6997 38.3736C43.132 38.3057 43.5517 38.2308 43.9596 38.1495C36.4349 35.2999 28.3217 31.6788 20.588 27.5812C20.4618 28.0514 20.3545 28.5255 20.2685 29.0005ZM26.5348 18.5087C33.3921 23.9554 39.9645 29.9424 45.5934 35.6968C45.5058 35.2921 45.408 34.8794 45.296 34.4582C40.0481 28.703 33.983 22.8327 27.7095 17.6496C27.3072 17.9178 26.9159 18.2058 26.5348 18.5087ZM30.6309 16.0773C35.6294 20.309 40.2911 25.4598 44.0219 30.531C43.6819 29.6371 43.3048 28.7275 42.8914 27.8061C39.7925 23.359 36.113 19.0286 32.1929 15.5069C31.6644 15.6726 31.1429 15.8627 30.6309 16.0773Z" fill="#C97A2B"/>
<path fillRule="evenodd" clipRule="evenodd" d="M12.8077 35.832C2.63155 30.9652 -3.29635 22.6737 4.58648 10.6215C12.4685 -1.42914 22.4412 0.678042 30.978 8.05044L12.8077 35.832Z" fill="#EBAE6C"/>
<path fillRule="evenodd" clipRule="evenodd" d="M12.8078 35.832C10.4506 34.7047 8.32286 33.3935 6.5407 31.8954C3.55782 27.1721 3.56492 21.0123 8.63053 13.2675C13.6961 5.52197 19.3369 3.04716 24.8593 3.88656C26.9467 4.91925 29.0011 6.34244 30.9781 8.05044L12.8078 35.832Z" fill="#FCBF7E"/>
<path fillRule="evenodd" clipRule="evenodd" d="M9.98289 30.3924C9.63419 30.9273 8.91707 31.0764 8.38298 30.7277C7.84809 30.3782 7.69899 29.6619 8.04769 29.1278C8.39718 28.5929 9.1143 28.4438 9.64839 28.7933C10.1825 29.142 10.3324 29.8583 9.98289 30.3924Z" fill="#CFA06C"/>
<path fillRule="evenodd" clipRule="evenodd" d="M12.4557 16.8787C12.1062 17.4136 11.3899 17.5627 10.8558 17.214C10.3217 16.8645 10.171 16.1474 10.5205 15.6133C10.87 15.0792 11.5863 14.9301 12.1204 15.2788C12.6553 15.6283 12.8052 16.3446 12.4557 16.8787Z" fill="#CFA06C"/>
<path fillRule="evenodd" clipRule="evenodd" d="M23.3538 13.4373C23.0043 13.9722 22.288 14.1213 21.7539 13.7726C21.2198 13.4231 21.0699 12.706 21.4186 12.1727C21.7681 11.6386 22.4844 11.4887 23.0185 11.8382C23.5526 12.1869 23.7025 12.9032 23.3538 13.4373Z" fill="#CFA06C"/>
<path fillRule="evenodd" clipRule="evenodd" d="M20.4888 7.90056C20.2758 8.22559 19.8403 8.31634 19.5145 8.10412C19.1894 7.89111 19.0987 7.45642 19.3109 7.13139C19.5239 6.80635 19.9594 6.71484 20.2844 6.92706C20.6103 7.13927 20.7018 7.57553 20.4888 7.90056Z" fill="#CFA06C"/>
<path fillRule="evenodd" clipRule="evenodd" d="M18.0294 19.7416C17.8163 20.0674 17.3809 20.1582 17.0558 19.9459C16.7308 19.7329 16.6393 19.2975 16.8523 18.9724C17.0645 18.6466 17.5008 18.5567 17.8258 18.7689C18.1501 18.9803 18.2424 19.4166 18.0294 19.7416Z" fill="#CFA06C"/>
<path fillRule="evenodd" clipRule="evenodd" d="M9.66572 22.7992C9.4535 23.1235 9.01723 23.215 8.6922 23.0027C8.36717 22.7897 8.27644 22.3543 8.48866 22.0292C8.70088 21.7042 9.13715 21.6135 9.46218 21.8249C9.78721 22.0379 9.87873 22.4742 9.66572 22.7992Z" fill="#CFA06C"/>
<path fillRule="evenodd" clipRule="evenodd" d="M15.2012 27.7385C14.9882 28.0635 14.5527 28.1542 14.2277 27.942C13.9027 27.729 13.8112 27.2935 14.0242 26.9685C14.2372 26.6434 14.6727 26.5519 14.9977 26.7641C15.3227 26.9772 15.4142 27.4126 15.2012 27.7385Z" fill="#CFA06C"/>
<path fillRule="evenodd" clipRule="evenodd" d="M17.3322 13.4613C17.1958 13.6704 16.9157 13.7288 16.7066 13.5923C16.4976 13.4558 16.4392 13.175 16.5757 12.9659C16.7121 12.7569 16.993 12.6985 17.2021 12.8349C17.4103 12.9722 17.4695 13.2523 17.3322 13.4613Z" fill="#CFA06C"/>
<path fillRule="evenodd" clipRule="evenodd" d="M26.4082 8.94963C26.2717 9.15869 25.9909 9.21706 25.7818 9.08058C25.5728 8.9441 25.5144 8.66405 25.6509 8.4542C25.7873 8.24514 26.0674 8.18675 26.2765 8.32323C26.4863 8.4605 26.5447 8.74136 26.4082 8.94963Z" fill="#CFA06C"/>
<path fillRule="evenodd" clipRule="evenodd" d="M17.3135 24.1389C17.1762 24.3487 16.8962 24.4063 16.6871 24.2698C16.478 24.1326 16.4197 23.8525 16.5561 23.6435C16.6926 23.4344 16.9735 23.376 17.1817 23.5125C17.3908 23.6498 17.45 23.9298 17.3135 24.1389Z" fill="#CFA06C"/>
<path fillRule="evenodd" clipRule="evenodd" d="M8.90234 266.512C15.47 252.488 47.836 227.697 55.0033 253.902C62.1706 280.107 21.6938 275.24 8.90234 266.512Z" fill="#E48A29"/>
<path fillRule="evenodd" clipRule="evenodd" d="M8.90234 266.513C11.5823 260.792 18.5571 253.279 26.3618 248.167C30.7008 250.285 34.1397 254.186 35.514 259.208C36.893 264.25 35.9045 269.38 33.2238 273.418C23.9169 272.982 14.1131 270.069 8.90234 266.513Z" fill="#F59F42"/>
<path fillRule="evenodd" clipRule="evenodd" d="M8.90234 266.513C8.9694 266.371 9.04198 266.226 9.11377 266.083C15.8756 264.158 24.7035 261.698 34.374 259.053C41.9018 256.994 48.9334 255.098 54.8873 253.518C54.9252 253.648 54.9662 253.771 55.0025 253.904C55.038 254.037 55.0664 254.164 55.1003 254.296C49.1701 255.965 42.1527 257.912 34.6249 259.971C24.9544 262.615 16.1043 264.991 9.3039 266.775C9.169 266.688 9.03173 266.601 8.90234 266.513ZM9.85535 264.712C22.6618 257.978 38.5931 251.468 52.6437 248.275C52.3983 247.879 52.1459 247.501 51.8816 247.148C38.8882 249.565 23.2669 256.34 10.5236 263.62C10.2869 263.989 10.0652 264.352 9.85535 264.712ZM12.899 260.335C22.8527 253.159 36.2729 246.777 46.696 246.883C37.8097 244.32 24.8857 250.424 14.7979 258.1C14.1273 258.847 13.4922 259.593 12.899 260.335ZM55.8372 259.93C42.1085 264.334 25.0664 266.841 10.608 267.561C10.9693 267.763 11.3432 267.963 11.733 268.16C26.4162 267.943 43.3305 265.824 55.7551 261.286C55.8033 260.848 55.8285 260.395 55.8372 259.93ZM18.3078 270.768C30.8862 272.234 45.0906 270.905 51.4279 264.185C42.5164 269.576 27.7329 270.914 15.5182 269.808C16.412 270.146 17.3437 270.467 18.3078 270.768Z" fill="#BD6E1F"/>
<path fillRule="evenodd" clipRule="evenodd" d="M8.90234 266.514C8.9694 266.372 9.04198 266.227 9.11377 266.084C15.8756 264.159 24.7035 261.699 34.374 259.055L35.3893 258.777C35.4327 258.92 35.4737 259.064 35.5132 259.208C35.5574 259.369 35.5984 259.532 35.6386 259.694L34.6249 259.972C24.9544 262.616 16.1043 264.992 9.3039 266.776C9.169 266.689 9.03173 266.602 8.90234 266.514ZM28.8358 249.637C23.9966 251.793 19.1361 254.802 14.7987 258.102C14.1273 258.849 13.4922 259.595 12.899 260.337C18.0222 256.644 24.0629 253.161 30.1415 250.664C29.7218 250.3 29.2863 249.958 28.8358 249.637ZM32.4088 253.038C24.851 256.04 17.2822 259.761 10.5228 263.622C10.2869 263.99 10.0652 264.354 9.85535 264.713C16.9769 260.968 25.0656 257.293 33.2593 254.219C32.9918 253.811 32.7078 253.417 32.4088 253.038ZM36.1112 264.684C27.4876 266.208 18.6486 267.161 10.6088 267.562C10.9701 267.764 11.344 267.965 11.7338 268.161C19.5219 268.046 27.9365 267.396 35.9763 266.133C36.0418 265.654 36.0859 265.171 36.1112 264.684ZM35.2166 269.362C35.0383 269.889 34.8347 270.405 34.6083 270.91C29.3731 271.511 23.6913 271.396 18.3078 270.768C17.3437 270.467 16.412 270.146 15.5182 269.808C21.7885 270.377 28.7348 270.301 35.2166 269.362Z" fill="#C97A2B"/>
<path fillRule="evenodd" clipRule="evenodd" d="M32.2393 242.923C42.6285 238.529 52.7668 239.586 56.5654 253.476C60.3648 267.366 52.1767 273.436 40.9978 274.941L32.2393 242.923Z" fill="#EBAE6C"/>
<path fillRule="evenodd" clipRule="evenodd" d="M32.2393 242.922C34.6454 241.904 37.0382 241.18 39.3418 240.838C44.8556 241.735 49.4628 245.823 51.9045 254.751C54.3462 263.677 52.4607 269.541 48.1714 273.12C46.0145 273.999 43.587 274.593 40.9978 274.941L32.2393 242.922Z" fill="#FCBF7E"/>
<path fillRule="evenodd" clipRule="evenodd" d="M38.1859 244.413C38.0171 243.797 38.38 243.161 38.9961 242.992C39.6115 242.824 40.2474 243.187 40.4162 243.802C40.5842 244.418 40.2213 245.054 39.606 245.222C38.9898 245.392 38.354 245.029 38.1859 244.413Z" fill="#CFA06C"/>
<path fillRule="evenodd" clipRule="evenodd" d="M46.6654 255.222C46.4966 254.606 46.8595 253.97 47.4748 253.802C48.091 253.634 48.7269 253.996 48.8949 254.612C49.0629 255.227 48.7 255.863 48.0847 256.031C47.4693 256.199 46.8335 255.837 46.6654 255.222Z" fill="#CFA06C"/>
<path fillRule="evenodd" clipRule="evenodd" d="M42.018 265.665C41.8491 265.05 42.212 264.413 42.8274 264.245C43.4427 264.077 44.0786 264.439 44.2466 265.055C44.4147 265.671 44.0526 266.306 43.4364 266.475C42.8219 266.643 42.1868 266.28 42.018 265.665Z" fill="#CFA06C"/>
<path fillRule="evenodd" clipRule="evenodd" d="M48.061 267.188C47.9592 266.814 48.1793 266.427 48.554 266.324C48.9296 266.223 49.3161 266.443 49.4187 266.818C49.5212 267.192 49.3004 267.58 48.9256 267.682C48.5501 267.784 48.1635 267.564 48.061 267.188Z" fill="#CFA06C"/>
<path fillRule="evenodd" clipRule="evenodd" d="M40.8259 257.497C40.7233 257.123 40.9442 256.735 41.319 256.634C41.6929 256.531 42.0803 256.751 42.1828 257.127C42.2854 257.501 42.0645 257.888 41.6898 257.99C41.3158 258.093 40.9285 257.873 40.8259 257.497Z" fill="#CFA06C"/>
<path fillRule="evenodd" clipRule="evenodd" d="M44.0827 249.21C43.9802 248.836 44.2011 248.449 44.5758 248.346C44.9505 248.244 45.3371 248.464 45.4397 248.839C45.5422 249.213 45.3221 249.6 44.9466 249.703C44.5726 249.806 44.1853 249.585 44.0827 249.21Z" fill="#CFA06C"/>
<path fillRule="evenodd" clipRule="evenodd" d="M36.7116 250.078C36.6091 249.702 36.83 249.315 37.2047 249.213C37.5794 249.11 37.966 249.331 38.0686 249.706C38.1711 250.081 37.951 250.468 37.5763 250.571C37.2015 250.673 36.8142 250.452 36.7116 250.078Z" fill="#CFA06C"/>
<path fillRule="evenodd" clipRule="evenodd" d="M45.9896 261.138C45.9242 260.896 46.0654 260.648 46.306 260.581C46.5474 260.516 46.7959 260.658 46.8622 260.899C46.9285 261.14 46.7864 261.388 46.545 261.455C46.3044 261.52 46.0559 261.378 45.9896 261.138Z" fill="#CFA06C"/>
<path fillRule="evenodd" clipRule="evenodd" d="M43.3529 270.924C43.2874 270.684 43.4287 270.434 43.6701 270.369C43.9107 270.303 44.1592 270.445 44.2255 270.686C44.2917 270.927 44.1497 271.175 43.9083 271.242C43.6677 271.308 43.4192 271.166 43.3529 270.924Z" fill="#CFA06C"/>
<path fillRule="evenodd" clipRule="evenodd" d="M38.0065 254.047C37.9402 253.805 38.083 253.557 38.3236 253.49C38.5642 253.424 38.8135 253.566 38.879 253.807C38.9445 254.048 38.8025 254.297 38.5619 254.363C38.3212 254.428 38.0719 254.287 38.0065 254.047Z" fill="#CFA06C"/>
<path fillRule="evenodd" clipRule="evenodd" d="M247.036 271.034C241.477 288.922 225.614 274.196 221.23 276.471C220.104 277.055 205.991 286.89 199.588 274.981C197.017 270.2 196.188 245.28 221.816 259.394C224.469 260.855 242.491 251.103 246.998 265.537C247.674 267.702 247.385 268.934 247.036 271.034Z" fill="#F9BA5D"/>
<path fillRule="evenodd" clipRule="evenodd" d="M246.132 270.828C240.848 287.116 225.54 273.231 221.376 275.303C220.309 275.835 206.597 285.278 200.522 274.438C198.083 270.088 196.437 247.11 222.185 260.541C224.709 261.858 241.822 252.684 246.1 265.825C246.74 267.795 246.465 268.917 246.132 270.828Z" fill="#E9891B"/>
<path fillRule="evenodd" clipRule="evenodd" d="M201.601 267.879C201.518 255.779 219.007 257.805 220.687 263.502C222.121 268.363 226.73 268.35 218.084 274.267C210.428 280.308 201.647 274.758 201.601 267.879Z" fill="#CE602D"/>
<path fillRule="evenodd" clipRule="evenodd" d="M203.533 269.609C199.251 266.76 207.506 257.357 211.133 260.777C213.716 263.215 205.294 262.14 204.822 268.545C204.746 269.581 204.138 270.011 203.533 269.609Z" fill="#E37A49"/>
<path fillRule="evenodd" clipRule="evenodd" d="M215.751 259.632C218.226 260.395 220.178 261.78 220.686 263.502C222.12 268.362 226.729 268.35 218.083 274.267C211.595 279.387 204.298 276.181 202.196 270.896C203.445 272.257 205.141 273.169 207.334 273.154C217.54 273.085 221.035 264.374 215.751 259.632Z" fill="#B23300"/>
<path fillRule="evenodd" clipRule="evenodd" d="M224.663 267.355C222.7 283.277 255.537 275.398 241.007 263.494C234.349 257.255 225.42 261.227 224.663 267.355Z" fill="#CE602D"/>
<path fillRule="evenodd" clipRule="evenodd" d="M226.032 270.622C222.414 263.123 236.156 258.675 233.064 263.701C232.158 265.172 229.087 262.449 228.294 269.272C227.981 271.973 226.141 270.85 226.032 270.622Z" fill="#E37A49"/>
<path fillRule="evenodd" clipRule="evenodd" d="M225.757 272.839C231.23 280.904 253.428 273.672 241.006 263.495C239.597 262.174 238.088 261.314 236.574 260.831C240.398 263.041 240.172 268.561 236.78 271.403C233.434 274.208 229.032 274.55 225.757 272.839Z" fill="#B23300"/>
<path fillRule="evenodd" clipRule="evenodd" d="M58.1074 265.141C58.6999 273.322 85.0291 276.759 90.7835 249.137C95.8025 225.047 67.7196 207.826 56.6779 223.98C55.4851 225.726 55.5088 226.995 56.5588 228.465C51.5105 235.755 66.0226 234.008 69.3826 242.653C73.6009 255.558 57.5804 257.845 58.1074 265.141Z" fill="#EBD3A7"/>
<path fillRule="evenodd" clipRule="evenodd" d="M58.1065 265.141C58.6989 273.322 85.0281 276.759 90.7825 249.136C92.3516 241.608 90.687 234.751 87.3199 229.374L87.4304 229.595C93.5768 242.111 90.3722 262.586 73.5392 264.474C61.7276 265.799 66.0153 259.153 67.7833 253.192C64.2071 257.854 57.7696 260.473 58.1065 265.141Z" fill="#D9BE8B"/>
<path fillRule="evenodd" clipRule="evenodd" d="M76.5608 269.243C82.6315 266.537 88.43 260.437 90.7833 249.137C94.38 231.875 80.9803 218.143 69.0322 217.687C62.1142 219.013 56.9034 223.566 59.9692 227.86C57.249 231.998 70.0183 233.332 73.1535 241.395C77.229 253.478 66.0264 258.554 62.2057 263.923C59.7838 267.328 68.1139 271.761 76.332 269.313C76.4093 269.291 76.4851 269.267 76.5608 269.243Z" fill="#B59467"/>
<path fillRule="evenodd" clipRule="evenodd" d="M83.832 227.239C81.9086 223.714 79.2145 222.294 75.8332 220.664C71.9012 218.768 66.5603 218.413 63.1254 221.6C59.9902 224.509 64.4373 225.262 67.4581 224.219C72.8472 222.359 83.5787 228.064 83.9858 227.611L83.832 227.239Z" fill="#D9BA8F"/>
<path fillRule="evenodd" clipRule="evenodd" d="M76.5596 269.242C82.6303 266.536 88.4288 260.436 90.7821 249.136C92.3505 241.612 90.6875 234.76 87.3251 229.384L87.4293 229.595C93.5757 242.111 90.3711 262.586 73.5381 264.474C66.5799 265.254 65.2111 263.268 65.6205 260.286C64.2825 261.538 63.0589 262.723 62.2045 263.923C59.7826 267.328 68.1119 271.761 76.3308 269.313C76.4081 269.29 76.4847 269.266 76.5596 269.242Z" fill="#9C7B4C"/>
<path fillRule="evenodd" clipRule="evenodd" d="M19.9235 247.281C19.656 246.613 21.0508 245.427 23.0381 244.631C25.0262 243.835 26.8541 243.731 27.1215 244.399C27.389 245.066 25.9942 246.253 24.0061 247.049C22.0188 247.844 20.1909 247.949 19.9235 247.281Z" fill="#892900"/>
<path fillRule="evenodd" clipRule="evenodd" d="M72.6065 220.888C59.9965 205.585 23.6126 221.963 31.8867 242.62C40.1561 263.268 77.792 250.023 76.3507 230.235C76.7933 227.69 77.4678 225.175 78.2654 224.107C78.566 223.939 78.2551 224.105 78.3853 223.958L78.222 223.999C76.9077 223.779 74.6837 222.424 72.6065 220.888Z" fill="#892900"/>
<path fillRule="evenodd" clipRule="evenodd" d="M72.6085 220.891C63.5321 209.877 42.1423 215.274 33.9502 226.867C36.0724 231.223 38.1204 234.992 39.0363 236.712C44.1059 246.223 51.5438 249.781 49.1967 240.323C45.6474 226.024 63.7711 219.457 70.6457 226.941C73.5544 230.107 73.6247 236.978 72.035 242.447C74.9682 238.935 76.6817 234.759 76.3527 230.238C76.7953 227.693 77.4698 225.178 78.2674 224.11C78.568 223.942 78.2572 224.109 78.3873 223.961L78.224 224.003C76.9097 223.782 74.6858 222.427 72.6085 220.891Z" fill="#752502"/>
<path fillRule="evenodd" clipRule="evenodd" d="M36.8936 219.626C38.6821 218.909 40.6323 218.871 42.6006 219.406L55.6958 252.102C54.641 253.848 53.2028 255.165 51.4144 255.882C46.3069 257.927 28.4593 252.377 25.5814 245.193C22.7034 238.007 31.7862 221.671 36.8936 219.626Z" fill="#AD5317"/>
<path fillRule="evenodd" clipRule="evenodd" d="M36.8951 219.626C38.6835 218.91 40.6337 218.871 42.602 219.406L55.6972 252.103C54.6425 253.849 53.2043 255.166 51.4158 255.883C50.417 256.283 48.9315 256.391 47.1659 256.255C48.8116 254.66 49.3528 252.1 47.8168 248.265C43.0565 236.378 39.343 215.544 25.9339 236.908C25.8471 237.046 25.7351 237.299 25.6025 237.636C27.4218 230.071 33.199 221.106 36.8951 219.626Z" fill="#99450E"/>
<path fillRule="evenodd" clipRule="evenodd" d="M274.769 270.005C274.502 269.338 275.897 268.151 277.884 267.355C279.872 266.559 281.7 266.455 281.968 267.122C282.235 267.79 280.841 268.976 278.853 269.772C276.865 270.569 275.037 270.673 274.769 270.005Z" fill="#892900"/>
<path fillRule="evenodd" clipRule="evenodd" d="M327.453 243.614C314.843 228.312 278.459 244.69 286.733 265.347C295.003 285.994 332.639 272.75 331.197 252.961C331.64 250.416 332.314 247.901 333.112 246.833C333.413 246.666 333.102 246.832 333.232 246.684L333.069 246.727C331.754 246.505 329.53 245.15 327.453 243.614Z" fill="#892900"/>
<path fillRule="evenodd" clipRule="evenodd" d="M327.454 243.615C318.378 232.601 296.988 237.999 288.796 249.592C290.917 253.948 292.965 257.717 293.882 259.437C298.952 268.947 306.389 272.505 304.042 263.047C300.492 248.747 318.616 242.181 325.491 249.665C328.401 252.831 328.47 259.702 326.881 265.172C329.814 261.66 331.528 257.484 331.198 252.963C331.642 250.418 332.316 247.903 333.114 246.835C333.414 246.668 333.104 246.834 333.234 246.686L333.071 246.728C331.755 246.506 329.531 245.151 327.454 243.615Z" fill="#752502"/>
<path fillRule="evenodd" clipRule="evenodd" d="M291.742 242.35C293.532 241.634 295.481 241.594 297.448 242.13L310.544 274.826C309.49 276.572 308.052 277.89 306.262 278.606C301.156 280.652 283.307 275.102 280.43 267.917C277.552 260.732 286.635 244.396 291.742 242.35Z" fill="#AD5317"/>
<path fillRule="evenodd" clipRule="evenodd" d="M291.74 242.351C293.53 241.634 295.479 241.595 297.447 242.131L310.543 274.827C309.488 276.573 308.05 277.89 306.26 278.607C305.262 279.007 303.776 279.116 302.01 278.979C303.657 277.384 304.198 274.825 302.661 270.989C297.9 259.102 294.187 238.268 280.778 259.633C280.692 259.771 280.58 260.024 280.446 260.361C282.267 252.796 288.044 243.831 291.74 242.351Z" fill="#99450E"/>
<path fillRule="evenodd" clipRule="evenodd" d="M54.6143 3.79465C55.0545 3.22584 56.7846 3.82621 58.4784 5.13502C60.173 6.44461 61.1899 7.9672 60.7497 8.5368C60.3094 9.10639 58.5802 8.50603 56.8856 7.19643C55.1918 5.88683 54.1741 4.36424 54.6143 3.79465Z" fill="#892900"/>
<path fillRule="evenodd" clipRule="evenodd" d="M104.081 35.814C110.874 17.1854 78.3062 -5.86586 64.6991 11.7411C51.0974 29.3402 81.6 55.0588 97.9234 43.7812C100.341 42.8724 102.851 42.1782 104.176 42.3233C104.473 42.4977 104.172 42.3139 104.366 42.351L104.247 42.2318C103.771 40.9869 103.81 38.3835 104.081 35.814Z" fill="#892900"/>
<path fillRule="evenodd" clipRule="evenodd" d="M104.08 35.8139C108.969 22.4055 93.4694 6.70851 79.3234 5.52671C76.645 9.56437 74.4353 13.2407 73.4184 14.9038C67.7934 24.0962 68.4987 32.3111 75.4593 25.491C85.9826 15.1799 100.835 27.4696 97.8707 37.1906C96.6172 41.3032 90.7311 44.8477 85.2111 46.2512C89.7252 46.9983 94.1936 46.3577 97.9228 43.7811C100.34 42.8723 102.85 42.1773 104.176 42.3232C104.472 42.4976 104.172 42.3138 104.365 42.3508L104.246 42.2317C103.77 40.9868 103.81 38.3834 104.08 35.8139Z" fill="#752502"/>
<path fillRule="evenodd" clipRule="evenodd" d="M87.0581 4.39313C88.5831 5.57098 89.6055 7.23242 90.1428 9.19997L68.6046 37.0684C66.5653 37.0455 64.7003 36.4735 63.1761 35.2957C58.8229 31.9309 54.5541 13.7347 59.2868 7.60953C64.0187 1.4852 82.7049 1.02842 87.0581 4.39313Z" fill="#AD5317"/>
<path fillRule="evenodd" clipRule="evenodd" d="M87.0576 4.39313C88.5826 5.57098 89.605 7.23242 90.1423 9.19997L68.6041 37.0684C66.5648 37.0455 64.6998 36.4735 63.1756 35.2957C62.3244 34.6377 61.4771 33.4117 60.6992 31.8213C62.9098 32.4303 65.3893 31.5996 67.9162 28.3296C75.7454 18.1983 91.8187 4.431 66.6058 3.70994C66.4425 3.7052 66.1672 3.73677 65.8098 3.79278C73.2508 1.52544 83.9067 1.95776 87.0576 4.39313Z" fill="#99450E"/>
<path fillRule="evenodd" clipRule="evenodd" d="M312.572 52.6581C299.591 71.5328 244.053 60.4368 251.285 31.8189C258.644 2.70249 314.564 20.4191 315.194 43.7986C315.879 45.9673 316.688 47.897 317.467 48.7506C317.799 48.8855 317.456 48.7529 317.609 48.8957L317.435 48.8768C316.23 49.2981 314.37 50.8562 312.572 52.6581Z" fill="#994B2C"/>
<path fillRule="evenodd" clipRule="evenodd" d="M311.003 51.8972C298.871 69.0064 246.083 58.3419 252.669 32.2833C259.37 5.76944 312.584 22.481 313.406 43.8345C314.076 45.821 314.861 47.5906 315.608 48.3771C315.925 48.5033 315.599 48.3803 315.745 48.5112L315.579 48.4923C314.441 48.8639 312.691 50.2689 311.003 51.8972Z" fill="#592918"/>
<path fillRule="evenodd" clipRule="evenodd" d="M257.39 33.474C257.848 31.6642 268.662 32.8358 281.545 36.0916C294.428 39.3475 304.501 43.4545 304.043 45.2643C303.586 47.0741 292.772 45.9025 279.889 42.6467C267.005 39.3909 256.932 35.2838 257.39 33.474Z" fill="#9A4D19"/>
<path fillRule="evenodd" clipRule="evenodd" d="M267.949 37.0795C264.811 36.7024 255.148 34.3861 254.822 41.2599C254.511 47.8048 269.28 54.5871 275.551 56.2454C296.806 61.8679 313.609 53.4629 306.124 48.6016C300.074 44.6751 275.542 38.9681 267.949 37.0795Z" fill="#9B4B18"/>
<path fillRule="evenodd" clipRule="evenodd" d="M267.949 37.0783C264.81 36.7012 255.148 34.385 254.822 41.2588C254.805 41.6335 254.838 42.0091 254.914 42.3838C259.769 47.35 270.6 51.8547 275.92 53.2558C289.084 56.7215 300.606 55.8174 306.838 53.4546C308.426 51.8342 308.367 50.0584 306.123 48.6012C300.074 44.674 275.542 38.967 267.949 37.0783Z" fill="#B36630"/>
<path fillRule="evenodd" clipRule="evenodd" d="M268.512 34.8493C265.57 33.6896 255.968 31.1375 258.947 24.935C261.783 19.0292 278 20.0777 284.308 21.5979C305.682 26.7479 316.473 42.1286 307.577 42.8489C300.389 43.4295 276.091 36.7963 268.512 34.8493Z" fill="#9B4B18"/>
<path fillRule="evenodd" clipRule="evenodd" d="M268.512 34.848C265.57 33.6883 255.968 31.1362 258.947 24.9338C259.11 24.5953 259.318 24.2813 259.563 23.9879C266.195 21.9249 277.865 23.1066 283.212 24.4012C296.442 27.6058 306.151 33.8753 310.513 38.9157C311.14 41.097 310.244 42.6315 307.577 42.8468C300.389 43.4283 276.091 36.7951 268.512 34.848Z" fill="#B36630"/>
<path fillRule="evenodd" clipRule="evenodd" d="M22.3657 43.0725C18.2263 17.6364 62.6658 -1.27626 75.2718 24.9685C87.8716 51.2007 45.346 74.0902 28.0695 54.948C25.3446 53.0665 22.4604 51.4271 20.8257 51.2039C20.4281 51.3309 20.8328 51.1936 20.5898 51.181L20.7602 51.0682C21.6075 49.6521 22.1306 46.3757 22.3657 43.0725Z" fill="#9D7A5E"/>
<path fillRule="evenodd" clipRule="evenodd" d="M24.4366 42.6065C20.6112 19.0006 61.9376 1.40781 73.6325 25.7553C85.3218 50.0917 45.7704 71.3742 29.7279 53.6229C27.1962 51.8794 24.5171 50.3599 22.9976 50.154C22.6276 50.2723 23.0039 50.1438 22.7783 50.1327L22.9369 50.0278C23.725 48.7126 24.2149 45.6722 24.4366 42.6065Z" fill="#6B4A2E"/>
<path fillRule="evenodd" clipRule="evenodd" d="M24.4366 42.6056C22.7917 32.4547 29.4975 23.42 38.6039 18.3505C49.5178 13.9412 62.7108 15.6776 68.6907 28.1275C74.6699 40.5742 67.7764 51.9629 57.511 57.7283C47.8642 61.6658 36.6238 61.2532 29.7279 53.622C27.1962 51.8785 24.5171 50.359 22.9976 50.1531C22.6276 50.2715 23.0039 50.1429 22.7783 50.1319L22.9369 50.0269C23.725 48.7118 24.2149 45.6713 24.4366 42.6056Z" fill="#805B3D"/>
<path fillRule="evenodd" clipRule="evenodd" d="M28.9816 46.8827C28.7504 47.1241 28.6834 47.3347 28.8498 47.5154C28.8861 47.7584 29.092 47.8381 29.4258 47.8081C30.277 48.0606 32.0094 48.2144 35.0302 48.2665C43.1142 48.4061 27.8085 54.2314 40.095 57.3066C41.3794 57.6269 42.2527 53.433 47.7128 56.6171C49.2543 57.5165 52.6025 56.707 53.2241 52.7191C53.6288 50.1228 66.2751 55.702 63.5021 47.4965C62.5838 44.7794 69.3109 49.8608 65.6684 42.9799C63.8263 39.5016 74.9839 44.8591 73.4069 32.1403C72.7048 26.483 62.3984 39.7754 55.4465 37.108C54.9589 36.5408 54.1188 35.976 53.5665 35.6438C53.6525 35.004 53.7361 33.9958 53.5989 33.2613C55.8623 26.1682 72.6795 26.4317 68.7026 22.3475C59.7603 13.1661 56.9691 25.2238 55.4047 21.6114C52.3106 14.467 52.0723 22.895 50.5252 20.4793C45.8533 13.185 42.304 26.5429 40.024 25.2365C36.522 23.2295 33.7971 25.3367 33.536 27.1023C32.609 33.3536 28.7883 31.4145 28.2369 32.6168C22.9567 44.1302 37.0711 35.8245 32.127 42.2202C30.2794 44.6114 29.3153 46.0614 28.9816 46.8827Z" fill="#F5E5C3"/>
<path fillRule="evenodd" clipRule="evenodd" d="M45.3896 55.5968C46.057 55.7751 46.8238 56.097 47.7129 56.6153C49.2545 57.5147 52.6026 56.7052 53.2243 52.7173C53.629 50.121 66.2753 55.7002 63.5022 47.4947C62.5839 44.7777 69.311 49.859 65.6686 42.9781C63.8265 39.4998 74.9841 44.8573 73.4071 32.1385C72.7049 26.4812 62.3986 39.7736 55.4466 37.1063C55.3906 37.0408 55.3283 36.9745 55.2628 36.909L55.2486 36.8948L55.2384 36.8846L55.236 36.8822L55.2123 36.8593L55.1942 36.8428L55.1863 36.8349L55.1342 36.7852L55.1106 36.7639L55.1074 36.7607L55.0806 36.7363L55.0538 36.7118C55.0269 36.6873 54.9985 36.6637 54.9709 36.6384L54.9654 36.6345L54.9425 36.6148L54.9354 36.6085L54.9141 36.5911L54.9047 36.5832L54.8849 36.5666L54.8747 36.5572L54.8573 36.5422L54.8447 36.5311L54.8281 36.5177L54.8139 36.5059L54.7989 36.4933L54.7824 36.4799L54.769 36.4696L54.7398 36.4459L54.7201 36.4302L54.7106 36.4223L54.6514 36.3757L54.6254 36.356L54.6214 36.3529L54.5938 36.3323L54.5915 36.33L54.5615 36.3087L54.5615 36.3079L54.5315 36.2858L54.5015 36.2637L54.4984 36.2613L54.4715 36.2416L54.4668 36.2384L54.4416 36.2203L54.4345 36.2148L54.4116 36.1982L54.3808 36.1769L54.3706 36.169L54.3508 36.1548L54.3382 36.1454L54.3209 36.1327L54.3067 36.1225L54.2909 36.1114L54.2751 36.0996L54.2609 36.0901L54.2436 36.0767L54.2317 36.0688L54.212 36.0546L54.2017 36.0475L54.1804 36.0326L54.1718 36.0262L54.1489 36.0105L54.1426 36.0057L54.1126 35.986L54.0866 35.9679L54.0834 35.9663L54.055 35.9466L54.0542 35.9458L54.025 35.9268L54.0242 35.9268L53.9966 35.9079L53.9943 35.9063L53.9674 35.889L53.9635 35.8866L53.939 35.87L53.9335 35.8661L53.9114 35.8511L53.9035 35.8464L53.883 35.8322L53.8736 35.8266L53.8554 35.814L53.8444 35.8069L53.8278 35.7967L53.8152 35.788L53.7994 35.7785L53.786 35.7698L53.7726 35.7604L53.7568 35.7509L53.745 35.7438L53.7284 35.7328L53.7181 35.7265L53.7 35.7154L53.6921 35.7099L53.6724 35.6973L53.6661 35.6933L53.6456 35.6807L53.6416 35.6775L53.6187 35.6633L53.6164 35.6618L53.5927 35.6468L53.5919 35.646L53.5675 35.631C53.6534 34.9912 53.7371 33.983 53.5998 33.2485C55.8632 26.1554 72.6805 26.4188 68.7036 22.3346C59.7612 13.1533 56.97 25.211 55.4056 21.5986C52.3115 14.4542 52.0733 22.8821 50.5262 20.4665C45.8542 13.1722 42.3049 26.5301 40.025 25.2237C36.523 23.2167 33.7981 25.3238 33.5369 27.0894C33.2924 28.7351 32.8474 29.8128 32.3149 30.5299C32.965 30.0952 33.6639 29.2944 34.441 27.9288C36.3494 24.5752 38.014 34.3261 45.7485 24.0805C47.6269 21.5923 45.3288 27.7442 50.1002 24.0103C54.0345 20.9319 50.1767 27.2038 55.4356 24.3724C58.3877 22.7827 58.6283 26.706 53.6992 29.9319C52.4448 30.7531 51.861 32.5874 51.9738 34.1597L45.078 38.0427L28.7601 47.2328C28.7443 47.329 28.7727 47.4182 28.8492 47.5018C28.8571 47.5578 28.8752 47.6051 28.9013 47.6446L46.3221 40.6335L53.5004 37.7445C54.6072 39.0344 56.6703 39.9653 58.2662 39.4422C63.8651 37.612 66.777 40.2517 63.6916 41.5628C58.1952 43.898 65.5013 44.8068 60.6385 45.9531C54.7421 47.344 60.9809 49.3952 57.8639 49.306C45.0314 48.9392 51.6023 56.3329 47.7918 55.727C46.8096 55.5826 46.0239 55.5448 45.3896 55.5968Z" fill="#DEC99B"/>
<path fillRule="evenodd" clipRule="evenodd" d="M306.814 259.978C315.006 259.565 319.013 233.315 291.522 226.963C267.547 221.422 249.721 249.124 265.632 260.515C267.351 261.745 268.621 261.749 270.113 260.731C277.292 265.937 275.861 251.391 284.576 248.219C297.569 244.281 299.508 260.347 306.814 259.978Z" fill="#EBD3A7"/>
<path fillRule="evenodd" clipRule="evenodd" d="M306.813 259.978C315.004 259.565 319.012 233.315 291.521 226.963C284.028 225.231 277.137 226.747 271.687 229.995L271.912 229.891C284.558 224.017 304.959 227.665 306.48 244.536C307.548 256.374 300.998 251.942 295.077 250.045C299.661 253.721 302.138 260.214 306.813 259.978Z" fill="#D9BE8B"/>
<path fillRule="evenodd" clipRule="evenodd" d="M311.315 241.618C308.742 235.489 302.77 229.561 291.522 226.962C274.344 222.992 260.323 236.091 259.608 248.025C260.784 254.97 265.223 260.28 269.583 257.307C273.661 260.116 275.271 247.379 283.401 244.419C295.57 240.607 300.402 251.917 305.686 255.853C309.038 258.349 313.651 250.117 311.381 241.847C311.36 241.771 311.338 241.695 311.315 241.618Z" fill="#B59467"/>
<path fillRule="evenodd" clipRule="evenodd" d="M269.478 233.435C265.913 235.281 264.434 237.945 262.731 241.291C260.749 245.181 260.28 250.512 263.391 254.016C266.231 257.213 267.081 252.783 266.103 249.741C264.361 244.313 270.297 233.708 269.853 233.29L269.478 233.435Z" fill="#D9BA8F"/>
<path fillRule="evenodd" clipRule="evenodd" d="M311.315 241.619C308.742 235.491 302.77 229.562 291.522 226.964C284.035 225.233 277.147 226.746 271.7 229.992L271.914 229.891C284.56 224.018 304.962 227.666 306.483 244.537C307.112 251.51 305.096 252.836 302.125 252.361C303.347 253.726 304.506 254.975 305.687 255.855C309.039 258.351 313.651 250.118 311.382 241.849C311.36 241.772 311.338 241.697 311.315 241.619Z" fill="#9C7B4C"/>
<path fillRule="evenodd" clipRule="evenodd" d="M56.6217 167.328C64.8074 165.058 62.9212 137.621 33.6998 137.419C8.21551 137.24 -3.53457 169.27 15.1209 177.183C17.1365 178.038 18.4209 177.755 19.6989 176.389C28.1316 180.026 23.3942 165.649 31.4861 160.472C43.7285 153.554 49.3219 169.353 56.6217 167.328Z" fill="#EBD3A7"/>
<path fillRule="evenodd" clipRule="evenodd" d="M56.622 167.327C64.8078 165.056 62.9215 137.62 33.7002 137.418C25.7361 137.362 19.1139 140.452 14.3418 144.968L14.5445 144.811C25.998 136.014 47.4407 135.087 52.7942 151.794C56.551 163.516 48.9286 160.519 42.5155 159.94C47.9779 162.621 51.9517 168.623 56.622 167.327Z" fill="#D9BE8B"/>
<path fillRule="evenodd" clipRule="evenodd" d="M57.0192 147.754C53.0328 142.143 45.6549 137.502 33.7005 137.419C15.4395 137.292 4.23299 153.7 6.20922 165.924C8.96805 172.677 14.6553 177.039 18.3893 173.049C23.1464 174.965 21.892 161.728 29.4404 156.899C40.8772 150.293 48.3167 160.631 54.5483 163.414C58.5 165.178 61.2998 155.816 57.1368 147.971C57.0981 147.899 57.0586 147.826 57.0192 147.754Z" fill="#B59467"/>
<path fillRule="evenodd" clipRule="evenodd" d="M12.8842 148.947C9.69779 151.619 8.80632 154.645 7.84147 158.412C6.71964 162.792 7.44938 168.286 11.3876 171.123C14.9804 173.713 14.8376 169.044 13.1619 166.19C10.1727 161.097 13.7733 149.036 13.2305 148.715L12.8842 148.947Z" fill="#D9BA8F"/>
<path fillRule="evenodd" clipRule="evenodd" d="M57.019 147.754C53.0326 142.143 45.6547 137.502 33.6995 137.419C25.7409 137.363 19.1219 140.45 14.3506 144.962L14.5439 144.813C25.9973 136.016 47.44 135.089 52.7936 151.796C55.0065 158.701 53.2693 160.497 50.1578 160.689C51.7025 161.792 53.1557 162.793 54.5481 163.414C58.5006 165.178 61.2996 155.816 57.1365 147.971C57.0979 147.899 57.0584 147.826 57.019 147.754Z" fill="#9C7B4C"/>
<path fillRule="evenodd" clipRule="evenodd" d="M104.055 50.2338C105.774 58.2539 132.326 58.011 134.199 29.8578C135.833 5.30521 105.636 -7.85938 96.9378 9.66792C95.9982 11.5613 96.1978 12.8157 97.4403 14.1253C93.4508 22.0452 107.58 18.3041 112.105 26.4C118.072 38.5974 102.522 43.0823 104.055 50.2338Z" fill="#EBD3A7"/>
<path fillRule="evenodd" clipRule="evenodd" d="M104.055 50.2338C105.774 58.2539 132.327 58.011 134.2 29.8578C134.711 22.184 132.112 15.6242 128.033 10.7653L128.173 10.9696C135.994 22.5146 135.657 43.2354 119.246 47.4372C107.731 50.3845 111.058 43.2102 111.983 37.0622C109.088 42.1727 103.075 45.6574 104.055 50.2338Z" fill="#D9BE8B"/>
<path fillRule="evenodd" clipRule="evenodd" d="M122.898 51.7406C128.535 48.2205 133.432 41.3758 134.198 29.8585C135.37 12.2649 120.197 0.521182 108.301 1.72506C101.634 3.99635 97.1028 9.22841 100.734 13.0562C98.6136 17.5309 111.444 17.082 115.667 24.6351C121.377 36.0373 110.985 42.6144 107.946 48.4619C106.018 52.169 114.882 55.4059 122.682 51.8424C122.754 51.81 122.825 51.7745 122.898 51.7406Z" fill="#B59467"/>
<path fillRule="evenodd" clipRule="evenodd" d="M124.281 9.13347C121.888 5.90839 119.023 4.87649 115.448 3.72941C111.292 2.39614 105.953 2.78508 102.992 6.41645C100.29 9.73147 104.798 9.86086 107.646 8.41004C112.726 5.82162 124.144 9.98471 124.485 9.48059L124.281 9.13347Z" fill="#D9BA8F"/>
<path fillRule="evenodd" clipRule="evenodd" d="M122.898 51.7416C128.536 48.2215 133.432 41.3769 134.199 29.8595C134.709 22.1905 132.113 15.6354 128.039 10.7765L128.171 10.9713C135.993 22.5163 135.655 43.2371 119.244 47.4389C112.461 49.1753 110.831 47.3971 110.823 44.3882C109.671 45.8137 108.624 47.1564 107.945 48.4637C106.018 52.1716 114.88 55.4077 122.681 51.8442C122.754 51.811 122.826 51.7763 122.898 51.7416Z" fill="#9C7B4C"/>
<path fillRule="evenodd" clipRule="evenodd" d="M258.89 13.5362C260.595 5.51299 236.257 -5.1042 223.054 19.8318C211.539 41.5782 233.732 65.9233 248.828 53.4734C250.459 52.1283 250.788 50.9024 250.189 49.1983C257.064 43.5978 242.638 41.2445 241.812 32.0063C241.344 18.437 257.369 20.6909 258.89 13.5362Z" fill="#EBD3A7"/>
<path fillRule="evenodd" clipRule="evenodd" d="M258.89 13.5369C260.595 5.51361 236.257 -5.10358 223.054 19.8324C219.455 26.6281 219.149 33.6778 220.89 39.7793L220.845 39.5347C218.418 25.8037 227.184 7.02518 243.88 9.88893C255.596 11.8983 249.63 17.0901 246.275 22.3254C251.006 18.8407 257.917 18.1141 258.89 13.5369Z" fill="#D9BE8B"/>
<path fillRule="evenodd" clipRule="evenodd" d="M242.303 4.4668C235.72 5.37879 228.455 9.62788 223.055 19.8301C214.804 35.4127 223.861 52.327 235.211 56.0846C242.225 56.7323 248.496 53.8062 246.744 48.829C250.506 45.6094 238.61 40.7821 237.839 32.164C237.281 19.423 249.452 17.6606 254.614 13.5645C257.887 10.9666 251.116 4.39422 242.542 4.46286C242.462 4.46364 242.382 4.46522 242.303 4.4668Z" fill="#B59467"/>
<path fillRule="evenodd" clipRule="evenodd" d="M223.647 42.7986C224.515 46.7187 226.708 48.8307 229.504 51.3363C232.755 54.2497 237.787 56.0745 241.972 53.9673C245.792 52.0439 241.728 50.0858 238.537 50.2476C232.843 50.5371 224.12 42.076 223.602 42.3971L223.647 42.7986Z" fill="#D9BA8F"/>
<path fillRule="evenodd" clipRule="evenodd" d="M242.303 4.47C235.72 5.38198 228.455 9.63107 223.055 19.8333C219.457 26.6251 219.151 33.6701 220.887 39.7676L220.846 39.5356C218.418 25.8046 227.185 7.02607 243.88 9.88983C250.782 11.0732 251.545 13.3618 250.323 16.1128C251.956 15.2813 253.461 14.4829 254.614 13.5669C257.887 10.969 251.116 4.39662 242.541 4.46525C242.462 4.46683 242.381 4.46842 242.303 4.47Z" fill="#9C7B4C"/>
<path fillRule="evenodd" clipRule="evenodd" d="M198.444 229.373C197.852 221.193 171.522 217.755 165.768 245.378C160.749 269.467 188.831 286.688 199.874 270.535C201.068 268.789 201.043 267.52 199.993 266.05C205.041 258.76 190.53 260.507 187.169 251.862C182.95 238.956 198.971 236.669 198.444 229.373Z" fill="#EBD3A7"/>
<path fillRule="evenodd" clipRule="evenodd" d="M198.444 229.373C197.852 221.193 171.522 217.755 165.768 245.378C164.199 252.905 165.863 259.763 169.23 265.141L169.12 264.919C162.974 252.403 166.177 231.927 183.011 230.04C194.823 228.716 190.535 235.361 188.766 241.321C192.343 236.659 198.782 234.041 198.444 229.373Z" fill="#D9BE8B"/>
<path fillRule="evenodd" clipRule="evenodd" d="M179.99 225.272C173.92 227.978 168.121 234.078 165.768 245.378C162.171 262.64 175.571 276.372 187.519 276.828C194.437 275.502 199.648 270.948 196.581 266.654C199.3 262.516 186.533 261.183 183.397 253.119C179.321 241.036 190.524 235.961 194.344 230.591C196.766 227.186 188.436 222.753 180.218 225.201C180.142 225.224 180.067 225.249 179.99 225.272Z" fill="#B59467"/>
<path fillRule="evenodd" clipRule="evenodd" d="M172.719 267.278C174.643 270.802 177.336 272.222 180.718 273.853C184.65 275.748 189.991 276.103 193.426 272.916C196.561 270.007 192.114 269.254 189.093 270.297C183.704 272.157 172.973 266.453 172.565 266.906L172.719 267.278Z" fill="#D9BA8F"/>
<path fillRule="evenodd" clipRule="evenodd" d="M179.99 225.27C173.921 227.976 168.121 234.076 165.768 245.376C164.2 252.9 165.862 259.753 169.224 265.129L169.12 264.917C162.974 252.401 166.177 231.926 183.011 230.039C189.969 229.259 191.338 231.244 190.928 234.226C192.266 232.974 193.49 231.789 194.343 230.589C196.766 227.184 188.436 222.751 180.218 225.199C180.143 225.222 180.066 225.246 179.99 225.27Z" fill="#9C7B4C"/>
<path fillRule="evenodd" clipRule="evenodd" d="M298.943 167.905C304.768 173.679 326.865 158.955 313.039 134.361C300.98 112.911 268.499 118.402 270.801 137.833C271.049 139.933 271.903 140.874 273.66 141.291C274.65 150.103 284.434 139.244 292.651 143.548C304.315 150.498 293.749 162.755 298.943 167.905Z" fill="#EBD3A7"/>
<path fillRule="evenodd" clipRule="evenodd" d="M298.944 167.905C304.769 173.679 326.866 158.955 313.038 134.361C309.271 127.658 303.508 123.585 297.435 121.748L297.664 121.843C310.526 127.231 321.574 144.764 310.132 157.256C302.104 166.02 300.966 158.194 298.379 152.541C298.75 158.403 295.62 164.61 298.944 167.905Z" fill="#D9BE8B"/>
<path fillRule="evenodd" clipRule="evenodd" d="M315.543 158.863C318.337 152.833 318.696 144.425 313.038 134.362C304.397 118.992 285.273 117.456 275.971 124.969C271.631 130.517 270.699 137.375 275.833 138.595C276.505 143.501 287.001 136.109 294.666 140.123C305.682 146.547 300.579 157.737 301.231 164.294C301.645 168.452 310.836 166.315 315.417 159.066C315.46 158.998 315.501 158.93 315.543 158.863Z" fill="#B59467"/>
<path fillRule="evenodd" clipRule="evenodd" d="M293.402 122.432C289.636 121.04 286.672 121.743 283.052 122.738C278.843 123.895 274.587 127.139 274.094 131.8C273.645 136.053 277.49 133.695 279.081 130.924C281.917 125.978 293.754 123.22 293.763 122.612L293.402 122.432Z" fill="#D9BA8F"/>
<path fillRule="evenodd" clipRule="evenodd" d="M315.543 158.862C318.337 152.833 318.695 144.424 313.037 134.362C309.272 127.662 303.513 123.592 297.444 121.753L297.662 121.843C310.524 127.231 321.572 144.765 310.13 157.257C305.401 162.42 303.064 161.824 301.412 159.307C301.227 161.13 301.084 162.828 301.23 164.294C301.645 168.452 310.835 166.314 315.417 159.066C315.459 158.998 315.502 158.93 315.543 158.862Z" fill="#9C7B4C"/>
<path fillRule="evenodd" clipRule="evenodd" d="M77.3701 259.366C85.589 241.958 125.919 211.265 134.729 243.869C143.537 276.473 93.2375 270.266 77.3701 259.366Z" fill="#E48A29"/>
<path fillRule="evenodd" clipRule="evenodd" d="M77.3701 259.366C80.7238 252.263 89.4231 242.95 99.1465 236.626C104.531 239.274 108.792 244.138 110.48 250.386C112.175 256.66 110.926 263.033 107.578 268.043C96.0106 267.466 83.8337 263.807 77.3701 259.366Z" fill="#F59F42"/>
<path fillRule="evenodd" clipRule="evenodd" d="M77.3701 259.369C77.453 259.192 77.5445 259.013 77.6344 258.834C86.0482 256.468 97.0322 253.444 109.063 250.194C118.43 247.663 127.177 245.333 134.586 243.391C134.633 243.553 134.683 243.707 134.728 243.871C134.772 244.037 134.806 244.195 134.848 244.358C127.469 246.411 118.738 248.804 109.372 251.335C97.3399 254.586 86.3282 257.505 77.8679 259.697C77.6999 259.589 77.5303 259.48 77.3701 259.369ZM78.5614 257.135C94.5069 248.812 114.338 240.782 131.816 236.866C131.513 236.373 131.201 235.901 130.873 235.463C114.711 238.418 95.265 246.78 79.3953 255.781C79.1002 256.237 78.8233 256.688 78.5614 257.135ZM82.3616 251.706C94.7641 242.825 111.471 234.942 124.428 235.114C113.391 231.893 97.3012 239.431 84.7323 248.935C83.8944 249.86 83.1024 250.785 82.3616 251.706ZM135.741 251.368C118.657 256.79 97.463 259.84 79.486 260.679C79.9341 260.932 80.3988 261.183 80.8824 261.428C99.137 261.215 120.171 258.646 135.635 253.053C135.696 252.509 135.729 251.945 135.741 251.368ZM89.0453 264.696C104.677 266.567 122.341 264.969 130.245 256.639C119.146 263.308 100.763 264.913 85.5819 263.492C86.6919 263.915 87.8485 264.317 89.0453 264.696Z" fill="#BD6E1F"/>
<path fillRule="evenodd" clipRule="evenodd" d="M77.3701 259.369C77.453 259.193 77.5445 259.014 77.6344 258.834C86.0482 256.469 97.0322 253.445 109.063 250.194L110.327 249.853C110.38 250.03 110.431 250.209 110.479 250.39C110.534 250.591 110.584 250.792 110.632 250.994L109.371 251.336C97.3391 254.587 86.3274 257.506 77.8671 259.698C77.6999 259.589 77.5303 259.481 77.3701 259.369ZM102.215 238.467C96.1904 241.127 90.1355 244.849 84.7315 248.936C83.8936 249.861 83.1024 250.787 82.3608 251.707C88.7439 247.135 96.2678 242.828 103.833 239.748C103.314 239.295 102.774 238.868 102.215 238.467ZM106.644 242.708C97.2365 246.411 87.813 251.006 79.3953 255.781C79.1002 256.237 78.8233 256.689 78.5606 257.135C87.4288 252.507 97.4977 247.97 107.696 244.179C107.365 243.672 107.014 243.181 106.644 242.708ZM111.201 257.201C100.474 259.062 89.4839 260.213 79.4868 260.68C79.9349 260.933 80.3995 261.183 80.8832 261.428C90.5647 261.316 101.029 260.539 111.028 259.002C111.11 258.406 111.168 257.806 111.201 257.201ZM110.071 263.013C109.847 263.667 109.593 264.308 109.309 264.936C102.798 265.662 95.736 265.497 89.0453 264.696C87.8485 264.318 86.6919 263.915 85.5819 263.492C93.374 264.222 102.009 264.153 110.071 263.013Z" fill="#C97A2B"/>
<path fillRule="evenodd" clipRule="evenodd" d="M106.471 230.131C119.403 224.71 132.001 226.064 136.67 243.346C141.339 260.628 131.136 268.142 117.234 269.971L106.471 230.131Z" fill="#EBAE6C"/>
<path fillRule="evenodd" clipRule="evenodd" d="M106.471 230.132C109.465 228.876 112.442 227.985 115.307 227.571C122.159 228.707 127.87 233.807 130.872 244.913C133.873 256.02 131.506 263.303 126.16 267.734C123.476 268.818 120.455 269.548 117.235 269.971L106.471 230.132Z" fill="#FCBF7E"/>
<path fillRule="evenodd" clipRule="evenodd" d="M113.859 232.007C113.652 231.241 114.105 230.452 114.871 230.246C115.637 230.039 116.426 230.493 116.633 231.259C116.84 232.025 116.386 232.814 115.62 233.02C114.854 233.227 114.065 232.773 113.859 232.007Z" fill="#CFA06C"/>
<path fillRule="evenodd" clipRule="evenodd" d="M124.357 245.479C124.149 244.713 124.603 243.924 125.369 243.717C126.135 243.51 126.924 243.963 127.132 244.729C127.338 245.495 126.885 246.284 126.119 246.491C125.353 246.698 124.564 246.245 124.357 245.479Z" fill="#CFA06C"/>
<path fillRule="evenodd" clipRule="evenodd" d="M118.539 258.439C118.333 257.673 118.785 256.885 119.551 256.678C120.317 256.471 121.106 256.925 121.313 257.69C121.52 258.456 121.066 259.245 120.301 259.452C119.535 259.659 118.746 259.206 118.539 258.439Z" fill="#CFA06C"/>
<path fillRule="evenodd" clipRule="evenodd" d="M126.047 260.359C125.921 259.893 126.197 259.412 126.664 259.287C127.13 259.161 127.61 259.437 127.736 259.903C127.862 260.369 127.586 260.849 127.12 260.975C126.654 261.102 126.173 260.825 126.047 260.359Z" fill="#CFA06C"/>
<path fillRule="evenodd" clipRule="evenodd" d="M117.089 248.283C116.963 247.817 117.239 247.336 117.705 247.211C118.172 247.085 118.652 247.36 118.777 247.827C118.904 248.293 118.628 248.774 118.161 248.899C117.695 249.025 117.215 248.749 117.089 248.283Z" fill="#CFA06C"/>
<path fillRule="evenodd" clipRule="evenodd" d="M121.169 237.99C121.043 237.524 121.319 237.044 121.785 236.918C122.252 236.791 122.731 237.068 122.858 237.534C122.983 238 122.708 238.48 122.241 238.606C121.775 238.733 121.295 238.457 121.169 237.99Z" fill="#CFA06C"/>
<path fillRule="evenodd" clipRule="evenodd" d="M112.005 239.043C111.879 238.576 112.155 238.096 112.621 237.971C113.088 237.844 113.568 238.12 113.693 238.587C113.82 239.053 113.544 239.533 113.077 239.659C112.612 239.785 112.131 239.509 112.005 239.043Z" fill="#CFA06C"/>
<path fillRule="evenodd" clipRule="evenodd" d="M123.495 252.83C123.414 252.531 123.592 252.222 123.891 252.141C124.191 252.06 124.5 252.237 124.581 252.537C124.662 252.837 124.485 253.145 124.185 253.226C123.885 253.308 123.577 253.13 123.495 252.83Z" fill="#CFA06C"/>
<path fillRule="evenodd" clipRule="evenodd" d="M120.178 264.987C120.097 264.687 120.274 264.379 120.574 264.297C120.874 264.216 121.182 264.394 121.263 264.693C121.345 264.993 121.167 265.302 120.867 265.383C120.568 265.463 120.259 265.287 120.178 264.987Z" fill="#CFA06C"/>
<path fillRule="evenodd" clipRule="evenodd" d="M113.598 243.983C113.517 243.682 113.695 243.374 113.994 243.293C114.294 243.212 114.602 243.389 114.683 243.689C114.765 243.989 114.587 244.297 114.287 244.379C113.988 244.46 113.679 244.282 113.598 243.983Z" fill="#CFA06C"/>
<path fillRule="evenodd" clipRule="evenodd" d="M273.247 156.259C281.466 138.851 321.796 108.157 330.605 140.761C339.414 173.365 289.115 167.159 273.247 156.259Z" fill="#E48A29"/>
<path fillRule="evenodd" clipRule="evenodd" d="M273.247 156.26C276.6 149.157 285.3 139.844 295.023 133.52C300.407 136.169 304.669 141.033 306.357 147.281C308.052 153.554 306.803 159.928 303.455 164.937C291.888 164.36 279.711 160.7 273.247 156.26Z" fill="#F59F42"/>
<path fillRule="evenodd" clipRule="evenodd" d="M273.247 156.262C273.33 156.085 273.421 155.906 273.511 155.727C281.925 153.361 292.909 150.337 304.941 147.086C314.307 144.556 323.055 142.226 330.464 140.284C330.511 140.445 330.561 140.599 330.606 140.764C330.651 140.93 330.685 141.087 330.726 141.251C323.346 143.303 314.615 145.696 305.249 148.227C293.217 151.478 282.205 154.397 273.745 156.59C273.577 156.482 273.408 156.372 273.247 156.262ZM274.438 154.027C290.384 145.705 310.215 137.674 327.693 133.758C327.39 133.265 327.078 132.794 326.75 132.356C310.589 135.31 291.142 143.673 275.273 152.673C274.977 153.129 274.7 153.581 274.438 154.027ZM278.239 148.598C290.642 139.716 307.348 131.833 320.306 132.005C309.269 128.784 293.178 136.322 280.61 145.826C279.771 146.753 278.98 147.678 278.239 148.598ZM331.619 148.26C314.535 153.683 293.341 156.733 275.364 157.572C275.812 157.825 276.277 158.075 276.76 158.32C295.015 158.107 316.05 155.539 331.512 149.945C331.573 149.402 331.606 148.838 331.619 148.26ZM284.922 161.588C300.554 163.459 318.217 161.862 326.122 153.532C315.023 160.201 296.64 161.806 281.459 160.385C282.569 160.807 283.726 161.21 284.922 161.588Z" fill="#BD6E1F"/>
<path fillRule="evenodd" clipRule="evenodd" d="M273.247 156.262C273.33 156.085 273.421 155.906 273.511 155.727C281.925 153.361 292.909 150.337 304.941 147.086L306.205 146.744C306.258 146.922 306.309 147.101 306.357 147.281C306.411 147.483 306.462 147.684 306.51 147.886L305.249 148.226C293.216 151.478 282.204 154.397 273.744 156.589C273.577 156.481 273.408 156.371 273.247 156.262ZM298.092 135.358C292.067 138.019 286.013 141.741 280.609 145.827C279.771 146.753 278.98 147.678 278.239 148.598C284.622 144.027 292.145 139.72 299.711 136.64C299.191 136.186 298.652 135.758 298.092 135.358ZM302.521 139.6C293.114 143.303 283.691 147.897 275.273 152.672C274.977 153.129 274.7 153.58 274.438 154.027C283.306 149.399 293.375 144.861 303.574 141.07C303.242 140.564 302.891 140.073 302.521 139.6ZM307.078 154.092C296.351 155.954 285.36 157.104 275.364 157.571C275.812 157.824 276.277 158.074 276.76 158.32C286.442 158.207 296.906 157.431 306.905 155.893C306.987 155.297 307.045 154.696 307.078 154.092ZM305.948 159.904C305.725 160.557 305.47 161.199 305.185 161.827C298.675 162.552 291.613 162.387 284.922 161.587C283.725 161.209 282.569 160.806 281.458 160.383C289.25 161.113 297.887 161.046 305.948 159.904Z" fill="#C97A2B"/>
<path fillRule="evenodd" clipRule="evenodd" d="M302.349 127.023C315.281 121.601 327.879 122.955 332.548 140.237C337.217 157.519 327.014 165.033 313.112 166.861L302.349 127.023Z" fill="#EBAE6C"/>
<path fillRule="evenodd" clipRule="evenodd" d="M302.349 127.023C305.343 125.768 308.32 124.876 311.184 124.461C318.036 125.598 323.748 130.698 326.749 141.804C329.75 152.911 327.383 160.193 322.036 164.625C319.353 165.709 316.332 166.438 313.113 166.861L302.349 127.023Z" fill="#FCBF7E"/>
<path fillRule="evenodd" clipRule="evenodd" d="M309.734 128.898C309.526 128.132 309.98 127.343 310.746 127.137C311.512 126.929 312.301 127.382 312.508 128.149C312.715 128.916 312.261 129.705 311.496 129.911C310.73 130.118 309.941 129.665 309.734 128.898Z" fill="#CFA06C"/>
<path fillRule="evenodd" clipRule="evenodd" d="M320.234 142.371C320.026 141.605 320.481 140.817 321.246 140.61C322.012 140.403 322.801 140.856 323.008 141.622C323.215 142.388 322.761 143.177 321.995 143.384C321.23 143.59 320.441 143.137 320.234 142.371Z" fill="#CFA06C"/>
<path fillRule="evenodd" clipRule="evenodd" d="M314.416 155.332C314.209 154.566 314.663 153.777 315.429 153.571C316.195 153.364 316.984 153.817 317.191 154.583C317.397 155.349 316.944 156.138 316.178 156.345C315.413 156.551 314.624 156.098 314.416 155.332Z" fill="#CFA06C"/>
<path fillRule="evenodd" clipRule="evenodd" d="M321.925 157.252C321.799 156.786 322.075 156.306 322.542 156.18C323.008 156.054 323.488 156.33 323.613 156.796C323.739 157.262 323.464 157.743 322.998 157.868C322.531 157.994 322.051 157.717 321.925 157.252Z" fill="#CFA06C"/>
<path fillRule="evenodd" clipRule="evenodd" d="M312.966 145.176C312.84 144.71 313.116 144.23 313.582 144.104C314.049 143.978 314.528 144.253 314.654 144.719C314.78 145.186 314.505 145.666 314.037 145.792C313.573 145.918 313.092 145.643 312.966 145.176Z" fill="#CFA06C"/>
<path fillRule="evenodd" clipRule="evenodd" d="M317.047 134.885C316.921 134.419 317.197 133.938 317.663 133.813C318.13 133.686 318.61 133.963 318.735 134.429C318.861 134.895 318.586 135.375 318.12 135.501C317.653 135.626 317.173 135.351 317.047 134.885Z" fill="#CFA06C"/>
<path fillRule="evenodd" clipRule="evenodd" d="M307.882 135.936C307.756 135.469 308.031 134.989 308.498 134.863C308.965 134.737 309.444 135.013 309.57 135.48C309.696 135.945 309.421 136.426 308.954 136.552C308.488 136.677 308.008 136.402 307.882 135.936Z" fill="#CFA06C"/>
<path fillRule="evenodd" clipRule="evenodd" d="M319.372 149.721C319.291 149.421 319.468 149.113 319.768 149.031C320.068 148.95 320.377 149.128 320.458 149.427C320.539 149.727 320.362 150.036 320.062 150.117C319.762 150.198 319.454 150.021 319.372 149.721Z" fill="#CFA06C"/>
<path fillRule="evenodd" clipRule="evenodd" d="M316.055 161.879C315.974 161.579 316.152 161.271 316.452 161.189C316.751 161.109 317.059 161.287 317.14 161.586C317.222 161.886 317.044 162.195 316.744 162.276C316.445 162.355 316.137 162.179 316.055 161.879Z" fill="#CFA06C"/>
<path fillRule="evenodd" clipRule="evenodd" d="M309.475 140.878C309.394 140.578 309.571 140.269 309.872 140.187C310.171 140.106 310.48 140.284 310.561 140.583C310.642 140.883 310.464 141.192 310.164 141.273C309.865 141.355 309.556 141.177 309.475 140.878Z" fill="#CFA06C"/>
<path fillRule="evenodd" clipRule="evenodd" d="M238.899 8.68527C251.621 -0.145043 292.058 -5.33451 285.099 20.9276C278.141 47.1882 245.579 22.6569 238.899 8.68527Z" fill="#E48A29"/>
<path fillRule="evenodd" clipRule="evenodd" d="M238.899 8.68821C244.09 5.08603 253.894 2.08973 263.211 1.58798C265.899 5.59724 266.915 10.6992 265.581 15.7316C264.242 20.7846 260.811 24.7252 256.466 26.8711C248.636 21.822 241.62 14.3794 238.899 8.68821Z" fill="#F59F42"/>
<path fillRule="evenodd" clipRule="evenodd" d="M238.899 8.68563C239.028 8.59649 239.164 8.50733 239.299 8.41977C246.113 10.1499 254.982 12.4551 264.673 15.0238C272.218 17.0229 279.251 18.9131 285.194 20.5351C285.161 20.6669 285.135 20.7939 285.1 20.9272C285.064 21.0605 285.024 21.1836 284.987 21.3146C279.02 19.7809 271.974 17.9412 264.429 15.9421C254.738 13.3734 245.892 10.9845 239.114 9.11401C239.041 8.97201 238.967 8.82764 238.899 8.68563ZM240.628 7.60719C255.084 8.21307 272.13 10.5822 285.885 14.8747C285.871 14.4092 285.843 13.9556 285.791 13.5185C273.341 9.08483 256.428 7.09993 241.754 6.99737C241.363 7.19775 240.99 7.40128 240.628 7.60719ZM245.458 5.3509C257.668 4.14308 272.479 5.36116 281.44 10.6863C275.042 4.00817 260.8 2.79719 248.223 4.37186C247.267 4.67954 246.344 5.00615 245.458 5.3509ZM282.795 26.5593C268.711 23.4754 252.714 17.086 239.849 10.4496C240.06 10.8054 240.283 11.1668 240.521 11.532C253.329 18.7167 269.021 25.3767 282.044 27.6914C282.305 27.3363 282.554 26.9561 282.795 26.5593ZM244.897 17.0884C255.04 24.6714 267.991 30.6545 276.846 28.0243C266.432 28.2128 252.975 21.9473 242.967 14.8581C243.571 15.5989 244.215 16.3436 244.897 17.0884Z" fill="#BD6E1F"/>
<path fillRule="evenodd" clipRule="evenodd" d="M238.899 8.68535C239.028 8.5962 239.164 8.50705 239.299 8.41948C246.113 10.1496 254.982 12.4548 264.673 15.0235L265.691 15.2933C265.657 15.4385 265.62 15.5836 265.581 15.7288C265.538 15.8913 265.493 16.0514 265.446 16.2108L264.429 15.9426C254.738 13.3739 245.892 10.985 239.114 9.11452C239.041 8.97173 238.967 8.82735 238.899 8.68535ZM264.612 4.0994C264.84 4.60273 265.046 5.11788 265.225 5.64251C258.715 4.74946 251.742 4.72895 245.457 5.35062C246.343 5.00586 247.267 4.67925 248.222 4.37158C253.63 3.69469 259.345 3.53296 264.612 4.0994ZM265.995 8.83445C257.952 7.63609 249.538 7.05229 241.753 6.99785C241.363 7.19824 240.989 7.40178 240.627 7.6069C248.666 7.94376 257.507 8.82658 266.137 10.2821C266.11 9.79536 266.063 9.31174 265.995 8.83445ZM263.349 20.7652C255.126 17.7531 247.003 14.1399 239.849 10.4494C240.06 10.8052 240.283 11.1665 240.521 11.5317C247.314 15.3422 254.918 19.0051 262.505 21.9501C262.801 21.5683 263.083 21.1723 263.349 20.7652ZM260.226 24.3611C254.15 21.917 248.104 18.4963 242.967 14.857C243.571 15.5978 244.215 16.3433 244.897 17.0873C249.238 20.3329 254.093 23.285 258.922 25.3945C259.372 25.0719 259.807 24.7263 260.226 24.3611Z" fill="#C97A2B"/>
<path fillRule="evenodd" clipRule="evenodd" d="M270.925 0.000709162C282.115 1.4176 290.351 7.42202 286.663 21.3424C282.974 35.2628 272.844 36.4004 262.421 32.0898L270.925 0.000709162Z" fill="#EBAE6C"/>
<path fillRule="evenodd" clipRule="evenodd" d="M270.928 0.000232325C273.519 0.328418 275.952 0.903537 278.115 1.76503C282.433 5.30883 284.364 11.1578 281.995 20.1033C279.624 29.0504 275.049 33.1741 269.543 34.1152C267.236 33.7926 264.838 33.0873 262.425 32.0893L270.928 0.000232325Z" fill="#FCBF7E"/>
<path fillRule="evenodd" clipRule="evenodd" d="M275.319 4.27655C275.482 3.65962 276.116 3.29197 276.733 3.45528C277.35 3.61858 277.717 4.2513 277.554 4.86823C277.39 5.48517 276.757 5.85358 276.14 5.68948C275.523 5.52618 275.156 4.89427 275.319 4.27655Z" fill="#CFA06C"/>
<path fillRule="evenodd" clipRule="evenodd" d="M277.225 17.8815C277.389 17.2646 278.022 16.8969 278.639 17.0602C279.256 17.2235 279.624 17.857 279.46 18.4739C279.297 19.0909 278.663 19.4585 278.047 19.2952C277.43 19.1303 277.062 18.4984 277.225 17.8815Z" fill="#CFA06C"/>
<path fillRule="evenodd" clipRule="evenodd" d="M267.965 24.5793C268.128 23.9623 268.761 23.5947 269.377 23.758C269.994 23.9221 270.363 24.5548 270.199 25.1709C270.035 25.7879 269.403 26.1563 268.786 25.9922C268.169 25.8289 267.801 25.1962 267.965 24.5793Z" fill="#CFA06C"/>
<path fillRule="evenodd" clipRule="evenodd" d="M272.427 28.9321C272.527 28.5558 272.912 28.3325 273.288 28.432C273.663 28.5314 273.887 28.9163 273.787 29.2919C273.688 29.6682 273.303 29.8922 272.927 29.7928C272.552 29.6926 272.327 29.3076 272.427 28.9321Z" fill="#CFA06C"/>
<path fillRule="evenodd" clipRule="evenodd" d="M271.035 16.9172C271.134 16.5409 271.519 16.3177 271.895 16.4171C272.27 16.5165 272.494 16.9015 272.395 17.277C272.295 17.6533 271.91 17.8766 271.534 17.7772C271.158 17.6778 270.934 17.292 271.035 16.9172Z" fill="#CFA06C"/>
<path fillRule="evenodd" clipRule="evenodd" d="M278.012 11.3833C278.111 11.0078 278.496 10.7837 278.873 10.8831C279.248 10.9825 279.471 11.3675 279.372 11.743C279.273 12.1193 278.888 12.3434 278.512 12.244C278.137 12.1438 277.912 11.7588 278.012 11.3833Z" fill="#CFA06C"/>
<path fillRule="evenodd" clipRule="evenodd" d="M271.202 8.43598C271.302 8.05967 271.687 7.8364 272.063 7.9358C272.439 8.036 272.663 8.4202 272.563 8.79651C272.464 9.17282 272.079 9.39609 271.702 9.29668C271.327 9.19728 271.103 8.8115 271.202 8.43598Z" fill="#CFA06C"/>
<path fillRule="evenodd" clipRule="evenodd" d="M273.671 22.6584C273.735 22.4169 273.983 22.2734 274.224 22.3373C274.466 22.4012 274.609 22.6497 274.546 22.8903C274.482 23.1317 274.234 23.2753 273.992 23.2114C273.752 23.1475 273.607 22.9006 273.671 22.6584Z" fill="#CFA06C"/>
<path fillRule="evenodd" clipRule="evenodd" d="M266.477 29.7989C266.541 29.5575 266.789 29.4139 267.03 29.4778C267.272 29.5417 267.415 29.7902 267.351 30.0309C267.287 30.273 267.039 30.4159 266.798 30.3519C266.557 30.288 266.414 30.0411 266.477 29.7989Z" fill="#CFA06C"/>
<path fillRule="evenodd" clipRule="evenodd" d="M270.329 12.5216C270.393 12.2794 270.641 12.1366 270.882 12.2005C271.123 12.2644 271.267 12.5129 271.203 12.7543C271.139 12.995 270.89 13.1386 270.65 13.0747C270.409 13.0108 270.265 12.7623 270.329 12.5216Z" fill="#CFA06C"/>
<path fillRule="evenodd" clipRule="evenodd" d="M212.064 250.528C207.369 237.468 242.501 218.323 249.271 237.15C256.041 255.978 216.76 263.588 212.064 250.528Z" fill="#72C134"/>
<path fillRule="evenodd" clipRule="evenodd" d="M218.837 236.482C219.612 235.858 220.431 235.26 221.284 234.692L234.402 229.976L241.789 250.518L225.933 256.219L224.014 250.881C226.685 248.802 228.075 246.632 227.481 244.981C226.887 243.329 224.433 242.541 221.05 242.639L218.837 236.482Z" fill="#5EA626"/>
<path fillRule="evenodd" clipRule="evenodd" d="M211.76 242.546C218.757 229.524 247.042 217.925 253.418 235.66C259.834 253.503 230.245 262.574 216.665 256.776L218.403 255.189L236.202 241.472L211.76 242.546Z" fill="#F3E6C6"/>
<path fillRule="evenodd" clipRule="evenodd" d="M211.76 242.546C212.466 241.234 213.39 239.936 214.483 238.681C223.776 242.347 251.863 241.133 244.892 229.229C244.298 228.216 243.391 227.421 242.382 226.782C247.317 227.457 251.431 230.134 253.418 235.66C255.407 241.191 253.933 245.879 250.551 249.542C250.927 248.401 251.123 247.204 250.934 246.038C248.728 232.414 226.282 249.385 221.464 258.125C219.725 257.837 218.104 257.391 216.664 256.777L216.786 256.666L235.572 242.321L253.333 235.685L235.889 241.714L236.201 241.473L211.76 242.546Z" fill="#E6D5AA"/>
<path fillRule="evenodd" clipRule="evenodd" d="M236.621 240.767L253.316 234.764C253.772 234.601 254.278 234.839 254.441 235.294C254.605 235.75 254.367 236.255 253.911 236.419L237.141 242.448C237.116 242.472 237.089 242.495 237.06 242.516L216.674 257.832C216.287 258.123 215.734 258.044 215.442 257.658C215.152 257.271 215.231 256.717 215.617 256.426L233.986 242.626L211.035 243.683C210.553 243.705 210.138 243.328 210.117 242.845C210.095 242.362 210.471 241.949 210.954 241.927L236.426 240.754C236.494 240.751 236.558 240.756 236.621 240.767Z" fill="#FFEBDE"/>
<path fillRule="evenodd" clipRule="evenodd" d="M138.733 228.819C144.554 216.156 204.089 227.816 192.306 253.447C180.522 279.079 132.912 241.482 138.733 228.819Z" fill="#AB4929"/>
<path fillRule="evenodd" clipRule="evenodd" d="M138.733 228.819C141.741 222.276 159.089 222.227 173.529 227.243C182.033 232.369 187.124 239.818 182.856 249.102C178.588 258.387 169.619 259.372 160.192 256.254C146.983 248.56 135.725 235.361 138.733 228.819Z" fill="#C55A36"/>
<path fillRule="evenodd" clipRule="evenodd" d="M158.882 223.983C177.21 225.897 200.015 236.682 192.307 253.447C191.316 255.602 190.067 257.302 188.623 258.614C197.098 245.4 176.693 254.847 177.08 244.328C177.581 230.688 167.62 242.926 165.465 235.565C162.223 224.492 165.979 227.378 158.882 223.983ZM176.288 262.072C172.966 260.072 171.055 257.173 165.23 254.495C157.103 250.758 155.804 234.791 150.177 236.994C143.72 239.522 141.597 238.617 139.58 236.246C144.525 246.651 162.223 260.651 176.288 262.072Z" fill="#DEC088"/>
<path fillRule="evenodd" clipRule="evenodd" d="M158.882 223.983C163.67 224.482 168.763 225.59 173.537 227.248C182.036 232.374 187.125 239.822 182.858 249.104C182.728 249.386 182.589 249.652 182.45 249.919C179.508 249.32 176.941 248.125 177.08 244.329C177.581 230.69 167.62 242.927 165.465 235.566C162.223 224.493 165.979 227.379 158.882 223.983ZM170.733 257.782C169.304 256.7 167.587 255.58 165.23 254.496C157.103 250.76 155.804 234.792 150.177 236.995C143.72 239.523 141.597 238.618 139.58 236.248C142.718 242.848 150.99 250.896 160.211 256.261C163.87 257.469 167.461 258.059 170.733 257.782Z" fill="#F7D9A3"/>
<path fillRule="evenodd" clipRule="evenodd" d="M48.5431 101.5C59.4963 110.117 34.2614 165.285 12.0897 147.843C-10.0835 130.402 37.589 92.8838 48.5431 101.5Z" fill="#AB4929"/>
<path fillRule="evenodd" clipRule="evenodd" d="M48.542 101.499C54.2017 105.952 50.1987 122.831 41.9507 135.702C34.9806 142.774 26.5495 145.986 18.5176 139.669C10.4864 133.351 11.6217 124.4 16.8537 115.961C27.4204 104.913 42.8824 97.0467 48.542 101.499Z" fill="#C55A36"/>
<path fillRule="evenodd" clipRule="evenodd" d="M48.5432 122.221C42.4039 139.596 26.5933 159.251 12.0907 147.844C10.2257 146.378 8.86479 144.767 7.92599 143.056C18.7964 154.382 14.3738 132.335 24.5113 135.167C37.657 138.837 28.0827 126.295 35.7447 125.918C47.2675 125.35 43.5849 128.329 48.5432 122.221ZM7.44238 130.255C10.1626 127.491 13.4279 126.309 17.3914 121.27C22.9217 114.239 38.7512 116.704 37.9221 110.717C36.9714 103.85 38.3481 101.996 41.1235 100.588C29.8531 102.969 12.108 116.91 7.44238 130.255Z" fill="#DEC088"/>
<path fillRule="evenodd" clipRule="evenodd" d="M48.5432 122.22C46.9393 126.758 44.6744 131.452 41.9471 135.708C34.9786 142.776 26.5491 145.984 18.5203 139.669C18.2757 139.477 18.0501 139.279 17.8229 139.082C19.0915 136.362 20.8531 134.144 24.5113 135.166C37.657 138.837 28.0827 126.295 35.7447 125.918C47.2675 125.349 43.5849 128.328 48.5432 122.22ZM12.9111 125.853C14.2965 124.718 15.7867 123.309 17.3914 121.269C22.9217 114.238 38.7512 116.704 37.9221 110.717C36.9714 103.849 38.3481 101.995 41.1235 100.588C33.9728 102.098 24.2155 108.263 16.847 115.976C14.8179 119.254 13.4058 122.607 12.9111 125.853Z" fill="#F7D9A3"/>
<path fillRule="evenodd" clipRule="evenodd" d="M7.89825 209.017C7.73495 184.943 32.9005 196.797 37.3823 192.302C38.5341 191.147 51.9867 173.603 64.4681 185.693C69.4785 190.547 80.2046 220.743 43.3189 213.443C39.5013 212.688 21.2301 231.655 10.0851 215.732C8.41578 213.346 8.28719 211.724 7.89825 209.017Z" fill="#F9BA5D"/>
<path fillRule="evenodd" clipRule="evenodd" d="M9.08203 208.916C9.20668 186.909 33.3656 197.949 37.6565 193.79C38.7578 192.723 51.8688 175.815 63.5336 186.722C68.2158 191.099 79.1857 218.598 42.4192 212.183C38.8146 211.554 21.4317 229.458 11.0732 215.031C9.52146 212.869 9.4189 211.387 9.08203 208.916Z" fill="#E9891B"/>
<path fillRule="evenodd" clipRule="evenodd" d="M64.7705 195.174C69.5868 209.962 47.3789 214.294 43.1006 207.973C39.4519 202.579 33.8104 204.391 42.094 193.775C49.1153 183.392 62.033 186.767 64.7705 195.174Z" fill="#CE602D"/>
<path fillRule="evenodd" clipRule="evenodd" d="M61.7288 193.81C68.0835 195.631 61.6372 210.364 55.8632 207.586C51.7498 205.608 62.483 203.642 60.5643 195.615C60.2543 194.317 60.8318 193.554 61.7288 193.81Z" fill="#E37A49"/>
<path fillRule="evenodd" clipRule="evenodd" d="M50.6513 210.788C47.3245 210.818 44.3936 209.882 43.1006 207.972C39.4519 202.578 33.8104 204.39 42.094 193.775C48.0447 184.974 58.2296 186.058 62.8645 191.711C60.8038 190.531 58.3716 190.075 55.6925 190.947C43.2197 195.009 42.3362 207.039 50.6513 210.788Z" fill="#B23300"/>
<path fillRule="evenodd" clipRule="evenodd" d="M36.7307 204.802C32.9328 184.538 -4.21317 206.983 18.2196 215.899C28.806 220.944 38.1925 212.602 36.7307 204.802Z" fill="#CE602D"/>
<path fillRule="evenodd" clipRule="evenodd" d="M33.7849 201.337C41.1375 209.11 26.0409 219.913 27.8688 212.553C28.4045 210.399 33.2279 212.537 31.5396 203.871C30.8714 200.443 33.5616 201.102 33.7849 201.337Z" fill="#E37A49"/>
<path fillRule="evenodd" clipRule="evenodd" d="M33.2539 198.514C23.4075 190.77 -0.95969 208.277 18.2188 215.9C20.4585 216.968 22.6438 217.435 24.6847 217.436C19.1395 216.219 17.2658 209.371 20.3126 204.568C23.3191 199.829 28.5741 197.695 33.2539 198.514Z" fill="#B23300"/>
<path fillRule="evenodd" clipRule="evenodd" d="M240.855 23.9741C238.801 50.6962 211.982 35.2098 206.593 39.78C205.209 40.9539 188.655 59.1691 175.931 44.5979C170.821 38.7489 161.725 4.25282 201.969 15.7749C206.134 16.9677 228.165 -2.37799 239.052 16.3201C240.684 19.1231 240.674 20.9344 240.855 23.9741Z" fill="#F9BA5D"/>
<path fillRule="evenodd" clipRule="evenodd" d="M239.532 23.9751C237.35 48.3794 211.574 33.8894 206.426 38.1045C205.105 39.1861 188.99 56.7268 177.061 43.5441C172.274 38.2529 162.655 6.7263 202.849 17.2567C206.79 18.2894 227.736 0.039453 237.889 17.0074C239.412 19.5501 239.387 21.2029 239.532 23.9751Z" fill="#E9891B"/>
<path fillRule="evenodd" clipRule="evenodd" d="M176.474 34.0519C172.504 17.1991 197.543 14.4537 201.703 21.8647C205.251 28.1871 211.678 26.7008 201.502 37.7085C192.748 48.5758 178.732 43.6316 176.474 34.0519Z" fill="#CE602D"/>
<path fillRule="evenodd" clipRule="evenodd" d="M179.722 35.8456C172.84 33.2367 181.36 17.4892 187.508 21.1064C191.887 23.6837 179.798 24.8671 181.181 33.9514C181.403 35.4204 180.693 36.2148 179.722 35.8456Z" fill="#E37A49"/>
<path fillRule="evenodd" clipRule="evenodd" d="M193.588 18.0393C197.282 18.3147 200.446 19.6251 201.703 21.8648C205.252 28.1871 211.678 26.7008 201.503 37.7086C194.084 46.9191 182.885 44.7717 178.269 38.0699C180.445 39.5696 183.101 40.3025 186.155 39.583C200.368 36.2333 202.466 22.9693 193.588 18.0393Z" fill="#B23300"/>
<path fillRule="evenodd" clipRule="evenodd" d="M208.476 25.974C210.809 48.8067 254.103 27.3546 230.044 15.3797C218.767 8.79933 207.579 17.1847 208.476 25.974Z" fill="#CE602D"/>
<path fillRule="evenodd" clipRule="evenodd" d="M211.425 30.0923C203.99 20.7855 221.741 10.2022 219.029 18.197C218.235 20.5377 213.083 17.7182 214.152 27.4881C214.574 31.3553 211.651 30.3739 211.425 30.0923Z" fill="#E37A49"/>
<path fillRule="evenodd" clipRule="evenodd" d="M211.749 33.2739C221.954 42.7787 250.612 25.6182 230.042 15.3805C227.656 13.9873 225.276 13.2678 223.011 13.0769C229.05 14.9419 230.493 22.7127 226.667 27.7586C222.893 32.7374 216.865 34.6166 211.749 33.2739Z" fill="#B23300"/>
<path fillRule="evenodd" clipRule="evenodd" d="M317.115 174.575C339.855 179.312 323.562 200.641 326.892 205.782C327.746 207.103 341.562 223.357 327.622 232.674C322.026 236.415 291.365 240.396 305.744 207.087C307.233 203.639 293.054 182.552 310.336 175.274C312.926 174.183 314.482 174.392 317.115 174.575Z" fill="#F9BA5D"/>
<path fillRule="evenodd" clipRule="evenodd" d="M316.971 175.713C337.704 180.301 322.382 200.846 325.434 205.74C326.216 206.995 339.502 222.798 326.843 231.585C321.764 235.111 293.596 239.872 307.117 206.496C308.443 203.223 295.086 183.189 310.799 176.349C313.153 175.324 314.572 175.529 316.971 175.713Z" fill="#E9891B"/>
<path fillRule="evenodd" clipRule="evenodd" d="M318.616 231.034C303.69 232.573 304.115 210.744 310.947 207.993C316.777 205.646 316.213 199.958 324.543 209.928C332.911 218.66 327.103 230.159 318.616 231.034Z" fill="#CE602D"/>
<path fillRule="evenodd" clipRule="evenodd" d="M320.522 228.441C317.513 234.066 304.925 224.992 308.719 220.11C311.421 216.631 311.093 227.155 319.056 226.976C320.343 226.948 320.946 227.647 320.522 228.441Z" fill="#E37A49"/>
<path fillRule="evenodd" clipRule="evenodd" d="M306.758 214.543C307.406 211.398 308.884 208.824 310.948 207.992C316.778 205.645 316.214 199.956 324.544 209.927C331.635 217.328 328.544 226.715 322.27 229.937C323.801 228.233 324.727 226.032 324.448 223.328C323.151 210.738 311.984 207.46 306.758 214.543Z" fill="#B23300"/>
<path fillRule="evenodd" clipRule="evenodd" d="M315.233 202.627C335.118 203.162 321.493 163.563 308.525 182.912C301.614 191.872 307.578 202.422 315.233 202.627Z" fill="#CE602D"/>
<path fillRule="evenodd" clipRule="evenodd" d="M319.101 200.552C310.274 205.909 303.152 189.474 309.723 192.693C311.646 193.637 308.649 197.752 317.166 197.919C320.537 197.986 319.368 200.39 319.101 200.552Z" fill="#E37A49"/>
<path fillRule="evenodd" clipRule="evenodd" d="M321.871 200.627C331.175 192.913 319.612 166.372 308.526 182.913C307.063 184.809 306.179 186.776 305.764 188.701C308.038 183.717 314.878 183.341 318.789 187.19C322.65 190.989 323.595 196.379 321.871 200.627Z" fill="#B23300"/>
<path fillRule="evenodd" clipRule="evenodd" d="M328.687 48.8435C343.212 60.6716 323.631 69.8988 324.108 74.8145C324.229 76.0775 328.091 92.8404 314.654 94.3393C309.26 94.942 285.829 86.4178 308.483 67.902C310.827 65.9857 308.5 45.6271 323.574 46.8278C325.833 47.0077 326.869 47.7342 328.687 48.8435Z" fill="#F9BA5D"/>
<path fillRule="evenodd" clipRule="evenodd" d="M328.159 49.6045C341.302 60.5822 322.71 69.6074 323.079 74.2431C323.174 75.432 326.823 91.6757 314.5 93.2709C309.554 93.9107 287.62 86.8696 309.684 67.9878C311.848 66.137 309.717 46.837 323.505 47.7695C325.571 47.9099 326.51 48.5837 328.159 49.6045Z" fill="#E9891B"/>
<path fillRule="evenodd" clipRule="evenodd" d="M308.815 89.8217C297.557 85.3857 305.959 69.9151 311.871 70.4791C316.916 70.962 318.623 66.6797 320.889 76.9088C323.64 86.2661 315.215 92.3439 308.815 89.8217Z" fill="#CE602D"/>
<path fillRule="evenodd" clipRule="evenodd" d="M311.141 88.6735C306.901 91.5838 301.255 80.4175 305.781 78.3293C309.006 76.8414 304.869 84.2548 310.635 87.0815C311.569 87.5375 311.74 88.2625 311.141 88.6735Z" fill="#E37A49"/>
<path fillRule="evenodd" clipRule="evenodd" d="M306.441 73.6159C308.071 71.6049 310.085 70.3103 311.871 70.4799C316.917 70.9627 318.624 66.6805 320.89 76.9096C323.221 84.8405 317.525 90.4142 311.837 90.3945C313.565 89.7428 315.045 88.509 315.848 86.4696C319.591 76.9743 312.811 70.4831 306.441 73.6159Z" fill="#B23300"/>
<path fillRule="evenodd" clipRule="evenodd" d="M316.932 68.2304C330.971 75.9909 335.908 42.5836 319.445 51.6261C311.172 55.4776 311.528 65.2436 316.932 68.2304Z" fill="#CE602D"/>
<path fillRule="evenodd" clipRule="evenodd" d="M320.472 68.1774C312.165 68.7383 313.162 54.328 316.673 59.0709C317.7 60.4602 314.028 62.2944 320.064 65.574C322.452 66.8725 320.724 68.1608 320.472 68.1774Z" fill="#E37A49"/>
<path fillRule="evenodd" clipRule="evenodd" d="M322.426 69.2578C331.949 67.1869 333.518 43.8935 319.443 51.624C317.692 52.4382 316.331 53.5182 315.318 54.7426C318.796 52.0185 323.832 54.2866 325.205 58.4939C326.558 62.6467 325.236 66.8564 322.426 69.2578Z" fill="#B23300"/>
<path fillRule="evenodd" clipRule="evenodd" d="M14.2623 62.6544C32.9627 63.7471 22.4843 82.6865 25.7481 86.3944C26.5859 87.3467 39.5264 98.6802 29.508 107.759C25.4861 111.405 1.49765 118.203 9.03177 89.9327C9.81201 87.0066 -3.98925 71.8603 8.9371 64.013C10.8747 62.8367 12.1401 62.8201 14.2623 62.6544Z" fill="#F9BA5D"/>
<path fillRule="evenodd" clipRule="evenodd" d="M14.2805 63.5809C31.3613 64.7918 21.5669 82.9913 24.579 86.5343C25.3513 87.4424 37.8154 98.4793 28.7571 106.985C25.121 110.397 3.2144 117.523 10.0559 89.301C10.7272 86.5335 -2.29458 72.1303 9.43183 64.8179C11.1895 63.7221 12.3453 63.7181 14.2805 63.5809Z" fill="#E9891B"/>
<path fillRule="evenodd" clipRule="evenodd" d="M22.1322 107.512C10.4066 110.503 8.16683 93.0405 13.2916 90.0395C17.6646 87.4795 16.5435 83.0079 24.3664 89.9764C32.0725 95.9532 28.7977 105.811 22.1322 107.512Z" fill="#CE602D"/>
<path fillRule="evenodd" clipRule="evenodd" d="M23.345 105.223C21.6102 110.065 10.4967 104.314 12.9455 99.972C14.6898 96.8771 15.6728 105.311 22.003 104.228C23.0263 104.053 23.5895 104.54 23.345 105.223Z" fill="#E37A49"/>
<path fillRule="evenodd" clipRule="evenodd" d="M10.7217 95.7614C10.8668 93.1769 11.7417 90.9482 13.2904 90.041C17.6633 87.481 16.5423 83.0094 24.3652 89.9779C30.8966 95.0443 29.5396 102.898 24.9158 106.209C25.9359 104.669 26.414 102.804 25.872 100.679C23.349 90.7897 14.0533 89.4943 10.7217 95.7614Z" fill="#B23300"/>
<path fillRule="evenodd" clipRule="evenodd" d="M16.0757 85.2573C32.0023 83.334 16.456 53.356 8.39644 70.3224C3.94223 78.2865 9.94508 85.9973 16.0757 85.2573Z" fill="#CE602D"/>
<path fillRule="evenodd" clipRule="evenodd" d="M18.9163 83.1424C12.5079 88.4581 4.88464 76.1897 10.5064 77.9813C12.1521 78.5068 10.2477 82.1429 17.0615 81.2711C19.758 80.9264 19.1103 82.9815 18.9163 83.1424Z" fill="#E37A49"/>
<path fillRule="evenodd" clipRule="evenodd" d="M21.134 82.873C27.6457 75.6206 15.2858 55.8141 8.39621 70.3199C7.45346 72.005 6.9809 73.6775 6.87598 75.2632C8.10195 71.0188 13.5139 69.9112 17.0885 72.5193C20.6165 75.0936 22.0073 79.2811 21.134 82.873Z" fill="#B23300"/>
<path fillRule="evenodd" clipRule="evenodd" d="M298.653 70.7525C300.477 70.8653 302.316 71.1557 304.148 71.6408C319.159 75.6122 328.108 91 324.138 106.011C320.166 121.021 304.778 129.971 289.767 125.999C287.934 125.514 286.192 124.859 284.552 124.053L298.653 70.7525Z" fill="#875625"/>
<path fillRule="evenodd" clipRule="evenodd" d="M318.912 116.392C312.168 124.808 300.865 128.935 289.767 126C287.934 125.515 286.192 124.859 284.552 124.053L296.008 80.7547C297.289 80.9393 298.579 81.1997 299.87 81.5421C314.88 85.5127 324.379 98.8224 321.086 111.27C320.6 113.104 319.862 114.815 318.912 116.392Z" fill="#996633"/>
<path fillRule="evenodd" clipRule="evenodd" d="M283.823 95.3503C287.712 80.6489 294.388 69.6633 298.732 70.8128C303.077 71.9622 303.446 84.8112 299.556 99.5127C295.667 114.214 288.992 125.2 284.647 124.05C280.303 122.901 279.933 110.051 283.823 95.3503Z" fill="#663300"/>
<path fillRule="evenodd" clipRule="evenodd" d="M285.18 95.7097C288.785 82.0828 294.518 71.7804 297.984 72.6971C301.449 73.6138 301.337 85.4034 297.732 99.0303C294.128 112.656 288.395 122.96 284.93 122.043C281.462 121.126 281.576 109.335 285.18 95.7097Z" fill="white"/>
<path fillRule="evenodd" clipRule="evenodd" d="M287.047 96.2057C289.726 86.0808 293.796 78.3755 296.139 78.9964C298.482 79.6157 298.21 88.3261 295.531 98.4502C292.852 108.575 288.781 116.28 286.439 115.66C284.095 115.04 284.367 106.33 287.047 96.2057Z" fill="#CCCCCC"/>
<path fillRule="evenodd" clipRule="evenodd" d="M288.963 89.989C291.416 83.1159 294.305 78.5095 296.138 78.9939C298.339 79.5761 298.231 87.3035 295.987 96.6348C295.163 92.4985 291.929 90.4552 288.963 89.989Z" fill="#B3B3B3"/>
<path fillRule="evenodd" clipRule="evenodd" d="M15.1914 153.979C16.2841 153.313 17.4572 152.745 18.7052 152.291C28.9193 148.571 40.2165 153.836 43.9363 164.05C47.6568 174.265 42.3916 185.561 32.1767 189.281C30.9294 189.735 29.6656 190.055 28.4018 190.248L15.1914 153.979Z" fill="#875625"/>
<path fillRule="evenodd" clipRule="evenodd" d="M45.0839 172.107C44.5742 179.64 39.7287 186.532 32.1765 189.283C30.9292 189.737 29.6654 190.057 28.4015 190.25L17.6699 160.786C18.4801 160.38 19.3251 160.014 20.2031 159.695C30.418 155.974 41.1993 159.824 44.2839 168.295C44.7399 169.543 45.0003 170.821 45.0839 172.107Z" fill="#996633"/>
<path fillRule="evenodd" clipRule="evenodd" d="M16.5049 174.046C12.8617 164.043 12.3047 155.06 15.2616 153.983C18.2184 152.906 23.5688 160.143 27.212 170.147C30.856 180.151 31.4122 189.133 28.4561 190.21C25.4993 191.287 20.1489 184.05 16.5049 174.046Z" fill="#663300"/>
<path fillRule="evenodd" clipRule="evenodd" d="M17.4299 173.71C14.0533 164.438 13.2265 156.224 15.5854 155.365C17.9435 154.507 22.5933 161.327 25.9707 170.6C29.348 179.872 30.174 188.086 27.8151 188.945C25.4571 189.803 20.8072 182.983 17.4299 173.71Z" fill="white"/>
<path fillRule="evenodd" clipRule="evenodd" d="M18.6972 173.246C16.1877 166.358 15.4461 160.302 17.0405 159.72C18.6349 159.14 21.9617 164.254 24.4705 171.144C26.98 178.033 27.7216 184.089 26.1272 184.67C24.5336 185.251 21.2067 180.137 18.6972 173.246Z" fill="#CCCCCC"/>
<path fillRule="evenodd" clipRule="evenodd" d="M17.314 168.909C15.9753 163.979 15.7938 160.176 17.0403 159.722C18.5384 159.176 21.5671 163.66 24.0088 169.92C21.8811 167.873 19.2051 167.992 17.314 168.909Z" fill="#B3B3B3"/>
<path fillRule="evenodd" clipRule="evenodd" d="M267.668 191.983C267.451 167.625 304.354 156.956 312.512 186.391C320.668 215.824 283.54 225.679 271.185 204.679C268.98 202.306 266.598 200.137 265.15 199.595C264.772 199.64 265.158 199.586 264.939 199.525L265.109 199.449C266.072 198.239 266.998 195.153 267.668 191.983Z" fill="#643815"/>
<path fillRule="evenodd" clipRule="evenodd" d="M311.528 197.441C306.454 210.869 283.18 215.753 272.721 206.259C283.762 213.346 304.707 208.852 311.528 197.441ZM308.881 184.388C296.829 175.707 272.144 184.114 267.36 197.833C273.996 185.847 296.262 178.365 308.881 184.388ZM306.076 177.769C294.355 171.497 274.085 178.425 268.267 190.184C272.345 176.661 294.814 168.868 306.076 177.769ZM268.48 198.777C268.62 199.285 277.369 197.303 288.021 194.351C298.673 191.399 307.194 188.595 307.054 188.087C306.913 187.58 298.163 189.562 287.512 192.514C276.86 195.466 268.339 198.27 268.48 198.777ZM310.822 190.017C302.932 201.724 279.611 206.876 267.598 200.059C278.894 209.321 304.806 203.706 310.822 190.017Z" fill="#542E0F"/>
<path fillRule="evenodd" clipRule="evenodd" d="M267.668 191.983C267.664 191.644 267.669 191.309 267.68 190.977C268.348 190.178 268.897 190.097 268.728 193.492C268.726 193.52 273.09 192.241 270.392 198.13C275.736 201.79 271.336 202.94 271.353 202.963C273.206 205.728 272.752 205.99 271.809 205.679C271.595 205.353 271.386 205.02 271.185 204.679C268.98 202.306 266.598 200.137 265.15 199.595C264.772 199.64 265.158 199.585 264.939 199.525L265.109 199.449C266.072 198.239 266.998 195.152 267.668 191.983Z" fill="#C68D46"/>
<path fillRule="evenodd" clipRule="evenodd" d="M302.106 171.468C306.677 174.234 310.483 179.072 312.511 186.391C314.539 193.709 313.767 199.817 311.272 204.541C308.877 200.458 306.561 194.868 304.804 188.528C303.047 182.188 302.155 176.202 302.106 171.468Z" fill="#C68D46"/>
<path fillRule="evenodd" clipRule="evenodd" d="M33.9306 80.1439C33.7476 59.5722 64.9144 50.5612 71.8047 75.4214C78.6935 100.28 47.3358 108.603 36.9016 90.8668C35.039 88.8629 33.0273 87.0303 31.8045 86.5735C31.4857 86.6114 31.8108 86.5656 31.627 86.5144L31.7705 86.4504C32.5839 85.4272 33.3649 82.8214 33.9306 80.1439Z" fill="#643815"/>
<path fillRule="evenodd" clipRule="evenodd" d="M70.9743 84.7528C66.6897 96.0935 47.0323 100.219 38.2004 92.2002C47.5246 98.1849 65.2144 94.3902 70.9743 84.7528ZM68.7393 73.7285C58.5599 66.3964 37.7121 73.4966 33.6729 85.0826C39.2757 74.9608 58.0818 68.6416 68.7393 73.7285ZM66.3694 68.1375C56.4709 62.8407 39.3515 68.6921 34.4373 78.623C37.8817 67.2026 56.859 60.6207 66.3694 68.1375ZM34.6172 85.8818C34.7355 86.3101 42.1253 84.636 51.1213 82.1431C60.1172 79.6501 67.3137 77.2818 67.1962 76.8534C67.077 76.425 59.6873 78.0991 50.6921 80.5921C41.6961 83.0843 34.4988 85.4534 34.6172 85.8818ZM70.3779 78.4833C63.7147 88.37 44.0187 92.7216 33.8724 86.9641C43.4128 94.787 65.298 90.0441 70.3779 78.4833Z" fill="#542E0F"/>
<path fillRule="evenodd" clipRule="evenodd" d="M33.9308 80.1432C33.9284 79.8584 33.9323 79.5744 33.9418 79.2935C34.5051 78.6206 34.9698 78.5512 34.827 81.4173C34.8254 81.4409 38.5104 80.3609 36.2328 85.3342C40.7462 88.426 37.0304 89.3964 37.0438 89.4169C38.609 91.7528 38.2256 91.9729 37.4296 91.7102C37.2489 91.4349 37.073 91.1541 36.9026 90.8661C35.04 88.8623 33.0283 87.0296 31.8054 86.5728C31.4867 86.6107 31.8117 86.5649 31.6279 86.5137L31.7715 86.4498C32.5841 85.4265 33.3651 82.8208 33.9308 80.1432Z" fill="#C68D46"/>
<path fillRule="evenodd" clipRule="evenodd" d="M63.0176 62.8177C66.8777 65.1537 70.0918 69.2395 71.8053 75.4214C73.5172 81.6026 72.8656 86.7605 70.7584 90.75C68.7356 87.3024 66.7791 82.5808 65.2952 77.2256C63.8112 71.8713 63.0586 66.8159 63.0176 62.8177Z" fill="#C68D46"/>
<path fillRule="evenodd" clipRule="evenodd" d="M1.63857 241.423C1.5084 226.789 23.6792 220.38 28.5808 238.064C33.4807 255.747 11.175 261.668 3.75207 249.051C2.4267 247.625 0.995609 246.322 0.126226 245.996C-0.100981 246.024 0.13017 245.991 -4.2976e-07 245.955L0.101769 245.91C0.680043 245.182 1.23623 243.328 1.63857 241.423Z" fill="#643815"/>
<path fillRule="evenodd" clipRule="evenodd" d="M27.991 244.704C24.9426 252.771 10.9591 255.705 4.67621 250.001C11.3094 254.258 23.8934 251.559 27.991 244.704ZM26.4005 236.862C19.1591 231.646 4.32909 236.697 1.45508 244.939C5.44146 237.738 18.8191 233.243 26.4005 236.862ZM24.7154 232.884C17.6736 229.116 5.4951 233.279 2.00022 240.343C4.44979 232.219 17.9489 227.537 24.7154 232.884ZM2.12802 245.506C2.21244 245.811 7.46897 244.62 13.8678 242.846C20.2675 241.073 25.3868 239.388 25.3024 239.083C25.2179 238.779 19.9614 239.969 13.5617 241.743C7.16287 243.517 2.04282 245.201 2.12802 245.506ZM27.5665 240.243C22.8267 247.277 8.81485 250.372 1.59787 246.276C8.38411 251.841 23.9525 248.467 27.5665 240.243Z" fill="#542E0F"/>
<path fillRule="evenodd" clipRule="evenodd" d="M1.63857 241.424C1.637 241.221 1.64015 241.02 1.64646 240.82C2.04723 240.341 2.37779 240.292 2.27602 242.331C2.27523 242.348 4.89679 241.579 3.27636 245.118C6.48645 247.317 3.84359 248.008 3.85305 248.022C4.967 249.683 4.69404 249.84 4.1276 249.653C3.999 249.458 3.87357 249.258 3.75286 249.052C2.42749 247.626 0.996398 246.323 0.127015 245.997C-0.100981 246.025 0.130171 245.992 -1.64289e-07 245.956L0.10177 245.911C0.680043 245.183 1.23623 243.329 1.63857 241.424Z" fill="#C68D46"/>
<path fillRule="evenodd" clipRule="evenodd" d="M22.3301 229.098C25.0755 230.761 27.3626 233.667 28.5814 238.064C29.7995 242.461 29.3356 246.13 27.8367 248.969C26.3977 246.516 25.0061 243.157 23.9505 239.348C22.8949 235.538 22.3585 231.942 22.3301 229.098Z" fill="#C68D46"/>
<path fillRule="evenodd" clipRule="evenodd" d="M126.705 264.794C126.575 250.161 148.746 243.751 153.647 261.435C158.548 279.119 136.241 285.039 128.818 272.422C127.494 270.997 126.062 269.694 125.193 269.368C124.965 269.395 125.197 269.362 125.066 269.326L125.168 269.28C125.747 268.554 126.303 266.699 126.705 264.794Z" fill="#643815"/>
<path fillRule="evenodd" clipRule="evenodd" d="M153.057 268.075C150.009 276.142 136.026 279.076 129.743 273.372C136.376 277.629 148.959 274.93 153.057 268.075ZM151.467 260.232C144.226 255.017 129.395 260.067 126.521 268.309C130.508 261.109 143.885 256.613 151.467 260.232ZM149.781 256.255C142.739 252.487 130.561 256.65 127.065 263.714C129.516 255.589 143.015 250.908 149.781 256.255ZM127.194 268.877C127.279 269.182 132.535 267.991 138.934 266.218C145.334 264.443 150.453 262.759 150.369 262.454C150.284 262.15 145.028 263.34 138.628 265.114C132.229 266.887 127.109 268.572 127.194 268.877ZM152.633 263.614C147.893 270.647 133.881 273.743 126.664 269.647C133.451 275.212 149.019 271.839 152.633 263.614Z" fill="#542E0F"/>
<path fillRule="evenodd" clipRule="evenodd" d="M126.705 264.795C126.704 264.592 126.706 264.391 126.713 264.191C127.114 263.712 127.444 263.662 127.343 265.702C127.342 265.719 129.963 264.951 128.343 268.489C131.553 270.688 128.91 271.379 128.92 271.393C130.034 273.054 129.761 273.211 129.194 273.024C129.066 272.829 128.94 272.629 128.819 272.423C127.495 270.998 126.063 269.694 125.194 269.368C124.966 269.395 125.198 269.363 125.067 269.327L125.169 269.281C125.747 268.554 126.304 266.7 126.705 264.795Z" fill="#C68D46"/>
<path fillRule="evenodd" clipRule="evenodd" d="M147.396 252.47C150.142 254.132 152.429 257.038 153.648 261.435C154.866 265.832 154.402 269.502 152.903 272.34C151.464 269.887 150.072 266.528 149.017 262.719C147.961 258.91 147.425 255.314 147.396 252.47Z" fill="#C68D46"/>
<path fillRule="evenodd" clipRule="evenodd" d="M136.206 19.1679C136.048 1.40705 162.955 -6.37085 168.903 15.0908C174.851 36.5508 147.779 43.737 138.77 28.425C137.163 26.6949 135.425 25.1131 134.37 24.7179C134.095 24.7502 134.375 24.7116 134.217 24.6674L134.34 24.6122C135.043 23.7294 135.718 21.4794 136.206 19.1679Z" fill="#643815"/>
<path fillRule="evenodd" clipRule="evenodd" d="M168.185 23.1468C164.487 32.938 147.516 36.4992 139.891 29.5764C147.941 34.743 163.213 31.4675 168.185 23.1468ZM166.256 13.6301C157.468 7.30069 139.469 13.4298 135.982 23.4332C140.82 14.6936 157.055 9.23748 166.256 13.6301ZM164.21 8.80356C155.663 4.23023 140.884 9.28165 136.642 17.8564C139.616 7.99493 155.999 2.31317 164.21 8.80356ZM136.797 24.1219C136.9 24.4919 143.279 23.0474 151.046 20.8937C158.813 18.7407 165.025 16.6966 164.923 16.3274C164.82 15.9574 158.441 17.4027 150.674 19.5549C142.908 21.707 136.695 23.7519 136.797 24.1219ZM167.671 17.7341C161.918 26.2701 144.914 30.0269 136.154 25.056C144.391 31.8099 163.285 27.7146 167.671 17.7341Z" fill="#542E0F"/>
<path fillRule="evenodd" clipRule="evenodd" d="M136.206 19.1679C136.203 18.9225 136.207 18.6772 136.215 18.4342C136.702 17.8527 137.103 17.792 136.98 20.2676C136.978 20.2881 140.16 19.3556 138.194 23.6489C142.09 26.3186 138.882 27.1564 138.894 27.1738C140.245 29.1902 139.915 29.3803 139.226 29.1539C139.07 28.9165 138.918 28.6743 138.771 28.425C137.164 26.6949 135.426 25.1131 134.371 24.7179C134.095 24.7502 134.376 24.7116 134.218 24.6674L134.341 24.6121C135.043 23.7294 135.718 21.4794 136.206 19.1679Z" fill="#C68D46"/>
<path fillRule="evenodd" clipRule="evenodd" d="M161.316 4.21028C164.65 6.22753 167.424 9.75397 168.903 15.091C170.382 20.4272 169.819 24.8806 167.999 28.3242C166.253 25.3476 164.564 21.2713 163.282 16.6483C162.002 12.026 161.352 7.66177 161.316 4.21028Z" fill="#C68D46"/>
<path fillRule="evenodd" clipRule="evenodd" d="M301.458 18.6345C301.3 0.874443 328.207 -6.90425 334.155 14.5574C340.103 36.0182 313.031 43.2036 304.023 27.8916C302.415 26.1615 300.678 24.5797 299.622 24.1853C299.347 24.2176 299.628 24.1782 299.47 24.1348L299.593 24.0788C300.296 23.196 300.97 20.946 301.458 18.6345Z" fill="#643815"/>
<path fillRule="evenodd" clipRule="evenodd" d="M333.438 22.6144C329.739 32.4048 312.768 35.9659 305.143 29.0432C313.194 34.2098 328.465 30.9335 333.438 22.6144ZM331.509 13.0961C322.72 6.76666 304.722 12.8965 301.234 22.8991C306.072 14.1604 322.308 8.70502 331.509 13.0961ZM329.463 8.26953C320.916 3.69699 306.137 8.74841 301.895 17.3223C304.868 7.46169 321.251 1.77993 329.463 8.26953ZM302.05 23.5879C302.153 23.9579 308.532 22.5134 316.299 20.3604C324.066 18.2083 330.279 16.1634 330.176 15.7934C330.074 15.4234 323.694 16.8687 315.929 19.0209C308.161 21.173 301.948 23.2179 302.05 23.5879ZM332.923 17.2008C327.171 25.7361 310.166 29.4929 301.407 24.5227C309.643 31.2758 328.537 27.1814 332.923 17.2008Z" fill="#542E0F"/>
<path fillRule="evenodd" clipRule="evenodd" d="M301.458 18.6359C301.456 18.3898 301.46 18.146 301.467 17.9022C301.953 17.3208 302.355 17.2608 302.232 19.7356C302.23 19.7562 305.411 18.8244 303.445 23.1177C307.342 25.7866 304.133 26.6244 304.146 26.6418C305.497 28.6583 305.166 28.8492 304.478 28.6227C304.323 28.3845 304.17 28.1431 304.024 27.893C302.416 26.1629 300.679 24.5812 299.623 24.1867C299.348 24.219 299.628 24.1796 299.471 24.1362L299.594 24.0802C300.296 23.1974 300.97 20.9474 301.458 18.6359Z" fill="#C68D46"/>
<path fillRule="evenodd" clipRule="evenodd" d="M326.568 3.67707C329.901 5.69432 332.675 9.22076 334.155 14.5578C335.633 19.8948 335.07 24.3474 333.25 27.791C331.504 24.8144 329.816 20.7389 328.534 16.1151C327.253 11.4928 326.603 7.12857 326.568 3.67707Z" fill="#C68D46"/>
<path fillRule="evenodd" clipRule="evenodd" d="M107.077 33.7161C112.463 20.0371 153.809 29.3424 146.044 49.0605C138.28 68.7778 101.691 47.3943 107.077 33.7161Z" fill="#72C134"/>
<path fillRule="evenodd" clipRule="evenodd" d="M122.284 27.2619C123.337 27.3076 124.407 27.4023 125.482 27.5474L139.221 32.957L130.75 54.4707L114.145 47.9322L116.346 42.342C119.925 42.5534 122.547 41.7976 123.229 40.0667C123.91 38.3366 122.508 35.9959 119.746 33.7089L122.284 27.2619Z" fill="#5EA626"/>
<path fillRule="evenodd" clipRule="evenodd" d="M112.411 27.1462C127.08 21.6688 157.701 32.1945 150.387 50.7686C143.028 69.4564 113.134 56.0047 106.374 41.902L108.867 41.8523L132.62 43.367L112.411 27.1462Z" fill="#F3E6C6"/>
<path fillRule="evenodd" clipRule="evenodd" d="M112.41 27.1447C113.888 26.5932 115.532 26.2067 117.279 25.9708C122.117 35.381 145.324 54.0388 148.091 39.6916C148.326 38.4704 148.16 37.2041 147.803 35.9908C151.26 39.9756 152.665 44.9813 150.386 50.7687C148.105 56.5617 143.657 59.2638 138.405 59.8184C139.502 59.1722 140.495 58.3573 141.16 57.2962C148.922 44.9095 119.195 42.7376 109.254 46.3295C108.07 44.8866 107.091 43.3979 106.374 41.9029L106.549 41.8998L131.527 43.6046L150.302 50.7301L132.202 43.3419L132.62 43.3679L112.41 27.1447Z" fill="#E6D5AA"/>
<path fillRule="evenodd" clipRule="evenodd" d="M133.449 43.0982L150.935 49.9839C151.411 50.1724 151.647 50.7152 151.46 51.1917C151.272 51.6682 150.729 51.9041 150.252 51.7171L132.688 44.8007C132.651 44.8023 132.614 44.8015 132.577 44.7991L105.646 42.7487C105.136 42.7101 104.749 42.2604 104.788 41.75C104.826 41.2388 105.277 40.853 105.787 40.8916L130.052 42.7385L111.042 27.5448C110.642 27.2261 110.577 26.6368 110.896 26.2368C111.216 25.836 111.804 25.7705 112.205 26.09L133.303 42.9531C133.358 42.9973 133.407 43.0462 133.449 43.0982Z" fill="#FFEBDE"/>
<path fillRule="evenodd" clipRule="evenodd" d="M263.576 74.6379C259.563 63.4787 289.582 47.1214 295.367 63.2081C301.15 79.294 267.588 85.7971 263.576 74.6379Z" fill="#72C134"/>
<path fillRule="evenodd" clipRule="evenodd" d="M269.36 62.6323C270.023 62.099 270.723 61.5878 271.451 61.1026L282.66 57.0736L288.971 74.6254L275.424 79.4961L273.784 74.9362C276.067 73.1595 277.255 71.3048 276.747 69.8934C276.24 68.4821 274.143 67.8091 271.251 67.8928L269.36 62.6323Z" fill="#5EA626"/>
<path fillRule="evenodd" clipRule="evenodd" d="M263.313 67.8167C269.293 56.6898 293.459 46.7795 298.908 61.9329C304.389 77.1787 279.107 84.9282 267.504 79.9754L268.989 78.6184L284.197 66.8991L263.313 67.8167Z" fill="#F3E6C6"/>
<path fillRule="evenodd" clipRule="evenodd" d="M263.313 67.8184C263.916 66.6973 264.707 65.5881 265.641 64.5152C273.58 67.6472 297.578 66.6105 291.623 56.4399C291.115 55.5736 290.34 54.8952 289.479 54.3492C293.695 54.9259 297.21 57.213 298.908 61.9346C300.607 66.6602 299.349 70.6656 296.459 73.796C296.779 72.8209 296.948 71.7976 296.786 70.8012C294.902 59.1608 275.722 73.661 271.606 81.1289C270.12 80.8836 268.734 80.5025 267.505 79.9771L267.609 79.8816L283.661 67.6259L298.836 61.9552L283.93 67.106L284.198 66.9001L263.313 67.8184Z" fill="#E6D5AA"/>
<path fillRule="evenodd" clipRule="evenodd" d="M284.556 66.2969L298.821 61.1673C299.209 61.0277 299.642 61.2312 299.782 61.6194C299.922 62.0083 299.718 62.4414 299.329 62.5811L285 67.7327C284.979 67.7532 284.956 67.7729 284.932 67.7903L267.513 80.8776C267.183 81.1253 266.71 81.059 266.462 80.7285C266.214 80.3987 266.281 79.9253 266.611 79.6768L282.307 67.8857L262.697 68.789C262.284 68.8072 261.931 68.4853 261.912 68.0735C261.894 67.6617 262.216 67.3075 262.628 67.2885L284.392 66.2866C284.447 66.2827 284.502 66.2866 284.556 66.2969Z" fill="#FFEBDE"/>
<path fillRule="evenodd" clipRule="evenodd" d="M4.90852 46.237C10.4743 35.7666 42.7622 46.9983 34.7397 62.0934C26.7165 77.1877 -0.657269 56.7083 4.90852 46.237Z" fill="#72C134"/>
<path fillRule="evenodd" clipRule="evenodd" d="M17.685 42.4521C18.5244 42.5847 19.3741 42.759 20.2222 42.972L30.74 48.5631L21.9862 65.0332L9.27441 58.277L11.5489 53.9971C14.3976 54.4933 16.5695 54.1265 17.2732 52.8019C17.9769 51.4773 17.0665 49.4727 15.0619 47.3892L17.685 42.4521Z" fill="#5EA626"/>
<path fillRule="evenodd" clipRule="evenodd" d="M9.78255 41.457C22.0391 38.4063 45.6213 49.6381 38.0627 63.8582C30.4592 78.1636 7.72743 64.6535 3.59668 52.7322L5.59894 52.9207L24.4989 56.3028L9.78255 41.457Z" fill="#F3E6C6"/>
<path fillRule="evenodd" clipRule="evenodd" d="M9.78255 41.4568C11.018 41.1491 12.3702 40.989 13.7926 40.9606C16.811 48.9436 33.7079 66.0164 37.2352 54.7697C37.5357 53.812 37.5176 52.7816 37.3425 51.7773C39.7494 55.2864 40.4184 59.4259 38.0635 63.858C35.707 68.2925 31.895 70.0526 27.6349 70.0171C28.5721 69.5989 29.4431 69.0364 30.0718 68.2467C37.4245 59.0275 13.7965 54.5733 5.50033 56.544C4.6838 55.2786 4.03453 53.9966 3.59668 52.7327L3.73711 52.7469L23.6004 56.3941L37.9981 63.8193L24.166 56.2442L24.4989 56.3033L9.78255 41.4568Z" fill="#E6D5AA"/>
<path fillRule="evenodd" clipRule="evenodd" d="M25.1874 56.1661L38.5737 63.2814C38.9382 63.4754 39.0786 63.9322 38.8845 64.2967C38.6905 64.662 38.2329 64.8016 37.8684 64.6083L24.4222 57.4608C24.3922 57.4584 24.363 57.4544 24.3338 57.4489L2.93611 53.3474C2.52982 53.2693 2.26159 52.874 2.3397 52.4685C2.4178 52.063 2.81304 51.7948 3.21855 51.8721L22.4988 55.5682L8.64943 41.6541C8.35832 41.3614 8.35911 40.8833 8.65179 40.5922C8.94448 40.3011 9.42256 40.3019 9.71446 40.5946L25.0841 56.0352C25.1243 56.0762 25.159 56.1196 25.1874 56.1661Z" fill="#FFEBDE"/>
</svg>
